<svg id="Layer_1" data-name="Layer 1" xmlns="http://www.w3.org/2000/svg" viewBox="0 0 205 85"><defs><style>.cls-1{fill:#023044;}</style></defs><title>prisma-logo</title><path class="cls-1" d="M73.56,30.88h-4l-1,1.2c-.2.2-.1.31.1.41l1.31.6,3.72-1.71A.26.26,0,0,0,73.56,30.88Z"/><path class="cls-1" d="M58.57,50.6H53.64a17.39,17.39,0,0,1-3.43,1.71.19.19,0,0,0-.1.3L54.54,65h2.52L53,53.62c2.62,0,9-.7,12.38-6.24A8.42,8.42,0,0,1,58.57,50.6Z"/><path class="cls-1" d="M65.61,32.79a.93.93,0,1,1,0-1.31,1.93,1.93,0,0,0-2.81,0,2,2,0,0,0,0,2.82,1.94,1.94,0,0,0,2.81,0,2,2,0,0,0,0-2.82A1,1,0,0,1,65.61,32.79Z"/><path class="cls-1" d="M55.85,55.33,59.27,65h2.52L58.17,54.83C57.56,55,56.76,55.13,55.85,55.33Z"/><path class="cls-1" d="M59.27,43.25a14.77,14.77,0,0,0,.81-1.3c-.1-.1-.2,0-.3.1-5.14,5.43-10.07,6.14-13.89,6.14H40.05c-.2,0-.3-.2-.2-.41A82.18,82.18,0,0,1,53,33.49l-9.76,8.15a4.62,4.62,0,0,1-2.92,1H28.07c-.3,0-.2.3-.2.5a7.21,7.21,0,0,0,7.25,5L32.2,51.11a.24.24,0,0,0,.2.4h11C51.22,51.51,56.15,48.09,59.27,43.25Z"/><path class="cls-1" d="M168.78,65h8.95V37.32h-8.95V47.48h-8.46V37.32h-9V65h9V54.53h8.46ZM62.8,34.3a2,2,0,0,1,2.81-2.82,2,2,0,0,1,0,2.82A1.94,1.94,0,0,1,62.8,34.3Zm2.51,13.08c3.42-5.53,4.63-14.29,4.63-14.29l-1.31-.6c-.2-.1-.2-.21-.1-.41l1-1.2a7,7,0,0,0-6-3.23,9.09,9.09,0,0,0-5.13,1.51A63,63,0,0,0,53,33.39,86,86,0,0,0,39.85,47.68c-.1.2,0,.41.2.41h5.84c3.82,0,8.75-.71,13.89-6.14a.22.22,0,0,1,.4.2,18.34,18.34,0,0,1-6.54,8.35h4.93c3.32,0,5.73-1.51,6.74-3.12Zm-5,6.64L64.1,64.89H75c-2.21-6.74-4.63-13-6.94-18.72C66.22,50.1,64.51,52,60.28,54Zm-33,11h11L42,53.42H31.29C30,56.84,28.68,60.67,27.27,65ZM42.06,40.13l5.54-4.52c1.21-3.22,2.41-6.45,3.62-9.16.6,1.41,1.21,2.92,1.81,4.43,3-2.52,4.93-4,7.45-4.73-1.51-3.33-2.62-5.74-3.12-6.75H45.08c-1,2.22-4.93,10.37-9.56,21.34H40A2.77,2.77,0,0,0,42.06,40.13ZM109.9,61.87l.6,3h7.25V37.32h-9V56.54a5.56,5.56,0,0,1-3.72,1.91c-2.52,0-3.83-1.41-3.83-4V37.32h-9V56.54a6.06,6.06,0,0,1-4,1.91c-2.32,0-3.62-1.41-3.62-4V37.32h-9V55.63c0,6.65,2.92,10,9,10a11.44,11.44,0,0,0,9-3.73c1.41,2.52,3.93,3.73,7.65,3.73C105.57,65.5,108,64,109.9,61.87Zm28.48-5.43a5.47,5.47,0,0,1-4.33,1.91c-2.41,0-3.72-2.21-3.72-6.54,0-5.33,1.41-8,4.33-8a13.22,13.22,0,0,1,3.72.4V56.44Zm-7.45,9.06h.3c4,0,6.75-1.41,8.26-3.63l.5,3h7.35V38.42a39,39,0,0,0-12.58-1.71c-9,0-13.79,5.44-13.79,15.5,0,9.26,3.42,13.29,10,13.29Z"/></svg>