<svg id="Layer_1" data-name="Layer 1" xmlns="http://www.w3.org/2000/svg" viewBox="0 0 205 85"><defs><style>.cls-1{fill:#023044;}</style></defs><title>prisma-logo</title><path class="cls-1" d="M102.45,10.68h0Z"/><path class="cls-1" d="M74,48.92a3.18,3.18,0,0,0-3.21.86,6,6,0,0,0-1.71,4.33,2.74,2.74,0,0,0,3.16,3,3.09,3.09,0,0,0,2-.94,5.77,5.77,0,0,0,1.72-4c0-.27,0-.51,0-.75A2.51,2.51,0,0,0,74,48.92Z"/><path class="cls-1" d="M125.77,49.11a3.37,3.37,0,0,0-3.78.74,6,6,0,0,0-1.65,3.72c0,2,.8,3.22,2.16,3.45a3.26,3.26,0,0,0,3-.89,5.62,5.62,0,0,0,1.7-4.74A2.54,2.54,0,0,0,125.77,49.11Z"/><path class="cls-1" d="M148.79,23c-11.22-6-32.39-12.31-46.29-12.32S67.43,17,56.21,23,39.87,34,39.87,39.25V74.32H165.13V39.25C165.13,34,160,29,148.79,23ZM92.32,28.66c1.9-4.73,8.56-6.49,12.73-3.52a7.06,7.06,0,0,1,2.48,7.46,7.65,7.65,0,0,1-.77,2.06,5.06,5.06,0,0,1-9.23-.82,4.27,4.27,0,0,1,.33-3.44A3,3,0,0,1,101.7,29a1.92,1.92,0,0,1,.88.63c.17.23.41.52.25.77s-.43,0-.65-.06a1.43,1.43,0,0,0-1.58.69,1.84,1.84,0,1,0,3,2.2,3.37,3.37,0,0,0-.8-5.08,6,6,0,0,0-7.9,1.27,11.2,11.2,0,0,0-2.21,4.67,38.62,38.62,0,0,0-.73,4.41,2.55,2.55,0,0,1-.31,1,2.86,2.86,0,0,1-.37-1.37A19,19,0,0,1,92.32,28.66ZM64.14,56.83c-1.52,5.33-7.28,5.67-10.4,3.57a4.74,4.74,0,0,1-2.28-3.85,2.66,2.66,0,0,1,.4-1.7c.39-.58.69-.61,1.15-.1a5.51,5.51,0,0,0,4.67,1.86,2.93,2.93,0,0,0,3-2.71,5.59,5.59,0,0,0-.44-3.64,2.68,2.68,0,0,0-3.65-1.38,9,9,0,0,0-4.94,4.94c-.14.3-.15.85-.65.76s-.32-.61-.36-.95A24.89,24.89,0,0,1,52.07,41a20.52,20.52,0,0,1,7.59-9.72,17.74,17.74,0,0,1,13-2.72,8.37,8.37,0,0,1,3.66,1.64,5.43,5.43,0,0,1,2.21,4.07A10.54,10.54,0,0,1,78.41,37c0,.2,0,.44-.25.52s-.39-.15-.53-.31a15.57,15.57,0,0,0-2-1.94,10.06,10.06,0,0,0-8.37-1.85,17.24,17.24,0,0,0-12.45,8.95A15.33,15.33,0,0,0,53.25,48c.24-.21.48-.42.73-.62a8,8,0,0,1,5.39-2,4.72,4.72,0,0,1,4.77,3.34A12.92,12.92,0,0,1,64.14,56.83Zm19.12,2a4.72,4.72,0,0,1-1.88,2A3.24,3.24,0,0,1,77,59.73,5.81,5.81,0,0,1,76.32,58c-.16.3-.22.42-.29.54a4.82,4.82,0,0,1-4.52,2.83,5.17,5.17,0,0,1-4.88-2.83,7.82,7.82,0,0,1-.35-6.37,7.88,7.88,0,0,1,5.89-5.67c2.14-.49,4-.08,5.12,2,.19.33.32.36.52,0q.47-.84,1-1.62a.87.87,0,0,1,.85-.49c.6.07.79.33.62.9a36,36,0,0,0-1.2,5.13,8.67,8.67,0,0,0,.09,3.29A2.71,2.71,0,0,0,81.88,58c.31,0,.62,0,.92,0C83.52,58.1,83.59,58.19,83.26,58.86Zm10.9-1.28c-.28.43-.49.77-.72,1.1a6,6,0,0,1-6.78,2.26,3.45,3.45,0,0,1-2.5-3.35,25.81,25.81,0,0,1,.67-5.46c.13-.76.24-1.53.4-2.29.12-.52-.06-.78-.56-.88a3.58,3.58,0,0,1-.35-.09,1.41,1.41,0,0,1-.93-2,.81.81,0,0,1,.63-.43,7.26,7.26,0,0,1,3.28.06c.69.16,1,.6.88,1.46s-.25,1.86-.38,2.79-.26,1.9-.38,2.85a5.57,5.57,0,0,0,0,1.47,2.09,2.09,0,0,0,3.37,1.63,4.1,4.1,0,0,0,1.72-2.16,20.64,20.64,0,0,0,1-4.54L94,47.32a1.11,1.11,0,0,1,1.1-1c1.74-.23,2.14.14,1.86,1.86s-.65,3.21-.78,4.84a8.71,8.71,0,0,0,0,1.84,2.8,2.8,0,0,0,3.71,2.63,6,6,0,0,0,2-.79c.42-.27.55-.18.56.31A4,4,0,0,1,98,61.29C95.72,61.17,94.61,60.13,94.16,57.58Zm21.26.48a4.78,4.78,0,0,1-3.21,3.14c-3.14.84-5.66-1.77-4.8-5.08a3.6,3.6,0,0,0,1.8.84,3.14,3.14,0,0,0,4-2.35,7.69,7.69,0,0,0,.39-3.26A2.68,2.68,0,0,0,110,49a3.92,3.92,0,0,0-2.8,3.34c-.37,3-.71,6-1.2,9a6,6,0,0,1-3,4.49,5.57,5.57,0,0,1-5.57.06,3.72,3.72,0,0,1-2-3c-.07-.44.09-.49.47-.36a8.75,8.75,0,0,0,3.25.51,4.28,4.28,0,0,0,4.29-3.66,55.29,55.29,0,0,0,1.09-8,7.88,7.88,0,0,0,0-1c-.09-.89-.22-1-1.06-1.25A3.51,3.51,0,0,1,101,47c-.11-.29-.11-.47.26-.48a13.88,13.88,0,0,1,2.81,0,2,2,0,0,1,1.79,1.68,2.55,2.55,0,0,0,.36,1l.79-.94a5.21,5.21,0,0,1,4.76-2c2.82.29,4.41,1.9,4.62,4.95A15.19,15.19,0,0,1,115.42,58.06Zm44.8-.43a7.61,7.61,0,0,1-.89,1.81,4,4,0,0,1-4,1.84A3.76,3.76,0,0,1,152,58.64a21.87,21.87,0,0,1-.94-4.86c0-.25,0-.63-.26-.68s-.32.32-.41.53c-.77,1.76-1.52,3.53-2.29,5.29a9.37,9.37,0,0,1-.87,1.62.82.82,0,0,1-1.12.31,3.28,3.28,0,0,1-1.31-1.17A16.45,16.45,0,0,1,143,56c-.16-.42-.32-.83-.47-1.25h-.19c-.22.72-.44,1.43-.67,2.15a17.72,17.72,0,0,1-1,2.64,2.6,2.6,0,0,1-4.55.57,5.87,5.87,0,0,1-.7-1c-.19-.33-.3-.29-.5,0a5.84,5.84,0,0,1-2.11,1.74,3.43,3.43,0,0,1-5.06-2.11c-.07-.2-.06-.45-.24-.61-.18,0-.19.2-.25.32a4.84,4.84,0,0,1-4.62,2.87,5.24,5.24,0,0,1-4.89-2.94c-2.21-4.23.31-11.85,7-12.1a4.11,4.11,0,0,1,3.72,2c.39.57.4.56.75,0a12.7,12.7,0,0,1,1-1.59c.28-.33.6-.6,1.06-.33s.29.61.18,1a30.17,30.17,0,0,0-1.18,5.31A7.1,7.1,0,0,0,131,57a1.58,1.58,0,0,0,2.1.86,7.27,7.27,0,0,0,1.44-.67.79.79,0,0,1,.8,0c1.8.85,2.94.5,4-1.2a14.73,14.73,0,0,0,1.49-3.68c.48-1.67.93-3.35,1.42-5,.12-.39.17-1,.66-1s.73.52.94.93a37.47,37.47,0,0,1,1.74,4.32l1.26,3.31c.33-.08.36-.33.46-.52a60.46,60.46,0,0,0,2.45-5.95,2.61,2.61,0,0,0,0-1.27,20.85,20.85,0,0,0-4.33-10.71A12,12,0,0,0,135.27,32a11.36,11.36,0,0,0-8.63,4.12l-1.08,1.26c-.11.12-.23.26-.42.2s-.21-.24-.23-.4a6.84,6.84,0,0,1,0-2,7.37,7.37,0,0,1,3-5.28,12.92,12.92,0,0,1,12.7-1.55c5.26,1.91,8.4,5.79,9.82,11.11,1.2,4.52,2.18,9.1,3.22,13.66l.45,2a3.42,3.42,0,0,0,5.42,2c.19-.14.35-.51.66-.27S160.32,57.33,160.22,57.63Z"/></svg>