<svg id="Layer_1" data-name="Layer 1" xmlns="http://www.w3.org/2000/svg" viewBox="0 0 205 85"><defs><style>.cls-1{fill:#023044;fill-rule:evenodd;}</style></defs><title>prisma-logo</title><path class="cls-1" d="M63.77,38.9,65,38.82a2,2,0,0,0,1.72-2.06h0A2,2,0,0,0,65,35l-1-.11H60.24v4Z"/><polygon class="cls-1" points="120.33 49.66 120.33 49.66 120.33 49.66 120.33 49.66"/><path class="cls-1" d="M65.78,45.93a2.87,2.87,0,0,0-1.13-.16H60.24v4.08h4.15a7.47,7.47,0,0,0,1.16-.11,1.88,1.88,0,0,0,1.55-1.61h0a1.34,1.34,0,0,0,0-.2h0A2,2,0,0,0,65.78,45.93Z"/><path class="cls-1" d="M40.79,17.21V67.77l123.43,0V17.23Zm35.35,32.1c-.06,3.8-2.46,6.19-5.74,7.67-1.86.84-4.21.6-6.58.68H50.92l0-30.33H64.49a21.85,21.85,0,0,1,5.23.62c3,.77,4.93,3.62,5.46,6.32a10.39,10.39,0,0,1-1.91,8.23h0A8.49,8.49,0,0,1,76.14,49.31ZM88,57.65H79.09c0-8.58,0-30.33,0-30.33H88S88,47.82,88,57.65Zm19.83,0H93.05c0-10,0-11.61,0-30.32,5.73,0,5.9,0,8.79,0V49.68h6C107.81,52.71,107.81,54,107.81,57.67Zm18.48,0H111.53c0-10,0-11.61,0-30.32h8.8s0,14.79,0,22.32h6Zm19.26,0c-.41-1.25-.54-1.87-.92-3.26h-6.4c-.34,1.18-.63,2.34-.93,3.26h-8.58c3.36-12.1,5.09-18.8,8.22-30.31h9c3.67,13.09,5.43,20,8.15,30.33Z"/><polygon class="cls-1" points="139.47 48.68 143.88 48.68 141.54 42.23 139.47 48.68"/></svg>