<svg id="Layer_1" data-name="Layer 1" xmlns="http://www.w3.org/2000/svg" viewBox="0 0 205 85"><defs><style>.cls-1{fill:#023044;}</style></defs><title>prisma-logo</title><g id="_4HXhFs.tif" data-name="4HXhFs.tif"><path class="cls-1" d="M166.17,41.59c-.29,0-.41.19-.48.44a21.14,21.14,0,0,1-2.35,5,35.48,35.48,0,0,0-2.79,6.34,38.19,38.19,0,0,0-1.26,5.78c-.09.53-.33.72-.86.57a6.25,6.25,0,0,1-4.23-3.6,7.66,7.66,0,0,1,.35-6.54c.84-1.86,2-3.56,2.91-5.36a11.87,11.87,0,0,0,1.07-2.76,3,3,0,0,0-.37-2.34.74.74,0,0,0-1-.36,3.64,3.64,0,0,0-1.31.91A33.45,33.45,0,0,0,149.64,48a39.15,39.15,0,0,0-2.74,6.8c-.24.78-.39,1.58-.57,2.37-.11.49-.33.62-.75.41a6.4,6.4,0,0,1-3-2.7,6.17,6.17,0,0,1-.67-2,13.33,13.33,0,0,1,.18-4.54,42.54,42.54,0,0,1,3.08-8.64c1.83-4,3.84-8,5.94-11.92,1.67-3.1,3.41-6.16,5.13-9.23a.69.69,0,0,1,.89-.38c1.35.5,2.65,1.09,3.22,2.58a3.63,3.63,0,0,1,.09,2.16,15.6,15.6,0,0,1-2.05,4.65c-2,3.22-4.06,6.37-5.79,9.72-.32.62-.65,1.23-1,1.85-.08.15-.23.4,0,.52s.38-.08.5-.22c.68-.78,1.35-1.56,2-2.36a13,13,0,0,1,3.56-3.36,5.17,5.17,0,0,1,7.41,2.06,5.46,5.46,0,0,1,.55,1.37.49.49,0,0,0,.47.45Z"/><path class="cls-1" d="M49.25,53a7.36,7.36,0,0,1,1.3-4.06c.18-.29.58-.57.4-.93s-.62-.18-.94-.18a47.88,47.88,0,0,1-7.93-.51,17.89,17.89,0,0,1-1.94-.53.7.7,0,0,1-.45-.44,9.78,9.78,0,0,1-.84-2.95,4.58,4.58,0,0,1,1.26-3.58,36,36,0,0,1,6.24-5.38q3.75-2.68,7.64-5.2c2.42-1.57,4.84-3.15,7.27-4.7,1.93-1.24,3.88-2.45,5.81-3.69a.94.94,0,0,1,.83-.2,7.83,7.83,0,0,1,3.77,2.23A1.4,1.4,0,0,1,72,24.23a32.48,32.48,0,0,1-1.22,3.34,89.55,89.55,0,0,1-6.07,11c-.9,1.51-1.7,3.08-2.54,4.63a.47.47,0,0,0,.24.73,1.42,1.42,0,0,0,.5.2c.9.06,1.28.66,1.49,1.43A10.82,10.82,0,0,1,65.07,48a.77.77,0,0,1-.57.9,7.27,7.27,0,0,1-3.87.06,1.36,1.36,0,0,0-1.63.68,40.85,40.85,0,0,0-2.88,5.77c-.49,1.15-1,2.28-1.49,3.42-.15.36-.44.38-.75.27A6.6,6.6,0,0,1,49.25,53Zm1.18-10.23v0h3.15a1.16,1.16,0,0,0,1.06-.64c2.16-3.65,4.34-7.3,6.39-11,.13-.24.4-.57.15-.79s-.51.11-.73.28l-3,2.32c-3.63,2.82-7.1,5.81-10.46,8.94-.19.18-.42.37-.35.65s.41.28.65.29C48.34,42.76,49.39,42.75,50.43,42.75Z"/><path class="cls-1" d="M65,58.85a25.59,25.59,0,0,1,1.47-7.55c.76-2.29,1.73-4.5,2.71-6.7.88-2,1.81-3.9,2.73-5.84a1,1,0,0,0-.15-1.19,15.33,15.33,0,0,1-1.88-2.14,3.24,3.24,0,0,1-.21-.35c-.41-.85-.3-1,.6-1.27a18.74,18.74,0,0,1,3.58-.52,1.5,1.5,0,0,0,1.25-.76,71.27,71.27,0,0,1,7.86-10.84,14.73,14.73,0,0,1,3.93-3.4A5,5,0,0,1,91.76,18a3.2,3.2,0,0,1,1.33,1.47,6.31,6.31,0,0,1,.74,2.55c0,.42-.08.74-.53.87A16.73,16.73,0,0,0,85.5,28a31.25,31.25,0,0,0-2.82,3.66c-.11.17-.27.33-.15.54s.36.19.58.17a12.65,12.65,0,0,1,2.61,0,.9.9,0,0,1,.83.48,14.83,14.83,0,0,1,.84,2c.38,1.43-.19,2.15-1.7,2.47a15.75,15.75,0,0,1-3.08.23,27.28,27.28,0,0,0-3.13.22,1.24,1.24,0,0,0-1,.77c-1,1.93-1.91,3.86-2.77,5.84-.61,1.41-1.15,2.85-1.73,4.28-.66,1.65-1.21,3.34-1.72,5-.42,1.38-.82,2.77-1.16,4.17-.49,2-.92,4.09-1.26,6.16-.16.94-.28,1.88-.39,2.83-.07.67-.37.81-1,.49a6.79,6.79,0,0,1-3.33-5.08A13.82,13.82,0,0,1,65,58.85Z"/><path class="cls-1" d="M110.71,52.85a14.37,14.37,0,0,0,6.78-2.3c.66-.36,1.3-.76,2-1.13.38-.22.65-.08.74.41a4.67,4.67,0,0,1-.86,3.66,11.56,11.56,0,0,1-4.89,3.73,14.27,14.27,0,0,1-4.66,1.3,7.83,7.83,0,0,1-7.91-4.46,9.43,9.43,0,0,1-.33-7.17c1.38-4.09,4.13-7.2,7.32-10a19.69,19.69,0,0,1,5.36-3.34,7.92,7.92,0,0,1,4.05-.7,5.68,5.68,0,0,1,4.25,2.8,6,6,0,0,1-1.15,7.57,16.94,16.94,0,0,1-6,3.59,25.73,25.73,0,0,1-6.77,1.39c-.7.07-.85.21-.91.91a4.87,4.87,0,0,0,.32,2.5,1.72,1.72,0,0,0,1.77,1.21Zm6.72-13.56a2.41,2.41,0,0,0-.35-1.31,1,1,0,0,0-1.43-.51,7.32,7.32,0,0,0-1.12.66c-2.2,1.62-3.42,4-4.8,6.25-.26.41,0,.72.45.65a10.22,10.22,0,0,0,5.4-2.35A5,5,0,0,0,117.43,39.29Z"/><path class="cls-1" d="M130,58.75a8,8,0,0,1-6.84-4.08,5.27,5.27,0,0,1-.46-4.09,4.24,4.24,0,0,1,1.6-2.48c.62-.45.93-.35,1.16.37a7.85,7.85,0,0,0,2.22,3.24A4.71,4.71,0,0,0,129.63,53,2.35,2.35,0,0,0,131,53a2.67,2.67,0,0,0,1.13-4.42c-.72-.78-1.64-1.37-2.32-2.21a8.16,8.16,0,0,1-1.73-8.14,8.33,8.33,0,0,1,3.49-4.3,6.58,6.58,0,0,1,5.56-1,7,7,0,0,1,5,4.39,3.5,3.5,0,0,1-.7,3.18c-.24.37-.49.18-.71-.09a7.44,7.44,0,0,0-2.11-1.88,4.05,4.05,0,0,0-5.41.8,2.18,2.18,0,0,0,0,2.5,10.19,10.19,0,0,0,2.52,2,10.43,10.43,0,0,1,2.63,2.46,6.89,6.89,0,0,1,.92,5.12,7.45,7.45,0,0,1-3.6,5.59A10.62,10.62,0,0,1,130,58.75Z"/><path class="cls-1" d="M95.25,36.28A4.75,4.75,0,0,1,94.94,38c-.06.16-.13.38.07.47s.26-.13.36-.24a19.34,19.34,0,0,1,3.83-3.62,5.7,5.7,0,0,1,4-1.31A2.51,2.51,0,0,1,105,34.58a5.39,5.39,0,0,1,.82,2.33c.06.49-.25.67-.66.76a24.07,24.07,0,0,0-2.48.58,14.53,14.53,0,0,0-7.41,5.28,26.18,26.18,0,0,0-3.55,6.74,61.18,61.18,0,0,0-2,6.51c-.23.94-.48,1-1.37.57-2.87-1.45-3.78-3.92-3.63-6.94a27.12,27.12,0,0,1,2-8.31c1.22-3.18,2.78-6.2,4.17-9.3a.79.79,0,0,1,.93-.45A3.62,3.62,0,0,1,95.25,36.28Z"/></g></svg>