<svg id="Layer_1" data-name="Layer 1" xmlns="http://www.w3.org/2000/svg" viewBox="0 0 205 85"><defs><style>.cls-1{fill:#023044;}</style></defs><title>prisma-logo</title><g id="aWSq5Z"><path class="cls-1" d="M50.65,33.53a12.78,12.78,0,0,1,7.14-2,11.28,11.28,0,0,1,7.89,3A11,11,0,0,1,69,41.09a14.89,14.89,0,0,1-.38,6.47,10.24,10.24,0,0,1-7.44,7.28,14.48,14.48,0,0,1-8.69-.17c-3.66-1.24-5.79-3.93-6.9-7.54a22.76,22.76,0,0,1-.79-7,34,34,0,0,1,1.08-9A10.84,10.84,0,0,1,51.41,24a19.26,19.26,0,0,1,5.5-1.68c2.35-.4,4.72-.62,7.1-.86,1-.1,2-.22,3-.36.35-.05.45,0,.45.39,0,1.66,0,3.32,0,5,0,.46-.13.61-.56.64-1.67.13-3.34.28-5,.44-2,.2-4.1.24-6.12.63a5.82,5.82,0,0,0-4.72,4.08C51,32.61,50.84,33,50.65,33.53Zm.93,9.85a17.5,17.5,0,0,0,.1,1.77c.36,3.17,2.52,5.33,5.67,5.19a5.11,5.11,0,0,0,4.58-3.23,11.22,11.22,0,0,0,.45-5.66,5.37,5.37,0,0,0-4.6-4.87,5.24,5.24,0,0,0-5.24,2.47A8.59,8.59,0,0,0,51.58,43.38Z"/><path class="cls-1" d="M105.92,52.93v5.58c0,1.65,0,3.31,0,5,0,.37-.1.46-.46.46-1.77,0-3.53,0-5.29,0-.48,0-.56-.13-.56-.58q0-14.86,0-29.72c0-.53-.24-1.24.11-1.54s1-.09,1.51-.09c1.26,0,2.51,0,3.77,0,.37,0,.48.12.47.48,0,.65,0,1.3,0,2.06a16,16,0,0,1,1.72-1.48,9.82,9.82,0,0,1,6.12-1.51c5,.18,8.79,3.78,9.85,8.7a13.41,13.41,0,0,1-1.46,10.08,10,10,0,0,1-9.18,5.06A9.19,9.19,0,0,1,106.09,53S106,53,105.92,52.93Zm11-9.53a8.2,8.2,0,0,0-.13-1.78,6,6,0,0,0-1.1-2.94,5,5,0,0,0-5.15-2,4.82,4.82,0,0,0-4.08,3.44,10.74,10.74,0,0,0-.09,6.47A5,5,0,0,0,110,50.18a5.22,5.22,0,0,0,6.22-2.77A9.22,9.22,0,0,0,116.91,43.4Z"/><path class="cls-1" d="M87.39,45.49c-2.64,0-5.27,0-7.9,0-.45,0-.55.11-.42.54a5.75,5.75,0,0,0,4.16,3.89,14.38,14.38,0,0,0,10-.71c.36-.15.52-.18.51.31,0,1.32,0,2.65,0,4a.6.6,0,0,1-.42.63,17.24,17.24,0,0,1-6.55,1.56,16.81,16.81,0,0,1-7.55-1.23,10.89,10.89,0,0,1-6.75-8.64,13.21,13.21,0,0,1,1.29-8.71,10.51,10.51,0,0,1,7.43-5.41,14,14,0,0,1,8,.47,9.66,9.66,0,0,1,5.94,6.44A16,16,0,0,1,95.79,45c-.05.47-.22.52-.61.52C92.58,45.48,90,45.49,87.39,45.49Zm-3.08-4.63h0c1.6,0,3.2,0,4.8,0,.41,0,.54-.1.46-.5A5,5,0,0,0,87,36.82a6.09,6.09,0,0,0-3.85-.52A5.3,5.3,0,0,0,79,40.35c-.05.37,0,.52.44.52C81.07,40.84,82.69,40.86,84.31,40.86Z"/><path class="cls-1" d="M136.35,47.37c.59-1.71,1.14-3.3,1.68-4.88l3.48-10.11c.08-.23.16-.38.46-.38,2,0,3.94,0,5.91,0a1.08,1.08,0,0,1,.19,0c-.31.85-.61,1.7-.93,2.54q-2.73,7.38-5.47,14.75C140.8,51.67,140,54,139,56.28a11.37,11.37,0,0,1-6.16,6.41,11.56,11.56,0,0,1-4,.8c-1,0-1.92,0-2.88,0-.34,0-.49-.07-.49-.46,0-1.67,0-3.35,0-5,0-.39.16-.45.5-.46a22.51,22.51,0,0,0,3.76-.12,4.54,4.54,0,0,0,3-2,.6.6,0,0,0,.07-.67q-2.88-7.17-5.75-14.37c-1.06-2.66-2.13-5.33-3.2-8-.12-.3-.17-.45.27-.45,2,0,4,0,6.07,0a.49.49,0,0,1,.56.38q2.55,6.82,5.12,13.64C136,46.44,136.15,46.84,136.35,47.37Z"/><path class="cls-1" d="M153.4,32.9c0-3.64,0-7.28,0-10.93,0-.35.07-.47.45-.47,1.9,0,3.8,0,5.7,0,.39,0,.49.13.48.51q0,10.87,0,21.75c0,.39-.06.55-.5.54-1.88,0-3.77,0-5.65,0-.41,0-.48-.13-.48-.5C153.41,40.15,153.4,36.53,153.4,32.9Z"/><path class="cls-1" d="M156.63,54.93c-1,0-2.06,0-3.08,0-.33,0-.46,0-.46-.42q0-3.14,0-6.27c0-.34.12-.41.42-.41h6.33c.34,0,.41.13.41.43q0,3.13,0,6.27c0,.35-.13.4-.43.4Z"/></g></svg>