<svg id="Layer_1" data-name="Layer 1" xmlns="http://www.w3.org/2000/svg" viewBox="0 0 205 85"><defs><style>.cls-1{fill:#023044;}</style></defs><title>prisma-logo</title><g id="jRrHq8.tif"><path class="cls-1" d="M171.58,56.23c-.71.88-1.12.91-2.06.17L151.66,42.23l-.6-.46c-.27.27-.14.58-.14.86,0,3.58,0,7.16,0,10.74a3.52,3.52,0,0,1-5.3,3.08,3.48,3.48,0,0,1-1.75-3.17c0-8,0-15.92,0-23.88a1.14,1.14,0,0,1,.58-1.18,1.21,1.21,0,0,1,1.36.3l14.29,11.35,4.32,3.42a1.73,1.73,0,0,0,.11-.93c0-3.55,0-7.11,0-10.66a3.54,3.54,0,0,1,6.28-2.29,8.21,8.21,0,0,1,.79,1.53Z"/><path class="cls-1" d="M117.7,57.58c-5.85-.09-11.28-1.47-15.92-5.21a13,13,0,0,1-4.89-7.55,11.58,11.58,0,0,1,3.35-10.73,21.64,21.64,0,0,1,12.49-6.22A27.68,27.68,0,0,1,129.5,30a18.2,18.2,0,0,1,6.24,4.65c4.23,5,4.16,11.17-.24,16a21.33,21.33,0,0,1-11.41,6.24A26.91,26.91,0,0,1,117.7,57.58Zm-.18-7a21.19,21.19,0,0,0,7.8-1.39,12,12,0,0,0,5.4-3.81,4.27,4.27,0,0,0,0-5.62,9.48,9.48,0,0,0-3-2.65A20.06,20.06,0,0,0,114,34.82a15.78,15.78,0,0,0-8.23,3.72c-2.64,2.38-2.74,5.15-.26,7.68a10.5,10.5,0,0,0,1.19,1A18.6,18.6,0,0,0,117.52,50.53Z"/><path class="cls-1" d="M48.47,57.57a15.06,15.06,0,1,1,15.13-15A15,15,0,0,1,48.47,57.57Zm-8-15.13a8,8,0,1,0,8-8A8,8,0,0,0,40.49,42.44Z"/><path class="cls-1" d="M79.31,49.76a2.68,2.68,0,0,0,1.16.11H90.88a3.52,3.52,0,1,1,0,7H67.43c-.52,0-1,0-1.28-.56a1.3,1.3,0,0,1,.34-1.43q7.19-9.47,14.37-19c.16-.21.31-.44.47-.66-.28-.27-.6-.16-.88-.16-3,0-5.9,0-8.85,0a3.5,3.5,0,0,1-2.69-5.81,3.63,3.63,0,0,1,3-1.22c4.38,0,8.76,0,13.13,0h8.27c.51,0,1,0,1.27.55s0,1-.33,1.42L79.84,49C79.67,49.26,79.51,49.48,79.31,49.76Z"/></g></svg>