<svg id="Layer_1" data-name="Layer 1" xmlns="http://www.w3.org/2000/svg" viewBox="0 0 205 85"><defs><style>.cls-1{fill:#023044;}</style></defs><title>prisma-logo</title><path class="cls-1" d="M196.36,49.84A6.8,6.8,0,0,1,193,53c-4.19,1.92-9.59.62-12-3.42a2.49,2.49,0,0,1-.33-.83.75.75,0,0,1,.42-.86c.66-.31,1.2-.79,1.83-1.14s.94-.27,1.25.4a4.11,4.11,0,0,0,1.91,2.14,6.31,6.31,0,0,0,5.51.06,2.17,2.17,0,0,0,.17-3.75c-2.3-1.38-5.15-1.66-7.51-3a5.7,5.7,0,0,1-2.78-6,6.57,6.57,0,0,1,3-4.2c3.38-2.31,8-.58,10.56,2.06.2.2.37.43.56.64a1.09,1.09,0,0,1-.16,1.75c-.56.4-1.2.66-1.79,1a.82.82,0,0,1-1.16-.38,3.69,3.69,0,0,0-2.49-2c-1.21-.28-2.86-.39-3.88.46a2.08,2.08,0,0,0-.39,2.81,4.56,4.56,0,0,0,2.1,1.41c1.2.47,2.46.75,3.67,1.17,2.85,1,5.29,3.29,5.34,6.47A4.72,4.72,0,0,1,196.36,49.84Z"/><path class="cls-1" d="M16.16,53.43c-.5,0-1,0-1.51,0s-.83-.23-1-.83C11.86,47.28,9,35.06,8.7,34.47a14.6,14.6,0,0,1-.53-2.79c0-.21.09-.27.28-.27,1.07,0,2.14,0,3.21,0,.14,0,.28,0,.33.19.38,1.32,4.06,14,4.18,15,0,.14.09.33.29.31s.23-.21.26-.35c.13-.64.35-1.24.49-1.87.45-2.08,3.13-10,3.44-12,.08-.47.44-.79.55-1.24,0-.13.18-.1.28-.1h2.78c.22,0,.37.05.38.3a1,1,0,0,0,.17.43,38.92,38.92,0,0,1,2.07,6.63L29,46.14c.25.88.79.29.87-.28.21-1.47.78-2.84,1.12-4.27s.86-3,1.25-4.49c.27-1.05.65-2.08.86-3.14.14-.68.34-2,.95-2.43s2.24-.11,3-.12c.27,0,.37.1.44.37A5.69,5.69,0,0,1,37,34.86c-1.32,4.62-2.5,9.28-3.77,13.91A21.48,21.48,0,0,1,32,52.88a.94.94,0,0,1-.9.56c-.91,0-1.83,0-2.73,0A1.36,1.36,0,0,1,27,52.25c-.61-2.26-2.89-11-3.71-13-.1-.23-.14-.61-.44-.6s-.3.41-.33.65c-.29,1.71-3.74,12.9-4,13.61a.82.82,0,0,1-.85.55C17.16,53.45,16.66,53.45,16.16,53.43Z"/><path class="cls-1" d="M84.6,42.51c0-3.11,0-6.22,0-9.33A4.63,4.63,0,0,1,85,31.57c.06-.18.22-.16.35-.16h5.28c2.83,0,5.76.39,7.79,2.53a5.59,5.59,0,0,1,1.43,3.16,5.48,5.48,0,0,1-1.45,4.41c-.44.52-.44.62.08,1.07a5.6,5.6,0,0,1,2.17,3.67,5.79,5.79,0,0,1-1.76,5.05,7.3,7.3,0,0,1-5.34,2.13c-2.51,0-5,0-7.53,0-1.11,0-1.43-.29-1.43-1.42C84.6,48.85,84.61,45.68,84.6,42.51Zm7.11,1.66h-2.4c-.64,0-.83.19-.82.84,0,1.16,0,2.32,0,3.48a3.08,3.08,0,0,0,0,.61.59.59,0,0,0,.61.55,48.85,48.85,0,0,0,5.54-.13,2.33,2.33,0,0,0,1.9-1.62,2.71,2.71,0,0,0-2.53-3.73Zm-.31-8.71v-.05H89.33c-.64,0-.84.21-.84.86,0,1.16,0,2.32,0,3.48,0,.71.19.89.9.89H93a3,3,0,0,0,2.55-1.33,2.49,2.49,0,0,0-1.79-3.84C93,35.41,92.18,35.46,91.4,35.46Z"/><path class="cls-1" d="M62.6,42.5c0-3.09,0-6.18,0-9.27,0-.43.18-1.73.7-1.83a11.2,11.2,0,0,1,1.92,0H69.4A12.69,12.69,0,0,1,79,35.16a14.62,14.62,0,0,1,2.1,3.26,1.49,1.49,0,0,1,.15.4,14.18,14.18,0,0,1,.46,4.89,10.41,10.41,0,0,1-.92,3.42A14.43,14.43,0,0,1,79,49.85a8.68,8.68,0,0,1-2.89,2.28,13.78,13.78,0,0,1-1.89.81,14.92,14.92,0,0,1-4.51.5c-1.88,0-3.77,0-5.65,0-1.15,0-1.49-.31-1.49-1.47C62.6,48.81,62.6,45.66,62.6,42.5Zm4.8-7c-.72,0-.9.22-.88,1q0,.54,0,1.08,0,5.58,0,11.16c0,.65.21.88.87.89,1.32,0,2.63,0,3.95,0a5.88,5.88,0,0,0,2.49-.4,6.13,6.13,0,0,0,2.82-2.32,8,8,0,0,0,1.25-3.45,7.4,7.4,0,0,0-1.63-5.58,5.93,5.93,0,0,0-3.89-2.23C71.56,35.46,68.22,35.45,67.4,35.46Z"/><path class="cls-1" d="M119.77,42.55c0-3.12,0-6.24,0-9.37a1.58,1.58,0,0,1,1.55-1.77c1.42-.07,2.87,0,4.3,0a15.32,15.32,0,0,1,5.47.71,7.94,7.94,0,0,1,3.69,3.11,6.55,6.55,0,0,1,.64,5.45,6,6,0,0,1-2.5,3.48c-.31.22-.63.42-.93.65s-.33.54-.1.89c.47.71.82,1.25,1.22,1.89s.73,1.24,1.09,1.86c.54.93,1.13,1.84,1.63,2.8a2.08,2.08,0,0,1,.19.43c.11.4-.07.72-.48.74-.91,0-1.82,0-2.73,0a1.07,1.07,0,0,1-.73-.46,11.45,11.45,0,0,1-1.35-2c-.68-1.12-1.35-2.25-2-3.41-.24-.45-.56-.86-.76-1.34a.8.8,0,0,0-.8-.49c-1,0-2,0-2.92,0-.43,0-.59.25-.59.79l0,5.13c0,.25,0,.5,0,.75,0,.84-.31,1.09-1.14,1.09-.5,0-1,0-1.51,0-.89,0-1.23-.37-1.27-1.27,0-.38,0-.75,0-1.13Zm3.92-3.84h0c0,.87,0,1.73,0,2.59,0,.67.25.88.92.82a18.3,18.3,0,0,1,2.77,0,5.68,5.68,0,0,0,2.48-.37,2.65,2.65,0,0,0,1.54-1.65,3.71,3.71,0,0,0-.1-2.87,2.62,2.62,0,0,0-2.1-1.67c-1.53-.25-3.07-.05-4.6-.15-.73,0-.93.17-.93.9Z"/><path class="cls-1" d="M138.53,42.55c0-3.12,0-6.24,0-9.37a1.58,1.58,0,0,1,1.54-1.77c1.43-.07,2.88,0,4.31,0a15.32,15.32,0,0,1,5.47.71,7.87,7.87,0,0,1,3.68,3.11,6.52,6.52,0,0,1,.65,5.45,6,6,0,0,1-2.5,3.48c-.31.22-.63.42-.93.65s-.33.54-.1.89c.47.71.82,1.25,1.22,1.89s.73,1.24,1.09,1.86c.54.93,1.13,1.84,1.63,2.8a2.08,2.08,0,0,1,.19.43c.11.4-.07.72-.48.74-.91,0-1.82,0-2.73,0a1.09,1.09,0,0,1-.74-.46,12,12,0,0,1-1.34-2c-.68-1.12-1.35-2.25-2-3.41-.24-.45-.56-.86-.76-1.34a.8.8,0,0,0-.8-.49c-1,0-2,0-2.92,0-.43,0-.59.25-.59.79l0,5.13c0,.25,0,.5,0,.75-.05.84-.31,1.09-1.14,1.09-.5,0-1,0-1.51,0-.9,0-1.24-.37-1.28-1.27,0-.38,0-.75,0-1.13C138.54,48.2,138.54,45.38,138.53,42.55Zm3.93-3.84h0c0,.87,0,1.73,0,2.59,0,.67.25.88.91.82a18.45,18.45,0,0,1,2.78,0,5.71,5.71,0,0,0,2.48-.37,2.65,2.65,0,0,0,1.54-1.65,3.71,3.71,0,0,0-.1-2.87,2.62,2.62,0,0,0-2.1-1.67c-1.53-.25-3.07-.05-4.6-.15-.73,0-.93.17-.93.9Z"/><path class="cls-1" d="M103.57,42.45c0-3.09,0-6.18,0-9.27a5.68,5.68,0,0,1,.38-1.59c0-.21.23-.18.38-.18H116a.63.63,0,0,1,.7.47,5.37,5.37,0,0,1,.22,2.69c0,.68-.4.93-1.16.93-.57,0-1.13,0-1.7,0h-5.46c-1,0-1.12.22-1.08,1.19s0,1.94,0,2.91c0,.74.22,1,1,1,2.1,0,4.2,0,6.31,0,1.06,0,1.44.4,1.36,1.47a7.79,7.79,0,0,0,0,1.08c0,.8-.27,1.13-1.08,1.13h-6.35a5.42,5.42,0,0,0-.57,0c-.57,0-.76.29-.71.87a21.78,21.78,0,0,1,0,3.33c0,.82.17,1.13,1,1.13,2.34,0,4.67,0,7,0a4.05,4.05,0,0,1,.7,0,.88.88,0,0,1,.85.91,19.44,19.44,0,0,1,0,2,.91.91,0,0,1-.94.93c-.37,0-.75,0-1.13,0l-10.07,0c-.82,0-1.14-.26-1.27-1.07a4.08,4.08,0,0,1,0-.61Z"/><path class="cls-1" d="M165,42.54c0-3.13,0-6.25,0-9.37a2.66,2.66,0,0,1,.2-1.26c.39-.51,1.59-.5,2.16-.5h9.53c.87,0,1.23.29,1.35,1.17a8.22,8.22,0,0,1,0,1.92c-.07.66-.42,1-1.12,1-1,0-1.94,0-2.92,0H170c-.84,0-1,.27-1,1.09s0,1.91,0,2.87.23,1.12,1.16,1.11c2,0,4.11,0,6.16,0,1,0,1.4.42,1.34,1.43a11.61,11.61,0,0,0,0,1.18c0,.66-.23.94-.89,1a4.86,4.86,0,0,1-.66,0H170c-.94,0-1.07.18-1,1.11a22.91,22.91,0,0,1,0,3.1c-.07.83.19,1.15,1,1.14l6.87,0a5.65,5.65,0,0,1,.71,0,.94.94,0,0,1,.92.91,8,8,0,0,1,0,2,.93.93,0,0,1-.92.9,4.87,4.87,0,0,1-.66,0H166.07c-.69,0-.93-.21-1-.89a13,13,0,0,1,0-1.65C165,48.12,165,45.33,165,42.54Z"/><path class="cls-1" d="M47.7,42.55c0-3.12,0-6.24,0-9.37a5.79,5.79,0,0,1,.42-1.61c0-.15.19-.15.31-.15H51c.23,0,.3.1.38.31a5.94,5.94,0,0,1,.26,2.13q0,6.82,0,13.66c0,.4,0,.81,0,1.22,0,.57.23.82.79.81,2.2,0,4.4.06,6.59,0,.89,0,1.32.28,1.39,1.16a11.75,11.75,0,0,1,0,1.78c-.05.71-.34,1-1.06,1-1.11,0-2.23,0-3.34,0H49.15c-1.1,0-1.44-.31-1.44-1.42,0-3.16,0-6.31,0-9.47Z"/><path class="cls-1" d="M161.32,42.6v9.18c0,1.52-.13,1.65-1.62,1.65-.49,0-1,0-1.46,0a.88.88,0,0,1-.92-.84,5.29,5.29,0,0,1-.06-.8v-11c0-1.81,0-3.61,0-5.42,0-1.23-.58-3.51,1.08-3.92,1.39-.35,3,.06,3,1.71C161.31,36.29,161.32,39.45,161.32,42.6Z"/><path class="cls-1" d="M44.06,42.6v9.18a2.72,2.72,0,0,1,0,.28c0,1.09-.33,1.39-1.42,1.38-.5,0-1,0-1.51,0a1,1,0,0,1-1-.82,3.43,3.43,0,0,1-.09-.84c0-6.22,0-12.43,0-18.64a6.51,6.51,0,0,1,.4-1.59c0-.15.19-.14.32-.14h2.63c.13,0,.26,0,.31.15a4.63,4.63,0,0,1,.43,1.61c0,3.14,0,6.28,0,9.42Z"/></svg>