<svg id="Layer_1" data-name="Layer 1" xmlns="http://www.w3.org/2000/svg" viewBox="0 0 205 85"><defs><style>.cls-1{fill:#023044;}</style></defs><title>prisma-logo</title><g id="hbGDx1"><path class="cls-1" d="M36.26,27.45a1.62,1.62,0,0,1,.5,1.7c-.1.4-.4.5-.7.7s-.9.2-1.2.4c-.1,0-.4.1-.6,0s-.1,0-.2.1,0,.1.1.1a9.39,9.39,0,0,0,1.8,1.2c.2.1.2.1.2-.1a8.33,8.33,0,0,1,.4-1.5,2.29,2.29,0,0,1,.7-1,1.18,1.18,0,0,1,1.8.7,3.4,3.4,0,0,1,.1,1c0,.5-.1,1-.1,1.6v.1c0,.1,0,.2.2.2.5,0,1,.1,1.5.1.2,0,.4,0,.2-.2a1.91,1.91,0,0,0-.5-1,6.31,6.31,0,0,0-.4-.9.88.88,0,0,1,.1-.7,1.78,1.78,0,0,1,2.5-.5,3.74,3.74,0,0,1,.6.7,9.26,9.26,0,0,1,.9,2c0,.1.1.2.2.4a1.06,1.06,0,0,1,.9.9,1.79,1.79,0,0,1-.4,1.7c-.2.2-.4.4-.2.7v.9c0,.1.1.2.4.2a1.28,1.28,0,0,1,1.5.7,2.08,2.08,0,0,1-1,2.6c-.4.1-.6.4-1,.5-.2.1-.4.2-.4.5a2.46,2.46,0,0,1-.4,1.1s-.1.1,0,.1.1,0,.1,0c.4-.1.7-.4,1.1-.4.6,0,1,.2,1.2,1a1.64,1.64,0,0,1-.1,1,3.6,3.6,0,0,1-1.1,1.4,4.87,4.87,0,0,1-1.8,1.1,8.66,8.66,0,0,1-1,.2c-.2,0-.2.2-.4.5a4.49,4.49,0,0,1-.6,1.2c-.1.1-.1.2.1.2a3.08,3.08,0,0,0,1-.1c.5-.1.6.1.7.5a1.81,1.81,0,0,1-.9,2,5.07,5.07,0,0,1-1.6.9,7.37,7.37,0,0,0-1.4.4c-.4,0-.6.1-1,.1-.2,0-.4.2-.5.5a4.56,4.56,0,0,1-1.2,1.2,9.91,9.91,0,0,1-1.7,1.1,17.6,17.6,0,0,1-2,.9c-.5.1-1,.4-1.5.5s-.9.1-1.2.2h-.9a1.27,1.27,0,0,1-1-1.1,1.38,1.38,0,0,1,0-.9c.1-.4.2-.6.6-.7a4.42,4.42,0,0,1,1.5-.5,7.71,7.71,0,0,0,2.6-.7,1.06,1.06,0,0,1,.5-.2.1.1,0,0,0,.1-.1h-.1a10.86,10.86,0,0,1-2.5-.4,1,1,0,0,0-1.2.4,4.56,4.56,0,0,1-1.2,1.2,3.74,3.74,0,0,1-.7.6c-.1.1-.1.2,0,.4a1.37,1.37,0,0,1,.2,1.5c-.1.4-.4.6-.7.9.1-.2-.1-.2-.4-.2a6.15,6.15,0,0,1-1.4-.1c-.7-.2-1.5-.5-2.3-.7-.4-.1-.9-.4-1.2-.5-.6-.4-1.2-.7-1.8-1.1a2.94,2.94,0,0,1-1.2-1,14.16,14.16,0,0,1-2-2.2,2.57,2.57,0,0,1-.5-1.2c0-.5.2-.7.6-1.1a4.33,4.33,0,0,1,1.2-.5,1.22,1.22,0,0,1,1.2.6,6,6,0,0,0,.9,1.5c0,.2.1.2.2.4.1-.1,0-.4,0-.5a8.81,8.81,0,0,1-.2-1.7,4.14,4.14,0,0,1-.2-1.6c0-.1-.1-.2-.2-.4-.7-.6-1.4-1.4-2.1-2.1a12.82,12.82,0,0,1-1.7-2.2,10.2,10.2,0,0,1-.9-2.2,6.67,6.67,0,0,1,0-2,3,3,0,0,1,.5-1.5c.2-.5.7-.6,1.2-.7a1.85,1.85,0,0,1,.7.2c.5.4.9.7.7,1.5,0,.1,0,.2-.1.2a3.66,3.66,0,0,0,.1,2.3,12.13,12.13,0,0,0,1.5,2.2l.1.1.1-.1c.1-.7.4-1.6.5-2.3.1-.2.1-.6.2-.9a.35.35,0,0,0-.1-.2,16.66,16.66,0,0,1-2.3-2.3,12.38,12.38,0,0,1-1.4-1.8A20.36,20.36,0,0,1,16,33a4.14,4.14,0,0,0,.2-1.6,2.46,2.46,0,0,1,.5-1.5,4.6,4.6,0,0,1,2-1.6c.2-.1.5-.1.7-.2a2.22,2.22,0,0,1,1.6.1c.2.1.2.2.4.5a.1.1,0,0,0,.1.1c.1,0,0-.1,0-.1.1-.5.1-.9.2-1.4a3.21,3.21,0,0,1,1-2,3.84,3.84,0,0,1,1.8-.9,1.7,1.7,0,0,0,.7-.1h0c.5.1.9,0,1.4.1a2.51,2.51,0,0,1,.7.4,1.07,1.07,0,0,1,.2.6c0,.1,0,.1.1.2a.1.1,0,0,0,.1-.1.76.76,0,0,1,.2-.5,5.8,5.8,0,0,1,1.2-1,9.38,9.38,0,0,1,1.5-.6,1.49,1.49,0,0,0,.6-.1h1.7a7.72,7.72,0,0,1,1.5.2c.2.1.6.1.9.2.5.2.9.4,1.4.6a5.85,5.85,0,0,1,1.7,1,2.58,2.58,0,0,1,.9.9,1.79,1.79,0,0,1-.4,1.7c-.1.1-.2.4-.5.4a1.23,1.23,0,0,1-1.2-.1,6.47,6.47,0,0,1-1.6-.9C36.46,27.45,36.46,27.45,36.26,27.45Zm-2.2,12.8c0-.1,0-.1-.1-.1a10.24,10.24,0,0,1-2.7-1.1c-1.1-.5-2.1-1.2-3.2-1.8-.5-.4-1-.7-1.5-1.1-.1-.1-.1-.1-.2.1a1.42,1.42,0,0,0-.2.6,9.62,9.62,0,0,0-.7,1.8c0,.1,0,.2.1.2a8.35,8.35,0,0,0,1.6,1.2c.6.4,1.2.7,1.8,1.1s1.2.6,1.8,1a18.94,18.94,0,0,0,2.1.9c.2.1.2,0,.4-.1a4.49,4.49,0,0,1,.6-1.2,6.31,6.31,0,0,1,.4-.9A.85.85,0,0,1,34.06,40.25Zm-10.2,4.9v.2c0,.2,0,.4.2.5.4.2.7.5,1,.6.5.2,1,.5,1.5.7a13.27,13.27,0,0,0,2.1.9,1.85,1.85,0,0,0,.7.2c.1,0,.2,0,.2-.1.2-.2.4-.5.6-.7a13,13,0,0,0,1-1.5c.2-.2.2-.2-.1-.4a6.31,6.31,0,0,1-.9-.4,31.82,31.82,0,0,1-3.2-1.6c-.9-.5-1.7-1.1-2.6-1.7-.1,0-.1-.1-.2,0s-.1.1-.1.2a4.1,4.1,0,0,1-.1,1.1A14.8,14.8,0,0,0,23.86,45.15Zm11.9-9.9c0-.1,0-.1-.1-.2s-.4-.1-.6-.2c-.6-.4-1.4-.7-2-1.1-.4-.4-.9-.6-1.2-.9a10,10,0,0,0-1.1-1h-.2c-.7.5-1.4,1-2,1.5-.1.1-.1.2,0,.4a12.7,12.7,0,0,0,1.2,1,10.59,10.59,0,0,0,2,1.2,5.91,5.91,0,0,0,1.4.6,2.7,2.7,0,0,1,1.1.5c.4.1.6.1,1,.2.1.1.1,0,.2-.1C35.56,36.45,35.66,35.85,35.76,35.25ZM24,33.75c0-.1,0-.1-.1-.2a10.13,10.13,0,0,1-1.4-2,7.84,7.84,0,0,1-.5-1.4v-.1c-.1,0-.1,0-.1.1s-.4.4-.5.5a2.51,2.51,0,0,0-.7.4,1.51,1.51,0,0,0-.9,1.4,4,4,0,0,0,.9,2c.5.5.9,1.1,1.4,1.6l.4.4c.1.1.2.1.4-.1a1.06,1.06,0,0,1,.2-.5c.4-.6.6-1.2,1-1.8A.77.77,0,0,1,24,33.75Zm15.5,10.4H40a.51.51,0,0,0,.5-.4c.1-.4.4-.9.5-1.2a4.18,4.18,0,0,1,.4-1c.1-.2,0-.2-.2-.2h-.4c-.5,0-1-.1-1.5-.1a7.57,7.57,0,0,1-1.5-.1c-.1,0-.2-.1-.4.1a2.32,2.32,0,0,0-.4,1c-.2.6-.5,1.1-.7,1.6-.1.2-.1.2.1.2.5.1,1.1.1,1.6.2A6.62,6.62,0,0,1,39.46,44.15Zm-2.9,5.4H37c.1,0,.2,0,.2-.1.5-.6.9-1.4,1.4-2,.1-.2.1-.2-.1-.2a3.4,3.4,0,0,1-1-.1c-.2,0-.6-.1-.9-.1H36c-.4-.1-.9-.1-1.4-.2-.1,0-.1,0-.2.1a3.45,3.45,0,0,1-.9,1.2c-.2.4-.4.6-.6,1,0,.1-.1.1.1.2a1.7,1.7,0,0,0,.7.1A14.75,14.75,0,0,0,36.56,49.55Zm-8.3-23.1a.1.1,0,0,1-.1.1c-.1.2-.2.5-.5.6a3.81,3.81,0,0,1-1.5.1c-.2,0-.5-.1-.7.1a1.5,1.5,0,0,0-.5,1.5,5.38,5.38,0,0,0,1,2c.1.1.1.1.2,0a9.59,9.59,0,0,1,2.3-1.8c.2-.1.2-.2.1-.5a2.39,2.39,0,0,1-.2-.9C28.16,27.35,28.26,27,28.26,26.45Zm13,11.7h.5c.1,0,.1,0,.2-.1,0-.6.1-1.1.1-1.7,0-.1,0-.1-.1-.1-.4,0-.9-.1-1.2-.1a3.08,3.08,0,0,1-1-.1,1.7,1.7,0,0,1-.7-.1c-.1-.1-.2,0-.2.1a9.36,9.36,0,0,1-.4,1.6c-.1.1,0,.2.1.2h.5A7.8,7.8,0,0,0,41.26,38.15Zm-14.1,12.9h0a1.18,1.18,0,0,1-.7-.4c-.2-.1-.5-.1-.7-.2a7,7,0,0,1-1.7-.9c-.1,0-.1,0-.1.1a8.6,8.6,0,0,1,.1,1.6,1,1,0,0,1-.5,1c-.1.1-.1.1-.2.1s-.1.1,0,.2.2.1.5.2.7.4,1.1.5c.1,0,.1.1.2.1s.1-.1.1-.2a1.68,1.68,0,0,1,.6-1.1c.4-.4.9-.6,1.2-1C27.16,51.15,27.16,51.05,27.16,51.05Zm5.6-24.7h-.4c-.2,0-.2.1-.4.1-.5,0-.7.4-.5.9,0,.1.1.2.2.1a9.36,9.36,0,0,0,1.6-.4,6.15,6.15,0,0,1,1.4-.1c.2,0,.5.1.7.1h.1a.1.1,0,0,0-.1-.1,7.37,7.37,0,0,1-1.4-.4A2.34,2.34,0,0,1,32.76,26.35Z"/><path class="cls-1" d="M82.26,55.15a5.91,5.91,0,0,1-2.6-.4,3.67,3.67,0,0,1-1.8-1.1,5.6,5.6,0,0,1-1-1.5,4.87,4.87,0,0,0-.4-1.1,6.66,6.66,0,0,1-.2-2.8,8.51,8.51,0,0,1,.4-2.2,16.55,16.55,0,0,1,.6-2.1c.1-.5.4-1,.5-1.5s.5-1.2.7-1.7c.4-.9.9-1.7,1.4-2.6s1.1-1.7,1.7-2.6c.4-.4.6-.9,1-1.2a3.51,3.51,0,0,0,.7-.9,9.59,9.59,0,0,1,2.3-1.8,7.25,7.25,0,0,1,2.5-1.2,22.11,22.11,0,0,1,2.5-.5c.2,0,.6.1.9.1a2.81,2.81,0,0,1,1.5.6,3.27,3.27,0,0,1,1.1,1.5,7.14,7.14,0,0,1,.2,2.1,4.25,4.25,0,0,1-.2,1.1,7.55,7.55,0,0,1-1.1,2.2,14.48,14.48,0,0,1-1.7,1.8,17.1,17.1,0,0,0-1.4,1.1c-.1.1-.2.1-.2.2s.2.1.4.1a5.64,5.64,0,0,1,2,1.1,3.91,3.91,0,0,1,1.1,2.1,4.48,4.48,0,0,1,.1,1.2,10.87,10.87,0,0,1-.1,1.8,4.94,4.94,0,0,1-.5,1.6,6,6,0,0,1-.9,1.5,7.09,7.09,0,0,1-1.6,1.8,21.58,21.58,0,0,1-2.9,2.1,20.36,20.36,0,0,1-2.2.9,7.72,7.72,0,0,1-1.5.2A4.89,4.89,0,0,0,82.26,55.15Zm5.9-9.4a1.74,1.74,0,0,0-1.9-1.9,3.84,3.84,0,0,0-2.1.5,7.31,7.31,0,0,0-1.6,1.4,6.34,6.34,0,0,0-1.2,2.1,2.46,2.46,0,0,0-.2,1.7,2.7,2.7,0,0,0,.5,1.1c.2.4.6.5,1.1.5a7.57,7.57,0,0,0,1.5-.1,5.07,5.07,0,0,0,1.6-.9,5,5,0,0,0,1.1-1c.2-.2.4-.5.6-.7A26.14,26.14,0,0,0,88.16,45.75Zm1.2-11.6a.22.22,0,0,0-.2-.2,2.3,2.3,0,0,0-1.4.4,13,13,0,0,0-1.8,1.5,13.07,13.07,0,0,1-1.1,1.2,22.72,22.72,0,0,0-2.7,4.8c0,.1-.1.1,0,.2s.1,0,.2-.1l2.1-1.5a19.92,19.92,0,0,0,2.2-2c.7-.8,1.4-1.5,2-2.3A2.74,2.74,0,0,0,89.36,34.15Z"/><path class="cls-1" d="M66.26,43h-3.8c-.4,0-.4,0-.5.4a9.36,9.36,0,0,1-.4,1.6,7.37,7.37,0,0,1-.4,1.4,8.73,8.73,0,0,1-.5,2.2c-.2.7-.4,1.6-.6,2.3-.1.2,0,.2.2.4a4.05,4.05,0,0,1,1.1,0h4.2c.4,0,.7-.1,1.2-.1.2,0,.5.1.7,0,.7-.1,1.6,0,2.3-.1a28,28,0,0,1,2.9,0,1,1,0,0,1,1,.6,1.7,1.7,0,0,1,0,1,12.44,12.44,0,0,1-.4,1.6c-.1.6-.7,1.4-1.4,1.4h-.6c-2.9,0-5.8,0-8.7.1-2.7.1-5.4,0-8.1.1a3,3,0,0,1-1-.2,1,1,0,0,1-.2-.7,15.52,15.52,0,0,1,.4-2.1c.1-.5.1-1,.2-1.4a10.46,10.46,0,0,1,.4-1.7,6.75,6.75,0,0,0,.2-1.4,18.92,18.92,0,0,0,.5-2.3,16,16,0,0,1,.5-2.1,8.33,8.33,0,0,1,.4-1.5,8.47,8.47,0,0,1,.4-1.7,11.63,11.63,0,0,1,.4-1.8,17.42,17.42,0,0,0,.5-2.2c.1-.7.4-1.4.5-2.1a3.15,3.15,0,0,1,.9-1.7,1.64,1.64,0,0,1,1.1-.7,2.39,2.39,0,0,1,.9-.2c.5-.1.9-.1,1.4-.2.1,0,.4,0,.5-.1a1.34,1.34,0,0,1,1.4.6c.2.4,0,.7,0,1-.1.7-.4,1.6-.5,2.3s-.4,1.5-.5,2.2c-.1.4-.1.7-.2,1.1,0,.1,0,.2.1.1h.5a18.48,18.48,0,0,0,2.3-.1c1.4-.1,2.8-.1,4.2-.1a1.87,1.87,0,0,1,1.4.5,1.27,1.27,0,0,1,.4.9,4.1,4.1,0,0,1-.1,1.1c-.1.2-.1.6-.2.9a1.66,1.66,0,0,1-1.4,1A14.21,14.21,0,0,0,66.26,43Z"/><path class="cls-1" d="M101.66,41.65a7.89,7.89,0,0,1,1.5-1.2,7,7,0,0,1,.9-.6,4.1,4.1,0,0,1,1.7-.7,5.9,5.9,0,0,1,1.4-.2c.4,0,.7-.1,1.1-.1a3.51,3.51,0,0,1,2,.5,4.51,4.51,0,0,1,1.4,1,4.19,4.19,0,0,1,1.1,1.6,8.8,8.8,0,0,1,.5,1.5,17,17,0,0,1,.1,2.3,6.47,6.47,0,0,1-.4,2,10,10,0,0,1-1,2.1,13.23,13.23,0,0,1-1.8,2.2,19.52,19.52,0,0,1-2.3,1.7,9,9,0,0,1-2.7,1.1,11.63,11.63,0,0,0-1.8.4,10.82,10.82,0,0,1-1.8,0,7.72,7.72,0,0,1-1.5-.2c-.4-.1-.7-.1-1-.2-.1-.1-.2,0-.2.1a8.33,8.33,0,0,1-.4,1.5c-.1.4-.1.7-.2,1.1a8.33,8.33,0,0,1-.4,1.5,4.8,4.8,0,0,1-.5,1.7,2.15,2.15,0,0,1-1.5,1h-1.5a1.75,1.75,0,0,1-1.4-.7c-.2-.2-.1-.6,0-.9.2-.7.4-1.6.6-2.3a7.37,7.37,0,0,1,.4-1.4,7.37,7.37,0,0,1,.4-1.4c0-.2.1-.5.1-.7.1-.6.4-1.4.5-2a8.33,8.33,0,0,1,.4-1.5,18.92,18.92,0,0,0,.5-2.3c.1-.7.4-1.5.5-2.2a8.33,8.33,0,0,1,.4-1.5c.2-1,.4-1.8.6-2.8a8.33,8.33,0,0,1,.4-1.5,1.91,1.91,0,0,1,.5-1,.89.89,0,0,1,.5-.4,2.39,2.39,0,0,1,.9-.2h1.5a1.17,1.17,0,0,1,1.1.5l.1.1a4.73,4.73,0,0,1-.1,1.7C101.66,41.35,101.56,41.45,101.66,41.65Zm6.5,3.2a6.6,6.6,0,0,0-.1-1.4,1.59,1.59,0,0,0-.9-.9,4.29,4.29,0,0,0-1.6,0,2.7,2.7,0,0,0-1.1.5,6.53,6.53,0,0,0-1.2,1.1,15.76,15.76,0,0,0-1.2,1.5,11.91,11.91,0,0,0-.9,1.5,16.18,16.18,0,0,0-1,1.8,4.33,4.33,0,0,0-.5,1.2c-.1.2-.1.4.2.4.5,0,.9.1,1.4.1h1.5a5.4,5.4,0,0,0,2.2-1,12.88,12.88,0,0,0,1.7-1.6,5.17,5.17,0,0,0,1.2-1.8A1.83,1.83,0,0,0,108.16,44.85Z"/><path class="cls-1" d="M140.26,41.25h0a4.72,4.72,0,0,1,.5-.5c1.83-1.82,4.59-3,7.16-2.22a6,6,0,0,1,3.84,3.82c1.05,2.87-.39,5.95-2.3,8.1a12.1,12.1,0,0,1-11.2,3.9c-.2-.1-.5-.1-.7-.2s-.2.2-.2.2l-2.1,6.8a1.21,1.21,0,0,1-.5.1h-1.1a4.4,4.4,0,0,1-1.6-.2,1.28,1.28,0,0,1-.5-.7,4.25,4.25,0,0,1,.2-1.1c.2-.7,1.1-4.3,1.3-5.1.62-2.45,3.11-13.38,3.5-14.4a1.13,1.13,0,0,1,1.2-.7h1.4a4.1,4.1,0,0,1,1.1.1c.2,0,.42.42.42.42S140.32,41.1,140.26,41.25Zm0,9.21a5,5,0,0,0,2.5-.41,10.91,10.91,0,0,0,2.9-2.3,5.21,5.21,0,0,0,1.21-2.56,4,4,0,0,0-.11-2.13c-.4-.89-1.69-.93-2.49-.64a6.16,6.16,0,0,0-2.74,2.46,40.21,40.21,0,0,0-3.07,5.17c-.1.2-.1.4.2.5a2.68,2.68,0,0,0,.78-.09Z"/><path class="cls-1" d="M161.06,54.32a8.94,8.94,0,0,1-4.9-1.57,6.62,6.62,0,0,1-2-7.3,10.93,10.93,0,0,1,6.05-6.14c2.28-.94,6.77-1.75,8.75.24.4.2.7.7,1.1,1.1,2.06,2.46,1.81,6.67,0,9.2-1.43,2.56-4.87,4-7.15,4.37A10.39,10.39,0,0,1,161.06,54.32Zm.3-3.87a3.8,3.8,0,0,0,2.2-.6,2.94,2.94,0,0,0,1.2-1,6.36,6.36,0,0,0,1.4-2.2,11.71,11.71,0,0,0,.4-2.6,2,2,0,0,0-.6-1.5,4.33,4.33,0,0,0-1.2-.5,5,5,0,0,0-2.1.1,3.36,3.36,0,0,0-1.5.9,12.45,12.45,0,0,0-1.6,2.2,9.38,9.38,0,0,0-.6,1.5,6.15,6.15,0,0,0-.1,1.4,3.08,3.08,0,0,0,.1.9,1.52,1.52,0,0,0,.6,1A3.66,3.66,0,0,0,161.36,50.45Z"/><path class="cls-1" d="M132.63,44.85a7.4,7.4,0,0,1-1.27,5,10.61,10.61,0,0,1-1.7,2c-.7.6-1.5,1.1-2.2,1.6a9.26,9.26,0,0,1-2,.9,8.56,8.56,0,0,1-2.3.5,1.7,1.7,0,0,0-.7.1c-.1.1-.4,0-.5,0-.4-.1-.7,0-1.1-.1a4.25,4.25,0,0,1-1.1-.2,3.36,3.36,0,0,1-1.4-.5,6.39,6.39,0,0,1-2.7-2.7,9.38,9.38,0,0,1-.6-1.5,8.2,8.2,0,0,1,1.1-6,10.7,10.7,0,0,1,1.4-1.6,11.19,11.19,0,0,1,3.8-2.6c.7-.2,1.5-.5,2.2-.7a17.85,17.85,0,0,1,2.3-.2,6.13,6.13,0,0,1,2.7.4,8.11,8.11,0,0,1,1.8,1,8.45,8.45,0,0,1,1.5,1.8,5,5,0,0,1,.62,1.92c.05.27.11.55.14.82Zm-12.77,3.6V49a2,2,0,0,0,.9,1.5,3.26,3.26,0,0,0,1.4.4,4.48,4.48,0,0,0,1.2-.1,4.59,4.59,0,0,0,1.6-.7c.4-.4.7-.6,1.1-1a5.38,5.38,0,0,0,.9-1.2,3.94,3.94,0,0,0,.6-2.1,9.63,9.63,0,0,0,0-1.7,1.52,1.52,0,0,0-1-1.2c-.2-.1-.5-.1-.7-.2a5.3,5.3,0,0,0-2.5.1,3.24,3.24,0,0,0-1.7,1.4,9.34,9.34,0,0,0-1.5,2.6A6.53,6.53,0,0,0,119.86,48.45Z"/><path class="cls-1" d="M184.66,37.94a4.65,4.65,0,0,1,4.2,1.61,12.75,12.75,0,0,1,.7,1.2c.38,1.51.82,3.51-.9,4.2a5.45,5.45,0,0,1-2.2.1,1.8,1.8,0,0,1-1-.2,1,1,0,0,1-.5-1.2,4.05,4.05,0,0,0,0-1.1,1,1,0,0,0-.7-.7,1.7,1.7,0,0,0-.7-.1,3.81,3.81,0,0,0-2.2.7,7.37,7.37,0,0,0-1.8,1.7A8.75,8.75,0,0,0,178,47.3c-.16.9,0,2.31,1.05,2.65a11.25,11.25,0,0,0,6-.5,10.2,10.2,0,0,0,2.2-.9c.4-.1.7-.4,1.2-.4a.76.76,0,0,1,.5.2,1.7,1.7,0,0,1,.2,1.4,1.83,1.83,0,0,1-1,1.8c-.54.28-2.95,1.66-3.6,1.87-2.19.7-4.85,1.33-7.15.79a7.28,7.28,0,0,1-3.35-2.06,5,5,0,0,1-1.4-2.7,7.87,7.87,0,0,1,.87-4.94,11.58,11.58,0,0,1,3.53-4A16,16,0,0,1,184.66,37.94Z"/><path class="cls-1" d="M70.26,26.05a14.08,14.08,0,0,0,2.1-.1H74a6.73,6.73,0,0,1,2,.1,5.54,5.54,0,0,1,1.8.2c.2.1.6.1.9.4a.48.48,0,0,1,.2.7c-.2.4-.4.9-.6,1.4s-.5.9-.7,1.4a.35.35,0,0,1-.1.2c-.1.4-.4.5-.9.4s-.6,0-1-.1a22.6,22.6,0,0,0-2.6-.1c-1.4-.1-2.7-.1-4.1-.1h-.1a1.7,1.7,0,0,1-.7.1H67a3.4,3.4,0,0,0-1,.1c-.7.1-1.5.1-2.2.2a7.77,7.77,0,0,1-1.6.2c-.4.1-.7.1-1.2.2a4.23,4.23,0,0,0-1.2.4,12.47,12.47,0,0,0-2.7,1c-.5.2-.9.4-1.4.6a1.27,1.27,0,0,1-.6.1c-.2,0-.2-.1-.4-.4a3.73,3.73,0,0,1,2-3.6,14.65,14.65,0,0,1,2.8-1.4c1-.4,2-.6,2.9-.9a15.54,15.54,0,0,1,2.3-.5,25.12,25.12,0,0,0,2.7-.4h1a5.28,5.28,0,0,1,1.2-.1C69.86,25.85,70.06,26.05,70.26,26.05Z"/><path class="cls-1" d="M111,34.76a.2.2,0,0,1-.2.2h-1.1s-.24,0-.28-.2,0-3.31,0-3.61-.1-.2-.2-.2h-1.1c-.2,0-.2.1-.2.2a5.28,5.28,0,0,1,.1,1.2c0,.4,0,.4-.4.4h-2.7v.1c.1.1.13.33.44.47a3.52,3.52,0,0,0,1.86-.07c.2-.1.2,0,.4.2,0,.2.1.5.1.6s0,.4-.2.4a4.15,4.15,0,0,1-3.1,0,2,2,0,0,1-1.2-1.5,4.27,4.27,0,0,1,.1-1.9,2.14,2.14,0,0,1,1.7-1.6,2.34,2.34,0,0,1,2.3.5c.1.1.2.4.4.5a.1.1,0,0,0,.1.1c.1,0,0-.1,0-.2s0-.5,0-.7,3.2-.2,4.4-.2h.2a.31.31,0,0,1,.4.4v.5a.38.38,0,0,1-.38.55c-.4,0-1.32.05-1.32.05S111,34.26,111,34.76Zm-5-3.21h.1c.1,0,.1,0,.1-.1s-.2-.6-.5-.6c-.5-.1-1,.1-1,.6,0,.1,0,.2.2.2S105.76,31.55,106,31.55Z"/><path class="cls-1" d="M124.56,34.78a3.15,3.15,0,0,1-1.41-.15,2.86,2.86,0,0,1-1-.45,2.64,2.64,0,0,1-.9-2.13,2.58,2.58,0,0,1,1.7-2.5,3.28,3.28,0,0,1,1.7-.1,15.48,15.48,0,0,0,2.1.1c.1,0,.2,0,.4.2.1.4.7,2.3.7,2.4s0,.1.1.1.1,0,.1-.1c0-.4.6-2,.6-2.5,0-.1.1-.1.2-.1h1.5c.1,0,.2.1.1.2-.4.7-2.2,5.2-2.4,5.8a.62.62,0,0,1-.5.4h-1c-.2,0-.2-.1-.1-.2a10.41,10.41,0,0,0,.5-1.2,40.9,40.9,0,0,0-1.6-4.2l-.09-.24-.14,0s0,.32,0,.42-.1.4-.4.2a2.05,2.05,0,0,0-1.1,0,1.06,1.06,0,0,0-.9,1,1.55,1.55,0,0,0,.1.88c.42.7,1.12.52,1.8.52.1,0,.2,0,.2.1S124.88,34.64,124.56,34.78Z"/><path class="cls-1" d="M151.74,31.17c-.1.2-.88,3.18-.88,3.18a.37.37,0,0,1-.4.4h-.9a.22.22,0,0,1-.2-.2c0-.4-.52-3.11-.52-3.11l-.08,3.11s-.1.2-.2.2h-1.1c-.2,0-.2-.1-.2-.4s.3-4.3.3-4.6a.22.22,0,0,1,.2-.2h1.6a.62.62,0,0,1,.32.08,19.23,19.23,0,0,1,.68,2.42v.1s.72-2.54.82-2.64a8.39,8.39,0,0,1,1.68-.06c.4,0,.4.1.5.4s.32,4.31.32,4.71c0,.2-.1.2-.2.2h-1c-.1,0-.2-.2-.2-.2S151.84,31.27,151.74,31.17Z"/><path class="cls-1" d="M159.16,30.05c0-.5,0-.5.5-.5h.7c.2,0,.4.1.4.2s0,.1.1.2.1,0,.2-.1a2,2,0,0,1,2.9.4,1.94,1.94,0,0,1,.5,1.6,4.48,4.48,0,0,1-.1,1.2,2.89,2.89,0,0,1-1.2,1.5,2.57,2.57,0,0,1-1.5.1c-.1,0-.2-.1-.4-.2a.35.35,0,0,0-.2-.1c-.1,0,0,.1,0,.2v1.7c0,.2-.1.2-.2.2h-1.1c-.46,0-.4-.47-.4-.47S159.16,31.15,159.16,30.05Zm1.7,2.1v.5a.66.66,0,0,0,.6.7c.2.1.6-.1.9-.4.4-.5.2-1,.2-1.6a.9.9,0,0,0-1-.7,1,1,0,0,0-.7.9Z"/><path class="cls-1" d="M143.06,35.55v.9c0,.3-.1.2-.2.2h-1.2c-.2,0-.2-.1-.2-.2.1-.7,0-6.17,0-6.7,0-.1,0-.2.2-.2h1.1a.22.22,0,0,1,.2.2c0,.1,0,.1.1.2s.1,0,.2-.1a2.12,2.12,0,0,1,2.7.1,2.76,2.76,0,0,1,.8,2.9,2.4,2.4,0,0,1-.7,1.2,2.34,2.34,0,0,1-2.1.5c-.1,0-.89-.26-.89-.26Zm0-2.7a.82.82,0,0,0,.7.6,1,1,0,0,0,.9-.9v-1a.75.75,0,0,0-.7-.7,1.21,1.21,0,0,0-.94.57S143.06,32.65,143.06,32.85Z"/><path class="cls-1" d="M188.46,32.05a1.53,1.53,0,0,1,.7.5.88.88,0,0,1,.2,1,1.5,1.5,0,0,1-1.4,1.1,8.1,8.1,0,0,1-3.1.1c-.4,0-.4,0-.4-.4V30c0-.1,0-.2.2-.2a20.9,20.9,0,0,1,2.5-.1,2.26,2.26,0,0,1,1.5.5,1.07,1.07,0,0,1-.1,1.8C188.66,31.75,188.56,32,188.46,32.05Zm-1.6.5c-.5,0-.5,0-.5.5v.5c0,.1,0,.1.1.1a1.72,1.72,0,0,0,1.2-.2c.2-.2.2-.6,0-.7A3.09,3.09,0,0,0,186.86,32.55Zm-.5-1.5v.2a.37.37,0,0,0,.4.4c.1,0,.4-.1.5-.1a.66.66,0,0,0,.5-.4c0-.1-.2-.4-.4-.4a4.33,4.33,0,0,1-.5-.1C186.36,30.55,186.36,30.55,186.36,31.05Z"/><path class="cls-1" d="M135.86,32.15v2.3c0,.2-.1.2-.2.2h-1.1a.37.37,0,0,1-.4-.4v-3c0-.4,0-.4-.4-.4h-1a29.42,29.42,0,0,0-.1,3.5c0,.4,0,.4-.4.4H131.1l0-.4v-4.6c0-.1,0-.2.2-.2h4.3c.2,0,.2.1.2.2A20.93,20.93,0,0,1,135.86,32.15Z"/><path class="cls-1" d="M179.37,30.75l.11-.19a2.59,2.59,0,0,1,2.18-1.11,2.28,2.28,0,0,1,1.6.4,2.11,2.11,0,0,1,1.1,1.8v1.2a2.18,2.18,0,0,1-1.5,1.7,3.1,3.1,0,0,1-2.5-.1,2.59,2.59,0,0,1-1.2-1.7A3.7,3.7,0,0,1,179.37,30.75Zm1.55,1.41v.05c.08.59.13,1.23.81,1.41a.49.49,0,0,0,.24,0,1.1,1.1,0,0,0,.68-.59,2.21,2.21,0,0,0,0-1.6c-.1-.4-.4-.5-.7-.6s-.87.44-1,.74A1.09,1.09,0,0,0,180.92,32.16Z"/><path class="cls-1" d="M158.56,32.85v1.5c.1.4,0,.5-.4.5h-.7c-.2,0-.5,0-.5-.4,0,0-.1-.2-.2-.1a1.61,1.61,0,0,1-1.6.4c-.6-.1-1.2-.6-1.2-1.1a1.89,1.89,0,0,1,1.4-2.2,6.75,6.75,0,0,1,1.4-.2c.2,0,.2-.1.1-.2a.59.59,0,0,0-.5-.2,6.55,6.55,0,0,0-.88,0,2.42,2.42,0,0,0-.45.1,1,1,0,0,1-.28.1,1.11,1.11,0,0,1-.29-.14,1.73,1.73,0,0,1-.1-.45,2.74,2.74,0,0,1-.09-.39c0-.33.33-.33.56-.39l.55-.14a3.59,3.59,0,0,1,1.08-.13,2.13,2.13,0,0,1,2,1.8A9.74,9.74,0,0,1,158.56,32.85Zm-1.7-.1v-.2c0-.32-.67,0-.81.05a.7.7,0,0,0-.26.19.54.54,0,0,0,.37.86c.2,0,.6,0,.7-.2Z"/><path class="cls-1" d="M166.46,33.75v.7a.22.22,0,0,1-.2.2h-1.1c-.2,0-.2-.1-.2-.2v-4.7c0-.1,0-.2.2-.2h1.2c.2,0,.2.1.2.2v1.5c0,.1,0,.15.08.15s.12-.15.12-.15.7-1.1,1.1-1.6c.1-.1.2-.1.4-.1h1.4c.1,0,.2,0,.2.1s0,.1-.1.2c-.4.4-.6.7-1,1.1l-.6.6c-.1.1-.1.2.1.2,1.06.36,1.1,1.6,1.3,2.1a1.69,1.69,0,0,1,.2.5s.05.19-.2.2h-1c-.4,0-.5-.1-.6-.4s-.2-1.49-1.2-1.6a.53.53,0,0,0-.24.11S166.46,33.55,166.46,33.75Z"/><path class="cls-1" d="M172.87,32.62c-.4,0-1.21.13-1.51.13h-.2c0,.1,0,.1.1.2.2.4.6.5,1.1.5a2.17,2.17,0,0,0,1.2-.2c.2-.1.4,0,.4.2a1.7,1.7,0,0,0,.1.7c0,.1,0,.2-.1.2a5.54,5.54,0,0,1-1.8.2,2.51,2.51,0,0,1-2.2-1.2c-.89-1.43-.19-3.8,1.6-4.1a2.44,2.44,0,0,1,2.2.6,2.51,2.51,0,0,1,.6,1.4c0,.2-.05.7-.05,1.1C174.41,32.55,173.27,32.62,172.87,32.62Zm-.41-1.07a.1.1,0,0,0,.1-.1.73.73,0,0,0-.9-.6.89.89,0,0,0-.6.6c-.1.1,0,.2.1.2A6.15,6.15,0,0,1,172.46,31.55Z"/><path class="cls-1" d="M139.36,32.75H138c-.1,0-.1,0-.1.1v.2a1.39,1.39,0,0,0,1.1.5,2.34,2.34,0,0,0,1.2-.2c.1-.1.24.23.24.23l.27.76a4.23,4.23,0,0,1-2,.41,2.73,2.73,0,0,1-1.8-.6,1.8,1.8,0,0,1-.7-1.5,3.72,3.72,0,0,1,.2-1.8,2.4,2.4,0,0,1,2.2-1.4,2.18,2.18,0,0,1,2.12.95c.38.45.28,1.75.28,2.05s-.1.2-.2.2A6.6,6.6,0,0,1,139.36,32.75Zm-.7-1.2h.6c.1,0,.1,0,.1-.1s-.4-.7-.6-.7a1,1,0,0,0-.9.6c0,.1,0,.2.1.2Z"/><path class="cls-1" d="M112.92,31.89v-2.2c0-.2.4-.2.4-.2h.9c.1,0,.2,0,.4.2,0,.4.08,1.4.08,1.4h1.42a1.81,1.81,0,0,1,1.7,1.8,1.87,1.87,0,0,1-.59,1.39,2.92,2.92,0,0,1-1.53.62,4.84,4.84,0,0,1-1.14.1h-1c-.5,0-.6-.1-.6-.6Zm2.2,1.5a1.36,1.36,0,0,0,.62-.11.64.64,0,0,0,.38-.59.51.51,0,0,0-.4-.5,2,2,0,0,0-.7-.1.37.37,0,0,0-.4.4v.7c0,.1,0,.2.1.2Z"/><path class="cls-1" d="M98.56,32.15a2.83,2.83,0,0,1,0-.41,2.5,2.5,0,0,1,1.47-1.89,4,4,0,0,1,2.66,0c.2,0-.06.52-.06.82s-.1.5-.5.4a1.45,1.45,0,0,0-1.77,1,1.14,1.14,0,0,0,.63,1.29,3.09,3.09,0,0,0,1.54.1.22.22,0,0,1,.2.2c.1.2,0,.6.1.9,0,.1,0,.1-.1.1a3.41,3.41,0,0,1-3-.14A2.6,2.6,0,0,1,98.56,32.15Z"/><path class="cls-1" d="M179.25,30.71l0,.05c-.08.09-.35,0-.46,0s-.4,0-.6,0h-.4c-.1.1,0,.2,0,.4v3.1a.37.37,0,0,1-.4.4h-1c-.4,0-.4-.1-.4-.4v-3.1c0-.4,0-.4-.4-.4h-1a.37.37,0,0,1-.4-.4v-.6a.37.37,0,0,1,.4-.4h4c.15,0,.41-.08.53.06s.07.55.07.74S179.3,30.56,179.25,30.71Z"/></g></svg>