<svg id="Layer_1" data-name="Layer 1" xmlns="http://www.w3.org/2000/svg" viewBox="0 0 205 85"><defs><style>.cls-1{fill:#023044;}</style></defs><title>prisma-logo</title><g id="EMnILu"><path class="cls-1" d="M104.6,59.4c-1.5,0-3,0-4.49,0a3.61,3.61,0,0,1-3.65-4.11c.22-2.26.59-4.51.89-6.76s.6-4.5.92-6.74c.38-2.6.75-5.21,1.12-7.81.29-2,.59-4.08.83-6.12s.59-4.2.9-6.29c0-.32.18-.63.53-.63a14.44,14.44,0,0,1,3.83.14c2,.52,2.77,2.68,2.52,4.4-.08.57-.13,1.14-.22,1.7-.06.4.09.51.48.5,1.86,0,3.72,0,5.58,0a3.68,3.68,0,0,1,3.59,4.36c-.3,2.38-.59,4.76-.93,7.13-.39,2.77-.84,5.53-1.26,8.29s-.74,5.29-1.18,7.93a4.54,4.54,0,0,1-4.65,4H104.6Zm1.29-7.87v0h1.22c.23,0,.35-.08.38-.32.22-1.49.46-3,.67-4.46.29-2.06.56-4.12.85-6.18.22-1.58.45-3.15.68-4.73,0-.28-.07-.37-.35-.37-.72,0-1.45,0-2.18,0-.49,0-.61.21-.66.62-.26,2-.51,4-.79,6.06-.37,2.65-.76,5.29-1.14,7.94-.06.46-.43,1.09-.11,1.35S105.4,51.53,105.89,51.53Z"/><path class="cls-1" d="M87.57,59.28c-1.9-.06-3.8-.18-5.7-.3a6.69,6.69,0,0,1-2.5-.33,4.23,4.23,0,0,1-2.2-4.29c.26-1.59.37-3.2.58-4.8s.46-3.4.69-5.11c.37-2.58.68-5.17,1.11-7.74a42.07,42.07,0,0,1,1-5.69,4.5,4.5,0,0,1,4.36-3.2c1.52,0,3,.06,4.55,0,1.69-.08,3.37-.13,5.06-.12A3.39,3.39,0,0,1,98,31.16a34.23,34.23,0,0,1-.55,4.74c-.15,1.45-.41,2.9-.62,4.34-.29,2-.59,4-.86,6s-.49,4.22-.82,6.31a27.71,27.71,0,0,1-.61,3.7,4.12,4.12,0,0,1-4,3Zm-1.13-7.84c.34,0,.69,0,1,0s.51,0,.56-.46c.09-.74.18-1.47.28-2.21.31-2.24.66-4.48,1-6.73.29-2,.54-4.08.84-6.11.06-.35,0-.41-.3-.41-.75,0-1.5,0-2.25,0-.42,0-.54.17-.58.55-.17,1.35-.35,2.69-.54,4-.29,2-.59,4.07-.88,6.11-.21,1.51-.4,3-.62,4.54-.07.49,0,.78.59.7A6.76,6.76,0,0,1,86.44,51.44Z"/><path class="cls-1" d="M62.85,39.71c1,0,2.1,0,3.15,0,1.65,0,2.46.82,2.36,2.46s-.33,3-.52,4.57-.39,3-.62,4.54-.38,2.77-.7,4.13A3.37,3.37,0,0,1,63,58.23a54.83,54.83,0,0,1-5.87-.32c-1.31-.13-2.63-.28-3.94-.43a8.36,8.36,0,0,1-2.45-.59,3.35,3.35,0,0,1-2-3.17,28.08,28.08,0,0,1,.32-5.09c.23-2.16.51-4.3.83-6.45.36-2.51.71-5,1.22-7.52a9.13,9.13,0,0,1,.6-2.59,5.86,5.86,0,0,1,5-3.18c3.21-.27,6.42-.39,9.64-.45,2.75,0,3.89,2,3.53,4.37-.27,1.76-.57,3.52-.85,5.28-.08.52-.31.79-.88.78-1.3,0-2.61,0-3.91,0a2.31,2.31,0,0,1-2.39-2.29c0-.42-.13-.56-.54-.53-.83,0-1.67.05-2.5.06-.27,0-.4.1-.44.41-.3,2-.64,4-.91,6-.28,2.17-.64,4.32-1,6.48a6.87,6.87,0,0,1-.11,1.2c-.1.29.11.33.32.34l2.75.17c.25,0,.43,0,.48-.35.13-.92.31-1.84.47-2.75.07-.34.06-.55-.38-.68a2.45,2.45,0,0,1-1.83-3c.2-1.15.39-2.3.54-3.46.08-.56.38-.7.87-.69h3.27Z"/><path class="cls-1" d="M121.69,27.83c1.12.08,2.28-.06,3.3.67a3.93,3.93,0,0,1,1.62,3.86c-.18,1.79-.47,3.57-.73,5.35s-.58,3.77-.87,5.66c-.38,2.49-.75,5-1.14,7.49,0,.27,0,.33.29.32h.58c2.16,0,2.11,0,2.3-2.2.14-1.48.47-2.93.68-4.39.37-2.57.81-5.12,1.11-7.69.16-1.34.47-2.67.59-4a5.86,5.86,0,0,1,.8-2.78,3.89,3.89,0,0,1,3.42-1.87c1,0,2,.07,3,.11.51,0,.73.25.67.77-.2,2-.44,3.92-.73,5.88s-.54,4-.83,6c-.17,1.17-.38,2.34-.57,3.51-.28,1.72-.52,3.44-.85,5.15a32.65,32.65,0,0,1-1.27,6.2A4.43,4.43,0,0,1,129,58.75c-3.26.18-6.53.26-9.79.4a3.35,3.35,0,0,1-3.38-3.33,41.61,41.61,0,0,1,.6-4.86q.41-2.87.85-5.73c.19-1.3.44-2.59.63-3.89.23-1.6.43-3.2.64-4.8.35-2.65.69-5.3,1-7.95.06-.5.26-.84.87-.77A10.06,10.06,0,0,0,121.69,27.83Z"/><path class="cls-1" d="M145.05,39.63c2.15,0,4.27.07,6.38,0a3.37,3.37,0,0,1,3.25,3.19c-.08,1.64-.35,3.25-.59,4.86A51.18,51.18,0,0,1,153,53a5.63,5.63,0,0,1-4.15,4.41,21.57,21.57,0,0,1-3.61.42c-2.16.16-4.33.24-6.5.43-2.77.24-4.19-1.8-3.7-4.35.32-1.69.59-3.39.88-5.08.13-.73.29-.85,1.05-.87l3.78-.13A2.26,2.26,0,0,1,143.06,50c0,.48.19.56.61.52.61-.05,1.23-.09,1.85-.1.35,0,.47-.14.52-.49.11-.79.28-1.58.46-2.36.09-.4,0-.53-.42-.52-1.8,0-3.61-.1-5.39,0-2.33.18-3.93-2.33-3.64-4.34.25-1.74.49-3.49.76-5.22s.56-3.74.9-5.59A4.15,4.15,0,0,1,143,28.58q4,.12,8.05.42a6.06,6.06,0,0,1,3.35.86A3.85,3.85,0,0,1,156.19,34c-.3,1.41-.46,2.85-.65,4.28a.66.66,0,0,1-.78.64c-1.36,0-2.73,0-4.1,0a2.44,2.44,0,0,1-2.18-2.3c0-.32-.11-.45-.44-.46-.62,0-1.24,0-1.86-.07a.5.5,0,0,0-.63.5C145.4,37.55,145.22,38.57,145.05,39.63Z"/><path class="cls-1" d="M68.33,54.36c.18-1.82.36-3.63.64-5.44.21-1.45.34-2.91.55-4.36.29-2,.59-3.94.87-5.91.53-3.85,1.25-7.66,1.84-11.5.25-1.61.59-3.2.9-4.8a.64.64,0,0,1,.63-.59c1-.13,2-.06,2.94-.13a3.12,3.12,0,0,1,3.22,3.22,31.88,31.88,0,0,1-.66,4.66c-.27,1.82-.59,3.64-.87,5.46-.32,2.09-.64,4.19-.94,6.29-.26,1.82-.49,3.65-.73,5.48-.34,2.53-.72,5-1,7.58-.14,1.25-.29,2.49-.42,3.74,0,.32-.13.57-.46.56a32.73,32.73,0,0,1-3.57-.21A3.75,3.75,0,0,1,68.33,54.36Z"/><path class="cls-1" d="M63.61,26.16a22.15,22.15,0,0,1,2.11-2.81,43.09,43.09,0,0,1,16.83-11.9A56,56,0,0,1,93.47,8.29a57.63,57.63,0,0,1,13.43-.85A55,55,0,0,1,117.47,9a52,52,0,0,1,12,4.55,40.4,40.4,0,0,1,14.14,12.12c.13.19.38.37.25.61s-.39,0-.59,0c-1.2.24-1.8-.51-2.47-1.34a40.53,40.53,0,0,0-15.93-11.66,51.63,51.63,0,0,0-10.31-3.16,45.45,45.45,0,0,0-6.38-.83,46.11,46.11,0,0,0-5-.23c-2.45.1-4.89.27-7.32.6a51.77,51.77,0,0,0-11.38,2.88A44.59,44.59,0,0,0,72,19.66a35.69,35.69,0,0,0-5.88,6,1.09,1.09,0,0,1-1,.48C64.64,26.14,64.19,26.16,63.61,26.16Z"/><path class="cls-1" d="M64.91,60.43a10.08,10.08,0,0,1,2,.11c.23,0,.32.16.45.3a43.08,43.08,0,0,0,18.33,12,51.29,51.29,0,0,0,9,2.29c1.73.29,3.5.44,5.26.58a57.62,57.62,0,0,0,6,.08,49.79,49.79,0,0,0,6.09-.58,53.56,53.56,0,0,0,6.9-1.47A47.9,47.9,0,0,0,129.1,69.6a40.81,40.81,0,0,0,10-7.65,5.84,5.84,0,0,0,.85-1c.63-1.12,1.72-.6,2.6-.76.3-.06.1.26,0,.39-.65.78-1.27,1.6-2,2.34a42.38,42.38,0,0,1-10.49,8.1,50.52,50.52,0,0,1-10.57,4.36A54.9,54.9,0,0,1,112,77a57.72,57.72,0,0,1-9.56.61A63.24,63.24,0,0,1,95.58,77a54.44,54.44,0,0,1-9.53-2.2,46.66,46.66,0,0,1-15.67-8.57A38,38,0,0,1,65,60.78.38.38,0,0,1,64.91,60.43Z"/><path class="cls-1" d="M138,26c-1.63.05-3.13-.11-4.63-.18-.34,0-.68-.06-1-.06-2.69,0-5.38-.18-8.06-.25a.57.57,0,0,1-.54-.36,56.64,56.64,0,0,0-3.91-6.64c-.2-.29-.11-.37.19-.48a27.5,27.5,0,0,0,4.08-1.62.88.88,0,0,1,.79,0,39.27,39.27,0,0,1,12.88,9.25C137.84,25.76,137.88,25.84,138,26Z"/><path class="cls-1" d="M94.46,25.41H85.11c-.68,0-.69,0-.37-.6a62.88,62.88,0,0,1,3.68-6.1.58.58,0,0,1,.77-.28,50.82,50.82,0,0,0,6.9,1.4c1,.14,2,.21,2.92.28.28,0,.39.07.3.37a21.62,21.62,0,0,0-.64,3.82c-.11,1-.09,1-1.07,1H94.46Z"/><path class="cls-1" d="M103.24,15.37c0,.92,0,1.84,0,2.76,0,.43-.09.62-.57.6a4.87,4.87,0,0,0-2.12.31,4.61,4.61,0,0,1-2.08-.11c-1.29-.1-2.57-.29-3.85-.47a43.25,43.25,0,0,1-4.91-1c-.4-.1-.17-.3,0-.46a28.76,28.76,0,0,0,2.08-2.75c.75-1.27,2-1.33,3.18-1.51a61.89,61.89,0,0,1,7.69-.69c.54,0,.66.17.64.66C103.21,13.58,103.24,14.48,103.24,15.37Z"/><path class="cls-1" d="M103.24,69.51c0,.94,0,1.88,0,2.82,0,.45,0,.66-.61.63-1.73-.1-3.45-.13-5.17-.34-1.45-.18-2.9-.42-4.34-.66a1,1,0,0,1-.66-.35c-.89-1.14-1.79-2.28-2.7-3.4-.32-.41-.23-.52.26-.64a53.55,53.55,0,0,1,9.43-1.42c1-.07,2.1,0,3.13-.14.48-.06.7.06.67.61,0,1,0,1.93,0,2.89Z"/><path class="cls-1" d="M136.26,60.75a16.94,16.94,0,0,1-2.47,2.33,41.2,41.2,0,0,1-9.41,5.69.62.62,0,0,1-.59,0,21.46,21.46,0,0,0-3.89-1.55c-.42-.12-.41-.29-.18-.62a56.52,56.52,0,0,0,3-4.89.75.75,0,0,1,.77-.41c3.09,0,6.17-.35,9.26-.4C133.9,60.89,135.06,60.71,136.26,60.75Z"/><path class="cls-1" d="M104.3,15.34c0-1,0-1.93,0-2.89,0-.28,0-.44.38-.42,1.68.07,3.37.13,5,.34,1.28.17,2.56.38,3.84.56a1.64,1.64,0,0,1,1.16.55c1,1.16,1.9,2.36,2.83,3.55.37.49.12.58-.3.66-1.49.31-3,.64-4.49.86a51,51,0,0,1-5.52.53c-.93,0-1.81-.46-2.76-.39-.25,0-.17-.25-.17-.4,0-1,0-2,0-2.95Z"/><path class="cls-1" d="M71.15,60.78c1.24.14,2.51.13,3.78.19,2.54.14,5.07.35,7.61.35h.26a1.8,1.8,0,0,1,2,1.18,31.42,31.42,0,0,0,2.58,4.17c.26.36.25.46-.21.62a25.17,25.17,0,0,0-3.65,1.49.61.61,0,0,1-.6,0,40.19,40.19,0,0,1-11.69-7.67A.28.28,0,0,1,71.15,60.78Z"/><path class="cls-1" d="M104.3,69.45c0-1,0-2,0-3,0-.37.07-.51.49-.5a65.43,65.43,0,0,1,8.26.7c1.36.22,2.71.48,4,.79.41.09.66.17.26.67-.83,1-1.63,2.08-2.45,3.11a2.05,2.05,0,0,1-1.36.81,60.94,60.94,0,0,1-8.63.86c-.47,0-.66-.08-.63-.61.06-1,0-1.92,0-2.88Z"/><path class="cls-1" d="M108.45,20.16A63.82,63.82,0,0,0,116,19.09c.66-.14,1.32-.31,2-.48a.72.72,0,0,1,.91.31A65,65,0,0,1,122.53,25c.13.24.28.51-.21.47-2.41-.18-4.83-.05-7.24-.15-1.43-.07-2.85-.11-4.28-.1-.26,0-.46,0-.46-.36A6.83,6.83,0,0,0,108.45,20.16Z"/><path class="cls-1" d="M103.24,63.44c-.06.41.2,1-.1,1.36s-.88.13-1.34.16c-2.34.12-4.68.26-7,.61a42.44,42.44,0,0,0-5.47,1.12.63.63,0,0,1-.84-.28c-1-1.43-1.89-2.92-2.8-4.41-.27-.45-.18-.59.33-.55,2.69.19,5.38.16,8.07.22s5.52,0,8.28,0c.87,0,.87,0,.87.89Z"/><path class="cls-1" d="M111.16,61.71l10-.28c.42,0,.51.07.29.43q-1.36,2.36-2.88,4.6a.45.45,0,0,1-.58.2,54.9,54.9,0,0,0-7.75-1.37c-1.81-.2-3.62-.22-5.42-.34-.42,0-.55-.13-.53-.55,0-.72,0-1.45,0-2.18,0-.44.14-.52.54-.52C107.06,61.72,109.29,61.71,111.16,61.71Z"/><path class="cls-1" d="M77.31,19.27c1.19-.89,2.52-1.46,3.74-2.22A3.33,3.33,0,0,1,85,17a9.1,9.1,0,0,0,2.13.81c.41.14.45.28.21.63a56.64,56.64,0,0,0-3.91,6.64c-.25.51-.65.44-1,.43s-.24-.39-.26-.61A7.34,7.34,0,0,0,81.47,22,5,5,0,0,0,77.31,19.27Z"/><path class="cls-1" d="M116.29,13.68a31.14,31.14,0,0,1,6.66,2,2.34,2.34,0,0,1-1.16.61c-.8.3-1.61.61-2.45.84a.5.5,0,0,1-.64-.21Z"/><path class="cls-1" d="M116.1,71.52,118,69c.78-1,.78-1,2-.6a15.64,15.64,0,0,1,2.62,1.08A44.61,44.61,0,0,1,116.1,71.52Z"/><path class="cls-1" d="M84.56,15.54a33.75,33.75,0,0,1,6.3-1.87c-.56.72-1.11,1.43-1.66,2.16-1,1.24-1,1.25-2.41.68A16.42,16.42,0,0,1,84.56,15.54Z"/><path class="cls-1" d="M90.85,71.34A4.72,4.72,0,0,1,89.12,71a40.13,40.13,0,0,1-4-1.29c-.14-.05-.32-.07-.33-.24s.21-.17.34-.23a22.68,22.68,0,0,1,2.78-1,.58.58,0,0,1,.71.24C89.34,69.36,90.06,70.3,90.85,71.34Z"/></g></svg>