<svg id="Layer_1" data-name="Layer 1" xmlns="http://www.w3.org/2000/svg" viewBox="0 0 205 85"><defs><style>.cls-1{fill:#023044;}</style></defs><title>prisma-logo</title><path class="cls-1" d="M88.45,18.6a1.68,1.68,0,0,0-1.9-1.9c-1.3-.1-2.8,1.5-3.9,2.8a8.94,8.94,0,0,0-2.3,6.6c.2,2.2,1.8,4.6,4.3,4.6,3.8,0,7-5.3,6.6-8.7a3.44,3.44,0,0,0-2.8-3.4Zm-1.2,1.8a1.9,1.9,0,0,1,.3.9c.2,2.3-1.5,6.2-2.9,6.2-.4,0-.5-.5-.5-.7-.3-2.3,1.3-5.5,3.1-6.4Z"/><path class="cls-1" d="M104.25,23.1c0,1.1-.6,4-.6,5.4,0,1.8,1.4,2.8,3.2,2.8,1.4,0,.9-2.2.9-3.8a64.49,64.49,0,0,1,.3-7.9v-.8c-.2-2.2-2.9-3-3.8-1.4-.7,1.1-1.7,3.4-3.1,5.7.1-2.4.3-3.4.3-4,0-3.8-3-2.7-4.1-.6-.4.7-.8,1.6-1.8,3.2-2.1,3.1-3,4.3-4,5.7-1.9,2.6,1,5.2,3,2.6a37.89,37.89,0,0,0,3.5-7c-.3,4.3-.5,5.1-.5,5.9.1,1.7,2.6,2.7,3.3,1.1.3-.6.4-1.1,1.3-3.2A26.93,26.93,0,0,1,104,23l.3.1Z"/><path class="cls-1" d="M76,20.9a15.4,15.4,0,0,0,5.5-5.2c1.2-2.1-.3-6.1-2.4-3.2a21.44,21.44,0,0,1-4.9,5.2c1-3.4,1.3-4.3,1.3-4.9-.3-2.6-3.5-1.4-4.2.4-1.5,4.1-2.1,7-4.5,12.8-1.7,4,2.3,6.4,3.4,3.4.8-2.2.8-2.4,2.2-6.2a39.78,39.78,0,0,0,2.7,6.5c1.1,2,4.6,2.6,4.4,0a17.61,17.61,0,0,0-1.2-2.3A43.68,43.68,0,0,1,76,20.9Z"/><path class="cls-1" d="M139.65,26.1c-.3-2.7,2-6.8,2.8-6.8.2,0,.4.3.5.7v.6c-.5,3,3.5,1.4,3.3-1a3.15,3.15,0,0,0-3.3-3c-4,0-7.7,5.6-7.3,9.7a4.5,4.5,0,0,0,4.4,4.4,7.72,7.72,0,0,0,3.5-1.2c1.9-1.3,1.9-5.1-1.2-2.6a3.63,3.63,0,0,1-1.7.7c-.8,0-.9-1-1-1.5Z"/><path class="cls-1" d="M133,29.2a28.14,28.14,0,0,1,.4-5.2c.9-4.1,2-4.9,1.9-5.9-.2-1.7-2.9-2.7-3.7-.6-2-2.2-5.8,1.8-6.9,3.2a7.9,7.9,0,0,0-1.9,5.7c.2,2.1,1.4,4.3,3.5,4.3a3.62,3.62,0,0,0,2.8-1.8c-.6,2.5,4,3.5,3.9.3Zm-2.3-9c-1,5.1-2.9,6.9-3.5,6.9-.2,0-.4-.2-.5-.7-.2-2.1,2.1-5.4,4-6.2Z"/><path class="cls-1" d="M116.25,18.9a11.15,11.15,0,0,0,.3-1.3,1.5,1.5,0,0,0-1.9-1.3c-1.7.4-1.7,2.1-2.1,3.4-.8,3.1-1.9,5.2-2.3,6.6-1.2,3.9,2.9,5.8,3.5,3.1,1-4,1.6-6.1,2-7.2a5.18,5.18,0,0,1,2.2-1.4c.2,0,.2.1.2.3,0,.5-.3.7-1,3-.2.7-.5,1.7-.7,2.7-.3,1.3-.7,2.8.6,3.8,2,1.5,2.6-.6,3-2.2.2-.8.4-1.7.6-2.4.8-2.6,1.6-4,1.5-5.4-.1-.9-1.2-3.7-2.9-3.7-.8-.1-1.5.3-3,2Z"/><path class="cls-1" d="M88.25,42.2a1.68,1.68,0,0,0-1.9-1.9c-1.3-.1-2.8,1.5-3.9,2.8a8.94,8.94,0,0,0-2.3,6.6c.2,2.2,1.8,4.6,4.3,4.6,3.8,0,7-5.3,6.6-8.7a3.44,3.44,0,0,0-2.8-3.4ZM87,44a1.9,1.9,0,0,1,.3.9c.2,2.3-1.5,6.2-2.9,6.2-.4,0-.5-.5-.5-.7-.2-2.3,1.3-5.5,3.1-6.4Z"/><path class="cls-1" d="M113.35,42.2a1.68,1.68,0,0,0-1.9-1.9c-1.3-.1-2.8,1.5-3.9,2.8a8.94,8.94,0,0,0-2.3,6.6c.2,2.2,1.8,4.6,4.3,4.6,3.8,0,7-5.3,6.6-8.7a3.44,3.44,0,0,0-2.8-3.4Zm-1.2,1.8a1.9,1.9,0,0,1,.3.9c.2,2.3-1.5,6.2-2.9,6.2-.4,0-.5-.5-.5-.7-.3-2.3,1.3-5.5,3.1-6.4Z"/><path class="cls-1" d="M148.55,48.7c-.3,1.7-.5,2.7-.6,3.3-.2,2.2,3.7,3.3,3.9.9V51.8a39,39,0,0,1,1.4-8.1c.5-1.5.2-3.5-2-3.5-.6,0-1,.6-1.2,1-.1-.5-.4-1.1-1.1-1.1-1.3,0-6.6,2.1-6.3,5.7a3.19,3.19,0,0,0,2.8,3,21.78,21.78,0,0,1-4.1,2.6c-2.1,1.4,1.4,4.5,3.5,2.3a20,20,0,0,0,3.2-4.9l.5-.1Zm1.1-5.2a14.19,14.19,0,0,0-.5,2.2,5.13,5.13,0,0,1-1.9.8c-.7,0-.8-.4-.8-.7-.2-.9,1.1-1.8,3.2-2.3Z"/><path class="cls-1" d="M131.75,45.9c-3.2,1.5-2.2,4.1-.9,3.8a4.66,4.66,0,0,0-.3,2.1c.1,1.4,1.9,2.5,3.4,2.5,3.2,0,6.7-3.1,6.4-5.5a4.18,4.18,0,0,0-3.9-3.5,2.2,2.2,0,0,0-.8.1c.9-2.8,1.1-3.2,1.2-3.7.8-2.5-3.4-1.7-4,.1-.3.9-.8,2.8-1.1,4.1Zm2.8,2.9a5.41,5.41,0,0,1,1.5-.4c.2,0,.6,0,.6.5.1.7-1.2,2.2-2.2,2.2-.3,0-.4-.3-.4-.5s.2-.7.5-1.8Z"/><path class="cls-1" d="M127,47.1c1.9-1.5,2.2-3,2.1-4a3.49,3.49,0,0,0-3.7-2.9c-3.7,0-7.9,5-7.4,9.6a5,5,0,0,0,5.1,4.5,4.67,4.67,0,0,0,4.8-5.1,4.07,4.07,0,0,0-.9-2.1Zm-4.8.7c.6.8,1,1,1.9.8a1.42,1.42,0,0,1,.2.6,1.6,1.6,0,0,1-1.5,1.8,1.12,1.12,0,0,1-1.2-1,5.12,5.12,0,0,1,.6-2.2Zm.7-2.2c.6-1.3,1.6-2.9,2.5-2.9.2,0,.6.1.6.5,0,.9-1.8,2.1-3.1,2.4Z"/><path class="cls-1" d="M95.55,53.1A1.6,1.6,0,0,0,97,54.3a2.7,2.7,0,0,0,1.7-.7c2.4-1.6,5.3-6,5.1-9-.2-2-1.6-4.4-3.4-4.4a3.29,3.29,0,0,0-1.7.4c.4-1.6,0-2.2-.6-2.3-1-.1-2.6.5-3.3,2.8-2,.5-2.4,2.5-.8,4.2-2.7,8.9-2.5,7.8-3.2,9.7-1.2,3.4,2.5,5.9,3.7,2a12.52,12.52,0,0,0,.8-2.8,9.68,9.68,0,0,0,.3-1.1Zm.8-2.8c.2-1,.4-1.7,1.7-6.1a2.47,2.47,0,0,1,1.5-.5.81.81,0,0,1,.9.8c.1,1.7-1.7,4.7-4.1,5.8Z"/><path class="cls-1" d="M75.05,41.3a3.23,3.23,0,0,0-1.9-1c-2.2,0-7,5.1-6.5,10.1.3,3.3,2.6,3.9,3.8,3.9,3.5,0,9.3-4.4,8.4-13.3a11.84,11.84,0,0,0-3.3-6.7c-2.4-2.3-6.1-.8-3.5,1.8a17.16,17.16,0,0,1,1.7,1.9,7,7,0,0,1,1.3,3.3Zm-.3,2.5c-.5,3.9-2.9,7-4,7-.4,0-.4-.4-.4-.6-.2-2.4,2.3-5.7,4.4-6.4Z"/><path class="cls-1" d="M62.75,42.5c1-.5,3.7-1.8,3.5-4.6a5.31,5.31,0,0,0-5.7-4.9,6.11,6.11,0,0,0-4.4,1.5c-2,2-.3,5.8,2.6,3.4a3.54,3.54,0,0,1,2.3-.9c.8,0,1,.5,1,.7.1.7-.8,2.2-3.6,3.5-3.7-.3-5.6,4.9-.8,4.3a10.62,10.62,0,0,1,1.5-.1,1.43,1.43,0,0,1,1.4,1.4c.1,1.3-2.6,3.6-4.2,3.6a2.67,2.67,0,0,1-1.4-.7,2,2,0,0,0-3.4,1.7c.1,1.2,1.9,2.9,4.7,2.9,3.3,0,9.6-2.9,9.1-8.8a3.2,3.2,0,0,0-2.6-3Z"/><path class="cls-1" d="M60.45,64.1a7.54,7.54,0,0,1,2.8.4A4.18,4.18,0,0,1,65,65.6a5.07,5.07,0,0,1,.9,1.6,6.48,6.48,0,0,1,.2,2,13.66,13.66,0,0,1-.2,1.9,5.07,5.07,0,0,1-.9,1.8,4.53,4.53,0,0,1-1.7,1.3,7,7,0,0,1-2.8.5,12.75,12.75,0,0,1-1.9-.1,6.07,6.07,0,0,1-1.8-.5l.5-2.5c.2,0,.4.1.6.1s.4.1.6.1a1.27,1.27,0,0,1,.6.1h1.2a1.45,1.45,0,0,0,.7-.2,1,1,0,0,0,.5-.4.91.91,0,0,0,.3-.7h-3V68.2h3l-.3-.6a.85.85,0,0,0-.5-.3c.1-.2-.1-.3-.4-.3s-.5-.1-.7-.1a16.83,16.83,0,0,0-2,.2l-.4-2.6,1.5-.3A8.08,8.08,0,0,1,60.45,64.1Z"/><path class="cls-1" d="M75,69.3a1.63,1.63,0,0,1,.6.3c.2.1.3.3.4.4a2.19,2.19,0,0,1,.3.5c.1.2.1.4.2.5l1,3.4h-3.8l-.8-2.9a1.58,1.58,0,0,0-.5-.8,1.88,1.88,0,0,0-.8-.2h-.5v3.9h-3.5v-10h3.6V68h.4a1.88,1.88,0,0,0,.8-.2,1.23,1.23,0,0,0,.5-.8l.7-2.6h3.6l-.9,3.2a4.67,4.67,0,0,1-.5,1,1.9,1.9,0,0,1-.8.7Z"/><path class="cls-1" d="M88.85,69.4a6.65,6.65,0,0,1-.3,2.1,4.78,4.78,0,0,1-1,1.7,5,5,0,0,1-1.7,1.1,7.4,7.4,0,0,1-4.8,0,5,5,0,0,1-1.7-1.1,3.67,3.67,0,0,1-1-1.7,7.61,7.61,0,0,1-.3-2.1,7.11,7.11,0,0,1,.3-2.1,5.85,5.85,0,0,1,1-1.7,5,5,0,0,1,1.7-1.1,7.4,7.4,0,0,1,4.8,0,5,5,0,0,1,1.7,1.1,3.67,3.67,0,0,1,1,1.7A11.76,11.76,0,0,1,88.85,69.4Zm-4,0a3.75,3.75,0,0,0-.1-1.1,2.92,2.92,0,0,0-.2-.9,2.65,2.65,0,0,0-.5-.6,1.45,1.45,0,0,0-.7-.2,1.88,1.88,0,0,0-.8.2,1,1,0,0,0-.5.6,2,2,0,0,0-.2.9c0,.3-.1.7-.1,1a3.75,3.75,0,0,0,.1,1.1,2.92,2.92,0,0,0,.2.9,2.65,2.65,0,0,0,.5.6,1.7,1.7,0,0,0,1.6,0,1,1,0,0,0,.5-.6,2,2,0,0,0,.2-.9Z"/><path class="cls-1" d="M99.25,67.7l-.7,1.9a10.37,10.37,0,0,0-.4,1c-.2.4-.3.7-.5,1.1a4.87,4.87,0,0,0-.4,1.1,10.37,10.37,0,0,1-.4,1h-1.8a10.37,10.37,0,0,1-.4-1c-.1-.4-.3-.7-.4-1.1s-.3-.7-.5-1.1a6.89,6.89,0,0,1-.4-1l-.8-1.8h0v6.8h-2.1V64.4h2.7l1.3,3.3c.1.3.2.5.3.8a6.89,6.89,0,0,0,.4,1,6.89,6.89,0,0,0,.4,1,6.89,6.89,0,0,0,.3.8H96c.2-.6.5-1.2.7-1.8s.5-1.2.7-1.8c.1-.2.2-.5.3-.7a3.55,3.55,0,0,1,.4-.9,3.55,3.55,0,0,1,.4-.9,4.88,4.88,0,0,1,.3-.7h2.6V74.6h-2.1V67.7Z"/><path class="cls-1" d="M109.85,74.5l-.7-2.3h-3.7l-.7,2.3h-2.2L106,64.4h2.7L112,74.5ZM108,68.1l-.6-2.2h-.1l-.6,2.3-.7,2.6h2.8Z"/><path class="cls-1" d="M120.55,67.5a4.25,4.25,0,0,1-.2,1.1,2.07,2.07,0,0,1-.6,1,3.59,3.59,0,0,1-1,.7,3.34,3.34,0,0,1-1.5.3h-1.8v3.9h-2.2V64.4h3.8a3.84,3.84,0,0,1,2.6.8A3.17,3.17,0,0,1,120.55,67.5Zm-5.1-1.5v3.2h1.4a1.27,1.27,0,0,0,.6-.1,1.33,1.33,0,0,0,.5-.3,2.19,2.19,0,0,0,.3-.5,1.7,1.7,0,0,0,.1-.7c0-.6-.1-1-.4-1.2a1.75,1.75,0,0,0-1.2-.4Z"/><path class="cls-1" d="M127.75,69.2a3.33,3.33,0,0,1,.6.3c.2.1.3.3.4.4s.2.3.3.5.1.4.2.6l.9,3.5H128l-.9-3.1a1.44,1.44,0,0,0-.6-1,1.9,1.9,0,0,0-1.2-.4h-1.4v4.5h-2.1v-10h2.1v4h1.2a.9.9,0,0,0,.5-.1c.2,0,.3-.1.5-.2s.3-.2.4-.4a4.88,4.88,0,0,0,.3-.7l.7-2.6h2.1l-.7,2.9a3.7,3.7,0,0,1-.5,1.1c0,.3-.3.5-.6.7Z"/><path class="cls-1" d="M131.65,74.5V64.4h7V66h-4.8v2.6h4V70h-4v3h5v1.5Z"/><path class="cls-1" d="M142.85,74.5V66h-3.2V64.4h8.5V66H145v8.5Z"/></svg>