<svg id="Layer_1" data-name="Layer 1" xmlns="http://www.w3.org/2000/svg" viewBox="0 0 205 85"><defs><style>.cls-1{fill:#023044;}</style></defs><title>prisma-logo</title><g id="kYv1LJ"><path class="cls-1" d="M41.4,46.85H163.3c.3,0,.3,0,.3.3v16.3a.27.27,0,0,1-.3.3H41.4ZM94.2,51H92.9c-.1,0-.2,0-.2.2s0,.3-.1.5a6.11,6.11,0,0,0-.3,1.3,2.35,2.35,0,0,0-.2.8,10.1,10.1,0,0,0-.3,1.7,11.27,11.27,0,0,0-.3,1.8c-.1.7-.3,1.3-.4,1.9-.1.2.1.3.2.2a4.29,4.29,0,0,1,1.6,0c.2,0,.3,0,.3-.2a1.08,1.08,0,0,0,.1-.6,7,7,0,0,0,.3-1.2c.1-.7.3-1.3.4-2a8.58,8.58,0,0,0,.3-1.7c0-.1,0-.2.1-.2s.1.1.1.2c.1.3.1.7.2,1a2.2,2.2,0,0,0,.1.8,16.6,16.6,0,0,1,.3,2.2.9.9,0,0,0,.1.5,3,3,0,0,1,.2,1c0,.2.1.2.3.2h1.1c.3,0,.4,0,.6-.3a16.18,16.18,0,0,1,1-1.8c.3-.7.8-1.4,1.1-2.1.3-.5.5-1,.8-1.5a.1.1,0,1,1,.2,0v.2c-.1.2-.2.3-.2.4,0,.3-.2.7-.2,1a15.54,15.54,0,0,1-.5,2.3l-.3,1.5c-.1.2.1.3.3.3a4.82,4.82,0,0,1,1.7,0c.1,0,.2,0,.3-.2s.1-.7.2-1l.3-1.2a12.23,12.23,0,0,0,.3-1.7,7,7,0,0,0,.3-1.4,11.27,11.27,0,0,0,.3-1.8c0-.3.2-.6.2-.9,0-.1,0-.2-.2-.2h-2.8c-.1,0-.2,0-.2.1a9.14,9.14,0,0,1-.7,1.4c-.3.6-.6,1.1-.9,1.7s-.5,1-.8,1.5a3,3,0,0,0-.4.8c0,.1-.1.1-.2.1s-.1-.1-.1-.2v-.6c-.1-.5-.2-1-.3-1.6,0-.3-.1-.6-.1-1a3.55,3.55,0,0,1-.2-1,4.25,4.25,0,0,0-.2-1.1c0-.2-.1-.2-.3-.2A4.76,4.76,0,0,1,94.2,51Zm-27.1,1.7h1.3c.3,0,.3.1.2.3a.1.1,0,0,1-.1.1l-.3,1.5c-.1.6-.3,1.3-.4,1.9-.1.4-.2,1-.3,1.4s-.2,1-.3,1.4c0,.1,0,.2.2.2h1.7a.27.27,0,0,0,.3-.3c0-.1,0-.3.1-.3.2-.8.3-1.7.5-2.4s.3-1.6.5-2.3a7.58,7.58,0,0,0,.3-1.6l.3-1.2c.1-.3,0-.3-.3-.3H63.9c-.1,0-.2,0-.2.1s-.1.3-.2.5a13.8,13.8,0,0,0-.3,2,8,8,0,0,0-.3,1.5,7.58,7.58,0,0,0-.3,1.6c-.1.4-.2.9-.3,1.2s-.2.9-.3,1.3c0,.1,0,.3.2.3h1.5a.27.27,0,0,0,.3-.3c.1-.3.2-.8.3-1.1s.2-.8.3-1.1c.1-.7.3-1.4.4-2.1s.3-1.4.4-2c.1-.2.1-.3.3-.2A7.08,7.08,0,0,1,67.1,52.65Zm70.7,0h2.1c.3,0,.3,0,.3-.3s.2-.8.3-1.1,0-.2-.2-.2h-6.4c-.2,0-.2.1-.3.2s0,.3-.1.4a7.58,7.58,0,0,0-.3,1.6,15.52,15.52,0,0,0-.4,2.1c-.2.8-.3,1.6-.5,2.3a8.58,8.58,0,0,0-.3,1.7c-.1.2,0,.3.2.3h6.5c.3,0,.3,0,.3-.3s.2-.7.3-1,0-.3-.2-.3h-4.4a.22.22,0,0,1-.2-.2c.1-.2.1-.4.2-.6s.2-.5.2-.9.1-.3.3-.3h3.6c.3,0,.4-.1.4-.4a3.71,3.71,0,0,1,.2-.9c.1-.3,0-.3-.3-.3h-3.7c-.3,0-.3,0-.2-.3s.2-.8.3-1.1.1-.3.3-.3A12.75,12.75,0,0,1,137.8,52.65ZM77.3,51H74.2c-.1,0-.2,0-.2.1,0,.3-.2.5-.2.8a10.1,10.1,0,0,0-.3,1.7,8.58,8.58,0,0,0-.3,1.7c-.2.8-.3,1.6-.5,2.3a8.58,8.58,0,0,0-.3,1.7c-.1.2.1.3.3.3H79c.3.1.4,0,.4-.3v-.2a2.35,2.35,0,0,1,.2-.8c.1-.3,0-.3-.3-.3H75c-.3,0-.3,0-.3-.3s.1-.3.2-.5a2.92,2.92,0,0,1,.2-.9c.1-.3.2-.3.3-.3h3.7c.2,0,.2,0,.3-.2s.2-.8.3-1.2c0-.2-.1-.2-.2-.2H75.8c-.2,0-.3,0-.2-.2s.1-.4.2-.7.1-.4.1-.6.1-.3.3-.3h4.3c.1,0,.3,0,.3-.2s.2-.8.3-1.1.1-.3-.3-.3Zm-33.9,5.3a3,3,0,0,0,.2,1.3,3.91,3.91,0,0,0,1,1.6,3.69,3.69,0,0,0,2.3.7h1l1.2-.3a6.07,6.07,0,0,0,1-.7,4.39,4.39,0,0,0,1.2-1.8c.1-.3.2-.3-.3-.3H49.5c-.1,0-.2,0-.3.2s-.2.3-.3.5a2,2,0,0,1-2.4.9.1.1,0,0,1-.1-.1,1.7,1.7,0,0,1-.6-.8,1.8,1.8,0,0,1-.2-1,2.77,2.77,0,0,1,.1-.9,6.36,6.36,0,0,1,.6-1.8,2.2,2.2,0,0,1,2.6-1c.4.2.9.6.8,1.1a.27.27,0,0,0,.3.3c.2-.1.3,0,.5,0h1.2c.2,0,.2-.1.2-.2s0-.3,0-.5a2.25,2.25,0,0,0-.8-1.6,2.73,2.73,0,0,0-1.2-.6,14.92,14.92,0,0,0-2.1-.2,2.28,2.28,0,0,0-1.1.3,3.53,3.53,0,0,0-1.7,1.2,5.49,5.49,0,0,0-1.2,2.1C43.4,55,43.4,55.55,43.4,56.25ZM125.3,51h-.6c-.3,0-.3,0-.4.4v.2a4.51,4.51,0,0,0-.3,1.1,11.27,11.27,0,0,0-.3,1.8c-.1.4-.2.9-.3,1.3l-.3,1.2-.3,1.5a1.85,1.85,0,0,0-.2.7c0,.1,0,.1.1.1h1.8c.1,0,.2,0,.2-.2v-.2a7,7,0,0,0,.3-1.4,7.58,7.58,0,0,0,.3-1.6c0-.2.1-.3.1-.5s-.1-.2.1-.2a.22.22,0,0,1,.2.2c0,.1.1.2.1.3.3.5.5,1,.8,1.6s.7,1.3,1,1.9c.1.1.2.2.3.2a5.65,5.65,0,0,1,1.3,0h.6c.1,0,.1,0,.2-.1v-.2a3.51,3.51,0,0,1-.5-.8c-.3-.5-.6-1-.9-1.6s-.6-1.1-1-1.7c-.1-.2-.1-.3.1-.3a4.62,4.62,0,0,0,.7-.7l2.3-2.3.8-.8c.1-.1.1-.1.1-.2s-.1-.1-.2,0h-2a.37.37,0,0,0-.3.1l-.9.9c-.5.6-1,1.1-1.6,1.7a5,5,0,0,0-.7.8.1.1,0,0,1-.1.1c-.1,0-.1-.1,0-.1V54c.1-.2.2-.3.2-.5a3.55,3.55,0,0,1,.2-1l.3-1.5c0-.2,0-.2-.2-.2A2.4,2.4,0,0,1,125.3,51ZM117,51h-2.1a.27.27,0,0,0-.3.3,18.46,18.46,0,0,0-.4,2.3,15.52,15.52,0,0,0-.4,2.1c-.1.4-.2.9-.3,1.4-.1.3-.2.8-.3,1.1s-.2.7-.3,1.1c0,.2,0,.3.2.3h1.6c.3,0,.3,0,.3-.3a2.35,2.35,0,0,0,.2-.8c.1-.4.2-.8.3-1.1s.1-.3.2-.5.1-.2.2-.2h2.3a3.55,3.55,0,0,0,1-.2,3.86,3.86,0,0,0,1.7-1.1,2.73,2.73,0,0,0,.6-1.2,4.1,4.1,0,0,0,.1-1.1,2.32,2.32,0,0,0-.4-1,2.56,2.56,0,0,0-1.9-.8A6.62,6.62,0,0,0,117,51ZM85.5,51H83.4c-.1,0-.2,0-.3.2-.1.5-.2,1-.3,1.6v.1a5.27,5.27,0,0,1-.3,1.2c-.1.4-.2.9-.3,1.2-.1.7-.3,1.3-.4,1.9a17.66,17.66,0,0,0-.4,2c-.1.2.1.3.2.3a3.35,3.35,0,0,1,1,0h.7c.2.1.3-.1.3-.3s.1-.6.2-1,.2-1,.3-1.4,0-.3.3-.3a19.2,19.2,0,0,0,2.4,0,2.92,2.92,0,0,0,.9-.2,2.66,2.66,0,0,0,1-.6,2.75,2.75,0,0,0,1-1.6,2.54,2.54,0,0,0,.2-1.2,2.57,2.57,0,0,0-.5-1.2,2.41,2.41,0,0,0-1.8-.7Zm67,0h-.7c-.3,0-.3,0-.3.3a6.11,6.11,0,0,1-.3,1.3,15.52,15.52,0,0,0-.4,2.1,7,7,0,0,0-.3,1.4c-.2.8-.3,1.6-.5,2.3-.1.3-.1.5-.2.8s-.1.3.2.3h4.6a3.69,3.69,0,0,0,1.7-.5,2.83,2.83,0,0,0,1.4-1.8,2.06,2.06,0,0,0-.2-1.7,2.55,2.55,0,0,0-1.5-1.2,3.4,3.4,0,0,0-1-.1h-1.7c-.2,0-.3-.1-.2-.3s.1-.2.1-.3c.1-.3.2-.8.3-1.1a5.27,5.27,0,0,1,.3-1.2c.1-.2,0-.3-.2-.3A3.59,3.59,0,0,1,152.5,51ZM111,59.35c-.1-.3-.1-.6-.2-.9-.1-.5-.2-1.1-.3-1.7-.1-.3-.1-.7-.2-1a.76.76,0,0,1-.1-.4,5.16,5.16,0,0,0-.2-1.1c-.1-.5-.2-1-.3-1.6-.1-.4-.1-.8-.2-1.2,0-.1,0-.3-.1-.3s-.3,0-.3,0h-1.6c-.1,0-.2,0-.3.2-.3.5-.6,1-1,1.6s-.7,1.1-1,1.7c-.3.4-.4.9-.7,1.2l-.9,1.5c-.4.7-.8,1.3-1.2,2-.1.1-.2.2-.1.3s.2,0,.3,0h1.7c.2,0,.3-.1.3-.2a8.26,8.26,0,0,1,.7-1.3c0-.1.1-.1.2-.1h2.7a.22.22,0,0,1,.2.2,5,5,0,0,1,.2,1.2c0,.1,0,.2.1.2h.9a3.35,3.35,0,0,1,1,0C111,59.45,111,59.45,111,59.35Zm-56.1.3a.37.37,0,0,0,.3-.1,2.67,2.67,0,0,0,1.7-.8,4.49,4.49,0,0,0,1-1.3c.3-.6.7-1.1,1-1.7.5-.9,1.1-1.8,1.7-2.7.4-.7.9-1.3,1.3-2,.1-.2.1-.3-.1-.3H59.9c-.1,0-.1,0-.2.1a7.46,7.46,0,0,0-.7,1.2c-.3.8-.9,1.5-1.2,2.3a1.38,1.38,0,0,1-.3.4.35.35,0,0,1-.2.1v-.1c.1-.2-.1-.3-.1-.5s-.2-.8-.3-1.1a2.35,2.35,0,0,1-.2-.8,7,7,0,0,1-.3-1.4c0-.1-.1-.2-.2-.1H54.4c-.2,0-.3.1-.2.3a4.17,4.17,0,0,1,.2.6c.3.8.5,1.7.8,2.4a20.16,20.16,0,0,1,.7,2.3c.1.3.3.5,0,.9a1.39,1.39,0,0,1-1,.5,2.2,2.2,0,0,1-.8-.1c-.1-.1-.2,0-.2.1a6.11,6.11,0,0,1-.3,1.3c-.1.2,0,.2.2.3S54.5,59.65,54.9,59.65ZM145.6,51h-3.3a.27.27,0,0,0-.3.3.9.9,0,0,1-.1.5c-.1.3-.1.4-.2.7,0,.1,0,.2.2.2H144c.2,0,.3.1.2.3a.76.76,0,0,0-.1.4,14.43,14.43,0,0,1-.5,2.4c0,.3-.2.5-.2.8a2.35,2.35,0,0,1-.2.8,5.27,5.27,0,0,0-.3,1.2,6.37,6.37,0,0,1-.2.7c-.1.1,0,.2.1.2h1.7a.27.27,0,0,0,.3-.3c.1-.4.2-.9.3-1.3l.3-1.2a7,7,0,0,0,.3-1.4c.1-.3.2-.7.3-1l.3-1.2c0-.3.1-.3.4-.3h.3a9.65,9.65,0,0,1,1.7,0c.1,0,.2,0,.3-.2a1,1,0,0,1,.1-.3,2.92,2.92,0,0,0,.2-.9c0-.3,0-.3-.3-.3h-.2C147.8,51,146.6,51,145.6,51Zm13.8,8.5a.37.37,0,0,0,.3-.1c.1-.3.2-.7.3-1,.1-.7.3-1.4.4-2.1a14.16,14.16,0,0,0,.4-2c.1-.5.2-1,.3-1.6l.3-1.5c.1-.2,0-.3-.2-.2h-1.7c-.2,0-.3.1-.3.2s0,.3-.1.4a12.86,12.86,0,0,0-.4,1.9c-.1.4-.2.9-.3,1.3a10.62,10.62,0,0,0-.4,1.9l-.3,1.2c-.1.4-.2.9-.3,1.3-.1.1.1.2.2.2h.3A8.08,8.08,0,0,0,159.4,59.45Z"/><path class="cls-1" d="M70.7,21.25a3.18,3.18,0,0,0-.3.9c-.3.4-.4.9-.7,1.3-.3.7-.8,1.4-1.1,2.2s-.7,1.4-1,2.1c-.3.5-.5,1-.8,1.5s-.4.9-.7,1.3-.6,1.1-.9,1.7c-.1.1-.2.2-.2.3s0,.2.1.2h.2a3.81,3.81,0,0,1,1-.3c.3-.1.5-.1.8-.2s.3-.1.4-.3a3.81,3.81,0,0,0,.3-1,11.73,11.73,0,0,0,.5-1.1,13.25,13.25,0,0,1,1.6-2.5,12.45,12.45,0,0,1,1.9-2.1,5.23,5.23,0,0,1,1.7-1.2,13.89,13.89,0,0,1,1.9-.6,3.33,3.33,0,0,1,1.4.1,6,6,0,0,1,1.9.6,3.48,3.48,0,0,1,1.4,1.3,1.61,1.61,0,0,1,.3.9,4.87,4.87,0,0,1,.1,1.2,3.08,3.08,0,0,1-.3,1.3,3.88,3.88,0,0,1-.6,1.1,5.51,5.51,0,0,1-1.7,1.7c-.5.3-1,.6-1.6.9-.3.2-.8.3-1.1.5a8.51,8.51,0,0,1-1.7.6,3.81,3.81,0,0,1-1,.3,7.49,7.49,0,0,1-1.6.4c-.3.1-.3.1-.2.3a5,5,0,0,0,.2,1.2c.1.5.3,1,.4,1.5.1.3.3.5.3.7s.1.2.3.1a10.39,10.39,0,0,0,2.4-1.7,20.41,20.41,0,0,0,2.7-2.3c.2-.2.3-.1.3,0a13.62,13.62,0,0,1,1.7,1.7c.2.2.2.2,0,.3s-.4.4-.7.6a11.32,11.32,0,0,1-1.3,1c-.3.3-.7.6-1,.9s-.8.6-1.1.9a10.47,10.47,0,0,1-1.1.8.1.1,0,1,0,0,.2,6.74,6.74,0,0,0,1.7.6,6.93,6.93,0,0,0,2,.3h.1c.3-.1.3,0,.3.3s-.2,1-.3,1.4-.2.9-.3,1.3c-.1.2-.1.2-.3.2a4.68,4.68,0,0,1-1.6-.2,7.58,7.58,0,0,0-1.6-.3,8.16,8.16,0,0,1-2.6-1.4c-.2-.1-.3-.3-.4-.3s-.3.2-.4.3a12.44,12.44,0,0,1-2,1,11.5,11.5,0,0,1-1.7.6c-.3.1-.8.2-1.2.3a2.88,2.88,0,0,1-1.3.1,4.25,4.25,0,0,1-1.1-.2,14.24,14.24,0,0,1-1.6-.5c-.3-.1-.4-.3-.7-.4a4.64,4.64,0,0,1-1.3-2,6.61,6.61,0,0,1-.3-2.4,2.92,2.92,0,0,1,.2-.9c.1-.5.2-1.1.3-1.7a5.64,5.64,0,0,0,.4-1.2c.3-.8.8-1.6,1-2.3l.9-1.8a1.38,1.38,0,0,1,.3-.4.19.19,0,0,0,0-.3c-.2.1-.2.3-.3.3a17.67,17.67,0,0,1-1.2,1.7c-.3.5-.8,1-1.1,1.5s-.9,1-1.3,1.5c-.1.1-.2.3-.3.3l-.9.9c-.5.6-1.1,1.1-1.7,1.7A19.2,19.2,0,0,1,54,40l-1.8,1.5c-.8.6-1.6,1.1-2.3,1.7-.5.3-1,.7-1.6,1s-1.1.6-1.7.9c-.8.3-1.6.7-2.4,1-.6.2-1.2.3-1.8.5-.2,0-.3,0-.3-.2v-1a12,12,0,0,0,0-1.9.27.27,0,0,1,.3-.3,14.25,14.25,0,0,0,2.8-1.3c1.2-.7,2.3-1.5,3.5-2.3a15.08,15.08,0,0,0,2-1.7c.8-.7,1.6-1.4,2.3-2.1.9-.8,1.7-1.7,2.5-2.5.4-.4.8-.9,1.2-1.3.5-.6,1-1.2,1.6-1.8a12.67,12.67,0,0,1,1.1-1.3c.3-.3.4-.6.7-.9a5.5,5.5,0,0,0,.7-.9c.3-.4.7-.9,1-1.3s.9-1.1,1.3-1.7a5.8,5.8,0,0,1,1-1.2c.3-.3.5-.7.8-1,0-.1.1-.1.1-.2A26.41,26.41,0,0,1,70.7,21.25ZM62.4,39c0,.2,0,.3.1.4a1.43,1.43,0,0,0,.4,1,1.19,1.19,0,0,0,1.1.4c.2,0,.4.2.6.1s.2,0,.3-.1.3,0,.6-.1a8.8,8.8,0,0,0,1.5-.5,5.48,5.48,0,0,0,1.5-.8c.2-.1.2-.2.1-.3a12.23,12.23,0,0,1-1-2.4,2.35,2.35,0,0,1-.2-.8c0-.3-.2-.5-.2-.9,0-.1,0-.2-.2-.2s-.4.1-.7.2-.8.3-1.2.4a4.38,4.38,0,0,0-2.3,1.7A10.8,10.8,0,0,0,62.4,39Zm14.9-12.1v-.3a1.55,1.55,0,0,0-1.7-.9,3.79,3.79,0,0,0-1.3.6,6.3,6.3,0,0,0-2.2,2.1A21.48,21.48,0,0,0,70.7,31s-.1.1,0,.1.1,0,.2,0a2.28,2.28,0,0,1,1.1-.3,9,9,0,0,0,2.1-.8,4.49,4.49,0,0,0,1.2-.6,4.73,4.73,0,0,0,1.7-1.5A1,1,0,0,0,77.3,26.85Z"/><path class="cls-1" d="M96.3,22.35h4.5c.3,0,.3,0,.2.3s-.2.8-.3,1.1a13.89,13.89,0,0,0-.6,1.9,7.49,7.49,0,0,0-.4,1.6,6.47,6.47,0,0,0-.4,1.3c-.2.6-.3,1.1-.5,1.7l-.3.9a6.47,6.47,0,0,0-.4,1.3c-.1.3-.2.5-.3.8s-.2.6-.3,1l-.3.9c-.2.6-.3,1.2-.5,1.7a8.33,8.33,0,0,0-.4,1.5,5.73,5.73,0,0,0-.4,1.4c-.1.3-.2.4-.3.7s-.2.6-.3,1a7.37,7.37,0,0,0-.4,1.4c0,.1-.1.2-.1.3s-.2.2-.3.2H91.8c-.1,0-.1,0-.2-.1a.14.14,0,0,1,0-.2c.1-.3.2-.4.3-.7s.2-.5.3-.8c.1-.5.3-1,.4-1.5l.3-.9a17.23,17.23,0,0,1,.7-2.1c.1-.4.3-.9.4-1.4.1-.3.2-.5.3-.8l.3-.9a9.44,9.44,0,0,0,.3-.9,6.47,6.47,0,0,0,.4-1.3c.1-.3.2-.6.3-1a2.66,2.66,0,0,0,.3-1.2l.3-.9c.1-.3.2-.5.3-.8s.2-.4.3-.7.2-.7.3-1a2.61,2.61,0,0,1,.3-.8c.1-.2.1-.3-.2-.3H94.4a.27.27,0,0,0-.3.3c0,.1,0,.2-.1.2-.2.5-.3,1-.5,1.7a2.12,2.12,0,0,1-.3.7c-.1.2-.1.3-.2.5-.2.6-.4,1.1-.6,1.7s-.4,1-.6,1.6a8.43,8.43,0,0,1-.6,1.4c-.1.3-.3.6-.4.9s-.3.7-.5,1c-.3.5-.5,1-.8,1.5a10.09,10.09,0,0,1-1.5,2.1c-.3.3-.4.6-.7.9s-.4.5-.7.8a3.11,3.11,0,0,1-.9.7c-.3.3-.7.5-1,.8-.5.3-1,.6-1.6.9-.4.2-.9.4-1.4.6s-1.1.3-1.7.5a7,7,0,0,0-1.4.3c-.1,0-.1,0-.2-.1a.44.44,0,0,1,.1-.3c.1-.4.2-1,.3-1.5a3,3,0,0,0,.2-1,.27.27,0,0,1,.3-.3h.1c.7-.3,1.4-.4,2.1-.7a11.78,11.78,0,0,0,1.9-1.1,15.37,15.37,0,0,0,1.9-1.7A19.5,19.5,0,0,0,87.1,35a15.77,15.77,0,0,0,1.3-2.6c.3-.8.7-1.6,1-2.4a2,2,0,0,0,.3-1.1,4.51,4.51,0,0,0,.3-1.1c.1-.3.2-.6.3-1a2.93,2.93,0,0,0,.3-1,7.49,7.49,0,0,0,.4-1.6c.1-.5.3-1,.4-1.5,0-.2.2-.2.3-.2H92C93.4,22.35,94.8,22.35,96.3,22.35Z"/><path class="cls-1" d="M131.3,44.45a4,4,0,0,1-1.1,0h-.1c-.1.1-.1,0-.2,0s-.1-.1,0-.2.2-.3.2-.5.1-.2.1-.3a.21.21,0,1,0-.3-.3h-8.1c-.3,0-.4,0-.5.3s-.2.5-.3.8c0,.1-.2.1-.3.1h-2.2c-.3,0-.3-.1-.3-.3a7.49,7.49,0,0,0,.4-1.6c.2-.6.3-1.2.5-1.8,0-.2.1-.3.3-.2a1.74,1.74,0,0,0,1.4-.5,10.59,10.59,0,0,0,1.2-1,6.19,6.19,0,0,0,1.1-1.7,7.58,7.58,0,0,0,.6-1.6,1.93,1.93,0,0,0,.3-1c.2-.6.3-1.1.5-1.7a8.47,8.47,0,0,0,.4-1.7c.1-.3.2-.6.3-1,0-.1.1-.3.2-.3a.35.35,0,0,1,.2-.1c.2.1.3,0,.5,0h7.7c.2,0,.3-.1.4-.1s.2.1.2.3a2.38,2.38,0,0,0-.3,1.2c-.2.6-.3,1.1-.5,1.7l-.3.9c-.2.5-.3,1-.5,1.6a2.66,2.66,0,0,0-.3,1.2,7.37,7.37,0,0,0-.4,1.4c-.1.4-.3.9-.4,1.3l-.3.9c-.1.2,0,.2.2.2h1.8c.2,0,.3.1.2.3a8.47,8.47,0,0,0-.4,1.7,8.47,8.47,0,0,0-.4,1.7c-.1.3-.2.3-.4.3Zm-4.8-3.9h2.1c.1,0,.3,0,.3-.2a5.27,5.27,0,0,0,.3-1.2,6.47,6.47,0,0,1,.4-1.3c.1-.4.3-.8.4-1.1a13.89,13.89,0,0,1,.6-1.9c.2-.6.4-1.3.6-1.9.1-.2-.1-.3-.3-.3H128c-.2,0-.3,0-.3.2a1,1,0,0,1-.1.3c-.1.3-.2.6-.3,1s-.3,1-.5,1.5a6.47,6.47,0,0,0-.4,1.3,9.38,9.38,0,0,1-.6,1.5c-.2.3-.3.7-.5,1a8.12,8.12,0,0,1-.9,1c-.1.1-.1.1-.1.2s.1.1.2.1A6.48,6.48,0,0,1,126.5,40.55Z"/><path class="cls-1" d="M147,37.25h-1.5c-.3,0-.4-.1-.7-.1-1.6.1-3,0-4.6,0h-1.5c-.3,0-.3-.1-.3-.3s.1-.3.2-.5l.3-.9A8.28,8.28,0,0,1,140,34a15.72,15.72,0,0,1,2.6-1.9,32.4,32.4,0,0,0,3.5-2.1,4.49,4.49,0,0,0,1.3-1.1,1.75,1.75,0,0,0,.4-1.2,1.73,1.73,0,0,0-.7-1.6,1.61,1.61,0,0,0-.9-.3,2.34,2.34,0,0,0-1.2.2,6.07,6.07,0,0,0-1,.7,2.83,2.83,0,0,0-.6,1.6c0,.2-.1.2-.3.2h-2.7c-.2,0-.2-.1-.2-.2v-.2c.1-.3.2-.6.3-1A5.36,5.36,0,0,1,141,26a4.81,4.81,0,0,1,.9-1.1,7.34,7.34,0,0,1,1.3-1c.3-.1.5-.2.8-.3a7.88,7.88,0,0,1,4.7.1,4.15,4.15,0,0,1,1.3.7,3,3,0,0,1,.9,1.3,3.4,3.4,0,0,1,.1,1,4.43,4.43,0,0,1-.3,2,4.51,4.51,0,0,1-1,1.4c-.4.3-.8.7-1.2,1a5.85,5.85,0,0,1-1.7,1,14,14,0,0,0-1.7.9,5.67,5.67,0,0,0-1.8,1.2c-.1.1-.2.1-.2.2s-.1.1,0,.2a.14.14,0,0,0,.2,0,.9.9,0,0,1,.5-.1h5.1c.2,0,.3.1.6,0a.22.22,0,0,1,.2.2V35a3.81,3.81,0,0,1-.3,1c-.1.3-.1.5-.2.8s-.2.3-.3.3A6.82,6.82,0,0,1,147,37.25Z"/><path class="cls-1" d="M116.5,43.15h-1.2c-.1,0-.2,0-.2-.1s0-.2.1-.2.1-.1.1-.2a3.18,3.18,0,0,1,.3-.9c.2-.5.3-1,.5-1.6.1-.3.2-.5.3-.8s.2-.5.3-.8a2.61,2.61,0,0,1,.3-.8c.1-.2,0-.3-.2-.3a2.72,2.72,0,0,1-.9,0h-2.1c-.3,0-.5.1-.7,0s-.2,0-.2.2-.1.3-.2.5c-.2.6-.3,1.2-.5,1.8a6.47,6.47,0,0,0-.4,1.3,8.33,8.33,0,0,0-.4,1.5.22.22,0,0,1-.2.2h-2.4c-.2,0-.3-.1-.2-.3a2.93,2.93,0,0,0,.3-1c.1-.3.2-.5.3-.8a8.33,8.33,0,0,0,.4-1.5c.2-.5.3-1,.5-1.6.3-.9.5-1.7.8-2.5s.4-1.4.6-2a6.47,6.47,0,0,0,.4-1.3c.1-.3.2-.5.3-.8.1-.5.3-1,.4-1.4a.32.32,0,0,1,.3-.3H115c.1,0,.2-.1.3,0s0,.2,0,.3c-.2.6-.4,1.3-.6,1.9a8.33,8.33,0,0,0-.4,1.5,7.37,7.37,0,0,0-.4,1.4c-.1.2,0,.2.2.2h3.6c.5,0,.4,0,.6-.4a3.81,3.81,0,0,0,.3-1,5.27,5.27,0,0,0,.3-1.2,9.44,9.44,0,0,0,.3-.9c.1-.4.3-.9.4-1.4,0-.1.1-.3.2-.3s.3,0,.3,0a4.8,4.8,0,0,1,1.2,0,3.33,3.33,0,0,0,1,0,.22.22,0,0,1,.2.2c0,.3-.2.4-.2.7l-.3.9-.3.9a8.33,8.33,0,0,0-.4,1.5A5.27,5.27,0,0,0,121,35a5.73,5.73,0,0,0-.4,1.4,3.81,3.81,0,0,0-.3,1c-.2.5-.3,1.1-.5,1.7s-.3,1-.5,1.6-.4,1.3-.6,1.9v.1c-.1.4-.1.4-.6.4A14.75,14.75,0,0,1,116.5,43.15Z"/><path class="cls-1" d="M162.4,34.15a5.65,5.65,0,0,0-1.3,0c-.1,0-.3-.1-.3,0s-.1.2-.1.3c-.1.5-.2,1-.3,1.6-.1.3-.1.6-.2.9s-.2.2-.3.2h-2.3c-.2,0-.3-.1-.4,0s-.3-.1-.2-.3a3.81,3.81,0,0,0,.3-1c.1-.4.2-.9.3-1.3,0-.1.1-.2.1-.3s0-.3-.2-.3a2.72,2.72,0,0,1-.9,0h-3.8a5.65,5.65,0,0,0-1.3,0c-.1,0-.3,0-.2-.2l.3-1.2a2.92,2.92,0,0,0,.2-.9c0-.2.1-.3.3-.4l1.6-1.6c.8-.7,1.5-1.5,2.3-2.3s1.7-1.7,2.5-2.4a14.2,14.2,0,0,1,1.3-1.2.37.37,0,0,1,.3-.1h3c.2-.1.3.1.2.3a3.53,3.53,0,0,0-.3,1.4,7.44,7.44,0,0,0-.3,1.7,8.87,8.87,0,0,0-.3,1.4c-.1.7-.3,1.3-.4,2a3.81,3.81,0,0,1-.3,1c-.1.3-.1.3.3.3h1.4c.2,0,.2.1.2.3l-.3,1.5c-.1.2-.1.4-.2.6Zm-3.3-6.7v-.2c-.1,0-.1,0-.2.1a11,11,0,0,1-1,1.1c-1,1-2,2.1-3,3-.1.1-.1.1-.1.2s.1.1.2.1h3c.2,0,.3,0,.3-.3s0-.3.1-.4l.3-1.2a12.86,12.86,0,0,0,.4-1.9C159,27.75,159.1,27.65,159.1,27.45Z"/><path class="cls-1" d="M104,35.35h2.2a.27.27,0,0,0,.3-.3,1.7,1.7,0,0,0,0-1,3.92,3.92,0,0,0-.5-1.3,3.59,3.59,0,0,0-1-.7,2.89,2.89,0,0,0-2.4.5c-.2.2-.4.3-.5.6-.1.1-.2.2-.3.2H99.3c-.2,0-.2-.1-.2-.3a8.62,8.62,0,0,1,1.1-1.9,5.26,5.26,0,0,1,1.4-1.1,6.36,6.36,0,0,1,1.8-.6,5.45,5.45,0,0,1,2.2.1,5,5,0,0,1,2.3,1.4,3.25,3.25,0,0,1,1,1.8c.1.3.2.6.3,1v.3c0,.3.1.4,0,.7-.1.6,0,1.1-.1,1.7-.1.3-.2.8-.3,1.1a6.15,6.15,0,0,0-.3,1.1,10.37,10.37,0,0,0-.4,1,6.71,6.71,0,0,1-.9,1.4,5.51,5.51,0,0,1-2,1.7,4.28,4.28,0,0,1-1.6.5,5.44,5.44,0,0,1-1.8,0,3.26,3.26,0,0,1-1.4-.4c-.3-.2-.6-.3-.9-.5a5.53,5.53,0,0,1-1.4-1.9,3.08,3.08,0,0,1-.3-1.3c0-.2.1-.2.2-.2h2c.3,0,.3.1.4.4a1.71,1.71,0,0,0,1.4,1.3,3.13,3.13,0,0,0,1.9-.2,3.78,3.78,0,0,0,1.2-1,10.47,10.47,0,0,0,.8-1.1c.1-.2.1-.3.2-.4s0-.3-.2-.3a6.53,6.53,0,0,1-1.4,0h-1a4.8,4.8,0,0,0-1.2,0h-1c-.1,0-.2,0-.2-.2a8.33,8.33,0,0,0,.4-1.5c.1-.2.1-.3.2-.5a.32.32,0,0,1,.3-.3A7.84,7.84,0,0,0,104,35.35Z"/><path class="cls-1" d="M160.1,44.45h-.6a.27.27,0,0,1-.3-.3v-.1a.1.1,0,0,0-.1-.1H159a2.35,2.35,0,0,1-1,.5,2.57,2.57,0,0,1-1.5-.1,1,1,0,0,1-.7-.8,1.63,1.63,0,0,1,.1-1.2,2.19,2.19,0,0,1,1-.9,4,4,0,0,1,1.9-.3,1.33,1.33,0,0,0,.8-.3c.3-.2.2-.4.2-.7s-.3-.3-.4-.3h-.6c-.2,0-.3.3-.5.4s-.1.2-.2.3-.1.1-.2.1a4.82,4.82,0,0,0-1.2,0c-.3,0-.3-.1-.2-.3a2,2,0,0,1,1-1.2c.3-.3.8-.3,1.2-.4a1.7,1.7,0,0,1,1,0,2.39,2.39,0,0,1,1.4.5.86.86,0,0,1,.3.6,1.73,1.73,0,0,1-.1,1c-.1.4-.2.9-.3,1.4s-.2,1-.3,1.5a.37.37,0,0,0,.1.3c.1.1.1.1.1.2s-.2.1-.2.1A1.27,1.27,0,0,1,160.1,44.45Zm-2-.9a1.33,1.33,0,0,0,.8-.3,2.59,2.59,0,0,0,.7-1.1V42c-.1-.1-.1-.1-.2,0s-.2.2-.3.2a4.4,4.4,0,0,0-1,.2c-.2.1-.3.2-.5.3-.3.3-.3.5,0,.8C157.8,43.55,157.9,43.45,158.1,43.55Z"/><path class="cls-1" d="M147.7,44.45h-.6c-.2,0-.3-.1-.2-.3a.37.37,0,0,0-.1-.3c-.1,0-.1,0-.2.1a1.91,1.91,0,0,1-1,.5,2.57,2.57,0,0,1-1.5-.1,1.05,1.05,0,0,1-.8-1,1.81,1.81,0,0,1,.3-1.3,1.77,1.77,0,0,1,.8-.5,7,7,0,0,1,1.4-.3c.3-.1.5,0,.8-.1s.8-.3.6-.9c-.1-.3-.3-.3-.6-.3a1.2,1.2,0,0,0-.8.2,1.27,1.27,0,0,0-.4.6c-.1.1-.1.1-.2.1a2.85,2.85,0,0,0-1.3,0h-.2c-.1-.1-.1-.2,0-.2a5.74,5.74,0,0,0,.4-.7,3.17,3.17,0,0,1,.6-.5,3.78,3.78,0,0,1,2.3-.4,2.38,2.38,0,0,1,1.2.3c.3.3.5.5.5.9a10.1,10.1,0,0,1-.3,1.7,10.79,10.79,0,0,0-.3,1.9c0,.2-.1.3.1.4s0,.1,0,.2-.1.1-.2.1C148.2,44.45,147.9,44.45,147.7,44.45Zm-1.9-.9c.4.1.7-.2,1-.4a1.78,1.78,0,0,0,.4-1c.1-.1-.1-.3-.2-.2a3.81,3.81,0,0,1-1,.3,2,2,0,0,0-.8.4.47.47,0,0,0,.1.8C145.5,43.55,145.6,43.45,145.8,43.55Z"/><path class="cls-1" d="M154.6,41.15h-.5a.27.27,0,0,1-.3-.3.71.71,0,0,0-.3-.6c-.1-.1-.1-.2-.2-.1s-.3-.1-.6,0a1.3,1.3,0,0,0-1,.9,3.33,3.33,0,0,0-.3.6,4.87,4.87,0,0,0-.1,1.2.88.88,0,0,0,.9.8.83.83,0,0,0,.8-.3,1.61,1.61,0,0,0,.4-.7c0-.1.1-.2.3-.2h1.2c.1,0,.2,0,.2.2-.2.5-.3,1-.8,1.3a3.69,3.69,0,0,1-1.4.7,3.12,3.12,0,0,1-2.1-.3,1.79,1.79,0,0,1-.9-1,2.34,2.34,0,0,1-.2-1.2,4.4,4.4,0,0,1,.2-1,2.52,2.52,0,0,1,1-1.5,3.17,3.17,0,0,1,2.6-.7,2,2,0,0,1,1.1.3c.3.3.7.5.7,1v.5c0,.2-.1.2-.2.2A.76.76,0,0,1,154.6,41.15Z"/><path class="cls-1" d="M141.3,44.45h-.6c-.2,0-.3-.1-.2-.3a1.42,1.42,0,0,0,.2-.6.37.37,0,0,1,.1-.3c.1-.2.1-.4.2-.6s-.1-.2-.3-.2a9.63,9.63,0,0,1-1.7,0c-.7-.1-1-.4-1-1.1a3.59,3.59,0,0,1,.2-1.1c.1-.3.1-.5.2-.8s.2-.3.3-.3h1c.3,0,.3,0,.3.3v.3c-.1.3-.2.8-.3,1.1s.1.4.3.6.7,0,1,0c.1,0,.1-.1.2-.2l.3-1.5c0-.1,0-.3.1-.3,0-.3.2-.3.3-.3H143c.2-.1.3,0,.3.2a2.35,2.35,0,0,1-.2.8,7.58,7.58,0,0,0-.3,1.6,10.1,10.1,0,0,0-.3,1.7c0,.3-.2.6-.2.9,0,.1-.1.2-.3.2A2,2,0,0,0,141.3,44.45Z"/><path class="cls-1" d="M117.3,52.65a3.4,3.4,0,0,1,1,.1,1,1,0,0,1,.8.7,2.15,2.15,0,0,1,0,.8c-.1.3-.3.3-.4.5a1.55,1.55,0,0,1-1.1.3h-1.4c-.2,0-.2-.1-.2-.3a8,8,0,0,0,.3-1.5c0-.2.1-.3.2-.5s.1-.1.2-.1Z"/><path class="cls-1" d="M85.6,55c-.3,0-.5.1-.7,0h0c-.4,0-.3,0-.3-.3a10.1,10.1,0,0,0,.3-1.7.27.27,0,0,1,.3-.3,5.46,5.46,0,0,1,1.8.1,1,1,0,0,1,.7.8,1.08,1.08,0,0,1-.1.6,1.76,1.76,0,0,1-.9.8A4,4,0,0,1,85.6,55Z"/><path class="cls-1" d="M155.3,56.75a1.28,1.28,0,0,1-1.1,1.2,12.05,12.05,0,0,1-1.9,0c-.3,0-.3-.1-.2-.3s.2-.8.3-1.1a2.35,2.35,0,0,0,.2-.8c0-.1.1-.1.2-.1h1.8A1.16,1.16,0,0,1,155.3,56.75Z"/><path class="cls-1" d="M108.3,56.45h-1.6a.37.37,0,0,1-.3-.1.14.14,0,0,1,0-.2c.3-.4.5-1,.8-1.4a5.3,5.3,0,0,1,.6-1,.37.37,0,0,0,.1-.3.1.1,0,0,1,.1-.1c.1,0,.1,0,.1.1,0,.3.1.5.1.9a3,3,0,0,0,.2,1c.1.3,0,.6.1,1C108.6,56.45,108.4,56.55,108.3,56.45Z"/></g></svg>