<svg id="Layer_1" data-name="Layer 1" xmlns="http://www.w3.org/2000/svg" viewBox="0 0 205 85"><defs><style>.cls-1{fill:#023044;}</style></defs><title>prisma-logo</title><g id="_07NNm4" data-name="07NNm4"><path class="cls-1" d="M4.81,49.61c.24-.59.35-1.22.65-1.79A8,8,0,0,1,9.25,43.9c.31-.14.15-.27,0-.36-.44-.26-.89-.48-1.32-.75A3,3,0,0,1,6.5,40.11c0-.36.12-.47.49-.46.7,0,1.4,0,2.1,0,.15,0,.33,0,.46-.1-.05-.21-.26-.24-.4-.31-2.46-1.24-3.31-3.36-3.33-6,0-.42.24-.35.48-.28.68.21,1.36.46,2.05.65a15.52,15.52,0,0,0,3,.39c.44,0,.5-.13.42-.51a10.68,10.68,0,0,0-1.21-3,18.07,18.07,0,0,1-.9-1.68c-.17-.4-.06-.58.33-.66s.93-.2,1.4-.25a17.91,17.91,0,0,1,6.06.33,3.12,3.12,0,0,1,1.07.47c.3.2.38.12.39-.21a9.76,9.76,0,0,1,.93-3.72c.55-1.21.84-1.24,1.63-.17.37.52.72,1,1.11,1.55a2.64,2.64,0,0,0,1.18.91c.26.09.39.06.47-.27a9.13,9.13,0,0,1,2.42-4.39,2.38,2.38,0,0,1,.51-.37.26.26,0,0,1,.41.12,7.94,7.94,0,0,0,2.07,2.25,7.21,7.21,0,0,1,2.62,4.34c.08.43.23.34.46.11a14.66,14.66,0,0,1,1.49-1.34,5.06,5.06,0,0,1,2.8-1c1.25-.08,2.51,0,3.76,0,.41,0,.39.14.23.42-.42.77-.85,1.54-1.24,2.33a4.67,4.67,0,0,0-.48,2.94c.06.36.16.48.53.3a3.67,3.67,0,0,1,2.67-.08,11.55,11.55,0,0,1,1.62.68c.3.13.29.27.11.5-.9,1.16-1.8,2.33-2.68,3.49a4.67,4.67,0,0,0-.8,1.34c-.11.33,0,.54.33.49a2.92,2.92,0,0,1,2.81,1.23A7.38,7.38,0,0,0,48,42.61c.28.07.44.16.29.5A9.81,9.81,0,0,1,41.85,49a6.65,6.65,0,0,1-.91.16c-.51.07-.51.07-.23.53a8.5,8.5,0,0,1,1.1,2.39,8.91,8.91,0,0,1-.18,4.2c-.06.3-.28.27-.5.24a9.85,9.85,0,0,1-3.42-1.09c-.49-.27-.49-.27-.5.31a11.55,11.55,0,0,1-.28,2.62,5.9,5.9,0,0,1-2.26,3.39,13.21,13.21,0,0,1-1.87,1.15c-.48.25-.7.12-.71-.44a8.44,8.44,0,0,1,0-.87,3.29,3.29,0,0,0-1.55-3.3c-.41-.26-.8-.56-1.19-.86a4.58,4.58,0,0,1-1.33-1.66,2.63,2.63,0,0,0-3.7-1.35c-1.33.55-1.66,1.69-1.85,2.94a18,18,0,0,0,0,4.58c.09.77,0,.83-.69.56-3.29-1.26-5.2-3.41-5.23-6.83,0-.77,0-.8-.77-1a2.15,2.15,0,0,0-2,.57,7.66,7.66,0,0,0-1.34,1.91c-.06.12-.1.32-.27.31s-.17-.22-.21-.35a5.5,5.5,0,0,1,.1-3.69c.13-.43.26-.87.42-1.3.07-.22,0-.31-.21-.32a4.84,4.84,0,0,1-2.79-1.17,3.67,3.67,0,0,0-4.32-.48.38.38,0,0,1-.33,0ZM36.14,53a2.05,2.05,0,0,1,.22.19,5,5,0,0,0,4,1.9c.31,0,.43-.06.46-.38a6.42,6.42,0,0,0-.1-2.23,5.78,5.78,0,0,0-2.53-3.89c-.21-.13-.58-.24-.49-.52s.48-.24.77-.24a1.29,1.29,0,0,1,.19,0,6.15,6.15,0,0,0,2.14,0,8.65,8.65,0,0,0,5.41-3.64c.41-.58.37-.68-.27-.9a9,9,0,0,1-3.11-2.06,2.26,2.26,0,0,0-2.06-.62,3.54,3.54,0,0,0-1.12.46c-.28.17-.38.12-.37-.2s0-.91.06-1.37a6.33,6.33,0,0,1,2.85-5.28c.1-.06.28-.1.25-.26s-.19-.19-.33-.23a3.33,3.33,0,0,0-3,.56c-.43.28-.82.63-1.27,1a9.14,9.14,0,0,1-.25-4,14.12,14.12,0,0,1,1.13-3c.2-.47.13-.57-.39-.5s-1.09.17-1.64.27A4.64,4.64,0,0,0,33,30.94a7.27,7.27,0,0,0-.44,1.29c0,.21-.14.29-.33.13a3.36,3.36,0,0,0-2.06-.62c-.39,0-.53-.1-.33-.53a3.92,3.92,0,0,0,.62-1.78A5.11,5.11,0,0,0,29,25.93a6.67,6.67,0,0,1-1.23-1.57c-.15-.31-.31-.28-.51-.06A4.37,4.37,0,0,0,25.94,27c-.05.65,0,1.3,0,2a1.29,1.29,0,0,1-.68,1.17A1.22,1.22,0,0,1,23.93,30a4.79,4.79,0,0,1-1.12-1.08,28.33,28.33,0,0,1-1.64-2.6c-.09-.14-.14-.39-.35-.37s-.21.25-.27.42a6.07,6.07,0,0,0-.36,2.15,4.13,4.13,0,0,0,1.13,3.21c.17.17.1.26-.07.31a3.43,3.43,0,0,0-1.2.73c-.3.25-.45.2-.63-.12a6,6,0,0,0-3.07-2.67,4.91,4.91,0,0,0-3.74-.25c-.3.12-.38.24-.07.45a1.35,1.35,0,0,1,.43.59,8.45,8.45,0,0,1,.49,1.47,11.07,11.07,0,0,0,1.44,3.26.26.26,0,0,1-.31.06A7,7,0,0,0,12,35.35a9.13,9.13,0,0,1-4.37-.47c-.28-.11-.4,0-.36.28A3.15,3.15,0,0,0,8.15,37a9.87,9.87,0,0,0,2.68,1.85c.63.33,1.28.65,1.89,1,.4.24.34.52-.09.69a.94.94,0,0,1-.32.11,10,10,0,0,1-2.05.05c-.69-.06-1.39-.13-2.09-.18-.14,0-.35-.11-.44.08s.09.31.17.44a3.57,3.57,0,0,0,1,1,5.5,5.5,0,0,0,3.72.87c.43,0,.72.09.76.59.08.83,0,.92-.58,1.08a15.07,15.07,0,0,0-4,1.46,3.67,3.67,0,0,0-1.46,1.41c-.13.25-.34.56-.18.81s.45,0,.69,0c1.32,0,2.58.1,3.38,1.38a1.7,1.7,0,0,0,1.29.7c.5.09,1,.11,1.51.17.23,0,.56-.11.68.12s-.19.41-.33.6a6.34,6.34,0,0,0-1.29,2.48c0,.12-.14.27,0,.36s.24-.06.33-.14A2.48,2.48,0,0,1,15,53.27a6.67,6.67,0,0,1,2.58.35c.29.07.35.22.35.48a11.6,11.6,0,0,0,.18,2.43,5.81,5.81,0,0,0,2.69,4.11c.13.08.28.25.43.14s.06-.32,0-.46A11.23,11.23,0,0,1,21,57.21a4.67,4.67,0,0,1,1.12-3.33c.23-.23.05-.33-.15-.42A9.83,9.83,0,0,1,19,51.23a.54.54,0,0,1-.19-.6c.35-1.13.69-2.26,1-3.4.13-.46.31-.75.85-.7a3.29,3.29,0,0,0,.88-.09,10.51,10.51,0,0,0,5.29-2.74,7.64,7.64,0,0,0,2.49-4.63,4.15,4.15,0,0,0-3.78-4.72A9.81,9.81,0,0,0,19,36.59a1.45,1.45,0,0,0-.55.79c-.17.57.06.89.65.89a3.32,3.32,0,0,0,1.34-.41,12.06,12.06,0,0,1,4.08-1.23c1.69-.13,2.6.92,2.18,2.54a6.8,6.8,0,0,1-2.09,3.28,7,7,0,0,1-3.14,1.69c-.18,0-.39.12-.52,0s0-.3.09-.45c.27-.66.56-1.31.82-2a4.84,4.84,0,0,0,.37-2.81.66.66,0,0,0-1.11-.44,2.93,2.93,0,0,0-.88,1,34.15,34.15,0,0,0-3.08,7c-.24.69-.45,1.4-.67,2.11a.52.52,0,0,1-.27-.33,11.34,11.34,0,0,1-.9-3,10.24,10.24,0,0,1,2.45-8.58,10.32,10.32,0,0,1,10.85-3.47,10.34,10.34,0,0,1,7.13,5.94,11.53,11.53,0,0,1,.39,8.56A5,5,0,0,1,34,50.58c-.15.09-.33.28-.53.14s-.07-.36,0-.54c.17-.52.33-1,.52-1.56.54-1.46,1.1-2.92,1.63-4.38a3.9,3.9,0,0,0,.38-2,.79.79,0,0,0-1-.66,1.49,1.49,0,0,0-.72.39.47.47,0,0,1-.57.11,4.74,4.74,0,0,0-4.09.33,9.65,9.65,0,0,0-3.77,4.06,9,9,0,0,0-1.25,4.41c0,1.72,1.18,2.42,2.74,1.69.09,0,.17-.1.26-.15a16,16,0,0,0,3.59-3.27c.11-.12.17-.27.41-.32-.12.34-.24.63-.32.94s-.13.67-.18,1a1.93,1.93,0,0,0,.1,1.14c.17.38.56.38.9.46,0,.16-.17.2-.26.26A10.78,10.78,0,0,1,29,54c-.32.1-.33.22-.13.42A8.84,8.84,0,0,1,30,55.94a3,3,0,0,0,1.65,1.38,2.12,2.12,0,0,1,1.2,1.15,4.49,4.49,0,0,1,.46,2c0,.16-.08.36.08.46s.33-.07.47-.15A3.61,3.61,0,0,0,35,59.69,7.38,7.38,0,0,0,36.15,56,26.29,26.29,0,0,0,36.14,53Z"/><path class="cls-1" d="M84.49,32.24c-.54.69-1.08,1.37-1.61,2.07-2.74,3.63-5.17,7.47-7.73,11.23-1.31,1.92-2.65,3.83-4.08,5.67a8.53,8.53,0,0,1-2.19,2.13C67.2,54.4,65.72,53.9,65,52a6.82,6.82,0,0,1-.35-3c.44-4.36.87-8.72,1.42-13.06,0-.29.08-.57.13-.95a1.45,1.45,0,0,0-.41.62C62.42,42.39,59,49.18,55.54,55.92a8.23,8.23,0,0,1-1.63,2.3,3.55,3.55,0,0,1-1.17.77,1.82,1.82,0,0,1-2.59-1.52,4.47,4.47,0,0,1,.21-2,75.17,75.17,0,0,1,4.89-11,111.76,111.76,0,0,1,7.32-12.4,17.17,17.17,0,0,1,3.87-4.24,7.32,7.32,0,0,1,2.25-1.17,3,3,0,0,1,4.14,2.66,11.05,11.05,0,0,1-.22,3.93L70.18,45.88c-.17.91-.35,1.82-.53,2.73a.63.63,0,0,0,0,.41c.19-.06.24-.24.33-.38,3.51-5.35,7.09-10.66,11-15.7a39.66,39.66,0,0,1,4.84-5.36,7.07,7.07,0,0,1,2.43-1.52,1.58,1.58,0,0,1,2.24,1.27A6.83,6.83,0,0,1,90.31,31c-2.11,6.7-3.84,13.52-6.26,20.13A19.88,19.88,0,0,1,82.37,55a6.62,6.62,0,0,1-1.51,1.78,3.13,3.13,0,0,1-1,.56,1.33,1.33,0,0,1-1.69-.68A3.65,3.65,0,0,1,77.78,55a17.93,17.93,0,0,1,.81-4.65,136,136,0,0,1,4.68-14.23c.46-1.25.89-2.51,1.34-3.77Z"/><path class="cls-1" d="M110.52,50.74c.26-.08.32-.32.43-.5,1.52-2.49,2.8-5.11,4.13-7.7a29.15,29.15,0,0,1,3.61-5.63,9.73,9.73,0,0,1,2.87-2.47,3.29,3.29,0,0,1,5,2.15,8.63,8.63,0,0,1-.28,5.52,19.3,19.3,0,0,1-6,8.8,7.81,7.81,0,0,1-3.57,1.59,2.45,2.45,0,0,1-1.26,0,.61.61,0,0,1-.43-.91,3.92,3.92,0,0,1,1.16-1.43,15,15,0,0,0,2.1-2,24.47,24.47,0,0,0,4.58-8.71,5.46,5.46,0,0,0,.21-1.45c0-.47-.11-.54-.56-.37a4.12,4.12,0,0,0-1.36.93,18,18,0,0,0-2.31,2.84A94.54,94.54,0,0,0,113,51.54c-.88,1.72-1.75,3.45-2.64,5.17a8.17,8.17,0,0,1-2,2.67c-1.44,1.19-2.59.76-2.87-1.08a10,10,0,0,1,.43-4c.47-1.9,1-3.78,1.47-5.67a.4.4,0,0,0,0-.43c-.24.3-.48.58-.7.87-.53.68-1,1.37-1.59,2a5.87,5.87,0,0,1-2.19,1.76,2.4,2.4,0,0,1-3.61-2.16,9.22,9.22,0,0,1,.66-3.67,3.9,3.9,0,0,0,.37-1.31l-.83,1A29.87,29.87,0,0,1,94.2,52a8.76,8.76,0,0,1-2.84,1.48,2.92,2.92,0,0,1-3.94-2.61,12.08,12.08,0,0,1,.87-5.79,18.6,18.6,0,0,1,5.88-8.42A10.28,10.28,0,0,1,100,34.49a5.35,5.35,0,0,1,2.85.74c.45.24.77.26,1.11-.19a2.37,2.37,0,0,1,1.26-.8,1.21,1.21,0,0,1,1.64,1,4.48,4.48,0,0,1-.22,2q-1.6,5.07-3.2,10.15a7.57,7.57,0,0,0-.38,1.76c0,.18,0,.38.18.47s.31,0,.44-.12a1.83,1.83,0,0,0,.31-.24c2.3-2.22,4.42-4.55,5.51-7.66a29.67,29.67,0,0,1,2.31-5A8.43,8.43,0,0,1,113,35.11a3.17,3.17,0,0,1,.63-.53c.65-.41,1.17-.2,1.38.55a5,5,0,0,1,0,2.37,53,53,0,0,1-2.17,6.63c-.73,2-1.54,4-2.21,6C110.55,50.32,110.43,50.51,110.52,50.74Zm-10-12.86a8.11,8.11,0,0,0-.86.14,6.34,6.34,0,0,0-2.61,1.48,20,20,0,0,0-5.25,7.55,10.63,10.63,0,0,0-.7,2.13c0,.28-.16.61.11.82s.56,0,.81-.15a7.57,7.57,0,0,0,1.31-.93,43.47,43.47,0,0,0,6.38-7,35.82,35.82,0,0,0,2.21-3.16c.17-.28.14-.43-.16-.56A3.55,3.55,0,0,0,100.53,37.88Z"/><path class="cls-1" d="M175.3,29.76a17.63,17.63,0,0,0-6.22,1.51c-1.13.45-2.19,1.07-3.35,1.46a4.24,4.24,0,0,1-1.49.25c-1,0-1.31-.62-.89-1.48a4.69,4.69,0,0,1,1.56-1.72,23.83,23.83,0,0,1,5.66-2.84,14.84,14.84,0,0,1,6.12-1,7.29,7.29,0,0,1,6.75,5.33,10.16,10.16,0,0,1-.62,7,15.8,15.8,0,0,1-10.21,9,18.53,18.53,0,0,1-4.61.83.65.65,0,0,0-.64.47c-.62,1.54-1,3.17-1.54,4.73A10.81,10.81,0,0,1,164.64,56a3.34,3.34,0,0,1-1.38,1.28,1.28,1.28,0,0,1-1.76-.54,3,3,0,0,1-.38-1.35,13.88,13.88,0,0,1,.64-4.53,84.45,84.45,0,0,1,4.35-12.94,15.94,15.94,0,0,1,1.82-3.28,4.88,4.88,0,0,1,1.27-1.21,1.25,1.25,0,0,1,2,.74,4.81,4.81,0,0,1,.06,2.47c-.28,1.46-.89,2.82-1.31,4.24-.29,1-.6,1.93-.91,2.88-.12.36-.09.51.35.44a13,13,0,0,0,10.06-9.32,5.29,5.29,0,0,0,0-2.47,3.5,3.5,0,0,0-3.38-2.63A7.63,7.63,0,0,0,175.3,29.76Z"/><path class="cls-1" d="M193,45.79a.89.89,0,0,0-.47.39,56,56,0,0,1-4.74,5A9.77,9.77,0,0,1,184,53.46a2.69,2.69,0,0,1-3.6-2.27,9,9,0,0,1,.3-4.15A19.68,19.68,0,0,1,187,37a10.62,10.62,0,0,1,6.24-2.51,5.12,5.12,0,0,1,2.89.74.77.77,0,0,0,1.15-.21,2.4,2.4,0,0,1,1.36-.82A1.15,1.15,0,0,1,200,35a3.49,3.49,0,0,1-.1,2.3c-1,3.16-2,6.31-3,9.48-.45,1.43-.84,2.87-1.25,4.31a6.11,6.11,0,0,1-.73,1.7c-.72,1.1-1.65,1.1-2.33,0a5,5,0,0,1-.52-3.82c.2-.86.49-1.69.74-2.53C192.85,46.19,192.89,46,193,45.79Zm.88-7.88a5.49,5.49,0,0,0-3.31,1.4A19.91,19.91,0,0,0,185,46.88a9.69,9.69,0,0,0-.91,2.72c-.07.62.18.78.75.52a7,7,0,0,0,1.66-1.19,55.29,55.29,0,0,0,8.29-9.58c.22-.31.67-.67.5-1s-.81-.42-1.28-.45Z"/><path class="cls-1" d="M129.5,48.62a4.48,4.48,0,0,0,1.22-1A81.7,81.7,0,0,0,136.14,41a58.35,58.35,0,0,1,3.8-4.65,4.15,4.15,0,0,1,1.83-1.25,1.5,1.5,0,0,1,2.11,1.34,4.69,4.69,0,0,1-.22,2c-1,3.62-2.29,7.17-3.37,10.77-.23.78-.44,1.56-.66,2.35a3.71,3.71,0,0,1-.37.9.88.88,0,0,1-1.43.34,3.17,3.17,0,0,1-1.5-3.17A21,21,0,0,1,138,44c.38-.9.72-1.8,1.12-2.8a1.36,1.36,0,0,0-.64.58,80.85,80.85,0,0,1-7.59,8.74,17.25,17.25,0,0,1-2.3,2,3.66,3.66,0,0,1-1.23.58,1.39,1.39,0,0,1-1.88-1.27,9.17,9.17,0,0,1,.24-3.34,64.29,64.29,0,0,1,2.33-7.2,23.86,23.86,0,0,0,1.3-5.2,4.36,4.36,0,0,0,0-1c-.05-.41.15-.5.48-.54A2.76,2.76,0,0,1,132.62,37,9.6,9.6,0,0,1,132,41.6c-.61,1.63-1.28,3.23-1.91,4.86A8.14,8.14,0,0,0,129.5,48.62Z"/><path class="cls-1" d="M156.28,43.28a3.17,3.17,0,0,0-2,1.42c-.92,1.48-1.78,3-2.84,4.38A11.11,11.11,0,0,1,147,52.91a5.29,5.29,0,0,1-3,.44A2.72,2.72,0,0,1,141.7,51a4.68,4.68,0,0,1,1.11-3.95,2.73,2.73,0,0,1,3.05-.86.93.93,0,0,1,.74,1.3c-.18.61-.42,1.2-.63,1.8a2.78,2.78,0,0,0-.21,1.14c0,.42.28.57.68.45a2.8,2.8,0,0,0,.88-.52,17.69,17.69,0,0,0,3.93-4.56c.23-.36.16-.47-.26-.47-.57,0-1.14,0-1.7-.09a4,4,0,0,1-3.31-3,4.34,4.34,0,0,1,.44-2.7,8.82,8.82,0,0,1,6.13-5.15,4.86,4.86,0,0,1,2.18,0,2.71,2.71,0,0,1,2,2.86A11.62,11.62,0,0,1,156,41l-.38,1.1a2.35,2.35,0,0,0,1-.36,6.67,6.67,0,0,1,1.66-.68A1.39,1.39,0,0,1,160,42.25a4,4,0,0,1-.09,2.08c-.74,2.29-1.5,4.57-2.26,6.86a4.29,4.29,0,0,1-1.14,1.74,1.24,1.24,0,0,1-2.12-.29,4.62,4.62,0,0,1-.17-4.19C154.87,46.76,155.56,45.07,156.28,43.28Zm-1.94-5c0-.2,0-.47-.09-.72-.13-.62-.26-.71-.87-.5a5.41,5.41,0,0,0-2.9,2.69,4.3,4.3,0,0,0-.57,1.85A1.51,1.51,0,0,0,151,43.24a1.63,1.63,0,0,0,2-.65A9,9,0,0,0,154.34,38.27Z"/><path class="cls-1" d="M32,43.82c.11,0,.23,0,.34,0,.34.09.51.22.24.6a31.27,31.27,0,0,1-4.49,5.12,4,4,0,0,1-.75.54c-.12.08-.28.22-.44.09s-.08-.31,0-.46a7.71,7.71,0,0,1,.65-1.67,10.52,10.52,0,0,1,2.65-3.45A3.17,3.17,0,0,1,32,43.82Z"/><path class="cls-1" d="M33.27,54.24c.09-.34-.16-.84.16-1s.44.44.64.71a4.92,4.92,0,0,1,1,2.23,2.22,2.22,0,0,1-.22,1.27c-.21.43-.51.45-.82.08a3.34,3.34,0,0,1-.64-1.76C33.31,55.28,33.31,54.76,33.27,54.24Z"/><path class="cls-1" d="M34.78,34.1a3.87,3.87,0,0,1-.21-3l.1-.17a1,1,0,0,1,1.22-.54c.39.2.5.67.27,1.24-.09.21-.2.41-.31.61C35.5,32.84,35.14,33.47,34.78,34.1Z"/><path class="cls-1" d="M14.07,49.19a1.51,1.51,0,0,1-1.37-.81.28.28,0,0,1,.13-.4,2,2,0,0,1,2.15.14c.41.34.4.58-.05.86A1.79,1.79,0,0,1,14.07,49.19Z"/></g></svg>