<svg id="Layer_1" data-name="Layer 1" xmlns="http://www.w3.org/2000/svg" viewBox="0 0 205 85"><defs><style>.cls-1{fill:#023044;}</style></defs><title>prisma-logo</title><g id="_5lopGx" data-name="5lopGx"><path class="cls-1" d="M33.81,40.48v-8c0-.8.1-1.2,1.1-1.2,4,.1,7.9,0,11.9,0,.7,0,1,.2,1,1V49c0,.6-.1.9-.9,1-3,.2-3,.2-3-2.7V36.08c0-.9-.3-1.3-1.2-1.2a28.05,28.05,0,0,1-4.1,0c-.9-.1-1.1.3-1.1,1.2v12.5c0,1.2-.3,1.7-1.5,1.5a3.35,3.35,0,0,0-1,0c-1,.1-1.3-.3-1.3-1.3C33.91,45.88,33.81,43.18,33.81,40.48Z"/><path class="cls-1" d="M116.71,48.78v5.4c0,1-.3,1.5-1.3,1.3h-1.2c-1.1.1-1.3-.4-1.3-1.4V37.58c0-1,.3-1.6,1.3-1.3.8.2,2.3-.9,2.5.9.2-.1.5-.1.6-.3,3.8-2.6,9.1-.1,9.9,4.8.5,3.5-1.6,7.7-4.9,8.4C120.61,50.48,119.11,50.18,116.71,48.78Zm3.4-2.1c2.2.1,3.6-1.4,3.7-3.7a3.56,3.56,0,0,0-3.5-3.6,3.24,3.24,0,0,0-3.6,3.5C116.71,45.28,118,46.68,120.11,46.68Z"/><path class="cls-1" d="M69.61,48.48c0,2.1-.1,3.9,0,5.7,0,1.1-.3,1.4-1.3,1.3a5.65,5.65,0,0,0-1.3,0c-.7,0-.9-.3-.9-.9V37.18c0-.6.2-.9.8-.9a6.53,6.53,0,0,0,1.4,0c1-.1,1.4.2,1.2,1.6a5.45,5.45,0,0,1,5.5-1.8,6,6,0,0,1,3.9,2.5,7.74,7.74,0,0,1-.7,9.9C75.91,50.78,72.61,50.88,69.61,48.48Zm3.6-1.8a3.47,3.47,0,0,0,3.6-3.6,3.67,3.67,0,0,0-3.6-3.7c-2-.1-3.5,1.3-3.6,3.6A3.43,3.43,0,0,0,73.21,46.68Z"/><path class="cls-1" d="M85.81,44.68c1.7,2.5,4,2.9,6.1,1.3.4-.3.6-.4,1-.2a10.71,10.71,0,0,1,2.2,1.5c-2.3,3.6-7.9,3.7-10.9.9a7.58,7.58,0,0,1,.2-10.7c2.2-2,4.8-2.1,7.4-1.1a6,6,0,0,1,4,5.9c.1,2.3,0,2.3-2.3,2.3C91,44.68,88.51,44.68,85.81,44.68Zm3.2-2.9h2.6c.6,0,.8-.3.5-.8a3.22,3.22,0,0,0-2.9-1.8,3.18,3.18,0,0,0-3.1,1.7c-.4.8-.1.9.6.9A17.65,17.65,0,0,1,89,41.78Z"/><path class="cls-1" d="M137.81,44.68h-3.9c-.3,0-.7-.2-.9.3s.2.6.4.9c1.2,1.3,3.7,1.4,5.4.3.6-.4,3,.5,3.1,1.2.1.4-.2.6-.4.9-1.5,1.8-5,2.6-7.8,1.7a6.79,6.79,0,0,1-4.6-5.7c-.2-3,.4-5.7,3.2-7.3a6.84,6.84,0,0,1,7.4.1c2.5,1.5,3.2,4,3.1,6.9,0,.7-.4.9-1,.9A26.8,26.8,0,0,0,137.81,44.68Zm1.3-3a3,3,0,0,0-3.4-2.5,2.76,2.76,0,0,0-2.8,2.6h5.6A3.54,3.54,0,0,0,139.11,41.68Z"/><path class="cls-1" d="M53.91,44.68a3.85,3.85,0,0,0,5.7,1.6c.4-.2.5-.9,1.2-.5s1.5.9,2.2,1.4c.3.2,0,.5-.2.7-1.5,2-4.9,2.8-7.8,1.9a6.77,6.77,0,0,1-4.7-5.6c-.2-3.1.4-5.9,3.4-7.5a6.87,6.87,0,0,1,7.3.2c2.4,1.6,3.2,4.1,3,6.9-.1.9-.6.8-1.2.8C59.81,44.68,56.91,44.68,53.91,44.68Zm3.2-2.9h2.5c.8,0,.7-.3.5-.8-1.1-2.1-4.4-2.4-5.7-.5-.2.3-.5.7-.3,1.1s.7.2,1,.3A12.12,12.12,0,0,1,57.11,41.78Z"/><path class="cls-1" d="M171.91,43c-.4-4,3.2-7.2,7-7.1a7.07,7.07,0,0,1,7,7.2,6.88,6.88,0,0,1-7.1,7.1A6.75,6.75,0,0,1,171.91,43Zm3.5.1a3.5,3.5,0,1,0,7,.1,3.36,3.36,0,0,0-3.6-3.6C176.71,39.48,175.41,40.78,175.41,43.08Z"/><path class="cls-1" d="M98.11,43.08v-5.5c0-1,.3-1.4,1.4-1.3h1.3c.6,0,.8.2.8.8v3.6c0,.3-.2.8.3,1s.9-.1,1.2-.5c.9-1.3,1.9-2.5,2.7-3.9s2.1-1,3.3-1.1c.5,0,1.1-.3,1.3.2s-.4.8-.6,1.2a52.21,52.21,0,0,1-3.3,4.5c-.7.8-.4,1.2.1,1.8,1.2,1.6,2.5,3.3,3.8,4.9a.83.83,0,0,1,.3.8c-.1.4-.6.2-.9.3-2,.3-3.6-.1-4.5-2.1-.4-.9-1.3-1.7-1.8-2.6-.4-.7-1-.5-1.5-.5-.7.1-.4.7-.4,1.1v2.3c0,.6.4,1.5-.3,1.7a6.15,6.15,0,0,1-2.7,0c-.5-.1-.4-.7-.4-1.1C98.11,46.78,98.11,44.88,98.11,43.08Z"/><path class="cls-1" d="M187.91,37.58c-.1-1.1,0-1.31,1.14-1.28l1.56,0c.71-.08,1,.31.9,1.31s0,2.2,0,3.3c0,.3-.2.8.4.9.4.1.7-.1,1-.5.9-1.3,2.43-3.11,3.33-4.41a3.46,3.46,0,0,1,3.77-.59c.5.3.1.7-.1.9-1.1,1.6-2.3,3.1-3.4,4.6-.6.8-.8,1.3,0,2.2a55.52,55.52,0,0,1,3.5,4.6c.2.3.6.6.5,1s-2.16.25-2.46.25c-.91.28-2.84-2.25-2.84-2.25l-1.7-2.5s-.9-.7-1.5-.5-.3.7-.3,1.1v3c0,.7-.29,1.1-1.09,1.1-2.5.1-2.41.52-2.41-2C188.23,46.56,188,39.38,187.91,37.58Z"/><path class="cls-1" d="M156.81,38.38c.6.6.7,1.2-.2,1.6a4.13,4.13,0,0,0-1.1.7,1,1,0,0,1-1.5-.2,3.42,3.42,0,0,0-5-.1,3.77,3.77,0,0,0,.1,5.3,3.35,3.35,0,0,0,5-.3c.6-.7.9-.3,1.4-.1,2.4,1.3,2.5,1.6.3,3.3a6.6,6.6,0,0,1-7,.9,6.16,6.16,0,0,1-4.1-5.3c-.5-4.3,1.3-7.2,5.2-8.3C153.66,35.42,155.17,36.43,156.81,38.38Z"/><path class="cls-1" d="M164.91,36.18h4.8c.8,0,1.1.2,1.1,1,0,2.5.1,2.6-2.4,2.5-1.4-.1-1.8.3-1.7,1.7.1,2.4,0,4.8.1,7.3,0,1-.3,1.3-1.2,1.2-2.8-.1-2.4.3-2.4-2.4v-6.7c0-.9-.3-1.3-1.2-1.1h-1.2c-1.9,0-1.8,0-2-1.9-.1-1.4.5-1.8,1.7-1.7A32.33,32.33,0,0,0,164.91,36.18Z"/><path class="cls-1" d="M15.21,51.68a4.14,4.14,0,0,1-3.4-2.1,3.78,3.78,0,0,1,.1-4.2,19.28,19.28,0,0,1,3.1-3.3c.2-.2.5-.4.7-.2,1.3,1.4,3,2.4,3.7,4.4A4.29,4.29,0,0,1,15.21,51.68Z"/><path class="cls-1" d="M15.61,29.48a3.57,3.57,0,0,1,3.3,2,3.78,3.78,0,0,1-.1,4.2c-.8,1.2-2,2.1-2.9,3.2a.68.68,0,0,1-1,.1,16.73,16.73,0,0,1-3.1-3.4A4.08,4.08,0,0,1,15.61,29.48Z"/><path class="cls-1" d="M22.11,44.68a4.77,4.77,0,0,1-3-1.5c-2.8-2.7-2.8-2.7.1-5.4,2-1.8,4.4-1.9,6.1-.1a3.87,3.87,0,0,1,.9,4.3A4.3,4.3,0,0,1,22.11,44.68Z"/><path class="cls-1" d="M8.51,36.48c1.3-.1,2.3.7,3.3,1.6,2.4,2.4,2.4,2.4,0,4.9-1.2,1.2-2.6,2-4.4,1.5a4,4,0,0,1-2.9-4.6A3.85,3.85,0,0,1,8.51,36.48Z"/><path class="cls-1" d="M133.41,31.28a1.71,1.71,0,0,1,1.9,1.8c0,1.2-.8,1.7-1.9,1.8a1.9,1.9,0,0,1-1.9-1.9A1.8,1.8,0,0,1,133.41,31.28Z"/><path class="cls-1" d="M140.21,33.08a1.73,1.73,0,0,1-1.8,1.8,1.84,1.84,0,0,1-1.9-1.9,1.85,1.85,0,0,1,3.7.1Z"/></g></svg>