<svg id="Layer_1" data-name="Layer 1" xmlns="http://www.w3.org/2000/svg" viewBox="0 0 205 85"><defs><style>.cls-1{fill:#023044;}</style></defs><title>prisma-logo</title><g id="_5U4u29" data-name="5U4u29"><path class="cls-1" d="M175,29.8c-.1,1.3-.5,2.3-.6,3.4-.2,1.5-.6,3-.8,4.4-.2,1.7-.6,3.3-.8,5s-.7,3.5-.9,5.2-.7,3.3-.9,5c-.3,1.9-.8,3.9-1,5.8-.3,2.5-1,5-1.3,7.5-.1,1.1-.7,1.4-1.7,1.1H78.29c-3.4,0-6.8-.1-10.2-.1-1,0-2,.1-3,.1-3.3-.1-6.7-.1-10-.1-.6,0-.7-.2-.6-.7.5-2,.9-4.2,1.3-6.3.5-2.5.9-4.9,1.4-7.3.3-1.8.6-3.8,1-5.6.5-2.5.9-5.1,1.4-7.6.5-2.3.8-4.5,1.3-6.7a13.42,13.42,0,0,0,.5-3c0-.5.2-.8.8-.8h108.2a29.81,29.81,0,0,0,4.2-.1C174.59,29.1,175.19,29.3,175,29.8ZM119,60.9h4.4c.5,0,.7.1.6.6-.1,1.1-.1,2.4-.2,3.5,0,.5.3.9.7.8a11.33,11.33,0,0,1,2.6-.1c.6,0,.8-.2.9-.7.5-1.7.8-3.4,1.3-5.1a18,18,0,0,1,.6-2.2c.1-.5.1-.9-.6-.9s-1.5-.2-2.3-.2c-.5,0-1.1,0-.9-.8a18.14,18.14,0,0,0,.3-1.9c.3-1.8.8-3.6,1.1-5.3.6-3,1.1-5.9,1.7-8.9.1-.6,0-.7-.6-.7h-4c-1.1,0-1.1,0-1.1,1.1a.82.82,0,0,1-1,.9,26.57,26.57,0,0,0-4.9-.1q-.45,0-.6.6a37.09,37.09,0,0,1-1.8,7.3,33.88,33.88,0,0,1-2.4,5.5c-.7,1-1.3,2-2.7,1.7H110c-.2,0-.5.1-.5.3s-.1.6-.1.9c-.1,1-.2,2.2-.3,3.2-.1,1.5-.5,3-.7,4.4-.1.5.1.8.7.8a23,23,0,0,1,2.6.3.86.86,0,0,0,1.1-.6c.3-1,.7-2,1-3.2s.5-1.4,1.7-1.4A20,20,0,0,0,119,60.9Zm16.8-21.2h-2.5c-.6,0-.8.2-.9.8a20.9,20.9,0,0,1-.1,2.5c-.2,2.2-.3,4.3-.5,6.6-.1,1.6-.1,3.2-.3,4.8a12.75,12.75,0,0,0-.1,1.9c-.1,1.4-.2,2.7-.3,4.1,0,.3,0,.5.5.6a27.06,27.06,0,0,0,4,.1c.5,0,.9-.1.8-.8a2.2,2.2,0,0,1,.1-.8c.2-.9-.1-1.8.5-2.6.5-.6.9-1.3,1.4-1.8a10.06,10.06,0,0,0,1.7-2.5c.1-.2.3-.7.7-.5.2.1,0,.5,0,.7,0,.6-.2,1.1-.2,1.7a10.89,10.89,0,0,1-.1,1.9,26.93,26.93,0,0,0-.3,4c0,.5.2.7.6.7h3.9c.3,0,.6-.1.6-.5.1-.8.3-1.6.5-2.5.2-1.6.5-3.2.8-4.7.2-1.1.5-2.2.6-3.2.1-1.7.6-3.3.8-4.9l.9-5.7c.1-.5-.1-.8-.6-.7a30.88,30.88,0,0,1-4.3.1.89.89,0,0,0-1,.6,7.54,7.54,0,0,1-.6,1.3c-1,2-2.2,4.2-3.2,6.3-.1.3-.1.9-.6.8s-.1-.7-.1-1.1v-.1c.2-1.3.3-2.6.5-3.9.1-.8.1-1.6.2-2.4.1-.5-.1-.7-.7-.7C137.39,39.7,136.59,39.7,135.79,39.7ZM98.69,60.9h4.9a2.05,2.05,0,0,0,2-.9c.1-.2.3-.3.5-.6,1.8-2.3,1.5-4.3-.2-6.5-.6-.7-.7-.7,0-1.3a14,14,0,0,0,3.4-4.9,6.65,6.65,0,0,0,.7-3.9c-.3-2-1.7-3.3-3.4-4.3-.6-.3-1.1-.8-1.8-.8-1.3,0-2.5.2-3.8.3a26.94,26.94,0,0,1-3.2.5c-.2,0-.5-.1-.6.1s.2.5.3.5c.8.6,1.5,1,2.3,1.5.2.1.5.3.3.5a.45.45,0,0,1-.6.2,19.33,19.33,0,0,0-3.4-.1c-1.1,0-1.1,0-1.4,1.1v.1c-.1,1.3-.3,2.4-.5,3.6-.1.7-.1,1.4-.2,2-.3,1.7-.5,3.4-.7,5.1a27.69,27.69,0,0,0-.3,3c-.1,1.3-.3,2.5-.5,3.8-.1.6.2.7.8.7A32,32,0,0,0,98.69,60.9Zm55.8,0H159a2.74,2.74,0,0,0,2.3-.8c.2-.2.3-.5.5-.6a4.78,4.78,0,0,0-.1-6.5c-.7-.7-.7-.7,0-1.4a14.22,14.22,0,0,0,3.9-6,5,5,0,0,0-.3-4.3,12.56,12.56,0,0,0-2.2-2.4,6.22,6.22,0,0,0-1.9-1.1c-1.4-.3-2.7.1-4.2.2-1.1.1-2.3.5-3.4.5-.2,0-.5,0-.5.2s.1.2.3.3c.8.6,1.6,1,2.4,1.5.2.1.5.2.3.5,0,.2-.2.3-.5.2-1.5-.2-2.8,0-4.3-.1-.2,0-.6,0-.6.3-.2,1.6-.5,3.1-.6,4.7-.1,1.4-.3,2.7-.5,4A26.29,26.29,0,0,1,149,54a19.42,19.42,0,0,1-.2,2.4c-.2,1.1-.3,2.3-.5,3.3-.1.6.1.9.8.8A25.49,25.49,0,0,0,154.49,60.9ZM65.59,41.2h-2a.64.64,0,0,0-.7.5c-.2,1.1-.6,2.3-.7,3.3-.2,2.3-1,4.5-1.4,6.8-.2,1.3-.6,2.6-.9,3.9a17.85,17.85,0,0,1-3,6.4.61.61,0,0,0-.1.6c.1.2.3.2.6.2a4.1,4.1,0,0,1,1.1-.1h3.4a1.08,1.08,0,0,0,1.1-.6,12.81,12.81,0,0,0,1.8-4.8c.7-2.5,1.4-5,2-7.5a15.67,15.67,0,0,0,.8-3.1,4.42,4.42,0,0,1,.5-1.5c.1-.1.1-.3.3-.2s.1.3.1.5a8.08,8.08,0,0,0-.1,1.6c-.3,2.2-.3,4.3-.6,6.4a17.85,17.85,0,0,1-.2,2.3c-.2,1.6,0,3.2-.3,4.8,0,.2.1.5.3.5a2.2,2.2,0,0,0,.8.1c1.1,0,2.4-.1,3.5,0,.7.1.8-.1,1-.7.5-2,.3-4.1.8-6a29.62,29.62,0,0,0,.3-3.1c.2-1.4.3-2.6.5-4s.3-2.6.5-3.9a32.63,32.63,0,0,1,.5-3.3c.1-.9,0-.9-.9-.9-1.3,0-2.6,0-3.9-.1-1.5-.2-1.5-.1-1.7,1.4,0,.5-.3.7-.8.7C67.49,41,66.49,41.3,65.59,41.2ZM83,60.9a20.85,20.85,0,0,1,2.5,0,2.66,2.66,0,0,0,2.2-1.1,23.43,23.43,0,0,0,2.7-4.9,23.42,23.42,0,0,0,2-6.5,12.08,12.08,0,0,0-1-6.5A13.88,13.88,0,0,0,89,38.5c-.6-.7-1.1-1.3-2.3-.9a30.88,30.88,0,0,1-5.3.9c-.2,0-.5,0-.5.2s.1.3.2.5a19.25,19.25,0,0,0,2.3,1.9c.2.1.5.3.3.6,0,.3-.3.3-.5.3-1.1-.1-2.2-.1-3.3-.1-.5,0-.9.1-1.1.5a17.27,17.27,0,0,0-2,4.1,15.78,15.78,0,0,0,1.8,14,1,1,0,0,0,1,.6A20,20,0,0,1,83,60.9Z"/><path class="cls-1" d="M37.39,35a46.43,46.43,0,0,1-5.3.1c-.7,0-1-.3-.8-.9.6-1.7.9-3.5,1.4-5.3.3-1.1.6-1.4,1.7-1.1a4.33,4.33,0,0,0,.5.1,55.14,55.14,0,0,1,5.7.1c2.6.1,5.2.2,7.8.2,1.9.1,3.9.2,5.8.2.9,0,1.8.1,2.6.1.6,0,.7.3.6.8-.3,2.7-1,5.5-1.4,8.3-.2,1.5-.6,3.1-.8,4.5s-.5,2.7-.7,4.1-.6,2.8-.7,4.2c-.3,2-.8,4.1-1,6.1-.2,1.8-.7,3.5-1,5.3a4.33,4.33,0,0,0-.1.5c0,.7-.2.8-.9.8-1,.1-2.2,0-3.2.2a8.1,8.1,0,0,1-2.2,0c-.5,0-.8.2-1.3,0-.3-.1-.3-.2-.3-.6.2-1.6.3-3.2.5-4.7a48.8,48.8,0,0,1,.6-5.2l.3-3.3a41,41,0,0,1,.6-4.9c.1-1.1.2-2.3.2-3.4a36.76,36.76,0,0,1,.6-5.7v-.8q0-.75-.6-.6a9.06,9.06,0,0,1-2.3.1c-.9,0-1,.1-1.3,1.1-.2,1.5-.6,3.1-.8,4.5s-.5,2.8-.7,4.2c-.5,2.4-.8,4.8-1.3,7.3s-.8,5.2-1.3,7.8c-.2,1-.3,2-.5,3.1-.1.6-.5.7-.9.8-1.5.1-3,.1-4.3.3a24.52,24.52,0,0,0-2.7.2c-.8.2-1.1-.2-.9-1,.3-1.1.2-2.3.5-3.4.5-2.3.6-4.5.9-6.8.2-1.6.5-3.2.6-4.8.2-1.9.5-3.9.8-5.9a27.33,27.33,0,0,0,.5-4c0-.6.2-.9.7-1,1.6-.5,3.3-.9,4.9-1.3a4.33,4.33,0,0,1,.5-.1.27.27,0,0,0,.3-.3c0-.2-.2-.2-.5-.2C38.19,35,37.69,35,37.39,35Z"/><path class="cls-1" d="M139.79,20.6v1.9c0,.3-.1.7-.5.7s-.5-.3-.6-.7a12,12,0,0,0,0-1.9c0-.1-.1-.3-.2-.3s-.2.1-.3.3c-.2.7-.5,1.4-.7,2-.1.2-.1.6-.5.6s-.6-.3-.7-.7a9.5,9.5,0,0,0-.6-1.8c-.1-.1-.1-.5-.3-.3-.2,0-.3.2-.3.5a4.33,4.33,0,0,0,.1,1.6.78.78,0,0,1-.2.8.45.45,0,0,1-.5,0c-.2-.1-.3-.5-.3-.7.2-1.3,0-2.5.1-3.8,0-.3-.1-.7.3-.8a.76.76,0,0,1,1,.6,19.45,19.45,0,0,1,.8,2.2c.1.3,0,.8.5.8s.5-.5.6-.7a21.85,21.85,0,0,1,.9-2.3,1,1,0,0,1,1-.6c.5.1.5.5.5.8A9.72,9.72,0,0,0,139.79,20.6Z"/><path class="cls-1" d="M70.09,23.3a.75.75,0,0,1-.5.8c-.5.1-.6-.2-.7-.6s-.3-.6-.9-.5a6.05,6.05,0,0,1-1.9,0c-.6-.1-.9.1-1,.6-.1.2-.1.5-.5.5a.87.87,0,0,1-.5-.7c.1-.3,0-.7.2-.9,1-1.3,1.3-2.7,2-4.1.1-.2.2-.7.6-.7s.6.3.7.7a21.35,21.35,0,0,0,2,4A1.65,1.65,0,0,1,70.09,23.3Zm-2.9-1.1H68c.3,0,.5-.2.3-.5a7.56,7.56,0,0,0-.9-1.8c-.3-.5-.6-.3-.7.2a4.24,4.24,0,0,1-.6,1.4c-.2.5-.1.8.5.8A3.54,3.54,0,0,1,67.19,22.2Z"/><path class="cls-1" d="M85.79,20.5a2.63,2.63,0,0,1-2.6,2.8,2.77,2.77,0,0,1-2.8-2.7,3,3,0,0,1,2.7-2.8C84.29,17.6,85.79,19.1,85.79,20.5Zm-2.7,1.9A2,2,0,0,0,85,20.6a2.23,2.23,0,0,0-1.8-1.9,1.88,1.88,0,0,0-1.8,1.9A1.71,1.71,0,0,0,83.09,22.4Z"/><path class="cls-1" d="M161,21.9a4.1,4.1,0,0,1,.1-1.1c.1-.2,0-.7-.2-.7s-.5.2-.6.5l-1.5,2.4c-.1.2-.3.5-.7.3s-.5-.3-.3-.7c.2-1-.1-2,0-3.1v-.9a.64.64,0,0,1,.5-.7.56.56,0,0,1,.5.6,7.52,7.52,0,0,1,0,1.5.37.37,0,0,1-.1.3c0,.2,0,.6.2.7s.6-.2.7-.3a8.58,8.58,0,0,1,1.3-2c.2-.3.5-.8.9-.6a.78.78,0,0,1,.3,1c-.2.3.1.7.1,1v2.5c0,.3-.1.7-.5.7s-.5-.3-.5-.7A1.08,1.08,0,0,1,161,21.9Z"/><path class="cls-1" d="M75.69,20.5a2.63,2.63,0,0,1-2.6,2.8c-1.5,0-3-1.4-2.8-2.8A2.9,2.9,0,0,1,73,17.8,2.68,2.68,0,0,1,75.69,20.5Zm-2.6,1.9a1.75,1.75,0,0,0,1.7-1.7A2,2,0,0,0,73,18.8a2,2,0,0,0-1.9,1.9A2.15,2.15,0,0,0,73.09,22.4Z"/><path class="cls-1" d="M58.49,20.6a3,3,0,0,1,2.6-3,3,3,0,0,1,2.7,2.7A2.79,2.79,0,0,1,61,23.1,2.46,2.46,0,0,1,58.49,20.6Zm2.8,1.8a1.73,1.73,0,0,0,1.8-1.8c0-.9-.9-2-1.8-1.9a2,2,0,0,0-1.9,1.9A1.88,1.88,0,0,0,61.29,22.4Z"/><path class="cls-1" d="M172.89,20.6a2.55,2.55,0,0,1-2.6,2.7,2.65,2.65,0,0,1-2.7-2.8,2.89,2.89,0,0,1,2.6-2.7A2.77,2.77,0,0,1,172.89,20.6Zm-2.7,1.8a2,2,0,0,0,1.9-1.8,2,2,0,0,0-1.9-1.9,1.84,1.84,0,0,0-1.7,1.8A1.73,1.73,0,0,0,170.19,22.4Z"/><path class="cls-1" d="M174.79,23.2c-1,0-1.1-.2-1.1-1.1V18.6c0-.2,0-.5.2-.6.8-.6,2.6.2,2.8,1.1v.1c-.5.8,0,1.4.2,2,.3.9-.6,1.9-1.7,1.9C175.19,23.2,175,23.2,174.79,23.2Zm.5-2.4c-.6-.1-.7.3-.7.7s.1.7.6.7.8-.2.8-.7S175.79,20.8,175.29,20.8Zm-.2-2c-.3-.1-.5.2-.5.6s.2.7.6.6a.64.64,0,0,0,.6-.6C175.79,19,175.49,18.8,175.09,18.8Z"/><path class="cls-1" d="M77.59,23.2c-1.1,0-1.1,0-1.1-1.1V18.6c0-.2,0-.5.2-.6a2.1,2.1,0,0,1,2.7,1v.2a1.64,1.64,0,0,0,.2,1.9c.5.9-.3,1.8-1.5,1.9C78,23.2,77.69,23.2,77.59,23.2Zm1.3-1.8c0-.5-.3-.5-.8-.6s-.7.3-.7.7.1.8.7.7A.79.79,0,0,0,78.89,21.4ZM78,18.8a.64.64,0,0,0-.7.5.66.66,0,0,0,.6.7.73.73,0,0,0,.7-.6C78.69,19,78.29,18.9,78,18.8Z"/><path class="cls-1" d="M104.29,20.6V19c0-1,.3-1.4,1.3-1.3a2.13,2.13,0,0,1,1.5.7,1.1,1.1,0,0,1,.1,1.1.74.74,0,0,0,.1.9,1.57,1.57,0,0,1-1.3,2.5h-.2c-1.5,0-1.5,0-1.5-1.4Zm1.8,1.6a.71.71,0,0,0,.7-.8c0-.5-.3-.6-.7-.6s-.8.1-.8.7C105.29,21.9,105.39,22.2,106.09,22.2Zm-.8-3c0,.3.1.7.6.7a.66.66,0,0,0,.7-.6c0-.4-.2-.7-.7-.6S105.09,18.9,105.29,19.2Z"/><path class="cls-1" d="M162.89,21.8a16,16,0,0,0,0-3.1,1.49,1.49,0,0,1,.1-.6c.1-.3.1-.5.5-.5a.56.56,0,0,1,.5.6v1c0,.8.6.6,1,.7s.9,0,.9-.7v-.9a.56.56,0,0,1,.5-.6c.3,0,.5.2.5.6a11.48,11.48,0,0,1-.1,1.8c-.1.7.2,1.5.1,2.3,0,.3,0,.8-.5.8a.57.57,0,0,1-.5-.8v-.5c0-.9-.1-1-1-1-.6,0-.9.3-.8.9v.8c0,.3-.1.6-.5.6s-.5-.3-.5-.6C162.79,22.3,162.89,22.1,162.89,21.8Z"/><path class="cls-1" d="M115.89,20.5v1.9c0,.3.1.7-.5.7s-.5-.5-.6-.8c0-.1.1-.1.1-.2a1,1,0,0,0-.3-1.1,1.48,1.48,0,0,0-1.3,0c-.5.2-.3.6-.3.9s.2.7,0,1-.1.3-.3.3-.3-.1-.5-.3a3.33,3.33,0,0,1-.1-1.4,6.69,6.69,0,0,0,0-2,3.33,3.33,0,0,1,.1-1.4c0-.2.2-.2.3-.2a.32.32,0,0,1,.3.3,3.35,3.35,0,0,1,0,1c0,.8.3.9,1.5.8a.71.71,0,0,0,.6-1,2.13,2.13,0,0,1,0-.8c0-.2.2-.3.5-.2s.3.2.3.5A6.17,6.17,0,0,1,115.89,20.5Z"/><path class="cls-1" d="M117,20.5V18.7c0-.3-.1-.8.5-.8s.5.6.5.9c0,.1-.1.2-.1.3a1.2,1.2,0,0,0,.2.8,2,2,0,0,0,1.5.1c.3-.1.3-.6.3-.9s-.1-.5,0-.7.1-.5.5-.5.3.2.3.5v3.2c0,.3.1.7.1,1s-.1.7-.6.6-.3-.5-.3-.8.1-.5,0-.7c0-.6-.2-.8-.9-.9s-1,.1-1.1.8c0,.2.1.6.1.8s-.1.8-.6.7-.5-.3-.5-.7A12.1,12.1,0,0,0,117,20.5Z"/><path class="cls-1" d="M53.69,20.6v1.8c0,.3-.1.8-.6.7a.57.57,0,0,1-.5-.8,9.66,9.66,0,0,0,.1-2.4c0-1-.7-1.5-1.7-1.1-.3.1-.3.5-.3.8v2.8c0,.3-.1.8-.5.7s-.5-.5-.5-.7a28.08,28.08,0,0,0,.1-4.1c0-.5.5-.5.8-.5a17.65,17.65,0,0,1,2.3,0c.5,0,.7.3.7.8A12.75,12.75,0,0,1,53.69,20.6Z"/><path class="cls-1" d="M152.79,22.6c0,.3,0,.6-.3.6a.6.6,0,0,1-.6-.3,1.56,1.56,0,0,0-2.8-.4c0,.1-.1.2-.1.3a.64.64,0,0,1-.8.5c-.5-.2-.2-.6-.1-.8.5-1.3,1-2.4,1.5-3.6.1-.3.2-.7.7-.7s.5.3.7.7c.6,1.3.9,2.5,1.6,3.8C152.79,22.5,152.79,22.6,152.79,22.6ZM151,20.5c0-.3.1-.7-.3-.7s-.5.2-.5.6,0,.6.5.6C151,20.9,151,20.7,151,20.5Z"/><path class="cls-1" d="M140.59,22.5a7.26,7.26,0,0,1,.6-1.4c.3-.9.9-1.8,1.3-2.8.1-.2.2-.5.5-.5a.85.85,0,0,1,.6.3c.7,1.5,1.3,3,1.9,4.4.1.2-.1.3-.2.5a.45.45,0,0,1-.5,0,3.33,3.33,0,0,1-.3-.6,1.07,1.07,0,0,0-1.3-.8c-.6.1-1.1.1-1.4.9a1.69,1.69,0,0,1-.2.5c-.1.2-.3.2-.6.2S140.59,22.8,140.59,22.5Zm2.8-2.3c0-.3-.1-.7-.5-.6s-.5.5-.6.8a.65.65,0,0,0,.5.6A.7.7,0,0,0,143.39,20.2Z"/><path class="cls-1" d="M34.29,22.4a2.39,2.39,0,0,0,1.4-.5c.2-.1.5-.3.7,0s0,.5-.2.7a2.39,2.39,0,0,1-2.2.7,2.8,2.8,0,0,1-.8-5.2c1.3-.7,1.9-.7,3,.2.2.2.6.5.3.8s-.6.1-.8-.1c-.6-.3-1-.7-1.7-.3a2.13,2.13,0,0,0-1.3,2A1.74,1.74,0,0,0,34.29,22.4Z"/><path class="cls-1" d="M95.59,20.6a2.77,2.77,0,0,1,2.2-2.7,2.74,2.74,0,0,1,2.4.9c.2.2.2.3.1.6s-.3.1-.6.1a4.17,4.17,0,0,0-.6-.2,1.53,1.53,0,0,0-2.3.2,1.6,1.6,0,0,0-.1,2.3,1.61,1.61,0,0,0,2.5.3c.1,0,.1-.1.2-.1s.6-.3.8,0,0,.6-.2.8a2.61,2.61,0,0,1-4.3-1.1C95.69,21.1,95.49,20.8,95.59,20.6Z"/><path class="cls-1" d="M131.89,22.8c-.1.1-.1.3-.2.3s-.5.1-.7-.1-.6-.7-.8-1c-.3-.5-.6-.6-.9,0-.2.2-.3.6-.5.8a.46.46,0,0,1-.5.3c-.2.1-.3.1-.6-.1a.63.63,0,0,1,0-.6c.3-.5.7-.9,1-1.4.5-.5.2-.9-.1-1.3a11,11,0,0,1-.9-1.4.36.36,0,0,1,0-.6c.2-.1.5-.1.6.1s.6.5.7.8.3.7.7.7.5-.3.6-.6.3-.8.8-.9a.63.63,0,0,1,.6,0c.2.2,0,.3-.1.5a8.28,8.28,0,0,1-1.1,1.5.67.67,0,0,0,0,1c.3.5.7.9,1,1.4A1.54,1.54,0,0,0,131.89,22.8Z"/><path class="cls-1" d="M44.09,21.5a13.07,13.07,0,0,0,0-2.8c0-.3,0-.7.6-.7s.5.3.5.7v.5c0,.6.2.8.8.8a1.42,1.42,0,0,1,1.4.7c.3.5.6,1,.2,1.6a1.85,1.85,0,0,1-1.6,1h-.3C44.29,23.2,44.09,23.1,44.09,21.5Zm1.8-.7c-.6,0-.8.1-.8.7s.2.7.7.7.9-.2.9-.7A.67.67,0,0,0,45.89,20.8Z"/><path class="cls-1" d="M37.49,20.6V18.7c0-.6.2-.9.8-.8s1.1-.1,1.6.1c.2.1.5.2.5.5s-.3.3-.6.3h-.9c-.3,0-.7.2-.6.6s.1.7.6.7h.8a.56.56,0,0,1,.6.5.47.47,0,0,1-.5.5H39c-.3,0-.6.1-.6.5a.66.66,0,0,0,.6.7h.9c.3,0,.5.1.5.5a.47.47,0,0,1-.5.5h-1.8c-.3,0-.5-.2-.5-.6A16.23,16.23,0,0,1,37.49,20.6Z"/><path class="cls-1" d="M121.89,20.5V18.6c0-.3.1-.7.5-.7s.5.3.5.7c-.1.9.1,1.5,1.3,1.5.8,0,1.3.8,1.1,1.8a1.55,1.55,0,0,1-1.6,1.4h-.1c-1.9,0-1.7,0-1.7-1.6Zm2.5,1.1c-.1-.6-.5-.7-.9-.8-.6-.1-.7.3-.7.7s.2.8.7.8C123.79,22.3,124.09,22.1,124.39,21.6Z"/><path class="cls-1" d="M108.59,20.5V18.6c0-.5.2-.7.7-.7h1.5a.56.56,0,0,1,.6.5c0,.3-.2.5-.6.5H110c-.5,0-.6.3-.6.7s.1.7.6.6h.6c.3,0,.6.1.6.5s-.2.5-.6.5H110a.53.53,0,0,0-.6.6c0,.3.1.7.6.6h.8c.2,0,.6.2.5.5a.47.47,0,0,1-.5.5h-1.7a.67.67,0,0,1-.6-.7A18.55,18.55,0,0,0,108.59,20.5Z"/><path class="cls-1" d="M93.09,23.2c-1.3,0-1.7-.7-1.4-2a6.69,6.69,0,0,0,0-2,2.72,2.72,0,0,1,0-.9c.1-.3.2-.5.5-.5s.5.2.3.6v.7c0,.6.2.8.8.8A1.71,1.71,0,0,1,95,21.7a1.53,1.53,0,0,1-1.7,1.5Zm.1-2.4c-.5,0-.7,0-.7.6s.2.8.8.8.8-.2.8-.7S93.79,20.8,93.19,20.8Z"/><path class="cls-1" d="M155.19,23.2a1.56,1.56,0,0,1-1.5-.8c-.1-.2-.2-.6,0-.8s.5,0,.6.2.5.3.7.5c.5.2.7,0,.8-.3s.2-.8-.3-.9c-.2-.1-.7,0-.7-.5s.3-.6.6-.7a.57.57,0,0,0,.2-.9c-.1-.3-.5-.3-.8-.1a2.19,2.19,0,0,1-.5.3.63.63,0,0,1-.6,0,.85.85,0,0,1,0-.7,1.48,1.48,0,0,1,1.5-.8,2.07,2.07,0,0,1,1.4,1c.1.3.2.7,0,.9-.5.5-.2.8,0,1.3A1.5,1.5,0,0,1,155.19,23.2Z"/><path class="cls-1" d="M54.79,20.3V18.5c0-.3.1-.5.5-.6A1.93,1.93,0,0,1,58,19.7a1.32,1.32,0,0,1-1.3,1.3c-.9,0-.9.1-1,1,0,.2.1.6-.1.8s-.2.5-.6.3c-.3,0-.3-.2-.3-.5a17.7,17.7,0,0,0,.1-2.3Zm2.2-.9c.1-.5-.3-.7-.7-.7s-.7.3-.7.8c0,.3.1.8.6.8S57,20,57,19.4Z"/><path class="cls-1" d="M90.89,22.7c0,.2-.1.2-.2.3a.45.45,0,0,1-.5,0c-.1-.2-.3-.3-.5-.6a14.27,14.27,0,0,0-.8-2.2c-.1-.2-.1-.6-.5-.6s-.3.3-.5.6a22.5,22.5,0,0,0-.8,2.4c-.1.3-.3.7-.8.6s-.2-.6-.1-.9c.5-1.3,1-2.4,1.5-3.6.1-.3.2-.7.6-.8a.84.84,0,0,1,.7.7c.6,1.4,1,2.7,1.6,4.1C90.79,22.6,90.89,22.7,90.89,22.7Z"/><path class="cls-1" d="M41.79,20.7a6.6,6.6,0,0,0-.1-1.4c-.1-.3-.1-.5-.5-.7-.2-.1-.5-.2-.5-.5s.3-.6.6-.5a7.52,7.52,0,0,0,1.5,0,.78.78,0,0,1,.7.3c.1.2-.2.5-.3.5a1,1,0,0,0-.6,1,16.2,16.2,0,0,0,.1,2.2c.1.5.2,1.1-.5,1.3-.7,0-.6-.7-.6-1.1S41.89,21,41.79,20.7Z"/><path class="cls-1" d="M102.89,22.1v.5c-.1.3-.1.7-.6.7a.57.57,0,0,1-.5-.8,9.06,9.06,0,0,0,.1-2.3c0-.6.1-1.1-.7-1.4-.1,0-.3-.3-.2-.6s.3-.3.6-.3a3.78,3.78,0,0,0,1.5,0c.2,0,.6,0,.6.3s-.1.6-.5.6-.6.5-.6.9A17.48,17.48,0,0,0,102.89,22.1Z"/><path class="cls-1" d="M146.09,20.5V18.6c0-.2,0-.5.2-.6a6.08,6.08,0,0,1,1.9-.1c.1.1.3.2.2.5a.46.46,0,0,1-.5.3c-1.1.1-1.1.2-1.1,1.4a8.88,8.88,0,0,0,.1,2.3c.1.3-.1.8-.5.8s-.5-.3-.5-.7A7.14,7.14,0,0,0,146.09,20.5Z"/><path class="cls-1" d="M126.69,20.6v1.9c0,.3-.1.6-.5.6a.46.46,0,0,1-.5-.6c.3-1.4-.1-2.7,0-4.1a.64.64,0,0,1,.5-.7.56.56,0,0,1,.5.6v2.3Z"/><path class="cls-1" d="M122.49,44.5a17.49,17.49,0,0,1-.5,3.3c-.3,1.4-.5,2.7-.8,4.2-.2,1.1-.3,2.4-.6,3.5-.1.6-.5.8-.9.7a4.33,4.33,0,0,0-1.6-.1c-.2,0-.6,0-.7-.3s.1-.5.2-.6a26.77,26.77,0,0,0,3.9-9,11.11,11.11,0,0,1,.7-1.6A.77.77,0,0,1,122.49,44.5Z"/><path class="cls-1" d="M104,45.2a5.36,5.36,0,0,1-1.1,2.7c-.8,1-1.6,2-2.4,3.1a.62.62,0,0,1-.5.3c-.3-.1-.2-.5-.1-.6.5-1.6.6-3.2,1-4.8.2-1,.2-2,.5-3.1.1-.3.1-.7.3-.8s.5.2.6.3a11.43,11.43,0,0,1,1.4,1.6A3.08,3.08,0,0,1,104,45.2Z"/><path class="cls-1" d="M101.39,55.6a3.6,3.6,0,0,1-1.1,2c-.5.6-1,1.1-1.5,1.7a.45.45,0,0,1-.6.2c-.2-.1-.1-.3-.1-.6a19.12,19.12,0,0,0,1-5.2c.1-.5.3-.5.7-.3A3.85,3.85,0,0,1,101.39,55.6Z"/><path class="cls-1" d="M159.79,45.5a6.19,6.19,0,0,1-1.1,2.5c-.7,1-1.6,1.9-2.3,3-.1.2-.3.5-.6.3s-.1-.5-.1-.7a66.62,66.62,0,0,0,1.5-8c.1-.5.5-.6.7-.3C158.79,43.1,159.79,43.9,159.79,45.5Z"/><path class="cls-1" d="M153.89,59a15.43,15.43,0,0,1,.5-1.7c.2-1.1.5-2.3.7-3.3.1-.6.3-.6.8-.3,1.4.9,1.9,1.9.8,3.4-.7.8-1.4,1.6-2,2.4-.1.1-.2.3-.5.2S153.89,59.3,153.89,59Z"/><path class="cls-1" d="M82.09,52.2a16.51,16.51,0,0,1,.9-6.6,11.11,11.11,0,0,1,1.3-2.7c.3-.6.7-.6,1.1-.1a7.11,7.11,0,0,1,1.3,3.4,22.26,22.26,0,0,1-1.5,8.4c-.5,1.1-1,2.3-1.6,3.4-.1.2-.2.5-.6.3-.2,0-.2-.3-.2-.5A11.74,11.74,0,0,1,82.09,52.2Z"/></g></svg>