<svg id="Layer_1" data-name="Layer 1" xmlns="http://www.w3.org/2000/svg" viewBox="0 0 205 85"><defs><style>.cls-1{fill:#023044;}</style></defs><title>prisma-logo</title><g id="OZ6Ubh"><path class="cls-1" d="M160.34,35.4v7.8c0,1.1-.1,2.1,0,3.2.1,2.8,0,5.5,0,8.3v.5a.1.1,0,0,0,.2,0c.1-.4.4-.8.5-1.2.3-.5.5-1.1.8-1.7s.5-1.1.8-1.6.5-1.1.8-1.6a17.6,17.6,0,0,0,.9-2c.3-.5.5-1.1.8-1.6a11.11,11.11,0,0,0,.7-1.6c.3-.5.5-1.1.8-1.7a17.6,17.6,0,0,0,.9-2c.3-.5.5-1.1.8-1.6s.5-1.1.8-1.6.4-.9.7-1.3.5-1.1.8-1.6a11.11,11.11,0,0,0,.7-1.6c.3-.5.5-1.1.8-1.6s.5-1.1.8-1.6.5-1.1.8-1.6c.1-.1.1-.4.3-.5s.1-.1.3,0,.1.3.3.5c.4.9.8,1.7,1.2,2.6a19.68,19.68,0,0,0,1.5,2.9c.4.8.7,1.6,1.1,2.4a10.08,10.08,0,0,0,.9,1.8c.3.7.7,1.5.9,2.1a17.6,17.6,0,0,1,.9,2,17.6,17.6,0,0,1,.9,2c.3.5.5,1.1.8,1.6s.5,1.1.8,1.6a13.27,13.27,0,0,1,.9,2.1,17.6,17.6,0,0,1,.9,2c.3.5.5,1.1.8,1.6s.5,1.1.8,1.6.5,1.1.8,1.6.5,1.1.8,1.6a.1.1,0,0,0,.1.1c0,.1.1.1,0,.3s-.1.1-.3.1h-6.2c-.3,0-.4-.1-.4-.3a7.93,7.93,0,0,0-.4-.9c-.1-.4-.4-.8-.5-1.2-.3-.5-.5-1.1-.8-1.7a11.11,11.11,0,0,1-.7-1.6.37.37,0,0,0-.4-.3h-8.7c-.4-.1-.5.1-.7.4s-.4.8-.5,1.2c-.3.4-.4.9-.7,1.3-.1.4-.4.8-.5,1.2a5.39,5.39,0,0,0-.7,1.3c-.1.5-.5.5-.9.5h-11.5c-.3,0-.3-.1-.3-.3V43.5c-.1,0-.1,0-.3.1-.7.7-1.2,1.3-1.8,2a10.63,10.63,0,0,1-1.5,1.5,37.87,37.87,0,0,0-2.6,2.9c-.4.5-.9.9-1.3,1.5a.3.3,0,0,1-.4,0c-.4-.4-.8-.9-1.2-1.3-.7-.8-1.5-1.5-2.1-2.2-.8-.8-1.6-1.7-2.4-2.5-.5-.5-1.1-1.2-1.6-1.7-.1-.1-.1-.3-.3-.1-.1,0,0,.3,0,.3V57.5c0,.3,0,.4-.4.4h-5.8a.32.32,0,0,1-.3-.3V27.2a.1.1,0,0,1,.1.1c.3.3.5.7.9.9a15.38,15.38,0,0,1,1.2,1.3c.8.9,1.7,1.8,2.5,2.8a39.74,39.74,0,0,0,2.8,3c.8.9,1.7,1.8,2.5,2.8,1.2,1.2,2.2,2.5,3.4,3.7.1.1.3.4.4.5a.3.3,0,0,0,.4,0c.7-.8,1.5-1.5,2.1-2.2.5-.5,1.1-1.2,1.6-1.7.8-.9,1.6-1.7,2.4-2.6.5-.7,1.2-1.2,1.7-1.8a21.83,21.83,0,0,1,2.1-2.2c1.2-1.3,2.4-2.5,3.6-3.8l.4-.4s.1-.1.1,0,0,.1,0,.1v.4A41.16,41.16,0,0,0,160.34,35.4Zm13.5,10.2h1.7c.1,0,.3,0,.3-.1-.1-.3-.3-.5-.3-.7-.3-.7-.5-1.2-.8-1.8a11.11,11.11,0,0,1-.7-1.6.1.1,0,0,0-.2,0c0,.1-.1.3-.1.4-.3.5-.5,1.2-.8,1.7a13.76,13.76,0,0,1-.8,1.7c-.1.3-.1.3.3.3A5.31,5.31,0,0,0,173.84,45.6Z"/><path class="cls-1" d="M78.24,44.9V28.7c0-.3.1-.7.1-.9a.1.1,0,0,1,.1-.1H90a6.82,6.82,0,0,1,2.9.5,11.46,11.46,0,0,1,4.5,3.4,14.79,14.79,0,0,1,1.3,2.1,12.8,12.8,0,0,1,.9,3.2,25.28,25.28,0,0,1,.1,2.8,4.92,4.92,0,0,1-.4,2.1,13.14,13.14,0,0,1-.5,1.5,8.28,8.28,0,0,1-1.1,1.5,8.75,8.75,0,0,1-2.1,1.8,4,4,0,0,1-1.6.8c-.1.1-.3.1-.1.4.5.8,4.2,6.6,4.6,7.1.4.7.9,1.5,1.3,2.1.1.1.1.3.3.4a.19.19,0,0,1-.1.3H93a.67.67,0,0,1-.7-.4,16.29,16.29,0,0,0-1.1-1.7c-.3-.5-.5-1.1-.9-1.7a14,14,0,0,1-.9-1.7c-.3-.5-.5-.9-.8-1.5s-.5-1.1-.8-1.5a14,14,0,0,0-.9-1.7c-.3-.5-.5-.9-.8-1.5a11.73,11.73,0,0,0-.5-1.1c-.3-.4-.4-.9-.7-1.3l-.1-.1c-.1,0,0,.1,0,.1V57.4c0,.3,0,.4-.4.4h-5.8c-.4,0-.4,0-.4-.4Zm6.6-7.1V42c0,.1,0,.3.3.3h2.2a9.72,9.72,0,0,0,1.8-.1,3.87,3.87,0,0,0,2.1-.8,4.15,4.15,0,0,0,1.7-2.6,5.36,5.36,0,0,0-.1-2.8,3.77,3.77,0,0,0-2.2-2.4,4.49,4.49,0,0,0-2.2-.4h-3c-.4,0-.4,0-.4.4A30.24,30.24,0,0,0,84.84,37.8Z"/><path class="cls-1" d="M55.84,43.4V27.8c0-.3.1-.3.3-.3h12.2a11.08,11.08,0,0,1,2.5.5,10,10,0,0,1,3,1.8,6.68,6.68,0,0,1,1.7,2,13.9,13.9,0,0,1,1.1,2.1,7,7,0,0,1,.5,1.8,17.67,17.67,0,0,1,.3,2.1V40a9.51,9.51,0,0,1-.4,1.8,6.44,6.44,0,0,1-1.5,2.5,7.17,7.17,0,0,1-1.8,1.7,12,12,0,0,1-2.2,1.2,10.32,10.32,0,0,1-3.4.7h-5.3c-.3,0-.4.1-.4.4v8.9a.32.32,0,0,1-.3.3h-4.8c-.4,0-.8.1-1.2.1a.32.32,0,0,1-.3-.3V43.4Zm6.6-5.6V42c0,.3.1.3.3.3,1.2,0,2.4.1,3.6,0a10.81,10.81,0,0,0,2.1-.5,3.52,3.52,0,0,0,2.1-2.2,3.73,3.73,0,0,0,.3-2.1,14.62,14.62,0,0,0-.5-2,4.73,4.73,0,0,0-2.2-2,6.58,6.58,0,0,0-2.8-.4h-2.4c-.4,0-.4,0-.4.4C62.44,35,62.44,36.5,62.44,37.8Z"/><path class="cls-1" d="M119.74,58.3h-1.6c-.8-.1-1.5-.3-2.2-.4a14.36,14.36,0,0,1-3.3-1.6,12,12,0,0,1-2.6-2.4c-.1-.1-.3-.4-.5-.5a.3.3,0,0,1,0-.4c.9-1.3,1.8-2.5,2.8-3.8.3-.3.4-.5.7-.8.1-.3.4-.3.7,0s.9.8,1.3,1.2a9.63,9.63,0,0,0,2.5,1.6,5,5,0,0,0,2.1.5,5.43,5.43,0,0,0,1.8,0,2.68,2.68,0,0,0,1.7-1.1,5.39,5.39,0,0,0,.7-1.3,2,2,0,0,0-.1-1.1,4.82,4.82,0,0,0-2-2,20.29,20.29,0,0,0-2.6-1.1,14.46,14.46,0,0,1-2.2-.9,11.11,11.11,0,0,1-3.6-2.5,15.94,15.94,0,0,1-1.5-2.1,6.81,6.81,0,0,1-.8-2.4,14.08,14.08,0,0,1-.1-2.1,3.65,3.65,0,0,1,.3-1.5c.1-.5.3-.9.4-1.3a10.08,10.08,0,0,1,.9-1.8,6.85,6.85,0,0,1,1.7-1.7,7,7,0,0,1,1.7-.9,16.9,16.9,0,0,1,4.2-.9,27.15,27.15,0,0,1,2.8.1,8.65,8.65,0,0,1,2.6.8,15.3,15.3,0,0,1,4,2.6c.1.1.1.3,0,.3-.8,1.1-1.6,2.1-2.4,3.2-.4.5-.7.9-1.1,1.5a.3.3,0,0,1-.4,0,14.52,14.52,0,0,0-2.6-1.7,4.73,4.73,0,0,0-2.9-.5,2.36,2.36,0,0,0-2.1,1.5,2,2,0,0,0,.8,2.8,8.86,8.86,0,0,0,1.7.8c.4.3.9.4,1.3.7.4.1.8.4,1.3.5.5.3,1.1.4,1.6.7s1.1.5,1.6.8a12.56,12.56,0,0,1,2.4,2.2,8,8,0,0,1,1.3,2.4,8.68,8.68,0,0,1,.5,2.8v1.3a4.78,4.78,0,0,1-.4,1.8,6.94,6.94,0,0,1-.5,1.3,13.79,13.79,0,0,1-1.7,2.5,11.18,11.18,0,0,1-2.1,1.7,13,13,0,0,1-1.7.8A23.2,23.2,0,0,1,119.74,58.3Z"/><path class="cls-1" d="M101.94,42.6V27.9c0-.3.1-.3.3-.3h5.9c.1,0,.3,0,.3.3V57.4c0,.3,0,.4-.4.4h-5.7c-.4,0-.4,0-.4-.4Z"/><path class="cls-1" d="M34.24,42.2h-6.9a2.1,2.1,0,0,1-1.5-.5.51.51,0,0,1-.4-.5,2,2,0,0,1,.3-1.5c.5-.9,1.1-1.7,1.6-2.6s.9-1.6,1.5-2.4c.4-.8.9-1.5,1.3-2.2s.8-1.5,1.2-2.1c.7-1.1,1.2-2.1,1.8-3,.3-.5.8-.5,1.3-.5A1.71,1.71,0,0,1,36,28a15.92,15.92,0,0,0,1.3,2.2c.4.7.7,1.2,1.1,1.8s.8,1.3,1.2,2a12.9,12.9,0,0,0,.9,1.6,12.9,12.9,0,0,1,.9,1.6c.4.7.7,1.2,1.1,1.8.3.4.4.7.7,1.1a6.11,6.11,0,0,1,.3,1.3c0,.3-.1.4-.4.5a2.07,2.07,0,0,1-1.6.5C38.94,42.2,36.64,42.2,34.24,42.2Z"/><path class="cls-1" d="M43.24,57.6h-6.9a1.8,1.8,0,0,1-1.2-.3,1.28,1.28,0,0,1-.7-1.3,4.77,4.77,0,0,1,1.1-2.4,14.79,14.79,0,0,1,1.3-2.1c.4-.7.7-1.2,1.1-1.8.3-.4.5-.9.8-1.3a12.55,12.55,0,0,1,1.1-1.7,12.9,12.9,0,0,0,.9-1.6c.4-.7.8-1.3,1.3-2.1a1,1,0,0,1,.1-.3,1.42,1.42,0,0,1,1.7-.5,2.1,2.1,0,0,1,1.1.8c.4.8.9,1.6,1.3,2.4s.7,1.2,1.1,1.8c.4.8.9,1.5,1.3,2.2.5,1.1,1.2,2,1.7,3,.5.8.9,1.6,1.5,2.5a2.54,2.54,0,0,1,.4,1.7c0,.4-.4.7-.8.8a3.28,3.28,0,0,1-1.7.1C47.64,57.6,45.54,57.6,43.24,57.6Z"/><path class="cls-1" d="M25.14,57.6h-6.6a3,3,0,0,1-1.6-.3,1.49,1.49,0,0,1-.7-1.5,4.47,4.47,0,0,1,.8-1.7c.4-.7.8-1.3,1.1-1.8s.7-1.2,1.1-1.7a15.92,15.92,0,0,1,1.3-2.2,14.79,14.79,0,0,1,1.3-2.1c.4-.7.7-1.2,1.1-1.8a12.9,12.9,0,0,0,.9-1.6,1.08,1.08,0,0,1,1.1-.5,1.8,1.8,0,0,1,1.2.3c.3.1.3.4.4.5.5.8.9,1.6,1.5,2.4s.9,1.6,1.5,2.5c.4.7.8,1.5,1.2,2.1A23.92,23.92,0,0,0,32,52.3a14.19,14.19,0,0,0,1.1,1.8,2.7,2.7,0,0,1,.5,1.1c.1.4.3.8.4,1.2a1.51,1.51,0,0,1-.7,1.1,3.53,3.53,0,0,1-1.7.4A47.15,47.15,0,0,0,25.14,57.6Z"/></g></svg>