<svg id="Layer_1" data-name="Layer 1" xmlns="http://www.w3.org/2000/svg" viewBox="0 0 205 85"><defs><style>.cls-1{fill:#023044;}</style></defs><title>prisma-logo</title><path class="cls-1" d="M197,38.93a37.35,37.35,0,0,0-.9,4.6,63.14,63.14,0,0,0-1,7.6c0,.5-.2.7-.7.7h-1.5a1.13,1.13,0,0,1-1.2-1.4,7.08,7.08,0,0,0,.1-1.5c-.4.5-.7,1-1,1.4a4.63,4.63,0,0,1-2.4,1.7,3.29,3.29,0,0,1-4.3-2.7,9.83,9.83,0,0,1,2.9-9.6c2.1-2,4.6-2.2,7.3-1.9a9.59,9.59,0,0,1,2.8.7A.6.6,0,0,0,197,38.93Zm-9.5,7.7v1c.2,1.2,1.1,1.7,2.1,1a3.18,3.18,0,0,0,1.1-1.2,15.74,15.74,0,0,0,2.2-6.4c.1-.4,0-.5-.5-.6a3.61,3.61,0,0,0-3.6,1.5A8.54,8.54,0,0,0,187.5,46.63Z"/><path class="cls-1" d="M7.9,42.33a18.38,18.38,0,0,1,14.7-18,25.92,25.92,0,0,1,4.8-.4c.3,0,.6,0,.6.3s-.3.3-.5.4a38.15,38.15,0,0,0-8.7,5.1c-.7.5-.5.7,0,1.1a16.72,16.72,0,0,0,7,3.6,13.45,13.45,0,0,0,12.1-3.5c1.5-1.4,1.5-1.4,2.7.2a18.66,18.66,0,0,1,3.9,11.6,18.22,18.22,0,0,1-23.7,17.5c-.2-.1-.6,0-.5-.4s.4-.2.6-.2a19.68,19.68,0,0,0,11.7-4,10.24,10.24,0,0,0,4.4-8.3,7.2,7.2,0,0,0-6-7.5,14.71,14.71,0,0,0-6.9.4c-.7.2-.8.1-.7-.6s.2-1.5.3-2.3c.1-.4,0-.6-.3-.7-1.4-.8-2.8-1.7-4.1-2.6-.4-.3-.5,0-.6.3-.6,3-1.2,6-1.7,9a14.16,14.16,0,0,1-.4,2c0,.2-.2.4,0,.6s.4,0,.6-.1a17.2,17.2,0,0,1,4.3-1.6,9,9,0,0,1,4.3.3c3.2,1.2,3.9,4.5,1.7,7a9.41,9.41,0,0,1-6.3,3,18.91,18.91,0,0,1-5.3-.3.68.68,0,0,0-.9.6,9.83,9.83,0,0,1-.5,1.6c-.1.4-.3.5-.6.2A18.34,18.34,0,0,1,8,46.43C8,44.93,7.9,43.63,7.9,42.33Z"/><path class="cls-1" d="M83.9,28.33c7.5.2,14.5.6,21.5,1.3,3.9.4,7.7.8,11.6,1.3a.6.6,0,0,1,.4.1c1.1.2,1.1.2.7,1.2-.5,1.6-.5,1.7-2.2,1.5-5.4-.6-10.9-1.1-16.3-1.5a182.75,182.75,0,0,0-23.4-.3c-1.1.1-1.6.5-1.7,1.6-1,5.8-2,11.5-3,17.3-.1.7-.4,1-1.1,1H67.8c-.6,0-.8-.2-.7-.8.9-5,1.8-10.1,2.7-15.1.2-1,.3-1.9.5-2.9.1-.4,0-.6-.5-.6l-3.9.3a1.71,1.71,0,0,0-1.6,1.5c-.5,3.1-1.1,6.2-1.6,9.3-.4,2.5-.8,4.9-1.3,7.4-.1.6-.3.9-1,.8H58c-.7,0-.9-.2-.8-.9l3-16.8c.1-.7,0-.8-.7-.7-3.2.4-6.5.9-9.7,1.6-.8.2-.8-.1-.7-.7.5-2.2,0-1.7,2.2-2.3A135.74,135.74,0,0,1,83.9,28.33Z"/><path class="cls-1" d="M95.8,41c.4-.6.8-1.1,1.2-1.6a4.55,4.55,0,0,1,3.6-1.8,2.6,2.6,0,0,1,2.8,2.4,3.44,3.44,0,0,0,.1.9c.3-.4.6-.8.8-1.1a4.56,4.56,0,0,1,4.1-2.2,2.92,2.92,0,0,1,3,2.9,23,23,0,0,1-.5,4.5c-.3,2-.7,4-1,5.9-.1.5-.3.7-.8.7h-1.8c-.8,0-1-.3-.9-1.1.5-2.6.9-5.2,1.4-7.8.1-.7.2-1.4-.5-1.9-.5-.3-1.4,0-2,.8a10,10,0,0,0-2,4.3,40.33,40.33,0,0,0-1.1,5c-.1.5-.2.8-.8.7a8.55,8.55,0,0,0-1.6,0c-1,0-1.3-.4-1.1-1.3.4-2.3.9-4.6,1.3-6.9a6.6,6.6,0,0,0,.1-1.4c0-1.1-.8-1.5-1.7-1a2.92,2.92,0,0,0-1.4,1.5,21.62,21.62,0,0,0-2.1,6.2c-.2.8-.3,1.6-.5,2.4-.1.4-.2.6-.7.6H91.8c-.8,0-1.1-.3-.9-1.1.6-3.4,1.2-6.9,1.8-10.3l.3-1.8c.1-.4.2-.5.6-.5h1.8c.9,0,1.2.4,1,1.2A9.5,9.5,0,0,0,95.8,41Z"/><path class="cls-1" d="M130.9,41.13c.6-.7.9-1.3,1.4-1.9a4,4,0,0,1,2.2-1.4,3.27,3.27,0,0,1,4.3,2.3c1.1,3.2-.4,8.3-3.1,10.4a7.46,7.46,0,0,1-5.8,1.5c-.6-.1-.9,0-1,.7-.1,1.1-.4,2.1-.5,3.2-.3,1.5-.9,2-2.3,2-1.6,0-1.6,0-1.3-1.6,1.1-5.9,2.1-11.7,3.2-17.6.1-.5.3-.8.8-.7h.8c1.3,0,1.9.7,1.6,2A2.9,2.9,0,0,0,130.9,41.13Zm4.5,2.1a2,2,0,0,0-.1-.8c-.2-1.5-1.2-1.9-2.4-1a4,4,0,0,0-1.3,1.6,19.75,19.75,0,0,0-1.9,5.8c-.1.5.1.6.5.6a3.9,3.9,0,0,0,4-1.9A9.6,9.6,0,0,0,135.4,43.23Z"/><path class="cls-1" d="M79.4,45.63a3.64,3.64,0,0,1-.4-6.4A7.21,7.21,0,0,1,83,38c1.8-.1,3.7,0,5.5,0,.5,0,.6.2.6.7-.7,4.1-1.5,8.3-2.2,12.4a.66.66,0,0,1-.7.6H83.9c-.5,0-.7-.2-.6-.7.2-1.3.4-2.5.7-3.8.1-.6-.1-.7-.6-.7a2.16,2.16,0,0,0-1.4.9c-.8.9-1.5,1.9-2.3,2.8a4,4,0,0,1-3.8,1.5c-.4,0-.6-.2-.5-.6.1-.6.1-1.1.2-1.7a.76.76,0,0,1,.2-.4c1.1-.3,1.6-1.4,2.4-2.2A13.47,13.47,0,0,1,79.4,45.63Zm4.3-4.8a4,4,0,0,0-1.8.3,1.77,1.77,0,0,0-.9,1.7,1.08,1.08,0,0,0,.7,1.1,5,5,0,0,0,2.7.1c.5-.2.3-1.2.5-1.8v-.1C85.2,40.83,85.2,40.83,83.7,40.83Z"/><path class="cls-1" d="M147.8,37.63c3,0,5.1,1.7,5.4,4.5.4,3.5-.5,6.6-3.5,8.7a6.47,6.47,0,0,1-5.2,1,4.67,4.67,0,0,1-3.9-3.9,8.76,8.76,0,0,1,3.1-8.9A7.24,7.24,0,0,1,147.8,37.63Zm-3.7,8.8a3.23,3.23,0,0,0,.2,1.2,2,2,0,0,0,3.3,1.3,2.7,2.7,0,0,0,.8-.7,7.16,7.16,0,0,0,1.3-6,2,2,0,0,0-2.9-1.4,2.37,2.37,0,0,0-1.3,1.1A6.73,6.73,0,0,0,144.1,46.43Z"/><path class="cls-1" d="M183.8,38l-2.8,3.1c-.9,1-1.8,2-2.8,3-.3.3-.3.5,0,.8a10.46,10.46,0,0,1,1.3,2.3c.4.7.6,1.5,1.6,1.7.2,0,.2.2.2.3a2.2,2.2,0,0,1-.1.8c-.2.5.1,1.5-.6,1.6a3,3,0,0,1-3.1-.7,7.24,7.24,0,0,1-1.1-1.9c-.4-.7-.7-1.5-1.1-2.2a1.6,1.6,0,0,0-.9-.7c-.5-.1-.7-.1-.8.5-.2,1.3-.5,2.6-.7,4a1.27,1.27,0,0,1-1.4,1.2h-1.8c-.5,0-.6-.1-.5-.6.4-2.4.9-4.9,1.3-7.3l.9-5.1c.1-.5.3-.8.8-.7a9.65,9.65,0,0,0,1.7,0c.8,0,1.2.4,1,1.3l-.6,3.6c0,.2-.3.6.1.7a.67.67,0,0,0,.8-.3l3.6-4.2a2.44,2.44,0,0,1,2.2-1A11.87,11.87,0,0,1,183.8,38Z"/><path class="cls-1" d="M112.9,46.53c.1-3.2,1.2-5.8,3.9-7.6a6.8,6.8,0,0,1,5-1.1,3.1,3.1,0,0,1,2.8,2.2,3.78,3.78,0,0,1-.9,3.9,8.24,8.24,0,0,1-4.1,2.2,20,20,0,0,1-2.6.5c-.5.1-.6.3-.5.7a2,2,0,0,0,2.4,1.9,4.61,4.61,0,0,0,2.6-1c.5-.4.7-.3.9.2a3.33,3.33,0,0,0,.6,1c.5.6.3,1-.3,1.4a8.17,8.17,0,0,1-5.4,1.4,4.75,4.75,0,0,1-4.4-4.5A4.74,4.74,0,0,0,112.9,46.53Zm7.2-6a2.92,2.92,0,0,0-.9.2c-1.4.6-1.9,1.9-2.3,3.2-.1.4.1.4.4.3a17.42,17.42,0,0,0,2.2-.5,3.15,3.15,0,0,0,1.7-1.3,1.37,1.37,0,0,0,.1-1.5C121,40.53,120.6,40.53,120.1,40.53Z"/><path class="cls-1" d="M163.4,44.73c-.5.6-.9,1.1-1.3,1.6a5.14,5.14,0,0,1-2.8,1.5c-2.2.4-3.7-.8-3.8-3.1a22.36,22.36,0,0,1,.7-5.1v-.1c.3-1.6.3-1.6,2-1.5a1.61,1.61,0,0,1,1.6,1.9c-.1,1-.3,2-.5,3a1.56,1.56,0,0,0,.4,1.6c.6.4,1.1.2,1.7-.1a3.72,3.72,0,0,0,1.7-1.8,10.58,10.58,0,0,0,1.3-3.9c0-.5.2-.7.8-.7h2.4c.4,0,.5.1.4.5-.6,3.3-1.1,6.6-1.7,9.9-.1.9-.2,1.7-.3,2.6,0,.5-.2.7-.7.7h-2.2c-.6,0-.7-.2-.6-.7.3-1.7.6-3.5.8-5.2C163.3,45.53,163.4,45.23,163.4,44.73Z"/><path class="cls-1" d="M39.3,25.23a12.26,12.26,0,0,1-3.9,5.1,11.6,11.6,0,0,1-13.2.4c-.8-.5-.8-.5-.1-1.1a23.69,23.69,0,0,1,10.8-4.3A22.93,22.93,0,0,1,39.3,25.23Z"/><path class="cls-1" d="M120.9,31.63c.4.3,1.4-.3,1.4.7,0,1.3-.6,2.2-1.3,2s-1.6.3-1.6-.7C119.4,32.13,119.9,31.53,120.9,31.63Z"/><path class="cls-1" d="M124.5,34.93c-.4-.4-1.4.3-1.5-.8s.6-2.1,1.1-2,1.5-.3,1.6.8S125.2,34.93,124.5,34.93Z"/></svg>