<svg id="Layer_1" data-name="Layer 1" xmlns="http://www.w3.org/2000/svg" viewBox="0 0 205 85"><defs><style>.cls-1{fill:#023044;}</style></defs><title>prisma-logo</title><path class="cls-1" d="M50.67,30c2.12,0,4.24,0,6.36,0,1.06-.05,1.33.31,1.32,1.33-.05,5,0,9.93-.06,14.89,0,1.62.42,2.2,2,2a5.42,5.42,0,0,1,1.45,0c1.08.13,1.3-.37,1.29-1.36,0-5,.06-10-.05-15.08,0-1.51.45-1.85,1.83-1.75a29.78,29.78,0,0,0,4.53,0c1.23-.08,1.56.38,1.55,1.55-.07,4.72-.07,9.44-.07,14.17,0,.81-.34,2.1.44,2.33a8.87,8.87,0,0,0,3.77,0c.63-.09.34-.93.34-1.43,0-5,.07-9.94,0-14.9,0-1.37.38-1.81,1.74-1.73,1.75.11,3.51,0,5.26,0,.61,0,1.06,0,1.06.85,0,7.69,0,15.38,0,23.07a2.34,2.34,0,0,1-.34.81c-.49,0-27.75,0-31.26,0-.91,0-1.12-.21-1.11-1.12C50.69,45.78,50.67,37.9,50.67,30Z"/><path class="cls-1" d="M114.64,54.74c-.74-.34-.76-1-.76-1.66,0-7.2,0-14.4,0-21.59,0-1.2.36-1.54,1.54-1.5,2.48.09,5,.06,7.44,0,1,0,1.44.29,1.69,1.36.92,3.9,3.09,11.93,3.09,11.93s2.78-9.64,3.33-12a1.46,1.46,0,0,1,1.76-1.3q3.72.12,7.44,0c1.14,0,1.42.32,1.41,1.42,0,7.26-.07,14.52,0,21.77,0,1.29-.8,1.25-1.5,1.56h-4.73a3.1,3.1,0,0,1-.38-2.07c0-4.54,0-9.09,0-14.1-.36.77-2.7,10.34-3.91,14.45a2.16,2.16,0,0,1-1.53,1.72h-3.19a1.79,1.79,0,0,1-1.76-1.27c-1-2.41-1.23-5-2-7.48s-1.24-4.68-1.86-7c-.32,4.62-.31,9.15-.32,13.69a3.13,3.13,0,0,1-.36,2.08Z"/><path class="cls-1" d="M86.29,54.74a1.09,1.09,0,0,1-.52-1.6q4.23-11,8.31-22c.3-.84.68-1.16,1.53-1.08.6,0,1.21,0,1.81,0,1.5.08,3.2-.05,4.28-.05a1.57,1.57,0,0,1,1.5.68c.56,1.07,1.25,3.32,1.73,4.59q3.31,8.73,6.63,17.46c.25.67.58,1.32.17,2l-6.5,0c-1.17,0-1.28-.64-1.39-1a17.37,17.37,0,0,1-.7-1.91,1.69,1.69,0,0,0-2-1.5c-1.8.06-3.61.09-5.41,0-.92,0-1,.37-1.45,1.16s-.64,1.67-.88,2.33a1.14,1.14,0,0,1-1,.85ZM98.84,38h-.38c-.42,1.29-.82,2.59-1.25,3.87-1.07,3.2-1.08,3.19,2.35,3h.36c.88,0,1-.46.8-1.17Q99.79,40.85,98.84,38Z"/><path class="cls-1" d="M170.49,54.74a1.1,1.1,0,0,1-.52-1.6q4.23-11,8.31-22c.31-.84.68-1.16,1.53-1.08.6,0,1.21,0,1.82,0,1.49.08,3.19-.05,4.28-.05a1.57,1.57,0,0,1,1.5.68c.55,1.07,1.24,3.32,1.73,4.59l6.62,17.46c.25.67.58,1.32.17,2l-6.5,0c-1.17,0-1.27-.64-1.39-1a15.49,15.49,0,0,1-.69-1.91,1.69,1.69,0,0,0-2-1.5c-1.81.06-3.62.09-5.42,0-.92,0-1,.37-1.44,1.16s-.65,1.67-.89,2.33a1.14,1.14,0,0,1-1.05.85ZM183,38h-.38c-.41,1.29-.81,2.59-1.25,3.87-1.07,3.2-1.07,3.19,2.35,3h.36c.88,0,1-.46.8-1.17C184.31,41.8,183.67,39.89,183,38Z"/><path class="cls-1" d="M153.52,54.74c-2.75-.94-7.17-4-8.05-8.39-1.05-2.77-1.08-8.69,1.84-12.44,3.4-4.37,8.12-5,13.21-4.12a9.62,9.62,0,0,1,7.66,6.3c.4,1,.27,1.43-.8,1.66-1.35.28-2.66.71-4,1a1.75,1.75,0,0,1-2.3-1c-.89-1.89-2.6-2.14-4.57-1.89s-2.78,1.57-3.28,3.14a11.15,11.15,0,0,0,0,7,4.6,4.6,0,0,0,3.68,3,4.05,4.05,0,0,0,4.17-2.27c1.26-2.54,1.26-2.54,3.92-1.64.4.13.81.23,1.21.34,2.89.8,2.93,1.08,1.65,3.89s-3.63,4.35-6.33,5.51A12.52,12.52,0,0,1,153.52,54.74Z"/><path class="cls-1" d="M32.21,26.14a14.86,14.86,0,0,1,4.85,3.62,15.3,15.3,0,0,0-11.25-1.88,14.77,14.77,0,0,0-9.43,6.44,15.24,15.24,0,0,0,1.45,18.54,7.92,7.92,0,0,1-1.7-1.18,14.74,14.74,0,0,1-5.46-13,14.8,14.8,0,0,1,8-12.15,10.88,10.88,0,0,1,3.6-1.43A16.66,16.66,0,0,1,32.21,26.14Z"/><path class="cls-1" d="M26.73,50.16a7.67,7.67,0,1,1,7.68-7.62A7.66,7.66,0,0,1,26.73,50.16Z"/><path class="cls-1" d="M22.55,30.35a15.17,15.17,0,1,1,10,28.37c6.83-4.34,9.61-10.42,7.21-18.43A14,14,0,0,0,33,32.15,15.55,15.55,0,0,0,22.55,30.35Z"/><path class="cls-1" d="M9.59,40.58a15.27,15.27,0,0,0,4.65,11.21,14.64,14.64,0,0,0,8.36,4.1A15.15,15.15,0,0,0,39.2,45.5c.35.9-.52,4.51-1.58,6.52a15.6,15.6,0,0,1-4.36,5.16,15.29,15.29,0,0,1-18,.24A15.09,15.09,0,0,1,9.59,40.58Z"/></svg>