<svg width="23" height="23" viewBox="0 0 23 23" fill="none" xmlns="http://www.w3.org/2000/svg">
<path fill-rule="evenodd" clip-rule="evenodd" d="M18.959 1.67497L1.40477 19.2292C0.83573 19.7983 0.83682 20.7281 1.40586 21.2972L1.51706 21.4084C2.0861 21.9774 3.01598 21.9785 3.58502 21.4095L21.1393 3.85521C21.7083 3.28617 21.7083 2.3552 21.1393 1.78616L21.0281 1.67497C20.459 1.10592 19.5281 1.10592 18.959 1.67497Z" fill="white"/>
<path fill-rule="evenodd" clip-rule="evenodd" d="M1.03463 3.85521L18.5889 21.4095C19.1579 21.9785 20.0878 21.9774 20.6568 21.4084L20.768 21.2972C21.3371 20.7281 21.3382 19.7983 20.7691 19.2292L3.21487 1.67497C2.64583 1.10592 1.71486 1.10592 1.14582 1.67496L1.03463 1.78616C0.465583 2.3552 0.465582 3.28617 1.03463 3.85521Z" fill="white"/>
</svg>
