<?xml version="1.0" encoding="utf-8"?>
<!-- Generator: Adobe Illustrator 23.0.5, SVG Export Plug-In . SVG Version: 6.00 Build 0)  -->
<svg version="1.1" id="Слой_1" xmlns="http://www.w3.org/2000/svg" xmlns:xlink="http://www.w3.org/1999/xlink" x="0px" y="0px"
	 viewBox="0 0 205 80" style="enable-background:new 0 0 205 80;" xml:space="preserve">
<style type="text/css">
	.st0{enable-background:new    ;}
	.st1{fill:#2FAC66;}
	.st2{fill:none;stroke:#231F20;stroke-width:2.28;stroke-linecap:round;stroke-linejoin:round;}
</style>
<title>icons</title>
<g class="st0">
	<path class="st1" d="M108.9,15.5c0.6,0.5,0.9,0.9,1,1.4c0.1,0.4,0.1,1,0,1.8c-0.3,2.5-0.7,5.5-1.2,9.1c-0.5,3.6-0.9,7.4-1.5,11.5
		c-0.5,4.1-1,8.2-1.5,12.5s-0.9,8.4-1.3,12.4c0,0.8-0.3,1.2-1,1.2c-0.9,0-1.7-0.2-2.6-0.6c-0.9-0.4-1.6-0.9-2.3-1.5
		s-1.2-1.3-1.6-2.1s-0.6-1.7-0.6-2.5c0-0.4,0-0.7,0-1.1c0-0.4,0.1-0.7,0.1-1.1c0.1-2,0.3-4.1,0.6-6.3c0.3-2.2,0.5-4.4,0.8-6.7
		s0.6-4.5,0.9-6.7s0.6-4.2,0.8-6.1c-0.4,0.7-1.1,1.5-2.1,2.5c-1,0.9-2,1.5-3,1.8c-0.4,0.1-0.7,0-1.1-0.1c-0.3-0.1-0.5-0.4-0.7-0.6
		c-0.5-0.7-1-1.5-1.3-2.2s-0.5-1.2-0.5-1.5c0-0.4,0.3-0.9,0.9-1.4c1.3-1,2.4-2.2,3.4-3.5c1-1.3,1.9-2.6,2.7-4
		c0.8-1.4,1.5-2.7,2.1-3.9c0.6-1.2,1.1-2.3,1.4-3.1c0.1-0.2,0.3-0.5,0.5-0.8c0.2-0.3,0.5-0.4,0.8-0.4s0.7,0,1.3,0.1
		c0.5,0.1,1.1,0.1,1.7,0.3c0.6,0.1,1.2,0.3,1.7,0.5c0.5,0.2,1,0.4,1.4,0.7V15.5z"/>
</g>
<g class="st0">
	<path class="st1" d="M137.3,57.3c0.1,0.1,0.4,0.4,0.7,0.9s0.7,1.2,1.1,1.9c0.4,0.7,0.7,1.5,1,2.4c0.3,0.9,0.4,1.6,0.4,2.3
		c0,0.4-0.1,0.7-0.3,1c-0.2,0.3-0.5,0.4-1,0.4c-0.7,0-2.1-0.1-4.2-0.5c-2.1-0.4-4.7-0.5-7.8-0.5c-0.9,0-1.7,0-2.4,0s-1.3,0-1.9,0.1
		c-0.6,0.1-1.3,0.1-2.1,0.1c-0.8,0-1.7,0-2.9,0c-0.5,0-0.9-0.1-1.2-0.3c-0.3-0.2-0.8-0.6-1.4-1.1c-0.3-0.2-0.7-0.6-1.1-1.1
		c-0.5-0.5-0.9-1.1-1.4-1.7c-0.5-0.6-0.9-1.2-1.2-1.7c-0.3-0.6-0.5-1.1-0.5-1.5c0-0.2,0.1-0.5,0.2-0.9c0.1-0.4,0.3-0.7,0.3-0.9
		c1.3-2.4,3-4.8,5.1-7.2s4.1-4.8,6.1-7.2c2-2.4,3.8-4.8,5.4-7.1s2.7-4.7,3.1-6.9c0-0.9-0.4-1.9-1.2-2.8c-0.8-0.9-1.8-1.3-3.1-1.3
		c-1,0-2.3,0.2-3.8,0.7s-3.1,1.2-4.5,2.1c-0.8,0.4-1.5,0.1-2.1-0.9l-2-4.8c-0.1-0.6-0.1-1,0.1-1.3c0.1-0.3,0.5-0.7,1.1-1.1
		c1-0.7,2.1-1.3,3.1-1.9s2.1-1,3.2-1.4c1.1-0.4,2.1-0.7,3.1-0.9s1.9-0.3,2.6-0.3c1.7,0,3.3,0.4,4.9,1.1c1.6,0.7,3.1,1.7,4.4,2.8
		c1.3,1.2,2.4,2.5,3.2,3.9s1.2,2.8,1.2,4.2c0,2.3-0.6,4.5-1.8,6.8c-1.2,2.3-2.7,4.7-4.5,7s-3.7,4.7-5.7,6.9c-2,2.3-3.8,4.4-5.5,6.6
		c-0.5,0.5-0.9,1-1.3,1.5c-0.4,0.4-0.6,0.9-0.7,1.2h3.1c2.1,0,3.9,0,5.3,0c1.5,0,2.7,0,3.7,0.1c1,0.1,1.8,0.1,2.4,0.2
		s1.1,0.2,1.5,0.4L137.3,57.3z"/>
</g>
<g class="st0">
	<path class="st1" d="M152,62c-0.1,0-0.2-0.1-0.3-0.2c-0.1-0.1-0.2-0.3-0.2-0.4c-0.3-0.8-0.6-1.4-0.7-1.9s-0.4-0.9-0.5-1.2
		c-0.1-0.3-0.2-0.5-0.3-0.7s-0.1-0.4-0.2-0.5c-0.1,0.7-0.1,1.4-0.2,2.1c-0.1,0.7-0.1,1.4-0.2,2.2c-0.1,0.7-0.1,1.4-0.2,2.1
		c-0.1,0.7-0.1,1.3-0.1,1.8c0,0.2-0.1,0.3-0.2,0.4c-0.1,0.1-0.2,0.1-0.4,0.1c-0.1,0-0.2,0-0.4-0.1s-0.3-0.1-0.4-0.2
		c-0.7-0.2-1.2-0.5-1.5-0.8c-0.3-0.4-0.5-1-0.5-1.8c0-0.7,0.1-1.5,0.1-2.5c0.1-1,0.2-2,0.3-3c0.1-1,0.2-2,0.4-2.9s0.2-1.5,0.4-2
		c0-0.1,0.1-0.2,0.2-0.4c0.1-0.2,0.3-0.2,0.4-0.2c0.2,0,0.4,0,0.7,0c0.2,0,0.5,0.1,0.7,0.1c0.2,0,0.5,0.1,0.7,0.2
		c0.2,0.1,0.4,0.2,0.5,0.3l0.3,0.4c0.2,0.2,0.4,0.6,0.6,1.1c0.2,0.5,0.4,1,0.6,1.6s0.4,1.2,0.7,1.8c0.2,0.6,0.5,1.2,0.7,1.8
		c0.5-0.8,0.9-1.6,1.4-2.5s0.9-1.6,1.4-2.3s0.9-1.3,1.2-1.7s0.7-0.7,1-0.7h0.1l0.5,0.1c0.2,0,0.5,0.1,0.7,0.1s0.5,0.1,0.7,0.1
		c0.2,0.1,0.3,0.2,0.4,0.3c0.1,0.1,0.2,0.3,0.2,0.5v0.2c-0.1,0.6-0.1,1.4-0.2,2.4c-0.1,1-0.2,2-0.3,3.2s-0.2,2.2-0.2,3.2
		c-0.1,1.1-0.1,2-0.1,2.7v0.5c0,0.2-0.1,0.3-0.2,0.4c-0.1,0.1-0.2,0.2-0.4,0.2c-0.2,0-0.5-0.2-0.9-0.4s-0.8-0.4-1.1-0.6
		c-0.5-0.2-0.7-0.5-0.8-0.7c-0.1-0.3-0.1-0.6-0.1-1.1c0-0.8,0.1-1.7,0.2-2.7s0.2-2,0.4-3c-0.1,0.2-0.2,0.5-0.5,1s-0.6,0.9-0.9,1.4
		c-0.3,0.5-0.6,1-0.9,1.4c-0.3,0.5-0.4,0.8-0.5,1c-0.1,0.1-0.2,0.2-0.3,0.3c-0.1,0.1-0.2,0.1-0.4,0.1c-0.2,0-0.4,0-0.7-0.1
		c-0.2-0.1-0.4-0.2-0.6-0.2L152,62z"/>
</g>
<g class="st0">
	<path class="st1" d="M171.6,63.7c-0.5,0.5-1,0.9-1.7,1.3c-0.7,0.3-1.6,0.5-2.6,0.5c-0.8,0-1.5-0.2-2.2-0.5s-1.2-0.8-1.6-1.3
		c-0.4-0.6-0.8-1.2-1-2s-0.3-1.6-0.3-2.5c0-1.4,0.2-2.6,0.6-3.6s0.9-1.9,1.5-2.5c0.6-0.7,1.3-1.2,2.1-1.5c0.8-0.3,1.6-0.5,2.5-0.5
		c0.3,0,0.7,0.1,1.2,0.2c0.4,0.1,0.9,0.3,1.2,0.5c0.4,0.2,0.7,0.5,1,0.9c0.3,0.4,0.4,0.9,0.4,1.4c0,1-0.1,1.8-0.4,2.4
		c-0.3,0.7-0.7,1.2-1.2,1.6c-0.5,0.4-1,0.7-1.5,0.9c-0.6,0.2-1,0.3-1.5,0.3c-0.5,0-1-0.1-1.4-0.2c-0.4-0.1-0.7-0.2-0.8-0.3
		c0,0.1,0,0.2,0,0.3v0.3c0,1,0.2,1.8,0.6,2.3c0.4,0.6,0.8,0.9,1.2,0.9c0.2,0,0.5,0,0.7-0.1s0.6-0.2,0.9-0.4c0.1,0,0.2-0.1,0.3-0.2
		s0.3-0.2,0.4-0.3c0.2-0.1,0.3-0.2,0.5-0.3c0.2-0.1,0.3-0.1,0.4-0.1c0.1,0,0.2,0.1,0.3,0.2s0.3,0.3,0.4,0.5s0.2,0.4,0.3,0.6
		s0.1,0.4,0.1,0.6c0,0.3-0.1,0.5-0.3,0.7L171.6,63.7z M168.2,53.9c-0.6,0-1.2,0.4-1.6,1c-0.4,0.7-0.7,1.5-0.8,2.4
		c0.1,0.1,0.3,0.1,0.6,0.2c0.2,0.1,0.5,0.1,0.8,0.1c0.6,0,1.1-0.2,1.6-0.6c0.5-0.4,0.7-1,0.7-1.9c0-0.4-0.1-0.7-0.4-0.9
		C168.8,54,168.6,53.9,168.2,53.9L168.2,53.9z"/>
</g>
<g class="st0">
	<path class="st1" d="M183.1,63.5c-0.2,0.2-0.4,0.4-0.6,0.6c-0.2,0.2-0.5,0.5-0.9,0.7s-0.7,0.4-1.2,0.5s-0.9,0.2-1.5,0.2
		c-0.6,0-1.3-0.1-1.9-0.2c-0.6-0.2-1.2-0.5-1.7-0.9c-0.5-0.5-0.9-1.1-1.3-1.8c-0.3-0.8-0.5-1.8-0.5-3c0-1.3,0.2-2.5,0.5-3.5
		s0.8-1.9,1.4-2.6c0.6-0.7,1.2-1.3,2-1.7s1.6-0.6,2.5-0.6c0.3,0,0.7,0,1.2,0.1s0.9,0.2,1.3,0.5c0.4,0.2,0.8,0.5,1.1,0.8
		c0.3,0.3,0.5,0.8,0.5,1.3c0,0.3-0.1,0.7-0.2,1.1s-0.2,0.9-0.4,1.3c-0.2,0.4-0.4,0.7-0.6,1c-0.2,0.3-0.5,0.4-0.7,0.4
		c-0.4,0-0.8-0.1-1.1-0.2c-0.3-0.2-0.5-0.4-0.5-0.6c0-0.1,0-0.2,0.1-0.3c0-0.2,0.1-0.3,0.1-0.5c0.1-0.2,0.1-0.3,0.1-0.5
		s0.1-0.3,0.1-0.4c0-0.3-0.1-0.5-0.1-0.7c-0.1-0.2-0.2-0.3-0.3-0.4c-0.1-0.1-0.2-0.2-0.4-0.2s-0.3,0-0.4,0c-0.7,0-1.2,0.5-1.7,1.5
		c-0.5,1-0.7,2.4-0.7,4.1c0,0.9,0.2,1.6,0.5,2.1s0.7,0.8,1.2,0.8c0.4,0,0.7-0.1,1-0.3c0.3-0.2,0.6-0.4,0.9-0.6
		c0.3-0.2,0.5-0.4,0.7-0.6c0.2-0.2,0.4-0.3,0.6-0.3c0.2,0,0.4,0.1,0.7,0.4c0.2,0.2,0.5,0.7,0.7,1.3c0,0.2,0,0.3,0,0.5
		s-0.1,0.3-0.1,0.4L183.1,63.5z"/>
</g>
<path class="st2" d="M43.8,33.4l7.8,7.7l13.3-13.2 M35.3,36.5c1.6,0,2.9,1.3,2.9,2.8c0,1.6-1.3,2.9-2.8,2.9c-1.6,0-2.9-1.3-2.9-2.8
	c0,0,0,0,0,0C32.5,37.7,33.7,36.5,35.3,36.5z M66.9,36.5c1.6,0,2.9,1.3,2.9,2.8c0,1.6-1.3,2.9-2.8,2.9c-1.6,0-2.9-1.3-2.9-2.8
	c0,0,0,0,0,0C64.1,37.7,65.3,36.5,66.9,36.5z M53.9,23.4c0,1.6-1.3,2.8-2.8,2.8s-2.8-1.3-2.8-2.8c0-1.6,1.3-2.8,2.8-2.8
	C52.6,20.5,53.9,21.8,53.9,23.4C53.9,23.4,53.9,23.4,53.9,23.4L53.9,23.4z M53.9,55.2c0,1.6-1.3,2.8-2.8,2.8c-1.6,0-2.8-1.3-2.8-2.8
	c0-1.6,1.3-2.8,2.8-2.8C52.6,52.4,53.9,53.6,53.9,55.2C53.9,55.2,53.9,55.2,53.9,55.2L53.9,55.2z M76.5,39.3
	c-0.1,14-11.6,25.3-25.6,25.2c-14-0.1-25.3-11.6-25.2-25.6c0.1-14,11.5-25.2,25.4-25.2c7.3,0,14.3,3.2,19.1,8.7
	C74.3,27.1,76.5,33.1,76.5,39.3 M82.2,39.3C82,56.5,68,70.3,50.8,70.1S19.9,55.9,20,38.8C20.2,21.7,34.1,8,51.1,8
	C68.3,8.1,82.2,22.1,82.2,39.3L82.2,39.3z"/>
</svg>
