<?xml version="1.0" encoding="utf-8"?>
<!-- Generator: Adobe Illustrator 23.0.5, SVG Export Plug-In . SVG Version: 6.00 Build 0)  -->
<svg version="1.1" id="Слой_1" xmlns="http://www.w3.org/2000/svg" xmlns:xlink="http://www.w3.org/1999/xlink" x="0px" y="0px"
	 viewBox="0 0 112 112" style="enable-background:new 0 0 112 112;" xml:space="preserve">
<style type="text/css">
	.st0{fill:none;stroke:#231F20;stroke-width:2.28;stroke-linecap:round;stroke-linejoin:round;}
	.st1{enable-background:new    ;}
	.st2{fill:#231F20;}
</style>
<title>icons</title>
<path class="st0" d="M74.5,31c3.6,1.2,5.7,2.8,5.7,4.5c0,3.8-10.8,6.9-24.2,6.9s-24.2-3.1-24.2-6.9c0-1.7,2-3.2,5.4-4.4"/>
<ellipse class="st0" cx="56" cy="26.6" rx="24.2" ry="6.9"/>
<path class="st0" d="M31.8,35.5v27.8c0,3.8,10.8,6.9,24.2,6.9s24.2-3.1,24.2-6.9V35.5"/>
<path class="st0" d="M31.9,38.7c-4.3,0-7.8,1.4-7.8,3s3.5,3,7.8,3h2.5"/>
<path class="st0" d="M80.1,38.7c4.3,0,7.8,1.4,7.8,3s-3.5,3-7.8,3h-2.4"/>
<path class="st0" d="M50.7,23.3v-3.2c0-2.9,2.4-5.3,5.3-5.3s5.3,2.4,5.3,5.3v3.2"/>
<g class="st1">
	<path class="st2" d="M52.5,77.5c0.2,0.2,0.3,0.3,0.4,0.4c0,0.1,0,0.3,0,0.6c-0.1,0.8-0.3,1.8-0.4,3s-0.3,2.4-0.5,3.7
		s-0.4,2.7-0.5,4.1s-0.3,2.7-0.5,4c0,0.3-0.1,0.4-0.4,0.4c-0.3,0-0.6-0.1-0.9-0.2s-0.6-0.3-0.8-0.5c-0.2-0.2-0.4-0.4-0.6-0.7
		c-0.1-0.3-0.2-0.5-0.2-0.8c0-0.1,0-0.2,0-0.4s0-0.2,0-0.4c0-0.6,0.1-1.3,0.2-2s0.2-1.4,0.3-2.2s0.2-1.5,0.3-2.2s0.2-1.4,0.3-2
		c-0.1,0.2-0.4,0.5-0.7,0.8c-0.4,0.3-0.7,0.5-1.1,0.6c-0.1,0-0.3,0-0.4,0c-0.1,0-0.2-0.1-0.2-0.2c-0.2-0.2-0.4-0.5-0.5-0.7
		s-0.2-0.4-0.2-0.5c0-0.1,0.1-0.3,0.3-0.4c0.4-0.3,0.9-0.7,1.2-1.1c0.4-0.4,0.7-0.9,1-1.3s0.5-0.9,0.7-1.3c0.2-0.4,0.4-0.7,0.5-1
		c0-0.1,0.1-0.2,0.2-0.3c0.1-0.1,0.2-0.1,0.3-0.1s0.3,0,0.4,0c0.2,0,0.4,0,0.6,0.1c0.2,0,0.4,0.1,0.6,0.2
		C52.2,77.2,52.3,77.3,52.5,77.5L52.5,77.5z"/>
	<path class="st2" d="M60.5,76.6c0.7,0,1.4,0.1,2,0.4c0.6,0.3,1.2,0.6,1.6,1.1s0.8,1,1.1,1.6c0.3,0.6,0.4,1.3,0.4,2
		c0,1.8-0.2,3.4-0.5,4.9c-0.3,1.5-0.8,2.7-1.3,3.8c-0.6,1.1-1.2,1.9-2,2.4c-0.8,0.6-1.6,0.9-2.4,0.9c-0.6,0-1.1-0.1-1.7-0.3
		c-0.5-0.2-1-0.5-1.5-1s-0.8-1.1-1-1.8c-0.3-0.8-0.4-1.7-0.4-2.8c0-1.5,0.1-2.9,0.4-4.3c0.3-1.3,0.7-2.5,1.2-3.5
		c0.5-1,1.1-1.8,1.8-2.4C58.9,76.9,59.6,76.6,60.5,76.6L60.5,76.6z M61.1,79.3c-0.3,0-0.5,0.1-0.8,0.4c-0.3,0.3-0.5,0.7-0.7,1.2
		c-0.2,0.5-0.4,1.1-0.6,1.7c-0.2,0.6-0.4,1.3-0.5,2c-0.1,0.7-0.2,1.3-0.3,2c-0.1,0.7-0.1,1.3-0.1,1.8c0,0.9,0.1,1.5,0.4,1.9
		s0.5,0.6,0.9,0.6c0.4,0,0.8-0.2,1.1-0.7c0.3-0.4,0.6-1.1,0.9-1.9s0.5-1.8,0.6-2.9c0.2-1.1,0.3-2.3,0.4-3.7c0-0.2,0-0.4,0-0.7
		s-0.1-0.6-0.2-0.9c-0.1-0.3-0.2-0.5-0.4-0.7C61.6,79.4,61.4,79.3,61.1,79.3L61.1,79.3z"/>
</g>
<g class="st1">
	<path class="st2" d="M39.8,103.9c-0.1,0-0.1-0.1-0.2-0.1c0-0.1-0.1-0.1-0.1-0.2c-0.2-0.4-0.3-0.8-0.4-1c-0.1-0.3-0.2-0.5-0.3-0.6
		c-0.1-0.2-0.1-0.3-0.2-0.4c0-0.1-0.1-0.2-0.1-0.3c0,0.4-0.1,0.7-0.1,1.1c0,0.4-0.1,0.8-0.1,1.2c0,0.4-0.1,0.8-0.1,1.1
		c0,0.4,0,0.7-0.1,1c0,0.1,0,0.1-0.1,0.2c-0.1,0-0.1,0.1-0.2,0.1c-0.1,0-0.1,0-0.2,0s-0.2,0-0.2-0.1c-0.4-0.1-0.7-0.3-0.9-0.5
		s-0.3-0.5-0.3-1c0-0.4,0-0.8,0.1-1.4c0-0.5,0.1-1.1,0.2-1.7c0.1-0.6,0.1-1.1,0.2-1.6c0.1-0.5,0.1-0.8,0.2-1.1c0,0,0.1-0.1,0.1-0.2
		s0.2-0.1,0.2-0.1c0.1,0,0.2,0,0.4,0c0.1,0,0.3,0,0.4,0s0.3,0,0.4,0.1c0.1,0,0.2,0.1,0.3,0.1l0.2,0.2c0.1,0.1,0.2,0.3,0.3,0.6
		s0.2,0.5,0.4,0.9s0.3,0.6,0.4,1c0.1,0.3,0.3,0.7,0.4,1c0.3-0.4,0.6-0.9,0.8-1.3c0.3-0.5,0.6-0.9,0.8-1.3c0.3-0.4,0.5-0.7,0.7-0.9
		s0.4-0.4,0.6-0.4h0.1l0.3,0c0.1,0,0.3,0,0.4,0c0.1,0,0.3,0,0.4,0.1c0.1,0,0.2,0.1,0.3,0.1s0.1,0.1,0.1,0.3v0.1
		c0,0.3-0.1,0.8-0.1,1.3c-0.1,0.5-0.1,1.1-0.2,1.7s-0.1,1.2-0.1,1.8c0,0.6,0,1.1,0,1.5v0.3c0,0.1,0,0.2-0.1,0.2s-0.1,0.1-0.2,0.1
		c-0.1,0-0.3-0.1-0.6-0.2c-0.2-0.1-0.5-0.2-0.6-0.3c-0.3-0.1-0.4-0.2-0.5-0.4c0-0.1-0.1-0.3-0.1-0.6c0-0.5,0-0.9,0.1-1.5
		s0.1-1.1,0.2-1.7c0,0.1-0.1,0.3-0.3,0.5c-0.2,0.2-0.3,0.5-0.5,0.8c-0.2,0.3-0.3,0.5-0.5,0.8c-0.2,0.2-0.3,0.4-0.3,0.5
		c0,0.1-0.1,0.1-0.2,0.2c-0.1,0-0.1,0.1-0.2,0.1c-0.1,0-0.3,0-0.4-0.1c-0.1,0-0.3-0.1-0.4-0.1L39.8,103.9z"/>
	<path class="st2" d="M53.1,99.1c0,0.5-0.1,1-0.1,1.6c-0.1,0.6-0.1,1.2-0.2,1.7s-0.1,1.1-0.2,1.6s-0.1,0.9-0.2,1.2
		c0,0.1,0,0.3-0.1,0.4c0,0.1-0.1,0.1-0.2,0.1c-0.3,0-0.7-0.1-1-0.2s-0.4-0.4-0.4-0.7c0,0,0-0.1,0-0.3s0-0.3,0-0.5
		c-0.1,0.1-0.3,0.2-0.5,0.4c-0.2,0.1-0.4,0.3-0.6,0.4c-0.2,0.1-0.4,0.3-0.6,0.4l-0.5,0.3c0,0-0.1,0-0.3,0.1c-0.1,0-0.2,0-0.3,0
		c-0.2,0-0.4-0.1-0.6-0.2s-0.4-0.2-0.5-0.2s-0.3-0.2-0.4-0.3c-0.1-0.1-0.1-0.2-0.1-0.3c0-0.5,0.1-0.9,0.1-1.3c0-0.4,0.1-0.8,0.1-1.2
		s0.1-0.9,0.1-1.3c0-0.5,0.1-1,0.1-1.6c0-0.4,0.1-0.6,0.2-0.7s0.3-0.1,0.5-0.1c0.4,0,0.7,0,1,0.1c0.3,0.1,0.4,0.3,0.4,0.6
		c0,0.7-0.1,1.5-0.2,2.3c-0.1,0.8-0.2,1.5-0.2,2.3c0.1,0,0.3-0.1,0.5-0.2c0.2-0.1,0.5-0.2,0.7-0.4c0.2-0.1,0.4-0.3,0.6-0.4
		s0.3-0.3,0.4-0.3c0.1-0.7,0.2-1.4,0.3-1.9c0.1-0.5,0.1-1.1,0.1-1.6c0-0.2,0.1-0.3,0.3-0.3c0.1,0,0.3,0,0.4,0c0.2,0,0.4,0,0.5,0.1
		c0.2,0,0.3,0.1,0.5,0.2S53.2,99,53.1,99.1L53.1,99.1z"/>
	<path class="st2" d="M54.5,101.7c0-0.1,0-0.2,0.1-0.2l0.5,0c0-0.3,0.1-0.6,0.1-0.9s0.1-0.6,0.1-0.8c0-0.3,0.1-0.5,0.1-0.7
		c0-0.2,0.1-0.4,0.1-0.5c0,0,0-0.1,0.1-0.1s0.1-0.1,0.2-0.1c0.2,0,0.4,0,0.6,0c0.2,0,0.4,0.1,0.5,0.1c0.1,0,0.3,0.1,0.4,0.2
		c0.1,0.1,0.1,0.2,0.1,0.3c-0.1,0.3-0.2,0.7-0.2,1.1s-0.1,0.9-0.2,1.3l2.1-0.1l0.1-1.1c0-0.4,0.1-0.7,0.2-1c0.1-0.3,0.1-0.5,0.2-0.7
		s0.2-0.3,0.3-0.3c0.1,0,0.2,0,0.4,0c0.2,0,0.4,0.1,0.5,0.1c0.2,0,0.3,0.1,0.5,0.2s0.2,0.2,0.2,0.2c0,0,0,0,0,0s0,0,0,0
		c-0.1,0.4-0.1,0.9-0.2,1.5s-0.1,1.2-0.2,1.8c-0.1,0.6-0.1,1.2-0.2,1.8s-0.1,1.1-0.1,1.6c0,0.1-0.1,0.2-0.3,0.2
		c-0.1,0-0.3,0-0.6-0.1s-0.5-0.2-0.7-0.3c-0.2-0.1-0.3-0.2-0.3-0.3c0-0.1-0.1-0.2-0.1-0.4c0-0.2,0-0.5,0-0.9c0-0.3,0.1-0.7,0.1-1
		c-0.3,0-0.7,0-1,0s-0.7,0-1,0c0,0.5-0.1,1-0.1,1.4c0,0.5,0,0.9-0.1,1.2c0,0.1-0.1,0.2-0.3,0.2c-0.1,0-0.3,0-0.5-0.1
		c-0.2,0-0.3-0.1-0.5-0.2c-0.2-0.1-0.3-0.2-0.4-0.3S55,105,55,104.9c0-0.3,0-0.6,0-1s0-0.8,0.1-1.2c0,0,0,0-0.1-0.1
		c0,0-0.1-0.1-0.1-0.1c-0.1-0.1-0.2-0.2-0.2-0.4s-0.1-0.3-0.1-0.4L54.5,101.7z"/>
	<path class="st2" d="M64,105c-0.3-0.8-0.6-1.7-0.8-2.6s-0.4-1.8-0.5-2.7c0-0.1,0-0.3,0-0.5c0-0.4,0.1-0.7,0.5-0.8
		c0.3-0.1,0.7-0.2,1.3-0.2c0.1,0,0.2,0,0.3,0c0.1,0,0.2,0.1,0.2,0.2c0.1,1.1,0.2,2.1,0.3,2.9c0.2,0.9,0.4,1.7,0.7,2.5
		c0.3-0.8,0.6-1.6,0.9-2.3c0.3-0.7,0.6-1.3,0.8-1.8s0.5-0.9,0.7-1.2c0.2-0.3,0.4-0.4,0.5-0.4c0.1,0,0.2,0,0.4,0.1
		c0.1,0.1,0.3,0.1,0.4,0.2c0.1,0.1,0.2,0.2,0.3,0.3C70,98.8,70,98.9,70,99c0,0.1,0,0.3-0.1,0.4c-0.1,0.2-0.1,0.3-0.2,0.4
		c-0.4,0.7-0.8,1.5-1.1,2.4s-0.8,1.8-1.1,2.7s-0.7,1.8-1,2.7c-0.3,0.9-0.6,1.7-0.8,2.3c0,0.1-0.1,0.1-0.1,0.2s-0.2,0.1-0.3,0.1
		c-0.1,0-0.2,0-0.4-0.1c-0.2-0.1-0.3-0.1-0.5-0.3s-0.3-0.2-0.5-0.4s-0.2-0.3-0.2-0.4c0,0,0-0.1,0-0.2c0-0.1,0.1-0.2,0.1-0.4
		c0.1-0.4,0.3-0.9,0.5-1.5c0.2-0.6,0.5-1.1,0.7-1.7c0,0-0.1,0-0.2,0c-0.1,0-0.1,0-0.2,0c-0.2,0-0.3,0-0.4-0.1
		c-0.1-0.1-0.2-0.2-0.2-0.5L64,105z"/>
	<path class="st2" d="M75.9,98.4c0.1,0,0.1,0,0.2,0.1s0.1,0.1,0.1,0.2s0.1,0.2,0.1,0.4c0,0.2,0,0.4,0,0.8c0,0.2-0.1,0.3-0.2,0.3
		c-0.1,0-0.2,0-0.4,0c-0.2,0-0.4,0-0.6-0.1c-0.2,0-0.5-0.1-0.7-0.1s-0.5,0-0.7-0.1c0.2,0.2,0.3,0.4,0.3,0.6c0,0.2,0,0.5,0,0.8
		c0,0.3-0.1,0.6-0.2,1c-0.1,0.3-0.1,0.7-0.2,1.1s-0.1,0.8-0.1,1.1s-0.1,0.8-0.1,1.1c0,0.1-0.1,0.2-0.2,0.2c-0.3,0-0.5,0-0.7-0.1
		c-0.2-0.1-0.4-0.1-0.5-0.2s-0.2-0.2-0.3-0.2c-0.1-0.1-0.1-0.1-0.1-0.2c0-0.5,0-1,0.1-1.5s0.1-1,0.2-1.5c0.1-0.5,0.2-0.9,0.3-1.3
		c0.1-0.4,0.2-0.7,0.3-1c-0.3,0-0.5,0-0.8,0.1c-0.2,0-0.5,0-0.6,0.1c0,0-0.1,0-0.1,0h-0.1c-0.1,0-0.1-0.1-0.2-0.2s-0.1-0.2-0.2-0.4
		c0-0.1-0.1-0.3-0.1-0.4c0-0.1,0-0.2,0-0.3c0-0.1,0-0.2,0.2-0.3c0.1,0,0.3-0.1,0.5-0.1c0.2,0,0.5-0.1,0.7-0.1c0.3,0,0.6,0,0.9-0.1
		c0.3,0,0.6,0,0.9,0c0.2,0,0.4,0,0.6,0c0.2,0,0.5,0,0.8,0s0.5,0,0.7,0C75.6,98.3,75.8,98.3,75.9,98.4L75.9,98.4z"/>
</g>
</svg>
