<svg id="Слой_1" data-name="Слой 1" xmlns="http://www.w3.org/2000/svg" viewBox="0 0 205 80"><defs><style>.cls-1{fill:#e94e1b;}.cls-2{fill:none;stroke:#231f20;stroke-linecap:round;stroke-linejoin:round;stroke-width:2.28px;}</style></defs><title>icons</title><polygon class="cls-1" points="136.02 9.68 144.82 27.52 164.51 30.38 150.26 44.27 153.63 63.88 136.02 54.62 118.41 63.88 121.77 44.27 107.53 30.38 127.21 27.52 136.02 9.68"/><path class="cls-2" d="M90,52.75l5.76,7m5.12,14.69a5.41,5.41,0,0,0,8.34-6.9L99.89,56.28l-8.34,6.89ZM90.77,35.61A22,22,0,1,1,72.48,10.44,22,22,0,0,1,90.77,35.61Zm6.47,1A28.55,28.55,0,1,1,73.51,4,28.55,28.55,0,0,1,97.24,36.64Z"/><path class="cls-2" d="M61.05,26c-2,0-6.79,1.18-6.59,6.94C55.06,38.49,61,47.2,61,47.2"/><path class="cls-2" d="M61.64,26c2,0,6.79,1.18,6.59,6.94-.6,5.51-6.9,14.22-6.9,14.22"/><line class="cls-2" x1="63.38" y1="17.05" x2="61.19" y2="25.24"/><line class="cls-2" x1="58.69" y1="17.05" x2="60.89" y2="25.24"/><path class="cls-2" d="M77.5,39.72a5.62,5.62,0,1,0-5.62-5.61A5.61,5.61,0,0,0,77.5,39.72Z"/></svg>