<svg id="Слой_1" data-name="Слой 1" xmlns="http://www.w3.org/2000/svg" viewBox="0 0 205 80"><defs><style>.cls-1{fill:#e94e1b;}.cls-2{fill:none;stroke:#231f20;stroke-linecap:round;stroke-linejoin:round;stroke-width:2.28px;}</style></defs><title>icons</title><polygon class="cls-1" points="136.02 9.68 144.82 27.52 164.51 30.38 150.26 44.27 153.63 63.88 136.02 54.62 118.41 63.88 121.77 44.27 107.53 30.38 127.21 27.52 136.02 9.68"/><line class="cls-2" x1="89.96" y1="52.75" x2="95.72" y2="59.73"/><path class="cls-2" d="M100.84,74.42a5.41,5.41,0,0,0,8.34-6.9L99.89,56.28l-8.34,6.89Z"/><path class="cls-2" d="M90.77,35.61A22,22,0,1,1,72.48,10.44,22,22,0,0,1,90.77,35.61Z"/><path class="cls-2" d="M97.24,36.64A28.55,28.55,0,1,1,73.51,4,28.55,28.55,0,0,1,97.24,36.64Z"/><path class="cls-2" d="M62,22.93s7.11,6.39,7.63,10.85c0,1.22-.5,7.63-7.63,7.63m0-18.48s-7.12,6.39-7.64,10.85c0,1.22.5,7.63,7.64,7.63"/><path class="cls-2" d="M83.75,32.17c0,5.1-2.32,9.24-5.18,9.24s-5.18-4.14-5.18-9.24,2.32-9.24,5.18-9.24S83.75,27.07,83.75,32.17Z"/></svg>