<?xml version="1.0" encoding="utf-8"?>
<!-- Generator: Adobe Illustrator 23.0.5, SVG Export Plug-In . SVG Version: 6.00 Build 0)  -->
<svg version="1.1" id="Слой_1" xmlns="http://www.w3.org/2000/svg" xmlns:xlink="http://www.w3.org/1999/xlink" x="0px" y="0px"
	 viewBox="0 0 205 80" style="enable-background:new 0 0 205 80;" xml:space="preserve">
<style type="text/css">
	.st0{fill:#E94E1B;}
	.st1{fill:#BE1622;}
	.st2{fill:#E6007E;}
	.st3{fill:#95C11F;}
	.st4{fill:#2FAC66;}
	.st5{fill:#36A9E1;}
	.st6{fill:#F39200;}
	.st7{enable-background:new    ;}
	.st8{fill:#FFFFFF;}
</style>
<title>icons</title>
<path class="st0" d="M82.1,59c0,10.1-8.2,18.3-18.4,18.3c-10.1,0-18.3-8.2-18.3-18.4c0-10.1,8.2-18.3,18.3-18.3
	C73.9,40.6,82.1,48.8,82.1,59C82.1,59,82.1,59,82.1,59"/>
<path class="st1" d="M120.8,59c0,10.1-8.2,18.3-18.4,18.3c-10.1,0-18.3-8.2-18.3-18.4c0-10.1,8.2-18.3,18.3-18.3
	C112.6,40.6,120.8,48.8,120.8,59C120.8,59,120.8,59,120.8,59"/>
<path class="st2" d="M159.6,59c0,10.1-8.2,18.3-18.3,18.3c-10.1,0-18.3-8.2-18.3-18.3s8.2-18.3,18.3-18.3S159.6,48.9,159.6,59
	C159.6,59,159.6,59,159.6,59"/>
<path class="st3" d="M62.7,21c0,10.1-8.2,18.3-18.3,18.4s-18.3-8.2-18.4-18.3S34.2,2.7,44.3,2.7c0,0,0,0,0,0
	C54.5,2.7,62.7,10.9,62.7,21"/>
<path class="st4" d="M101.4,21c0,10.1-8.2,18.3-18.3,18.4s-18.3-8.2-18.4-18.3C64.8,11,73,2.7,83.1,2.7c0,0,0,0,0,0
	C93.2,2.7,101.4,10.9,101.4,21"/>
<path class="st5" d="M140.2,21c0,10.1-8.2,18.3-18.3,18.4s-18.3-8.2-18.4-18.3c0-10.1,8.2-18.3,18.3-18.4c0,0,0,0,0,0
	C132,2.7,140.2,10.9,140.2,21"/>
<path class="st6" d="M178.9,21c0,10.1-8.2,18.3-18.3,18.4s-18.3-8.2-18.4-18.3s8.2-18.3,18.3-18.4c0,0,0,0,0,0
	C170.7,2.7,178.9,10.9,178.9,21"/>
<g class="st7">
	<path class="st8" d="M44.2,24c-0.1,0.2-0.3,0.5-0.5,0.7c-0.2,0.2-0.5,0.5-0.8,0.7c-0.3,0.2-0.6,0.4-1,0.5s-0.8,0.2-1.3,0.2
		c-0.6,0-1.2-0.1-1.7-0.3c-0.5-0.2-1-0.5-1.4-1c-0.4-0.5-0.7-1-0.9-1.7c-0.2-0.7-0.3-1.6-0.3-2.5c0-1.2,0.1-2.3,0.3-3.2
		c0.2-1,0.5-1.8,0.9-2.6c0.4-0.7,0.8-1.3,1.3-1.7c0.5-0.4,1.1-0.7,1.8-0.8c0.3,0,0.6-0.1,0.9-0.1c0.3,0,0.6,0.1,1,0.2
		c0.4,0.1,0.7,0.3,1.1,0.5c0.3,0.2,0.6,0.5,0.9,0.8c0.2,0.3,0.4,0.6,0.4,1c0,0.1,0,0.3-0.1,0.7c-0.1,0.4-0.2,0.8-0.3,1.2
		c-0.1,0.4-0.3,0.8-0.5,1.1c-0.2,0.3-0.5,0.5-0.7,0.5c-0.1,0-0.2,0-0.3-0.1C42.8,18,42.7,18,42.6,18c-0.1,0-0.2-0.1-0.3-0.2
		c-0.1-0.1-0.1-0.1-0.2-0.2c0-0.1,0-0.2,0.1-0.4c0.2-0.4,0.3-0.8,0.4-1.1c0-0.3,0.1-0.5,0.1-0.5c0-0.4-0.1-0.7-0.4-1
		c-0.2-0.2-0.6-0.3-0.9-0.3c-0.3,0-0.6,0.1-1,0.3s-0.6,0.6-0.8,1.1s-0.4,1.2-0.6,2s-0.2,1.9-0.2,3.2c0,0.4,0.1,0.8,0.1,1.2
		s0.2,0.7,0.4,0.9c0.2,0.3,0.4,0.5,0.6,0.6s0.5,0.2,0.8,0.2c0.3,0,0.6-0.1,0.9-0.3c0.3-0.2,0.6-0.4,0.9-0.7c0.1-0.1,0.1-0.2,0.2-0.3
		s0.2-0.2,0.3-0.3c0.1-0.1,0.2-0.2,0.3-0.3c0.1-0.1,0.2-0.1,0.3-0.1c0.1,0,0.1,0,0.2,0.1c0.1,0.1,0.2,0.2,0.3,0.5
		c0.1,0.2,0.2,0.4,0.3,0.6c0.1,0.1,0.1,0.3,0.1,0.5C44.4,23.7,44.4,23.9,44.2,24L44.2,24z"/>
</g>
<g class="st7">
	<path class="st8" d="M52.1,19.2c0,0.2-0.1,0.5-0.1,0.9c0,0.4-0.1,0.8-0.1,1.2c0,0.4-0.1,0.9-0.1,1.4s-0.1,0.9-0.1,1.3
		s-0.1,0.8-0.1,1.1c0,0.3,0,0.5,0,0.6c0,0.2-0.1,0.3-0.3,0.3c-0.5,0-1-0.1-1.3-0.3c-0.3-0.2-0.5-0.5-0.5-0.9c0-0.2,0-0.4,0.1-0.5
		c0-0.2,0.1-0.4,0.1-0.6l0,0c-0.1,0.3-0.3,0.6-0.5,0.9c-0.2,0.3-0.4,0.5-0.6,0.8c-0.2,0.2-0.4,0.4-0.6,0.6c-0.2,0.1-0.5,0.2-0.7,0.2
		c-0.3,0-0.5-0.1-0.8-0.2c-0.3-0.1-0.5-0.3-0.7-0.6c-0.2-0.2-0.4-0.5-0.5-0.9C45,23.9,45,23.5,45,23c0-0.8,0.1-1.6,0.3-2.3
		c0.2-0.7,0.5-1.4,0.9-1.9c0.4-0.5,0.8-1,1.2-1.3s0.9-0.5,1.4-0.5c0.3,0,0.6,0,0.9,0.1c0.2,0.1,0.4,0.2,0.6,0.3s0.3,0.3,0.3,0.5
		c0.1,0.2,0.1,0.3,0.2,0.5c0.1,0,0.2,0,0.4,0c0.2,0,0.3,0.1,0.5,0.1c0.1,0.1,0.3,0.1,0.4,0.2c0.1,0.1,0.2,0.2,0.2,0.4L52.1,19.2z
		 M47.6,23.7c0.2,0,0.4-0.1,0.6-0.2c0.2-0.2,0.4-0.4,0.6-0.6c0.2-0.3,0.4-0.6,0.5-0.9c0.2-0.3,0.3-0.6,0.4-1c0.1-0.7,0-1.3-0.1-1.6
		c-0.1-0.3-0.3-0.5-0.5-0.5c-0.2,0-0.5,0.1-0.7,0.3s-0.5,0.5-0.7,0.9c-0.2,0.4-0.4,0.8-0.5,1.3S47,22.4,47,22.9
		c0,0.2,0.1,0.4,0.2,0.6C47.3,23.6,47.4,23.7,47.6,23.7L47.6,23.7z"/>
</g>
<g class="st7">
	<path class="st8" d="M78,22.5c-0.1-0.1-0.2-0.2-0.4-0.5c-0.2-0.3-0.3-0.7-0.5-1.2c-0.2-0.5-0.4-1-0.6-1.7c-0.2-0.6-0.4-1.3-0.7-2.1
		c-0.1,0.5-0.1,1-0.2,1.7c-0.1,0.7-0.1,1.4-0.2,2.2s-0.1,1.6-0.2,2.4s-0.1,1.6-0.1,2.3c0,0.2-0.1,0.3-0.3,0.3c-0.1,0-0.3,0-0.6-0.1
		c-0.2,0-0.5-0.1-0.7-0.2c-0.2-0.1-0.4-0.2-0.6-0.4c-0.2-0.2-0.2-0.3-0.2-0.6c0,0,0-0.1,0-0.1s0-0.1,0-0.1c0-0.6,0.1-1.3,0.2-2
		c0.1-0.8,0.2-1.6,0.2-2.4c0.1-0.8,0.2-1.6,0.3-2.4c0.1-0.8,0.2-1.6,0.3-2.2c0.1-0.7,0.2-1.3,0.2-1.8c0.1-0.5,0.1-0.8,0.2-1
		c0-0.1,0.1-0.1,0.1-0.2c0-0.1,0.1-0.1,0.2-0.1c0.1,0,0.2,0,0.4,0c0.2,0,0.4,0,0.6,0.1c0.2,0,0.4,0.1,0.6,0.1s0.3,0.1,0.4,0.1
		c0.2,0.3,0.3,0.6,0.4,0.9c0.1,0.3,0.2,0.7,0.4,1c0.3,0.9,0.5,1.8,0.8,2.5s0.6,1.6,0.8,2.4c0.4-0.8,0.8-1.5,1.3-2.3
		c0.4-0.8,0.9-1.7,1.4-2.7c0.1-0.2,0.2-0.5,0.4-0.7c0.1-0.3,0.3-0.5,0.4-0.7c0.1-0.2,0.3-0.4,0.4-0.6c0.1-0.2,0.2-0.2,0.3-0.2
		c0.2,0,0.5,0,0.7,0.1c0.2,0,0.5,0.1,0.7,0.1c0.2,0.1,0.4,0.1,0.5,0.2s0.2,0.2,0.2,0.2v0c-0.1,0.5-0.2,1.3-0.3,2.3
		c-0.1,1-0.3,2-0.4,3.2c-0.1,1.2-0.2,2.4-0.3,3.6c-0.1,1.3-0.1,2.4-0.2,3.6c0,0.2-0.1,0.3-0.3,0.3c-0.2,0-0.3,0-0.5-0.1
		c-0.4-0.1-0.7-0.2-1-0.4c-0.3-0.2-0.4-0.5-0.4-0.9c0-0.4,0-0.9,0.1-1.5c0-0.5,0.1-1.1,0.1-1.8s0.1-1.3,0.2-1.9
		c0.1-0.6,0.2-1.3,0.3-1.9c-0.5,0.9-0.9,1.7-1.3,2.4c-0.3,0.7-0.6,1.2-0.9,1.6c-0.2,0.4-0.5,0.7-0.6,0.9c-0.2,0.2-0.3,0.3-0.5,0.3
		c-0.2,0-0.4,0-0.6-0.1c-0.2-0.1-0.3-0.1-0.4-0.2L78,22.5z"/>
</g>
<g class="st7">
	<path class="st8" d="M93,19.1c0,0.7,0,1.4-0.1,2.1c-0.1,0.7-0.1,1.4-0.2,2.1c-0.1,0.7-0.2,1.3-0.3,1.9s-0.2,1.2-0.4,1.6
		c0,0,0,0,0,0.1c-0.1,0.5-0.3,1-0.5,1.4c-0.2,0.5-0.5,0.9-0.8,1.2c-0.3,0.3-0.7,0.6-1.1,0.8s-0.9,0.3-1.4,0.3c-0.4,0-0.7-0.1-1-0.2
		c-0.3-0.1-0.6-0.3-0.8-0.4c-0.2-0.2-0.4-0.4-0.5-0.6s-0.2-0.4-0.3-0.6c-0.1-0.2-0.1-0.3-0.1-0.5c0-0.2,0-0.3,0-0.5v0
		c0-0.1,0.1-0.2,0.2-0.3c0.1-0.1,0.2-0.1,0.3,0c0.3,0.3,0.7,0.6,1.1,0.7c0.4,0.2,0.7,0.2,0.9,0.2c0.6,0,1.1-0.4,1.5-1.1
		c0.4-0.7,0.7-1.8,0.9-3.2c-0.1,0.2-0.3,0.5-0.5,0.7c-0.2,0.2-0.4,0.4-0.6,0.6c-0.2,0.2-0.4,0.3-0.6,0.4c-0.2,0.1-0.4,0.2-0.6,0.2
		c-0.7,0-1.3-0.3-1.7-0.9s-0.6-1.5-0.6-2.6c0-0.8,0.1-1.5,0.3-2.1s0.4-1.1,0.7-1.6c0.3-0.5,0.6-0.8,0.9-1.1c0.3-0.3,0.6-0.5,0.9-0.6
		c0.2-0.1,0.3-0.1,0.6-0.2s0.4,0,0.6,0c0.4,0,0.8,0.1,1.1,0.2s0.7,0.3,1,0.5c0.3,0.2,0.5,0.4,0.7,0.7C92.9,18.6,93,18.9,93,19.1
		L93,19.1z M89.7,23.2c0.2-0.3,0.5-0.7,0.6-1.1c0.2-0.4,0.3-0.9,0.4-1.3c0.1-0.4,0.2-0.8,0.2-1.1c-0.1-0.4-0.2-0.6-0.4-0.8
		c-0.2-0.2-0.4-0.3-0.5-0.3c-0.3,0-0.5,0.1-0.7,0.3c-0.2,0.2-0.4,0.4-0.6,0.7c-0.2,0.3-0.3,0.6-0.4,1c-0.1,0.4-0.2,0.7-0.3,1.1
		c0,0.7,0.1,1.3,0.2,1.6c0.2,0.3,0.3,0.5,0.5,0.5C89.2,23.7,89.5,23.5,89.7,23.2z"/>
</g>
<g class="st7">
	<path class="st8" d="M118.1,20.1c-0.2-0.3-0.4-0.6-0.5-0.8s-0.2-0.5-0.2-0.7c0-0.1,0.1-0.2,0.1-0.2s0.2,0,0.3,0h0.4
		c0.1-0.7,0.2-1.3,0.3-2c0.1-0.6,0.2-1.2,0.3-1.8c0.1-0.5,0.2-1,0.2-1.4c0.1-0.4,0.1-0.7,0.2-0.8c0-0.2,0.2-0.2,0.3-0.2
		c0.3,0,0.5,0,0.7,0.1c0.2,0,0.4,0.1,0.6,0.1c0.2,0.1,0.3,0.1,0.4,0.2c0.1,0.1,0.2,0.2,0.2,0.2v0.1c-0.1,0.2-0.1,0.5-0.2,0.9
		s-0.1,0.8-0.2,1.3s-0.1,1-0.2,1.5c-0.1,0.5-0.1,1.1-0.2,1.7l1.4-0.1c0.2-0.5,0.5-1.1,0.8-1.7c0.3-0.7,0.6-1.3,1-2
		c0.3-0.6,0.6-1.2,0.9-1.6s0.5-0.7,0.6-0.7h0.1c0.2,0.1,0.4,0.1,0.6,0.2c0.2,0.1,0.4,0.2,0.5,0.4c0.2,0.1,0.3,0.3,0.4,0.4
		s0.2,0.2,0.2,0.2c0,0.1,0,0.1-0.1,0.2c-0.1,0.2-0.3,0.6-0.6,1.1c-0.3,0.5-0.6,1-0.9,1.6c-0.3,0.6-0.6,1.1-0.9,1.7
		c-0.3,0.5-0.6,1-0.8,1.4c0.2,0.4,0.4,0.9,0.6,1.4c0.2,0.5,0.5,1,0.8,1.5s0.6,0.9,0.8,1.3s0.5,0.7,0.7,0.9c0.1,0.1,0.1,0.2,0.1,0.2
		c0,0.1,0,0.2-0.1,0.3l-0.2,0.2c-0.2,0.2-0.4,0.4-0.6,0.6c-0.2,0.2-0.5,0.3-0.7,0.3c-0.2,0-0.5-0.2-0.8-0.6
		c-0.3-0.4-0.6-0.8-0.9-1.4c-0.3-0.6-0.6-1.1-0.9-1.8c-0.3-0.6-0.5-1.2-0.7-1.7l-1.4,0.1c-0.1,0.9-0.2,1.8-0.2,2.7
		c-0.1,0.9-0.1,1.7-0.1,2.4c0,0.2-0.1,0.3-0.3,0.3c-0.1,0-0.3,0-0.4-0.1c-0.1,0-0.3-0.1-0.4-0.1c-0.5-0.1-0.8-0.2-1-0.4
		c-0.2-0.2-0.2-0.5-0.2-0.9c0-0.6,0-1.2,0.1-2c0.1-0.8,0.2-1.6,0.2-2.4L118.1,20.1z"/>
</g>
<g class="st7">
	<path class="st8" d="M164.4,24c-0.1,0.2-0.3,0.5-0.5,0.7s-0.5,0.5-0.8,0.7c-0.3,0.2-0.6,0.4-1,0.5s-0.8,0.2-1.3,0.2
		c-0.6,0-1.2-0.1-1.7-0.3c-0.5-0.2-1-0.5-1.4-1c-0.4-0.5-0.7-1-0.9-1.7s-0.3-1.6-0.3-2.5c0-1.2,0.1-2.3,0.3-3.2
		c0.2-1,0.5-1.8,0.9-2.6c0.4-0.7,0.8-1.3,1.3-1.7c0.5-0.4,1.1-0.7,1.8-0.8c0.3,0,0.6-0.1,0.9-0.1c0.3,0,0.6,0.1,1,0.2
		c0.4,0.1,0.7,0.3,1.1,0.5c0.3,0.2,0.6,0.5,0.9,0.8c0.2,0.3,0.4,0.6,0.4,1c0,0.1,0,0.3-0.1,0.7c-0.1,0.4-0.2,0.8-0.3,1.2
		c-0.1,0.4-0.3,0.8-0.5,1.1c-0.2,0.3-0.5,0.5-0.7,0.5c-0.1,0-0.2,0-0.3-0.1c-0.1-0.1-0.2-0.1-0.3-0.2c-0.1,0-0.2-0.1-0.3-0.2
		c-0.1-0.1-0.1-0.1-0.2-0.2s0-0.2,0.1-0.4c0.2-0.4,0.3-0.8,0.4-1.1c0-0.3,0.1-0.5,0.1-0.5c0-0.4-0.1-0.7-0.4-1s-0.6-0.3-0.9-0.3
		c-0.3,0-0.6,0.1-1,0.3c-0.3,0.2-0.6,0.6-0.8,1.1c-0.2,0.5-0.4,1.2-0.6,2s-0.2,1.9-0.2,3.2c0,0.4,0.1,0.8,0.1,1.2
		c0.1,0.4,0.2,0.7,0.4,0.9c0.2,0.3,0.4,0.5,0.6,0.6c0.2,0.2,0.5,0.2,0.8,0.2c0.3,0,0.6-0.1,0.9-0.3c0.3-0.2,0.6-0.4,0.9-0.7
		c0.1-0.1,0.1-0.2,0.2-0.3s0.2-0.2,0.3-0.3c0.1-0.1,0.2-0.2,0.3-0.3c0.1-0.1,0.2-0.1,0.3-0.1c0.1,0,0.1,0,0.2,0.1
		c0.1,0.1,0.2,0.2,0.3,0.5c0.1,0.2,0.2,0.4,0.3,0.6s0.1,0.3,0.1,0.5C164.6,23.7,164.5,23.9,164.4,24L164.4,24z"/>
</g>
<g class="st7">
	<path class="st8" d="M56.7,62.3c-0.1-0.2-0.1-0.4-0.1-0.7c0-0.5,0.1-1.2,0.1-1.9c0.1-0.7,0.1-1.5,0.2-2.3c0.1-0.8,0.2-1.6,0.2-2.4
		c0.1-0.8,0.2-1.5,0.3-2.2c-0.3-0.2-0.5-0.5-0.6-0.7s-0.2-0.4-0.2-0.5c0-0.1,0.1-0.2,0.2-0.3c0.1-0.1,0.3-0.2,0.6-0.4
		c0.3-0.2,0.6-0.3,0.9-0.5s0.8-0.3,1.2-0.4c0.5-0.1,0.9-0.2,1.4-0.2c0.5,0,0.9,0.1,1.4,0.2s0.8,0.3,1.2,0.5c0.3,0.2,0.6,0.5,0.8,0.8
		c0.2,0.3,0.3,0.7,0.3,1.1c0,0.5-0.1,1-0.2,1.4c-0.2,0.4-0.4,0.8-0.6,1.1c-0.3,0.3-0.6,0.6-0.9,0.8s-0.7,0.4-1,0.5
		c0.5,0.1,1,0.2,1.4,0.3c0.4,0.2,0.7,0.3,0.9,0.6c0.2,0.2,0.4,0.5,0.5,0.8c0.1,0.3,0.2,0.6,0.2,0.9c0,0.7-0.1,1.3-0.4,1.9
		s-0.6,1.1-1,1.5c-0.4,0.4-0.9,0.8-1.5,1c-0.6,0.2-1.2,0.4-1.9,0.4c-0.9,0-1.6-0.1-2.2-0.4c-0.6-0.3-1-0.6-1.1-1.1L56.7,62.3z
		 M60.6,57.6c-0.2,0-0.5,0-0.7,0c-0.2,0-0.5,0.1-0.7,0.1c-0.1,0.7-0.1,1.3-0.2,2c-0.1,0.6-0.1,1.2-0.1,1.5c0.1,0.1,0.2,0.2,0.4,0.2
		s0.5,0.1,0.7,0.1c0.3,0,0.6-0.1,0.9-0.2c0.3-0.1,0.5-0.3,0.7-0.6c0.2-0.2,0.4-0.5,0.5-0.9c0.1-0.3,0.2-0.7,0.2-1
		c0-0.4-0.1-0.7-0.4-1C61.6,57.7,61.2,57.5,60.6,57.6L60.6,57.6z M59.1,52.4c0.2,0,0.3,0.1,0.4,0.3c0.1,0.2,0.2,0.3,0.2,0.5
		c0,0.4,0,0.8-0.1,1.2c-0.1,0.5-0.1,0.9-0.2,1.4c0.2,0,0.3-0.1,0.5-0.1c0.2,0,0.3-0.1,0.5-0.1c0.6-0.2,1-0.5,1.4-1
		c0.3-0.5,0.5-1,0.5-1.6c0-0.4-0.1-0.7-0.3-0.9c-0.2-0.2-0.6-0.3-1-0.3c-0.3,0-0.6,0-0.9,0.1S59.3,52.3,59.1,52.4L59.1,52.4z"/>
</g>
<g class="st7">
	<path class="st8" d="M70.1,50.3c0.2,0.1,0.2,0.2,0.3,0.4c0,0.1,0,0.3,0,0.5c-0.1,0.6-0.2,1.4-0.3,2.4c-0.1,0.9-0.2,1.9-0.4,3
		s-0.3,2.1-0.4,3.3C69.2,60.9,69.1,62,69,63c0,0.2-0.1,0.3-0.3,0.3c-0.2,0-0.5-0.1-0.7-0.2c-0.2-0.1-0.4-0.2-0.6-0.4
		c-0.2-0.2-0.3-0.3-0.4-0.5s-0.2-0.4-0.2-0.7c0-0.1,0-0.2,0-0.3s0-0.2,0-0.3c0-0.5,0.1-1.1,0.2-1.6c0.1-0.6,0.1-1.2,0.2-1.7
		c0.1-0.6,0.2-1.2,0.2-1.7c0.1-0.6,0.2-1.1,0.2-1.6c-0.1,0.2-0.3,0.4-0.5,0.6c-0.3,0.2-0.5,0.4-0.8,0.5c-0.1,0-0.2,0-0.3,0
		c-0.1,0-0.1-0.1-0.2-0.2c-0.1-0.2-0.3-0.4-0.3-0.6s-0.1-0.3-0.1-0.4c0-0.1,0.1-0.2,0.2-0.4c0.3-0.3,0.6-0.6,0.9-0.9
		c0.3-0.3,0.5-0.7,0.7-1c0.2-0.4,0.4-0.7,0.5-1c0.2-0.3,0.3-0.6,0.4-0.8c0-0.1,0.1-0.1,0.1-0.2c0.1-0.1,0.1-0.1,0.2-0.1s0.2,0,0.3,0
		c0.1,0,0.3,0,0.4,0.1c0.2,0,0.3,0.1,0.5,0.1C69.9,50.1,70,50.2,70.1,50.3L70.1,50.3z"/>
</g>
<g class="st7">
	<path class="st8" d="M94.3,62.3c-0.1-0.2-0.1-0.4-0.1-0.7c0-0.5,0.1-1.2,0.1-1.9c0.1-0.7,0.1-1.5,0.2-2.3c0.1-0.8,0.2-1.6,0.2-2.4
		c0.1-0.8,0.2-1.5,0.3-2.2c-0.3-0.2-0.5-0.5-0.6-0.7s-0.2-0.4-0.2-0.5c0-0.1,0.1-0.2,0.2-0.3c0.1-0.1,0.3-0.2,0.6-0.4
		c0.3-0.2,0.6-0.3,0.9-0.5s0.8-0.3,1.2-0.4c0.5-0.1,0.9-0.2,1.4-0.2c0.5,0,0.9,0.1,1.4,0.2s0.8,0.3,1.2,0.5c0.3,0.2,0.6,0.5,0.8,0.8
		c0.2,0.3,0.3,0.7,0.3,1.1c0,0.5-0.1,1-0.2,1.4c-0.2,0.4-0.4,0.8-0.6,1.1c-0.3,0.3-0.6,0.6-0.9,0.8s-0.7,0.4-1,0.5
		c0.5,0.1,1,0.2,1.4,0.3c0.4,0.2,0.7,0.3,0.9,0.6c0.2,0.2,0.4,0.5,0.5,0.8c0.1,0.3,0.2,0.6,0.2,0.9c0,0.7-0.1,1.3-0.4,1.9
		s-0.6,1.1-1,1.5c-0.4,0.4-0.9,0.8-1.5,1c-0.6,0.2-1.2,0.4-1.9,0.4c-0.9,0-1.6-0.1-2.2-0.4c-0.6-0.3-1-0.6-1.1-1.1L94.3,62.3z
		 M98.2,57.6c-0.2,0-0.5,0-0.7,0c-0.2,0-0.5,0.1-0.7,0.1c-0.1,0.7-0.1,1.3-0.2,2c-0.1,0.6-0.1,1.2-0.1,1.5c0.1,0.1,0.2,0.2,0.4,0.2
		s0.5,0.1,0.7,0.1c0.3,0,0.6-0.1,0.9-0.2c0.3-0.1,0.5-0.3,0.7-0.6c0.2-0.2,0.4-0.5,0.5-0.9c0.1-0.3,0.2-0.7,0.2-1
		c0-0.4-0.1-0.7-0.4-1C99.3,57.7,98.8,57.5,98.2,57.6L98.2,57.6z M96.7,52.4c0.2,0,0.3,0.1,0.4,0.3c0.1,0.2,0.2,0.3,0.2,0.5
		c0,0.4,0,0.8-0.1,1.2c-0.1,0.5-0.1,0.9-0.2,1.4c0.2,0,0.3-0.1,0.5-0.1c0.2,0,0.3-0.1,0.5-0.1c0.6-0.2,1-0.5,1.4-1
		c0.3-0.5,0.5-1,0.5-1.6c0-0.4-0.1-0.7-0.3-0.9c-0.2-0.2-0.6-0.3-1-0.3c-0.3,0-0.6,0-0.9,0.1S96.9,52.3,96.7,52.4L96.7,52.4z"/>
</g>
<g class="st7">
	<path class="st8" d="M109.5,61.2c0,0,0.1,0.1,0.2,0.2s0.2,0.3,0.3,0.5c0.1,0.2,0.2,0.4,0.3,0.6c0.1,0.2,0.1,0.4,0.1,0.6
		c0,0.1,0,0.2-0.1,0.3s-0.1,0.1-0.3,0.1c-0.2,0-0.5,0-1.1-0.1c-0.6-0.1-1.2-0.1-2-0.1c-0.2,0-0.5,0-0.6,0s-0.3,0-0.5,0
		c-0.2,0-0.3,0-0.5,0s-0.5,0-0.7,0c-0.1,0-0.2,0-0.3-0.1c-0.1-0.1-0.2-0.2-0.4-0.3c-0.1-0.1-0.2-0.2-0.3-0.3
		c-0.1-0.1-0.2-0.3-0.4-0.4c-0.1-0.2-0.2-0.3-0.3-0.5s-0.1-0.3-0.1-0.4c0-0.1,0-0.1,0.1-0.2c0-0.1,0.1-0.2,0.1-0.2
		c0.3-0.6,0.8-1.3,1.3-1.9c0.5-0.6,1.1-1.3,1.6-1.9s1-1.3,1.4-1.9c0.4-0.6,0.7-1.2,0.8-1.8c0-0.2-0.1-0.5-0.3-0.7
		c-0.2-0.2-0.5-0.3-0.8-0.3c-0.3,0-0.6,0.1-1,0.2c-0.4,0.1-0.8,0.3-1.2,0.6c-0.2,0.1-0.4,0-0.6-0.2l-0.5-1.3c0-0.2,0-0.3,0-0.3
		c0-0.1,0.1-0.2,0.3-0.3c0.3-0.2,0.5-0.3,0.8-0.5s0.6-0.3,0.8-0.4s0.5-0.2,0.8-0.2s0.5-0.1,0.7-0.1c0.4,0,0.9,0.1,1.3,0.3
		c0.4,0.2,0.8,0.4,1.1,0.7c0.3,0.3,0.6,0.6,0.8,1c0.2,0.4,0.3,0.7,0.3,1.1c0,0.6-0.2,1.2-0.5,1.8c-0.3,0.6-0.7,1.2-1.2,1.8
		c-0.5,0.6-1,1.2-1.5,1.8c-0.5,0.6-1,1.2-1.4,1.7c-0.1,0.1-0.2,0.3-0.3,0.4s-0.2,0.2-0.2,0.3h0.8c0.5,0,1,0,1.4,0s0.7,0,1,0
		c0.3,0,0.5,0,0.6,0.1c0.2,0,0.3,0.1,0.4,0.1L109.5,61.2z"/>
</g>
<g class="st7">
	<path class="st8" d="M132.9,62.3c-0.1-0.2-0.1-0.4-0.1-0.7c0-0.5,0.1-1.2,0.1-1.9c0.1-0.7,0.1-1.5,0.2-2.3c0.1-0.8,0.2-1.6,0.2-2.4
		c0.1-0.8,0.2-1.5,0.3-2.2c-0.3-0.2-0.5-0.5-0.6-0.7c-0.1-0.2-0.2-0.4-0.2-0.5c0-0.1,0.1-0.2,0.2-0.3c0.1-0.1,0.3-0.2,0.6-0.4
		c0.3-0.2,0.6-0.3,0.9-0.5s0.8-0.3,1.2-0.4c0.5-0.1,0.9-0.2,1.4-0.2c0.5,0,0.9,0.1,1.4,0.2c0.4,0.1,0.8,0.3,1.2,0.5
		c0.3,0.2,0.6,0.5,0.8,0.8c0.2,0.3,0.3,0.7,0.3,1.1c0,0.5-0.1,1-0.2,1.4c-0.2,0.4-0.4,0.8-0.6,1.1c-0.3,0.3-0.6,0.6-0.9,0.8
		c-0.3,0.2-0.7,0.4-1,0.5c0.5,0.1,1,0.2,1.4,0.3c0.4,0.2,0.7,0.3,0.9,0.6c0.2,0.2,0.4,0.5,0.5,0.8c0.1,0.3,0.2,0.6,0.2,0.9
		c0,0.7-0.1,1.3-0.4,1.9c-0.2,0.6-0.6,1.1-1,1.5c-0.4,0.4-0.9,0.8-1.5,1c-0.6,0.2-1.2,0.4-1.9,0.4c-0.9,0-1.6-0.1-2.2-0.4
		s-1-0.6-1.1-1.1L132.9,62.3z M136.9,57.6c-0.2,0-0.5,0-0.7,0c-0.2,0-0.5,0.1-0.7,0.1c-0.1,0.7-0.1,1.3-0.2,2
		c-0.1,0.6-0.1,1.2-0.1,1.5c0.1,0.1,0.2,0.2,0.4,0.2c0.2,0.1,0.5,0.1,0.7,0.1c0.3,0,0.6-0.1,0.9-0.2c0.3-0.1,0.5-0.3,0.7-0.6
		c0.2-0.2,0.4-0.5,0.5-0.9c0.1-0.3,0.2-0.7,0.2-1c0-0.4-0.1-0.7-0.4-1C137.9,57.7,137.5,57.5,136.9,57.6L136.9,57.6z M135.4,52.4
		c0.2,0,0.3,0.1,0.4,0.3c0.1,0.2,0.2,0.3,0.2,0.5c0,0.4,0,0.8-0.1,1.2c-0.1,0.5-0.1,0.9-0.2,1.4c0.2,0,0.3-0.1,0.5-0.1
		c0.2,0,0.3-0.1,0.5-0.1c0.6-0.2,1-0.5,1.4-1c0.3-0.5,0.5-1,0.5-1.6c0-0.4-0.1-0.7-0.3-0.9c-0.2-0.2-0.6-0.3-1-0.3
		c-0.3,0-0.6,0-0.9,0.1S135.6,52.3,135.4,52.4L135.4,52.4z"/>
</g>
<g class="st7">
	<path class="st8" d="M147.3,49.9c0,0,0.1,0,0.2,0s0.1,0,0.2,0c0.1,0.1,0.2,0.2,0.4,0.5c0.1,0.2,0.2,0.4,0.2,0.6c0,0.2,0,0.3,0,0.4
		c0,0-0.1,0.1-0.3,0.3c-0.3,0.2-0.6,0.5-1,0.8c-0.3,0.3-0.7,0.6-1,1c-0.3,0.4-0.6,0.7-0.8,1.1c-0.2,0.4-0.4,0.8-0.5,1.2
		c0.2-0.2,0.5-0.4,0.8-0.6c0.3-0.2,0.7-0.2,1.1-0.2c0.4,0,0.7,0.1,1.1,0.2c0.3,0.2,0.6,0.4,0.9,0.7c0.2,0.3,0.4,0.6,0.6,1
		c0.1,0.4,0.2,0.8,0.2,1.2c0,0.7-0.1,1.3-0.3,1.9s-0.5,1.2-0.8,1.7c-0.3,0.5-0.7,0.9-1.2,1.2c-0.5,0.3-0.9,0.5-1.4,0.5
		c-0.5,0-1-0.1-1.6-0.3c-0.5-0.2-0.9-0.5-1.2-0.8c-0.4-0.5-0.6-1-0.7-1.5c-0.1-0.6-0.2-1.1-0.2-1.7c0-1,0.1-2,0.3-2.8
		c0.2-0.8,0.5-1.6,0.8-2.2c0.3-0.7,0.7-1.2,1.1-1.7c0.4-0.5,0.8-0.9,1.2-1.3s0.8-0.6,1.1-0.8s0.6-0.3,0.8-0.4L147.3,49.9z
		 M145.8,56.8c-0.3,0-0.6,0.1-0.8,0.3c-0.2,0.2-0.4,0.4-0.6,0.6c-0.2,0.4-0.3,0.9-0.3,1.6c0,0.7,0.1,1.2,0.3,1.5
		c0.2,0.3,0.5,0.5,0.8,0.5c0.3,0,0.6-0.1,0.8-0.3c0.2-0.2,0.4-0.4,0.6-0.7s0.2-0.6,0.3-0.9c0.1-0.3,0.1-0.6,0.1-0.9
		c0-0.5-0.1-0.9-0.3-1.3S146.3,56.8,145.8,56.8L145.8,56.8z"/>
</g>
<g class="st7">
	<path class="st8" d="M152.3,29.7C152.3,29.6,152.4,29.6,152.3,29.7c0.1-0.1,0.1-0.1,0.1-0.1c0.1,0,0.1,0,0.2,0.1
		c0.1,0,0.1,0.1,0.2,0.1c0.1,0,0.1,0.1,0.2,0.1c0,0,0.1,0.1,0.1,0.1c0,0.1-0.1,0.2-0.1,0.3c0,0.1-0.1,0.2-0.1,0.3
		c-0.1,0.2-0.2,0.4-0.2,0.6c-0.1,0.2-0.2,0.4-0.2,0.7c-0.1,0.2-0.2,0.4-0.3,0.6c-0.1,0.2-0.2,0.4-0.3,0.6c0,0-0.1,0.1-0.1,0.1
		s-0.1,0.1-0.2,0.1c0,0,0,0,0,0l-0.5-0.1c-0.2-0.1-0.3-0.1-0.3-0.2c0-0.1-0.1-0.2-0.1-0.3c-0.1-0.3-0.1-0.7-0.2-1.1
		c-0.1-0.4-0.2-0.9-0.2-1.3c0-0.1,0-0.2,0-0.3s0-0.2,0-0.3c0-0.1,0-0.1,0.1-0.2s0.1,0,0.2,0c0.2,0,0.4,0.1,0.5,0.2
		c0.1,0.1,0.2,0.2,0.2,0.3c0.1,0.3,0.1,0.7,0.1,1.1c0,0.4,0.1,0.8,0.2,1.2L152.3,29.7L152.3,29.7z"/>
</g>
<g class="st7">
	<path class="st8" d="M154.3,33.3c0,0.1,0,0.1-0.1,0.1c-0.1,0-0.2,0-0.3-0.1c-0.1,0-0.2-0.1-0.3-0.2c-0.1-0.1-0.1-0.1-0.2-0.2
		c0-0.1-0.1-0.2-0.1-0.3v-0.1c0-0.3,0-0.6,0.1-0.9c0-0.3,0.1-0.5,0.1-0.8c0-0.3,0.1-0.5,0.1-0.7c0-0.2,0.1-0.4,0.1-0.5
		c0-0.1,0-0.1,0.1-0.1s0.1,0,0.1,0c0.1,0,0.2,0,0.2,0s0.2,0.1,0.2,0.1c0.1,0,0.1,0.1,0.2,0.1s0.1,0.1,0.1,0.2c0,0,0,0,0,0
		s0,0.1,0,0.2c-0.1,0.4-0.1,0.8-0.2,1.3C154.4,32,154.3,32.6,154.3,33.3L154.3,33.3z M154.8,27.9c0,0,0.1,0.1,0.1,0.1s0,0.1,0,0.1
		c0,0.1,0,0.1,0,0.2c0,0.1,0,0.2,0,0.2c0,0.1,0,0.1-0.1,0.2c0,0-0.1,0.1-0.1,0.1h-0.1c-0.2,0-0.3-0.1-0.5-0.1
		c-0.1-0.1-0.2-0.2-0.2-0.4c0,0,0-0.1,0-0.2c0-0.1,0-0.2,0-0.2s0.1-0.1,0.1-0.2c0-0.1,0.1-0.1,0.2-0.1c0.1,0,0.2,0,0.3,0
		C154.6,27.7,154.7,27.8,154.8,27.9L154.8,27.9z"/>
	<path class="st8" d="M155.2,30.5c0,0-0.1,0-0.1-0.1c0,0-0.1-0.1-0.1-0.1c0-0.1-0.1-0.1-0.1-0.2c0-0.1,0-0.1,0-0.2c0,0,0-0.1,0-0.1
		c0,0,0.1,0,0.1,0c0.1,0,0.2,0,0.4,0s0.3,0,0.4,0c0-0.3,0.1-0.6,0.1-0.8s0.1-0.5,0.1-0.6c0-0.2,0.1-0.3,0.1-0.4s0.1-0.1,0.1-0.1
		c0.1,0,0.2,0,0.2,0c0.1,0,0.2,0,0.2,0.1c0.1,0,0.1,0,0.2,0.1c0,0,0.1,0.1,0.1,0.1c0,0,0,0.1,0,0.1c0,0.2-0.1,0.4-0.1,0.7
		c0,0.3-0.1,0.6-0.1,0.9c0.1,0,0.2,0,0.3,0s0.2,0,0.2,0c0,0,0,0,0.1,0s0.1,0.1,0.1,0.1s0.1,0.1,0.1,0.2s0,0.2,0,0.3s0,0.1-0.1,0.1
		H157c-0.1,0-0.3,0-0.5,0c-0.1,0.5-0.1,1-0.2,1.5s-0.1,0.9-0.1,1.3c0,0,0,0.1,0,0.1c0,0-0.1,0-0.1,0c-0.1,0-0.2,0-0.3-0.1
		c-0.1-0.1-0.2-0.2-0.3-0.3c0,0,0-0.1,0-0.2c0-0.1,0-0.1,0-0.2c0-0.1,0-0.3,0-0.5c0-0.2,0-0.4,0.1-0.5s0-0.4,0.1-0.6s0-0.4,0.1-0.5
		c-0.1,0-0.1,0-0.2,0C155.4,30.4,155.3,30.4,155.2,30.5L155.2,30.5z"/>
</g>
<g class="st7">
	<path class="st8" d="M160.4,30.5c0,0.1,0,0.2,0,0.4c0,0.2,0,0.3,0,0.5c0,0.2,0,0.4,0,0.6c0,0.2,0,0.4,0,0.6c0,0.2,0,0.3,0,0.5
		c0,0.1,0,0.2,0,0.3c0,0.1,0,0.1-0.1,0.1c-0.2,0-0.4,0-0.6-0.1c-0.1-0.1-0.2-0.2-0.2-0.4c0-0.1,0-0.2,0-0.2c0-0.1,0-0.2,0-0.3l0,0
		c-0.1,0.1-0.1,0.3-0.2,0.4c-0.1,0.1-0.2,0.2-0.2,0.3s-0.2,0.2-0.3,0.2c-0.1,0.1-0.2,0.1-0.3,0.1c-0.1,0-0.2,0-0.3-0.1
		c-0.1-0.1-0.2-0.1-0.3-0.2c-0.1-0.1-0.2-0.2-0.2-0.4c-0.1-0.1-0.1-0.3-0.1-0.5c0-0.3,0-0.7,0.1-1c0.1-0.3,0.2-0.6,0.4-0.8
		s0.3-0.4,0.5-0.6c0.2-0.1,0.4-0.2,0.6-0.2c0.1,0,0.3,0,0.4,0c0.1,0,0.2,0.1,0.2,0.1c0.1,0.1,0.1,0.1,0.2,0.2s0.1,0.1,0.1,0.2
		c0,0,0.1,0,0.2,0c0.1,0,0.1,0,0.2,0s0.1,0.1,0.2,0.1S160.5,30.4,160.4,30.5L160.4,30.5z M158.5,32.5c0.1,0,0.2,0,0.2-0.1
		c0.1-0.1,0.2-0.2,0.2-0.3s0.2-0.2,0.2-0.4c0.1-0.1,0.1-0.3,0.2-0.4c0-0.3,0-0.5,0-0.7c0-0.1-0.1-0.2-0.2-0.2c-0.1,0-0.2,0-0.3,0.1
		c-0.1,0.1-0.2,0.2-0.3,0.4c-0.1,0.2-0.2,0.3-0.2,0.5c-0.1,0.2-0.1,0.4-0.1,0.6c0,0.1,0,0.2,0.1,0.2S158.4,32.5,158.5,32.5
		L158.5,32.5z"/>
</g>
<g class="st7">
	<path class="st8" d="M165.3,33.2c0,0,0,0.1,0,0.1c0,0,0,0-0.1,0c-0.1,0-0.2,0-0.3-0.1c-0.1,0-0.2-0.1-0.2-0.2
		c-0.1-0.1-0.1-0.1-0.2-0.2c0-0.1-0.1-0.1-0.1-0.2c0-0.2,0-0.4,0-0.6c0-0.2,0-0.4,0-0.6l0.1-0.8c0,0,0-0.1,0-0.1c0,0-0.1,0-0.1,0
		c-0.1,0.1-0.2,0.2-0.4,0.3c-0.1,0.1-0.2,0.2-0.3,0.3l-0.1,1.9c0,0,0,0.1,0,0.1c0,0-0.1,0-0.1,0c-0.1,0-0.2,0-0.2-0.1
		c-0.1,0-0.2-0.1-0.3-0.2s-0.1-0.1-0.2-0.2c-0.1-0.1-0.1-0.2-0.1-0.3c0-0.3,0-0.6,0-0.9c0-0.3,0.1-0.6,0.1-0.9c0-0.1,0-0.1,0-0.1
		c0,0,0,0-0.1,0s-0.1,0-0.1,0.1s-0.1,0.1-0.2,0.2c-0.1,0.1-0.2,0.1-0.2,0.2s-0.1,0.1-0.1,0.2c0,0.3-0.1,0.6-0.1,0.9
		c0,0.3,0,0.6-0.1,1c0,0.1,0,0.1-0.1,0.1c-0.1,0-0.2,0-0.2,0s-0.2-0.1-0.2-0.1c-0.1,0-0.1-0.1-0.2-0.1s-0.1-0.1-0.1-0.1
		c0-0.1,0-0.2,0-0.2c0-0.3,0-0.7,0-1.1c0-0.4,0.1-0.7,0.1-1c0-0.3,0.1-0.5,0.2-0.7c0.1-0.2,0.1-0.3,0.2-0.3c0.1,0,0.1,0,0.2,0
		c0.1,0,0.1,0,0.2,0.1c0.1,0,0.2,0.1,0.2,0.1s0.1,0.1,0.1,0.2c0,0,0,0,0,0.1c0,0,0,0.1,0,0.1s0,0.1,0,0.1c0,0,0,0.1,0,0.1
		c0.1-0.1,0.1-0.1,0.2-0.2c0.1-0.1,0.2-0.2,0.2-0.2c0.1-0.1,0.2-0.1,0.2-0.2c0.1,0,0.1-0.1,0.2-0.1c0,0,0.1,0,0.1,0
		c0.1,0,0.1,0,0.2,0.1c0.1,0,0.1,0.1,0.2,0.1c0.1,0,0.1,0.1,0.2,0.1s0.1,0.1,0.1,0.1c0,0,0,0.1,0,0.1c0,0,0,0.1,0,0.1
		c0.1-0.1,0.1-0.1,0.2-0.2s0.2-0.1,0.2-0.2c0.1-0.1,0.2-0.1,0.2-0.2s0.2-0.1,0.2-0.1c0,0,0.1,0,0.1,0s0.1,0,0.1,0
		c0.1,0,0.1,0,0.2,0.1c0.1,0,0.2,0.1,0.2,0.1c0.1,0,0.1,0.1,0.2,0.1c0,0.1,0.1,0.1,0.1,0.2v0.1c0,0,0,0.1,0,0.1c0,0.2,0,0.4,0,0.7
		l-0.1,0.6c0,0.2,0,0.4,0,0.7C165.4,32.6,165.4,32.9,165.3,33.2L165.3,33.2z"/>
</g>
<g class="st7">
	<path class="st8" d="M166.9,33.3c0,0.1,0,0.1-0.1,0.1c-0.1,0-0.2,0-0.3-0.1c-0.1,0-0.2-0.1-0.3-0.2c-0.1-0.1-0.1-0.1-0.2-0.2
		c0-0.1-0.1-0.2-0.1-0.3v-0.1c0-0.3,0-0.6,0.1-0.9c0-0.3,0.1-0.5,0.1-0.8c0-0.3,0.1-0.5,0.1-0.7c0-0.2,0.1-0.4,0.1-0.5
		c0-0.1,0-0.1,0.1-0.1s0.1,0,0.1,0c0.1,0,0.2,0,0.2,0s0.2,0.1,0.2,0.1c0.1,0,0.1,0.1,0.2,0.1c0,0,0.1,0.1,0.1,0.2c0,0,0,0,0,0
		s0,0.1,0,0.2c-0.1,0.4-0.1,0.8-0.2,1.3C167,32,166.9,32.6,166.9,33.3L166.9,33.3z M167.4,27.9c0,0,0.1,0.1,0.1,0.1s0,0.1,0,0.1
		c0,0.1,0,0.1,0,0.2c0,0.1,0,0.2,0,0.2s0,0.1-0.1,0.2s-0.1,0.1-0.1,0.1h-0.1c-0.2,0-0.3-0.1-0.5-0.1c-0.1-0.1-0.2-0.2-0.2-0.4
		c0,0,0-0.1,0-0.2c0-0.1,0-0.2,0-0.2c0-0.1,0.1-0.1,0.1-0.2c0-0.1,0.1-0.1,0.2-0.1c0.1,0,0.2,0,0.3,0
		C167.2,27.7,167.3,27.8,167.4,27.9L167.4,27.9z"/>
</g>
<g class="st7">
	<path class="st8" d="M167.7,33c0,0,0-0.1,0-0.1s0-0.1,0-0.2c0-0.3,0-0.5,0-0.8s0.1-0.6,0.1-0.8s0.1-0.5,0.1-0.7s0.1-0.4,0.1-0.5
		c0,0,0-0.1,0-0.1s0.1,0,0.1,0c0.1,0,0.2,0,0.2,0c0.1,0,0.2,0,0.2,0.1c0.1,0,0.1,0.1,0.2,0.1c0.1,0,0.1,0.1,0.1,0.1v0l-0.1,0.6
		c0.1-0.1,0.2-0.2,0.3-0.3c0.1-0.1,0.2-0.2,0.3-0.3s0.2-0.2,0.3-0.2c0.1-0.1,0.2-0.1,0.2-0.1c0,0,0.1,0,0.2,0c0.1,0,0.2,0.1,0.3,0.1
		s0.2,0.1,0.3,0.2c0.1,0.1,0.1,0.1,0.1,0.2c0,0,0,0,0,0c0,0,0,0.1,0,0.1c0,0.2,0,0.4-0.1,0.7s0,0.4-0.1,0.6c0,0.2,0,0.5,0,0.7
		s0,0.5,0,0.8c0,0.1,0,0.1-0.1,0.1c-0.1,0-0.1,0-0.2,0c-0.1,0-0.1,0-0.2,0c-0.1,0-0.2-0.1-0.3-0.1c-0.1,0-0.1-0.1-0.1-0.1
		c0-0.1,0-0.1,0-0.2c0-0.1,0-0.1,0-0.2c0-0.2,0-0.4,0-0.6s0-0.4,0.1-0.6c0-0.1,0-0.3,0-0.4c0-0.1,0-0.3,0-0.4c0-0.1,0-0.1-0.1-0.1
		c0,0-0.1,0-0.2,0.1s-0.2,0.2-0.3,0.3c-0.1,0.1-0.2,0.2-0.3,0.3c-0.1,0.1-0.1,0.1-0.2,0.2c0,0.3-0.1,0.6-0.1,0.9c0,0.3,0,0.6-0.1,1
		c0,0.1,0,0.1-0.1,0.1c-0.1,0-0.2,0-0.2,0s-0.2-0.1-0.2-0.1c-0.1,0-0.1-0.1-0.2-0.1C167.8,33,167.7,33,167.7,33L167.7,33z"/>
</g>
<g class="st7">
	<path class="st8" d="M55.4,67.3C55.4,67.2,55.4,67.2,55.4,67.3c0.1-0.1,0.1-0.1,0.1-0.1c0.1,0,0.1,0,0.2,0.1c0.1,0,0.1,0.1,0.2,0.1
		c0.1,0,0.1,0.1,0.2,0.1c0,0,0.1,0.1,0.1,0.1c0,0.1-0.1,0.2-0.1,0.3c0,0.1-0.1,0.2-0.1,0.3c-0.1,0.2-0.2,0.4-0.2,0.6
		c-0.1,0.2-0.2,0.4-0.2,0.7c-0.1,0.2-0.2,0.4-0.3,0.6c-0.1,0.2-0.2,0.4-0.3,0.6c0,0-0.1,0.1-0.1,0.1c0,0-0.1,0.1-0.2,0.1
		c0,0,0,0,0,0l-0.5-0.1c-0.2-0.1-0.3-0.1-0.3-0.2c0-0.1-0.1-0.2-0.1-0.3c-0.1-0.3-0.1-0.7-0.2-1.1c-0.1-0.4-0.2-0.9-0.2-1.3
		c0-0.1,0-0.2,0-0.3c0-0.1,0-0.2,0-0.3c0-0.1,0-0.1,0.1-0.2c0,0,0.1,0,0.2,0c0.2,0,0.4,0.1,0.5,0.2c0.1,0.1,0.2,0.2,0.2,0.3
		c0.1,0.3,0.1,0.7,0.1,1.1c0,0.4,0.1,0.8,0.2,1.2L55.4,67.3L55.4,67.3z"/>
</g>
<g class="st7">
	<path class="st8" d="M57.3,70.9c0,0.1,0,0.1-0.1,0.1c-0.1,0-0.2,0-0.3-0.1c-0.1,0-0.2-0.1-0.3-0.2s-0.1-0.1-0.2-0.2
		c0-0.1-0.1-0.2-0.1-0.3v-0.1c0-0.3,0-0.6,0.1-0.9c0-0.3,0.1-0.5,0.1-0.8c0-0.3,0.1-0.5,0.1-0.7c0-0.2,0.1-0.4,0.1-0.5
		c0-0.1,0-0.1,0.1-0.1s0.1,0,0.1,0c0.1,0,0.2,0,0.2,0s0.2,0.1,0.2,0.1c0.1,0,0.1,0.1,0.2,0.1c0,0,0.1,0.1,0.1,0.2c0,0,0,0,0,0
		c0,0,0,0.1,0,0.2c-0.1,0.4-0.1,0.8-0.2,1.3C57.4,69.6,57.4,70.2,57.3,70.9L57.3,70.9z M57.8,65.5c0,0,0.1,0.1,0.1,0.1s0,0.1,0,0.1
		c0,0.1,0,0.1,0,0.2s0,0.2,0,0.2c0,0.1,0,0.1-0.1,0.2s-0.1,0.1-0.1,0.1h-0.1c-0.2,0-0.3-0.1-0.5-0.1c-0.1-0.1-0.2-0.2-0.2-0.4
		c0,0,0-0.1,0-0.2c0-0.1,0-0.2,0-0.2c0-0.1,0.1-0.1,0.1-0.2s0.1-0.1,0.2-0.1c0.1,0,0.2,0,0.3,0C57.6,65.3,57.7,65.4,57.8,65.5
		L57.8,65.5z"/>
	<path class="st8" d="M58.2,68.1c0,0-0.1,0-0.1-0.1c0,0-0.1-0.1-0.1-0.1c0-0.1-0.1-0.1-0.1-0.2c0-0.1,0-0.1,0-0.2c0,0,0-0.1,0-0.1
		c0,0,0.1,0,0.1,0c0.1,0,0.2,0,0.4,0s0.3,0,0.4,0c0-0.3,0.1-0.6,0.1-0.8s0.1-0.5,0.1-0.6c0-0.2,0.1-0.3,0.1-0.4
		c0-0.1,0.1-0.1,0.1-0.1c0.1,0,0.2,0,0.2,0c0.1,0,0.2,0,0.2,0.1c0.1,0,0.1,0,0.2,0.1c0,0,0.1,0.1,0.1,0.1c0,0,0,0.1,0,0.1
		c0,0.2-0.1,0.4-0.1,0.7c0,0.3-0.1,0.6-0.1,0.9c0.1,0,0.2,0,0.3,0s0.2,0,0.2,0c0,0,0,0,0.1,0c0,0,0.1,0.1,0.1,0.1
		c0,0,0.1,0.1,0.1,0.2s0,0.2,0,0.3s0,0.1-0.1,0.1h-0.4c-0.1,0-0.3,0-0.5,0c-0.1,0.5-0.1,1-0.2,1.5s-0.1,0.9-0.1,1.3c0,0,0,0.1,0,0.1
		c0,0-0.1,0-0.1,0c-0.1,0-0.2,0-0.3-0.1s-0.2-0.2-0.3-0.3c0,0,0-0.1,0-0.2c0-0.1,0-0.1,0-0.2c0-0.1,0-0.3,0-0.5c0-0.2,0-0.4,0.1-0.5
		s0-0.4,0.1-0.6c0-0.2,0-0.4,0.1-0.5c-0.1,0-0.1,0-0.2,0C58.4,68,58.3,68,58.2,68.1L58.2,68.1z"/>
</g>
<g class="st7">
	<path class="st8" d="M63.5,68.1c0,0.1,0,0.2,0,0.4c0,0.2,0,0.3,0,0.5c0,0.2,0,0.4,0,0.6s0,0.4,0,0.6c0,0.2,0,0.3,0,0.5
		c0,0.1,0,0.2,0,0.3c0,0.1,0,0.1-0.1,0.1c-0.2,0-0.4,0-0.6-0.1c-0.1-0.1-0.2-0.2-0.2-0.4c0-0.1,0-0.2,0-0.2c0-0.1,0-0.2,0-0.3l0,0
		c-0.1,0.1-0.1,0.3-0.2,0.4c-0.1,0.1-0.2,0.2-0.2,0.3c-0.1,0.1-0.2,0.2-0.3,0.2c-0.1,0.1-0.2,0.1-0.3,0.1c-0.1,0-0.2,0-0.3-0.1
		c-0.1-0.1-0.2-0.1-0.3-0.2c-0.1-0.1-0.2-0.2-0.2-0.4s-0.1-0.3-0.1-0.5c0-0.3,0-0.7,0.1-1s0.2-0.6,0.4-0.8s0.3-0.4,0.5-0.6
		c0.2-0.1,0.4-0.2,0.6-0.2c0.1,0,0.3,0,0.4,0c0.1,0,0.2,0.1,0.2,0.1c0.1,0.1,0.1,0.1,0.1,0.2s0.1,0.1,0.1,0.2c0,0,0.1,0,0.2,0
		c0.1,0,0.1,0,0.2,0s0.1,0.1,0.2,0.1S63.5,68,63.5,68.1L63.5,68.1z M61.5,70.1c0.1,0,0.2,0,0.2-0.1c0.1-0.1,0.2-0.2,0.2-0.3
		c0.1-0.1,0.2-0.2,0.2-0.4c0.1-0.1,0.1-0.3,0.2-0.4c0-0.3,0-0.5,0-0.7c0-0.1-0.1-0.2-0.2-0.2c-0.1,0-0.2,0-0.3,0.1s-0.2,0.2-0.3,0.4
		c-0.1,0.2-0.2,0.3-0.2,0.5s-0.1,0.4-0.1,0.6c0,0.1,0,0.2,0.1,0.2C61.4,70,61.5,70.1,61.5,70.1L61.5,70.1z"/>
	<path class="st8" d="M68.3,70.8c0,0,0,0.1,0,0.1c0,0,0,0-0.1,0c-0.1,0-0.2,0-0.3-0.1s-0.2-0.1-0.2-0.2c-0.1-0.1-0.1-0.1-0.2-0.2
		c0-0.1-0.1-0.1-0.1-0.2c0-0.2,0-0.4,0-0.6c0-0.2,0-0.4,0-0.6l0.1-0.8c0,0,0-0.1,0-0.1c0,0-0.1,0-0.1,0c-0.1,0.1-0.2,0.2-0.4,0.3
		c-0.1,0.1-0.2,0.2-0.3,0.3l-0.1,1.9c0,0,0,0.1,0,0.1c0,0-0.1,0-0.1,0c-0.1,0-0.2,0-0.2-0.1c-0.1,0-0.2-0.1-0.3-0.2
		s-0.1-0.1-0.2-0.2c-0.1-0.1-0.1-0.2-0.1-0.3c0-0.3,0-0.6,0-0.9c0-0.3,0.1-0.6,0.1-0.9c0-0.1,0-0.1,0-0.1c0,0,0,0-0.1,0
		c0,0-0.1,0-0.1,0.1s-0.1,0.1-0.2,0.2c-0.1,0.1-0.2,0.1-0.2,0.2c-0.1,0.1-0.1,0.1-0.1,0.2c0,0.3-0.1,0.6-0.1,0.9c0,0.3,0,0.6-0.1,1
		c0,0.1,0,0.1-0.1,0.1c-0.1,0-0.2,0-0.2,0c-0.1,0-0.2-0.1-0.2-0.1c-0.1,0-0.1-0.1-0.2-0.1c-0.1,0-0.1-0.1-0.1-0.1c0-0.1,0-0.2,0-0.2
		c0-0.3,0-0.7,0-1.1c0-0.4,0.1-0.7,0.1-1c0-0.3,0.1-0.5,0.2-0.7c0.1-0.2,0.1-0.3,0.2-0.3c0.1,0,0.1,0,0.2,0c0.1,0,0.1,0,0.2,0.1
		c0.1,0,0.2,0.1,0.2,0.1c0.1,0,0.1,0.1,0.1,0.2c0,0,0,0,0,0.1c0,0,0,0.1,0,0.1c0,0,0,0.1,0,0.1c0,0,0,0.1,0,0.1
		c0.1-0.1,0.1-0.1,0.2-0.2c0.1-0.1,0.1-0.2,0.2-0.2s0.2-0.1,0.2-0.2s0.1-0.1,0.2-0.1c0,0,0.1,0,0.1,0c0.1,0,0.1,0,0.2,0.1
		c0.1,0,0.1,0.1,0.2,0.1s0.1,0.1,0.2,0.1s0.1,0.1,0.1,0.1c0,0,0,0.1,0,0.1s0,0.1,0,0.1c0.1-0.1,0.1-0.1,0.2-0.2s0.2-0.1,0.2-0.2
		s0.2-0.1,0.2-0.2s0.2-0.1,0.2-0.1c0,0,0.1,0,0.1,0s0.1,0,0.1,0c0.1,0,0.1,0,0.2,0.1c0.1,0,0.2,0.1,0.2,0.1c0.1,0,0.1,0.1,0.2,0.1
		s0.1,0.1,0.1,0.2V68c0,0,0,0.1,0,0.1c0,0.2,0,0.4,0,0.7l-0.1,0.6c0,0.2,0,0.4,0,0.7C68.4,70.2,68.4,70.5,68.3,70.8L68.3,70.8z"/>
	<path class="st8" d="M69.9,70.9c0,0.1,0,0.1-0.1,0.1c-0.1,0-0.2,0-0.3-0.1c-0.1,0-0.2-0.1-0.3-0.2s-0.1-0.1-0.2-0.2
		c0-0.1-0.1-0.2-0.1-0.3v-0.1c0-0.3,0-0.6,0.1-0.9c0-0.3,0.1-0.5,0.1-0.8c0-0.3,0.1-0.5,0.1-0.7c0-0.2,0.1-0.4,0.1-0.5
		c0-0.1,0-0.1,0.1-0.1s0.1,0,0.1,0c0.1,0,0.2,0,0.2,0s0.2,0.1,0.2,0.1s0.1,0.1,0.2,0.1c0,0,0.1,0.1,0.1,0.2c0,0,0,0,0,0
		c0,0,0,0.1,0,0.2c-0.1,0.4-0.1,0.8-0.2,1.3C70,69.6,70,70.2,69.9,70.9L69.9,70.9z M70.4,65.5c0,0,0.1,0.1,0.1,0.1s0,0.1,0,0.1
		c0,0.1,0,0.1,0,0.2s0,0.2,0,0.2c0,0.1,0,0.1-0.1,0.2c0,0-0.1,0.1-0.1,0.1h-0.1c-0.2,0-0.3-0.1-0.5-0.1c-0.1-0.1-0.2-0.2-0.2-0.4
		c0,0,0-0.1,0-0.2c0-0.1,0-0.2,0-0.2c0-0.1,0.1-0.1,0.1-0.2s0.1-0.1,0.2-0.1c0.1,0,0.2,0,0.3,0C70.2,65.3,70.3,65.4,70.4,65.5
		L70.4,65.5z"/>
</g>
<g class="st7">
	<path class="st8" d="M70.7,70.6c0,0,0-0.1,0-0.1s0-0.1,0-0.2c0-0.3,0-0.5,0-0.8c0-0.3,0.1-0.6,0.1-0.8c0-0.3,0.1-0.5,0.1-0.7
		s0.1-0.4,0.1-0.5c0,0,0-0.1,0-0.1c0,0,0.1,0,0.1,0c0.1,0,0.2,0,0.2,0c0.1,0,0.2,0,0.2,0.1c0.1,0,0.1,0.1,0.2,0.1
		c0.1,0,0.1,0.1,0.1,0.1v0l-0.1,0.6c0.1-0.1,0.2-0.2,0.3-0.3c0.1-0.1,0.2-0.2,0.3-0.3c0.1-0.1,0.2-0.2,0.3-0.2
		c0.1-0.1,0.2-0.1,0.2-0.1c0,0,0.1,0,0.2,0c0.1,0,0.2,0.1,0.3,0.1s0.2,0.1,0.3,0.2s0.1,0.1,0.1,0.2c0,0,0,0,0,0c0,0,0,0.1,0,0.1
		c0,0.2,0,0.4-0.1,0.7s0,0.4-0.1,0.6c0,0.2,0,0.5,0,0.7c0,0.2,0,0.5,0,0.8c0,0.1,0,0.1-0.1,0.1c-0.1,0-0.1,0-0.2,0
		c-0.1,0-0.1,0-0.2,0c-0.1,0-0.2-0.1-0.3-0.1c-0.1,0-0.1-0.1-0.1-0.1c0-0.1,0-0.1,0-0.2c0-0.1,0-0.1,0-0.2c0-0.2,0-0.4,0-0.6
		s0-0.4,0.1-0.6c0-0.1,0-0.3,0-0.4c0-0.1,0-0.3,0-0.4c0-0.1,0-0.1-0.1-0.1c0,0-0.1,0-0.2,0.1c-0.1,0.1-0.2,0.2-0.3,0.3
		c-0.1,0.1-0.2,0.2-0.3,0.3c-0.1,0.1-0.1,0.1-0.2,0.2c0,0.3-0.1,0.6-0.1,0.9c0,0.3,0,0.6-0.1,1c0,0.1,0,0.1-0.1,0.1s-0.2,0-0.2,0
		s-0.2-0.1-0.2-0.1s-0.1-0.1-0.2-0.1C70.8,70.6,70.8,70.6,70.7,70.6L70.7,70.6z"/>
</g>
<g class="st7">
	<path class="st8" d="M94.2,67.3C94.2,67.2,94.2,67.2,94.2,67.3c0.1-0.1,0.1-0.1,0.1-0.1c0.1,0,0.1,0,0.2,0.1c0.1,0,0.1,0.1,0.2,0.1
		c0.1,0,0.1,0.1,0.2,0.1c0,0,0.1,0.1,0.1,0.1c0,0.1-0.1,0.2-0.1,0.3c0,0.1-0.1,0.2-0.1,0.3c-0.1,0.2-0.2,0.4-0.2,0.6
		c-0.1,0.2-0.2,0.4-0.2,0.7S94.1,70,94,70.2c-0.1,0.2-0.2,0.4-0.3,0.6c0,0-0.1,0.1-0.1,0.1c0,0-0.1,0.1-0.2,0.1c0,0,0,0,0,0L93,70.8
		c-0.2-0.1-0.3-0.1-0.3-0.2c0-0.1-0.1-0.2-0.1-0.3c-0.1-0.3-0.1-0.7-0.2-1.1c-0.1-0.4-0.2-0.9-0.2-1.3c0-0.1,0-0.2,0-0.3
		c0-0.1,0-0.2,0-0.3c0-0.1,0-0.1,0.1-0.2c0,0,0.1,0,0.2,0c0.2,0,0.4,0.1,0.5,0.2c0.1,0.1,0.2,0.2,0.2,0.3c0.1,0.3,0.1,0.7,0.1,1.1
		c0,0.4,0.1,0.8,0.2,1.2L94.2,67.3L94.2,67.3z"/>
</g>
<g class="st7">
	<path class="st8" d="M96.2,70.9c0,0.1,0,0.1-0.1,0.1c-0.1,0-0.2,0-0.3-0.1c-0.1,0-0.2-0.1-0.3-0.2s-0.1-0.1-0.2-0.2
		c0-0.1-0.1-0.2-0.1-0.3v-0.1c0-0.3,0-0.6,0.1-0.9c0-0.3,0.1-0.5,0.1-0.8c0-0.3,0.1-0.5,0.1-0.7c0-0.2,0.1-0.4,0.1-0.5
		c0-0.1,0-0.1,0.1-0.1s0.1,0,0.1,0c0.1,0,0.2,0,0.2,0s0.2,0.1,0.2,0.1c0.1,0,0.1,0.1,0.2,0.1c0,0,0.1,0.1,0.1,0.2c0,0,0,0,0,0
		c0,0,0,0.1,0,0.2c-0.1,0.4-0.1,0.8-0.2,1.3C96.3,69.6,96.2,70.2,96.2,70.9L96.2,70.9z M96.6,65.5c0,0,0.1,0.1,0.1,0.1s0,0.1,0,0.1
		c0,0.1,0,0.1,0,0.2s0,0.2,0,0.2c0,0.1,0,0.1-0.1,0.2s-0.1,0.1-0.1,0.1h-0.1c-0.2,0-0.3-0.1-0.5-0.1c-0.1-0.1-0.2-0.2-0.2-0.4
		c0,0,0-0.1,0-0.2c0-0.1,0-0.2,0-0.2c0-0.1,0.1-0.1,0.1-0.2s0.1-0.1,0.2-0.1c0.1,0,0.2,0,0.3,0C96.5,65.3,96.6,65.4,96.6,65.5
		L96.6,65.5z"/>
	<path class="st8" d="M97.1,68.1c0,0-0.1,0-0.1-0.1c0,0-0.1-0.1-0.1-0.1c0-0.1-0.1-0.1-0.1-0.2c0-0.1,0-0.1,0-0.2c0,0,0-0.1,0-0.1
		c0,0,0.1,0,0.1,0c0.1,0,0.2,0,0.4,0s0.3,0,0.4,0c0-0.3,0.1-0.6,0.1-0.8s0.1-0.5,0.1-0.6c0-0.2,0.1-0.3,0.1-0.4
		c0-0.1,0.1-0.1,0.1-0.1c0.1,0,0.2,0,0.2,0c0.1,0,0.2,0,0.2,0.1c0.1,0,0.1,0,0.2,0.1c0,0,0.1,0.1,0.1,0.1c0,0,0,0.1,0,0.1
		c0,0.2-0.1,0.4-0.1,0.7c0,0.3-0.1,0.6-0.1,0.9c0.1,0,0.2,0,0.3,0s0.2,0,0.2,0c0,0,0,0,0.1,0c0,0,0.1,0.1,0.1,0.1
		c0,0,0.1,0.1,0.1,0.2s0,0.2,0,0.3s0,0.1-0.1,0.1h-0.4c-0.1,0-0.3,0-0.5,0c-0.1,0.5-0.1,1-0.2,1.5s-0.1,0.9-0.1,1.3c0,0,0,0.1,0,0.1
		c0,0-0.1,0-0.1,0c-0.1,0-0.2,0-0.3-0.1s-0.2-0.2-0.3-0.3c0,0,0-0.1,0-0.2c0-0.1,0-0.1,0-0.2c0-0.1,0-0.3,0-0.5c0-0.2,0-0.4,0.1-0.5
		s0-0.4,0.1-0.6c0-0.2,0-0.4,0.1-0.5c-0.1,0-0.1,0-0.2,0C97.2,68,97.2,68,97.1,68.1L97.1,68.1z"/>
</g>
<g class="st7">
	<path class="st8" d="M102.3,68.1c0,0.1,0,0.2,0,0.4c0,0.2,0,0.3,0,0.5c0,0.2,0,0.4,0,0.6c0,0.2,0,0.4,0,0.6c0,0.2,0,0.3,0,0.5
		c0,0.1,0,0.2,0,0.3c0,0.1,0,0.1-0.1,0.1c-0.2,0-0.4,0-0.6-0.1c-0.1-0.1-0.2-0.2-0.2-0.4c0-0.1,0-0.2,0-0.2c0-0.1,0-0.2,0-0.3l0,0
		c-0.1,0.1-0.1,0.3-0.2,0.4c-0.1,0.1-0.2,0.2-0.2,0.3c-0.1,0.1-0.2,0.2-0.3,0.2c-0.1,0.1-0.2,0.1-0.3,0.1c-0.1,0-0.2,0-0.3-0.1
		c-0.1-0.1-0.2-0.1-0.3-0.2c-0.1-0.1-0.2-0.2-0.2-0.4s-0.1-0.3-0.1-0.5c0-0.3,0-0.7,0.1-1s0.2-0.6,0.4-0.8s0.3-0.4,0.5-0.6
		c0.2-0.1,0.4-0.2,0.6-0.2c0.1,0,0.3,0,0.4,0c0.1,0,0.2,0.1,0.2,0.1c0.1,0.1,0.1,0.1,0.1,0.2s0.1,0.1,0.1,0.2c0,0,0.1,0,0.2,0
		c0.1,0,0.1,0,0.2,0s0.1,0.1,0.2,0.1S102.3,68,102.3,68.1L102.3,68.1z M100.4,70.1c0.1,0,0.2,0,0.2-0.1c0.1-0.1,0.2-0.2,0.2-0.3
		c0.1-0.1,0.2-0.2,0.2-0.4c0.1-0.1,0.1-0.3,0.2-0.4c0-0.3,0-0.5,0-0.7c0-0.1-0.1-0.2-0.2-0.2c-0.1,0-0.2,0-0.3,0.1s-0.2,0.2-0.3,0.4
		c-0.1,0.2-0.2,0.3-0.2,0.5s-0.1,0.4-0.1,0.6c0,0.1,0,0.2,0.1,0.2C100.3,70,100.3,70.1,100.4,70.1L100.4,70.1z"/>
</g>
<g class="st7">
	<path class="st8" d="M107.2,70.8c0,0,0,0.1,0,0.1c0,0,0,0-0.1,0c-0.1,0-0.2,0-0.3-0.1c-0.1,0-0.2-0.1-0.2-0.2
		c-0.1-0.1-0.1-0.1-0.2-0.2c0-0.1-0.1-0.1-0.1-0.2c0-0.2,0-0.4,0-0.6c0-0.2,0-0.4,0-0.6l0.1-0.8c0,0,0-0.1,0-0.1c0,0-0.1,0-0.1,0
		c-0.1,0.1-0.2,0.2-0.4,0.3c-0.1,0.1-0.2,0.2-0.3,0.3l-0.1,1.9c0,0,0,0.1,0,0.1c0,0-0.1,0-0.1,0c-0.1,0-0.2,0-0.2-0.1
		c-0.1,0-0.2-0.1-0.3-0.2s-0.1-0.1-0.2-0.2c-0.1-0.1-0.1-0.2-0.1-0.3c0-0.3,0-0.6,0-0.9c0-0.3,0.1-0.6,0.1-0.9c0-0.1,0-0.1,0-0.1
		c0,0,0,0-0.1,0c0,0-0.1,0-0.1,0.1c-0.1,0-0.2,0.1-0.2,0.2c-0.1,0.1-0.2,0.1-0.2,0.2c-0.1,0.1-0.1,0.1-0.1,0.2
		c0,0.3-0.1,0.6-0.1,0.9s0,0.6-0.1,1c0,0.1,0,0.1-0.1,0.1c-0.1,0-0.2,0-0.2,0c-0.1,0-0.2-0.1-0.2-0.1c-0.1,0-0.1-0.1-0.2-0.1
		c-0.1,0-0.1-0.1-0.1-0.1c0-0.1,0-0.2,0-0.2c0-0.3,0-0.7,0-1.1c0-0.4,0.1-0.7,0.1-1c0-0.3,0.1-0.5,0.2-0.7s0.1-0.3,0.2-0.3
		c0.1,0,0.1,0,0.2,0s0.1,0,0.2,0.1c0.1,0,0.2,0.1,0.2,0.1c0.1,0,0.1,0.1,0.1,0.2c0,0,0,0,0,0.1c0,0,0,0.1,0,0.1s0,0.1,0,0.1
		c0,0,0,0.1,0,0.1c0.1-0.1,0.1-0.1,0.2-0.2c0.1-0.1,0.1-0.2,0.2-0.2s0.2-0.1,0.2-0.2c0.1,0,0.1-0.1,0.2-0.1c0,0,0.1,0,0.1,0
		c0.1,0,0.1,0,0.2,0.1s0.1,0.1,0.2,0.1s0.1,0.1,0.2,0.1s0.1,0.1,0.1,0.1c0,0,0,0.1,0,0.1s0,0.1,0,0.1c0.1-0.1,0.1-0.1,0.2-0.2
		s0.2-0.1,0.2-0.2s0.2-0.1,0.2-0.2s0.2-0.1,0.2-0.1c0,0,0.1,0,0.1,0c0,0,0.1,0,0.1,0c0.1,0,0.1,0,0.2,0.1c0.1,0,0.2,0.1,0.2,0.1
		c0.1,0,0.1,0.1,0.2,0.1s0.1,0.1,0.1,0.2V68c0,0,0,0.1,0,0.1c0,0.2,0,0.4,0,0.7l-0.1,0.6c0,0.2,0,0.4,0,0.7
		C107.3,70.2,107.2,70.5,107.2,70.8L107.2,70.8z"/>
</g>
<g class="st7">
	<path class="st8" d="M108.8,70.9c0,0.1,0,0.1-0.1,0.1c-0.1,0-0.2,0-0.3-0.1c-0.1,0-0.2-0.1-0.3-0.2c-0.1-0.1-0.1-0.1-0.2-0.2
		c0-0.1-0.1-0.2-0.1-0.3v-0.1c0-0.3,0-0.6,0.1-0.9c0-0.3,0.1-0.5,0.1-0.8c0-0.3,0.1-0.5,0.1-0.7c0-0.2,0.1-0.4,0.1-0.5
		c0-0.1,0-0.1,0.1-0.1c0.1,0,0.1,0,0.1,0c0.1,0,0.2,0,0.2,0s0.2,0.1,0.2,0.1c0.1,0,0.1,0.1,0.2,0.1s0.1,0.1,0.1,0.2c0,0,0,0,0,0
		c0,0,0,0.1,0,0.2c-0.1,0.4-0.1,0.8-0.2,1.3C108.9,69.6,108.8,70.2,108.8,70.9L108.8,70.9z M109.3,65.5c0,0,0.1,0.1,0.1,0.1
		c0,0,0,0.1,0,0.1c0,0.1,0,0.1,0,0.2c0,0.1,0,0.2,0,0.2c0,0.1,0,0.1-0.1,0.2c0,0-0.1,0.1-0.1,0.1H109c-0.2,0-0.3-0.1-0.5-0.1
		c-0.1-0.1-0.2-0.2-0.2-0.4c0,0,0-0.1,0-0.2c0-0.1,0-0.2,0-0.2c0-0.1,0.1-0.1,0.1-0.2s0.1-0.1,0.2-0.1c0.1,0,0.2,0,0.3,0
		C109.1,65.3,109.2,65.4,109.3,65.5L109.3,65.5z"/>
</g>
<g class="st7">
	<path class="st8" d="M109.6,70.6c0,0,0-0.1,0-0.1s0-0.1,0-0.2c0-0.3,0-0.5,0-0.8c0-0.3,0.1-0.6,0.1-0.8c0-0.3,0.1-0.5,0.1-0.7
		s0.1-0.4,0.1-0.5c0,0,0-0.1,0-0.1c0,0,0.1,0,0.1,0c0.1,0,0.2,0,0.2,0s0.2,0,0.2,0.1c0.1,0,0.1,0.1,0.2,0.1c0.1,0,0.1,0.1,0.1,0.1v0
		l-0.1,0.6c0.1-0.1,0.2-0.2,0.3-0.3c0.1-0.1,0.2-0.2,0.3-0.3c0.1-0.1,0.2-0.2,0.3-0.2c0.1-0.1,0.2-0.1,0.2-0.1c0,0,0.1,0,0.2,0
		c0.1,0,0.2,0.1,0.3,0.1s0.2,0.1,0.3,0.2c0.1,0.1,0.1,0.1,0.1,0.2c0,0,0,0,0,0c0,0,0,0.1,0,0.1c0,0.2,0,0.4-0.1,0.7s0,0.4-0.1,0.6
		c0,0.2,0,0.5,0,0.7c0,0.2,0,0.5,0,0.8c0,0.1,0,0.1-0.1,0.1c-0.1,0-0.1,0-0.2,0c-0.1,0-0.1,0-0.2,0c-0.1,0-0.2-0.1-0.3-0.1
		c-0.1,0-0.1-0.1-0.1-0.1c0-0.1,0-0.1,0-0.2c0-0.1,0-0.1,0-0.2c0-0.2,0-0.4,0-0.6s0-0.4,0.1-0.6c0-0.1,0-0.3,0-0.4
		c0-0.1,0-0.3,0-0.4c0-0.1,0-0.1-0.1-0.1c0,0-0.1,0-0.2,0.1c-0.1,0.1-0.2,0.2-0.3,0.3c-0.1,0.1-0.2,0.2-0.3,0.3
		c-0.1,0.1-0.1,0.1-0.2,0.2c0,0.3-0.1,0.6-0.1,0.9c0,0.3,0,0.6-0.1,1c0,0.1,0,0.1-0.1,0.1c-0.1,0-0.2,0-0.2,0s-0.2-0.1-0.2-0.1
		c-0.1,0-0.1-0.1-0.2-0.1C109.7,70.6,109.6,70.6,109.6,70.6L109.6,70.6z"/>
</g>
<g class="st7">
	<path class="st8" d="M133,67.3C133,67.2,133,67.2,133,67.3c0.1-0.1,0.1-0.1,0.1-0.1c0.1,0,0.1,0,0.2,0.1c0.1,0,0.1,0.1,0.2,0.1
		c0.1,0,0.1,0.1,0.2,0.1s0.1,0.1,0.1,0.1c0,0.1-0.1,0.2-0.1,0.3c0,0.1-0.1,0.2-0.1,0.3c-0.1,0.2-0.2,0.4-0.2,0.6
		c-0.1,0.2-0.2,0.4-0.2,0.7s-0.2,0.4-0.3,0.6c-0.1,0.2-0.2,0.4-0.3,0.6c0,0-0.1,0.1-0.1,0.1s-0.1,0.1-0.2,0.1c0,0,0,0,0,0l-0.5-0.1
		c-0.2-0.1-0.3-0.1-0.3-0.2s-0.1-0.2-0.1-0.3c-0.1-0.3-0.1-0.7-0.2-1.1c-0.1-0.4-0.2-0.9-0.2-1.3c0-0.1,0-0.2,0-0.3
		c0-0.1,0-0.2,0-0.3c0-0.1,0-0.1,0.1-0.2s0.1,0,0.2,0c0.2,0,0.4,0.1,0.5,0.2c0.1,0.1,0.2,0.2,0.2,0.3c0.1,0.3,0.1,0.7,0.1,1.1
		c0,0.4,0.1,0.8,0.2,1.2L133,67.3L133,67.3z"/>
</g>
<g class="st7">
	<path class="st8" d="M134.9,70.9c0,0.1,0,0.1-0.1,0.1c-0.1,0-0.2,0-0.3-0.1c-0.1,0-0.2-0.1-0.3-0.2c-0.1-0.1-0.1-0.1-0.2-0.2
		c0-0.1-0.1-0.2-0.1-0.3v-0.1c0-0.3,0-0.6,0.1-0.9c0-0.3,0.1-0.5,0.1-0.8c0-0.3,0.1-0.5,0.1-0.7s0.1-0.4,0.1-0.5
		c0-0.1,0-0.1,0.1-0.1c0.1,0,0.1,0,0.1,0c0.1,0,0.2,0,0.2,0s0.2,0.1,0.2,0.1s0.1,0.1,0.2,0.1c0,0,0.1,0.1,0.1,0.2c0,0,0,0,0,0
		c0,0,0,0.1,0,0.2c-0.1,0.4-0.1,0.8-0.2,1.3C135,69.6,135,70.2,134.9,70.9L134.9,70.9z M135.4,65.5c0,0,0.1,0.1,0.1,0.1
		c0,0,0,0.1,0,0.1c0,0.1,0,0.1,0,0.2c0,0.1,0,0.2,0,0.2c0,0.1,0,0.1-0.1,0.2c0,0-0.1,0.1-0.1,0.1h-0.1c-0.2,0-0.3-0.1-0.5-0.1
		c-0.1-0.1-0.2-0.2-0.2-0.4c0,0,0-0.1,0-0.2c0-0.1,0-0.2,0-0.2c0-0.1,0.1-0.1,0.1-0.2s0.1-0.1,0.2-0.1c0.1,0,0.2,0,0.3,0
		C135.2,65.3,135.3,65.4,135.4,65.5L135.4,65.5z"/>
	<path class="st8" d="M135.8,68.1c0,0-0.1,0-0.1-0.1c0,0-0.1-0.1-0.1-0.1c0-0.1-0.1-0.1-0.1-0.2c0-0.1,0-0.1,0-0.2c0,0,0-0.1,0-0.1
		c0,0,0.1,0,0.1,0c0.1,0,0.2,0,0.4,0c0.1,0,0.3,0,0.4,0c0-0.3,0.1-0.6,0.1-0.8s0.1-0.5,0.1-0.6c0-0.2,0.1-0.3,0.1-0.4
		s0.1-0.1,0.1-0.1c0.1,0,0.2,0,0.2,0s0.2,0,0.2,0.1s0.1,0,0.2,0.1c0,0,0.1,0.1,0.1,0.1c0,0,0,0.1,0,0.1c0,0.2-0.1,0.4-0.1,0.7
		c0,0.3-0.1,0.6-0.1,0.9c0.1,0,0.2,0,0.3,0s0.2,0,0.2,0c0,0,0,0,0.1,0c0,0,0.1,0.1,0.1,0.1c0,0,0.1,0.1,0.1,0.2c0,0.1,0,0.2,0,0.3
		s0,0.1-0.1,0.1h-0.4c-0.1,0-0.3,0-0.5,0c-0.1,0.5-0.1,1-0.2,1.5c-0.1,0.5-0.1,0.9-0.1,1.3c0,0,0,0.1,0,0.1c0,0-0.1,0-0.1,0
		c-0.1,0-0.2,0-0.3-0.1s-0.2-0.2-0.3-0.3c0,0,0-0.1,0-0.2c0-0.1,0-0.1,0-0.2c0-0.1,0-0.3,0-0.5c0-0.2,0-0.4,0.1-0.5
		c0-0.2,0-0.4,0.1-0.6c0-0.2,0-0.4,0.1-0.5c-0.1,0-0.1,0-0.2,0C136,68,135.9,68,135.8,68.1L135.8,68.1z"/>
</g>
<g class="st7">
	<path class="st8" d="M141,68.1c0,0.1,0,0.2,0,0.4c0,0.2,0,0.3,0,0.5c0,0.2,0,0.4,0,0.6c0,0.2,0,0.4,0,0.6c0,0.2,0,0.3,0,0.5
		c0,0.1,0,0.2,0,0.3c0,0.1,0,0.1-0.1,0.1c-0.2,0-0.4,0-0.6-0.1c-0.1-0.1-0.2-0.2-0.2-0.4c0-0.1,0-0.2,0-0.2c0-0.1,0-0.2,0-0.3l0,0
		c-0.1,0.1-0.1,0.3-0.2,0.4c-0.1,0.1-0.2,0.2-0.2,0.3s-0.2,0.2-0.3,0.2S139,71,138.9,71c-0.1,0-0.2,0-0.3-0.1
		c-0.1-0.1-0.2-0.1-0.3-0.2c-0.1-0.1-0.2-0.2-0.2-0.4S138,70,138,69.8c0-0.3,0-0.7,0.1-1s0.2-0.6,0.4-0.8c0.2-0.2,0.3-0.4,0.5-0.6
		c0.2-0.1,0.4-0.2,0.6-0.2c0.1,0,0.3,0,0.4,0c0.1,0,0.2,0.1,0.2,0.1c0.1,0.1,0.1,0.1,0.1,0.2s0.1,0.1,0.1,0.2c0,0,0.1,0,0.2,0
		c0.1,0,0.1,0,0.2,0c0.1,0,0.1,0.1,0.2,0.1S141.1,68,141,68.1L141,68.1z M139.1,70.1c0.1,0,0.2,0,0.2-0.1c0.1-0.1,0.2-0.2,0.2-0.3
		c0.1-0.1,0.2-0.2,0.2-0.4c0.1-0.1,0.1-0.3,0.2-0.4c0-0.3,0-0.5,0-0.7c0-0.1-0.1-0.2-0.2-0.2c-0.1,0-0.2,0-0.3,0.1s-0.2,0.2-0.3,0.4
		c-0.1,0.2-0.2,0.3-0.2,0.5s-0.1,0.4-0.1,0.6c0,0.1,0,0.2,0.1,0.2C139,70,139.1,70.1,139.1,70.1L139.1,70.1z"/>
</g>
<g class="st7">
	<path class="st8" d="M145.9,70.8c0,0,0,0.1,0,0.1c0,0,0,0-0.1,0c-0.1,0-0.2,0-0.3-0.1c-0.1,0-0.2-0.1-0.2-0.2
		c-0.1-0.1-0.1-0.1-0.2-0.2c0-0.1-0.1-0.1-0.1-0.2c0-0.2,0-0.4,0-0.6c0-0.2,0-0.4,0-0.6l0.1-0.8c0,0,0-0.1,0-0.1c0,0-0.1,0-0.1,0
		c-0.1,0.1-0.2,0.2-0.4,0.3c-0.1,0.1-0.2,0.2-0.3,0.3l-0.1,1.9c0,0,0,0.1,0,0.1c0,0-0.1,0-0.1,0c-0.1,0-0.2,0-0.2-0.1
		c-0.1,0-0.2-0.1-0.3-0.2s-0.1-0.1-0.2-0.2c-0.1-0.1-0.1-0.2-0.1-0.3c0-0.3,0-0.6,0-0.9c0-0.3,0.1-0.6,0.1-0.9c0-0.1,0-0.1,0-0.1
		c0,0,0,0-0.1,0c0,0-0.1,0-0.1,0.1c-0.1,0-0.2,0.1-0.2,0.2c-0.1,0.1-0.2,0.1-0.2,0.2c-0.1,0.1-0.1,0.1-0.1,0.2
		c0,0.3-0.1,0.6-0.1,0.9s0,0.6-0.1,1c0,0.1,0,0.1-0.1,0.1c-0.1,0-0.2,0-0.2,0c-0.1,0-0.2-0.1-0.2-0.1c-0.1,0-0.1-0.1-0.2-0.1
		s-0.1-0.1-0.1-0.1c0-0.1,0-0.2,0-0.2c0-0.3,0-0.7,0-1.1c0-0.4,0.1-0.7,0.1-1s0.1-0.5,0.2-0.7s0.1-0.3,0.2-0.3c0.1,0,0.1,0,0.2,0
		s0.1,0,0.2,0.1c0.1,0,0.2,0.1,0.2,0.1c0.1,0,0.1,0.1,0.1,0.2c0,0,0,0,0,0.1c0,0,0,0.1,0,0.1s0,0.1,0,0.1c0,0,0,0.1,0,0.1
		c0.1-0.1,0.1-0.1,0.2-0.2c0.1-0.1,0.1-0.2,0.2-0.2s0.2-0.1,0.2-0.2c0.1,0,0.1-0.1,0.2-0.1c0,0,0.1,0,0.1,0c0.1,0,0.1,0,0.2,0.1
		s0.1,0.1,0.2,0.1s0.1,0.1,0.2,0.1s0.1,0.1,0.1,0.1c0,0,0,0.1,0,0.1s0,0.1,0,0.1c0.1-0.1,0.1-0.1,0.2-0.2s0.2-0.1,0.2-0.2
		s0.2-0.1,0.2-0.2s0.2-0.1,0.2-0.1c0,0,0.1,0,0.1,0c0,0,0.1,0,0.1,0c0.1,0,0.1,0,0.2,0.1c0.1,0,0.2,0.1,0.2,0.1
		c0.1,0,0.1,0.1,0.2,0.1s0.1,0.1,0.1,0.2V68c0,0,0,0.1,0,0.1c0,0.2,0,0.4,0,0.7l-0.1,0.6c0,0.2,0,0.4,0,0.7
		C146,70.2,146,70.5,145.9,70.8L145.9,70.8z"/>
</g>
<g class="st7">
	<path class="st8" d="M147.5,70.9c0,0.1,0,0.1-0.1,0.1c-0.1,0-0.2,0-0.3-0.1c-0.1,0-0.2-0.1-0.3-0.2c-0.1-0.1-0.1-0.1-0.2-0.2
		c0-0.1-0.1-0.2-0.1-0.3v-0.1c0-0.3,0-0.6,0.1-0.9c0-0.3,0.1-0.5,0.1-0.8c0-0.3,0.1-0.5,0.1-0.7c0-0.2,0.1-0.4,0.1-0.5
		c0-0.1,0-0.1,0.1-0.1c0.1,0,0.1,0,0.1,0c0.1,0,0.2,0,0.2,0s0.2,0.1,0.2,0.1c0.1,0,0.1,0.1,0.2,0.1s0.1,0.1,0.1,0.2c0,0,0,0,0,0
		c0,0,0,0.1,0,0.2c-0.1,0.4-0.1,0.8-0.2,1.3C147.6,69.6,147.6,70.2,147.5,70.9L147.5,70.9z M148,65.5c0,0,0.1,0.1,0.1,0.1
		c0,0,0,0.1,0,0.1c0,0.1,0,0.1,0,0.2c0,0.1,0,0.2,0,0.2c0,0.1,0,0.1-0.1,0.2c0,0-0.1,0.1-0.1,0.1h-0.1c-0.2,0-0.3-0.1-0.5-0.1
		c-0.1-0.1-0.2-0.2-0.2-0.4c0,0,0-0.1,0-0.2c0-0.1,0-0.2,0-0.2c0-0.1,0.1-0.1,0.1-0.2s0.1-0.1,0.2-0.1c0.1,0,0.2,0,0.3,0
		C147.8,65.3,147.9,65.4,148,65.5L148,65.5z"/>
</g>
<g class="st7">
	<path class="st8" d="M148.3,70.6c0,0,0-0.1,0-0.1s0-0.1,0-0.2c0-0.3,0-0.5,0-0.8c0-0.3,0.1-0.6,0.1-0.8c0-0.3,0.1-0.5,0.1-0.7
		s0.1-0.4,0.1-0.5c0,0,0-0.1,0-0.1c0,0,0.1,0,0.1,0c0.1,0,0.2,0,0.2,0s0.2,0,0.2,0.1c0.1,0,0.1,0.1,0.2,0.1c0.1,0,0.1,0.1,0.1,0.1v0
		l-0.1,0.6c0.1-0.1,0.2-0.2,0.3-0.3c0.1-0.1,0.2-0.2,0.3-0.3c0.1-0.1,0.2-0.2,0.3-0.2c0.1-0.1,0.2-0.1,0.2-0.1c0,0,0.1,0,0.2,0
		c0.1,0,0.2,0.1,0.3,0.1s0.2,0.1,0.3,0.2c0.1,0.1,0.1,0.1,0.1,0.2c0,0,0,0,0,0c0,0,0,0.1,0,0.1c0,0.2,0,0.4-0.1,0.7s0,0.4-0.1,0.6
		c0,0.2,0,0.5,0,0.7c0,0.2,0,0.5,0,0.8c0,0.1,0,0.1-0.1,0.1c-0.1,0-0.1,0-0.2,0c-0.1,0-0.1,0-0.2,0c-0.1,0-0.2-0.1-0.3-0.1
		c-0.1,0-0.1-0.1-0.1-0.1c0-0.1,0-0.1,0-0.2c0-0.1,0-0.1,0-0.2c0-0.2,0-0.4,0-0.6s0-0.4,0.1-0.6c0-0.1,0-0.3,0-0.4
		c0-0.1,0-0.3,0-0.4c0-0.1,0-0.1-0.1-0.1c0,0-0.1,0-0.2,0.1c-0.1,0.1-0.2,0.2-0.3,0.3c-0.1,0.1-0.2,0.2-0.3,0.3
		c-0.1,0.1-0.1,0.1-0.2,0.2c0,0.3-0.1,0.6-0.1,0.9c0,0.3,0,0.6-0.1,1c0,0.1,0,0.1-0.1,0.1c-0.1,0-0.2,0-0.2,0s-0.2-0.1-0.2-0.1
		c-0.1,0-0.1-0.1-0.2-0.1C148.4,70.6,148.4,70.6,148.3,70.6L148.3,70.6z"/>
</g>
</svg>
