<?xml version="1.0" encoding="utf-8"?>
<!-- Generator: Adobe Illustrator 23.0.5, SVG Export Plug-In . SVG Version: 6.00 Build 0)  -->
<svg version="1.1" id="Слой_1" xmlns="http://www.w3.org/2000/svg" xmlns:xlink="http://www.w3.org/1999/xlink" x="0px" y="0px"
	 viewBox="0 0 112 112" style="enable-background:new 0 0 112 112;" xml:space="preserve">
<style type="text/css">
	.st0{enable-background:new    ;}
	.st1{fill:#231F20;}
	.st2{fill:none;stroke:#231F20;stroke-width:2.28;stroke-linecap:round;stroke-linejoin:round;}
</style>
<title>icons</title>
<g class="st0">
	<path class="st1" d="M43.4,86.5c0,0-0.1-0.1-0.2-0.2c-0.1-0.1-0.2-0.3-0.3-0.4c-0.1-0.1-0.2-0.3-0.3-0.5c-0.1-0.2-0.1-0.3-0.1-0.4
		c0,0,0-0.1,0-0.3c0-0.1,0.2-0.3,0.4-0.5c0.3-0.3,0.7-0.6,1-1c0.4-0.3,0.8-0.7,1.1-1s0.7-0.7,1-1.1c0.3-0.4,0.6-0.8,0.8-1.2
		c-0.4,0-0.8,0-1.3,0.1c-0.5,0-1,0.1-1.5,0.1c-0.5,0-1,0.1-1.4,0.1c-0.4,0-0.8,0.1-1.1,0.1c-0.3,0-0.5-0.1-0.6-0.2
		c-0.1-0.1-0.2-0.3-0.3-0.5c-0.1-0.1-0.2-0.3-0.3-0.6s-0.2-0.7-0.2-1c0-0.6,1.9-1,5.8-1.2H47c0.2,0,0.5,0.1,0.9,0.2
		c0.2,0.1,0.4,0.2,0.6,0.4c0.2,0.2,0.4,0.4,0.7,0.6c0.2,0.2,0.4,0.4,0.5,0.6c0.1,0.2,0.2,0.3,0.2,0.4c0,0.1,0,0.1,0,0.2
		c0,0.1,0,0.1-0.1,0.2c-0.2,0.4-0.5,0.9-0.8,1.3c-0.3,0.4-0.6,0.8-0.9,1.2c-0.3,0.4-0.6,0.7-0.9,1c-0.3,0.3-0.6,0.6-0.8,0.8
		l-0.5,0.5c0.5,0.1,0.9,0.3,1.3,0.5s0.8,0.5,1.1,0.9c0.3,0.4,0.6,0.8,0.8,1.2s0.3,1,0.3,1.5c0,0.7-0.1,1.4-0.4,2.1
		c-0.3,0.7-0.7,1.2-1.1,1.7s-1,0.9-1.7,1.2c-0.6,0.3-1.3,0.4-2,0.4c-0.7,0-1.3-0.1-1.9-0.4c-0.6-0.3-1.1-0.6-1.5-0.9
		s-0.7-0.7-0.9-1.1c-0.2-0.4-0.4-0.8-0.4-1.1c0-0.2,0-0.3,0.1-0.4c0.1-0.1,0.2-0.2,0.4-0.2c0.2,0,0.4,0.1,0.6,0.2
		c0.2,0.1,0.4,0.3,0.7,0.5c0.3,0.2,0.5,0.4,0.9,0.5c0.3,0.1,0.6,0.2,1,0.2s0.7,0,1-0.2c0.3-0.1,0.6-0.3,0.9-0.5
		c0.3-0.2,0.5-0.5,0.6-0.8c0.2-0.3,0.3-0.7,0.3-1.1c0-0.7-0.1-1.3-0.5-1.8c-0.4-0.4-0.8-0.7-1.4-0.6c-0.1,0-0.1,0-0.2,0.1
		c-0.1,0-0.2,0.1-0.3,0.1c-0.1,0-0.2-0.1-0.3-0.2L43.4,86.5z"/>
	<path class="st1" d="M59.3,87.6c-0.4,0-1,0-1.6,0c-0.7,0-1.3,0-2,0.1c-0.7,0-1.3,0.1-2,0.1c-0.6,0-1.2,0.1-1.6,0.1
		c-0.2,0-0.4-0.1-0.5-0.2s-0.3-0.3-0.4-0.5S51,87,50.9,86.8s-0.1-0.4-0.1-0.5c0-0.1,0-0.3,0.1-0.3c0.1-0.1,0.1-0.1,0.2-0.1
		c0.4,0,1-0.1,1.6-0.1c0.6,0,1.3-0.1,2-0.1s1.3-0.1,2-0.1c0.7,0,1.2,0,1.7,0h0.4h0c0.1,0,0.3,0.2,0.5,0.5c0.2,0.3,0.3,0.7,0.3,1.2
		C59.6,87.5,59.6,87.6,59.3,87.6L59.3,87.6z"/>
	<path class="st1" d="M62.8,86.6c-0.2,0-0.4,0-0.5-0.2c-0.2-0.1-0.2-0.3-0.2-0.5c0-0.4,0-0.8,0.1-1.4c0.1-0.6,0.1-1.2,0.2-1.7
		c0.1-0.6,0.2-1.2,0.2-1.7c0.1-0.5,0.1-1,0.1-1.3c0-0.1,0-0.2-0.1-0.3c-0.1-0.1-0.2-0.2-0.3-0.3c-0.1-0.1-0.2-0.2-0.3-0.4
		c-0.1-0.1-0.1-0.3-0.1-0.5c0-0.2,0.1-0.4,0.3-0.5c0.2-0.1,0.3-0.2,0.5-0.2c1-0.3,2.1-0.5,3.3-0.8c1.1-0.2,2.4-0.4,3.9-0.4
		c0.4,0,0.7,0,1,0.1c0.1,0,0.2,0.2,0.3,0.3c0.1,0.2,0.2,0.4,0.3,0.6c0.1,0.2,0.2,0.5,0.3,0.7c0.1,0.2,0.1,0.4,0.1,0.6
		c0,0.1-0.1,0.2-0.2,0.3c-0.1,0.1-0.3,0.1-0.4,0.1c-1,0-1.9,0-2.6,0.1s-1.6,0.3-2.4,0.5c-0.1,0.2-0.1,0.5-0.2,0.8
		c-0.1,0.3-0.1,0.7-0.2,1.1c0,0.4-0.1,0.8-0.1,1.1c0,0.4-0.1,0.7-0.1,1.1c0.4-0.2,1-0.3,1.6-0.3c0.5,0,1.1,0.1,1.6,0.3
		c0.5,0.2,0.9,0.4,1.3,0.8c0.4,0.4,0.7,0.8,0.9,1.2s0.3,1,0.3,1.6c0,0.9-0.2,1.7-0.5,2.5c-0.3,0.8-0.7,1.4-1.3,1.9
		c-0.5,0.5-1.1,0.9-1.8,1.2c-0.7,0.3-1.4,0.4-2.1,0.4c-0.6,0-1.1-0.1-1.6-0.2c-0.5-0.1-0.9-0.3-1.2-0.6s-0.7-0.5-0.9-0.8
		c-0.3-0.3-0.5-0.6-0.7-1c-0.1-0.1-0.1-0.2-0.1-0.4c0-0.2,0-0.3,0-0.5s0-0.3,0.1-0.5s0.2-0.2,0.4-0.2c0.1,0,0.3,0.1,0.5,0.2
		c0.2,0.1,0.4,0.3,0.6,0.5c0.2,0.2,0.4,0.3,0.7,0.5C63.4,91,63.7,91,64,91c0.4,0,0.8,0,1.1-0.1c0.4-0.1,0.7-0.2,1-0.4
		c0.3-0.2,0.6-0.5,0.8-0.8c0.2-0.3,0.3-0.8,0.4-1.3c0-0.6-0.1-1.1-0.4-1.4c-0.3-0.4-0.8-0.6-1.5-0.6c-0.5,0-1,0.1-1.5,0.2
		c-0.4,0.1-0.8,0.2-1,0.2L62.8,86.6z"/>
</g>
<g class="st0">
	<path class="st1" d="M39.8,103.9c-0.1,0-0.1-0.1-0.2-0.1c0-0.1-0.1-0.1-0.1-0.2c-0.2-0.4-0.3-0.8-0.4-1c-0.1-0.3-0.2-0.5-0.3-0.6
		c-0.1-0.2-0.1-0.3-0.2-0.4c0-0.1-0.1-0.2-0.1-0.3c0,0.4-0.1,0.7-0.1,1.1c0,0.4-0.1,0.8-0.1,1.2c0,0.4-0.1,0.8-0.1,1.1
		c0,0.4,0,0.7-0.1,1c0,0.1,0,0.1-0.1,0.2c-0.1,0-0.1,0.1-0.2,0.1c-0.1,0-0.1,0-0.2,0s-0.2,0-0.2-0.1c-0.4-0.1-0.7-0.3-0.9-0.5
		s-0.3-0.5-0.3-1c0-0.4,0-0.8,0.1-1.4c0-0.5,0.1-1.1,0.2-1.7c0.1-0.6,0.1-1.1,0.2-1.6c0.1-0.5,0.1-0.8,0.2-1.1c0,0,0.1-0.1,0.1-0.2
		s0.2-0.1,0.2-0.1c0.1,0,0.2,0,0.4,0c0.1,0,0.3,0,0.4,0s0.3,0,0.4,0.1c0.1,0,0.2,0.1,0.3,0.1l0.2,0.2c0.1,0.1,0.2,0.3,0.3,0.6
		s0.2,0.5,0.4,0.9s0.3,0.6,0.4,1c0.1,0.3,0.3,0.7,0.4,1c0.3-0.4,0.6-0.9,0.8-1.3c0.3-0.5,0.6-0.9,0.8-1.3c0.3-0.4,0.5-0.7,0.7-0.9
		s0.4-0.4,0.6-0.4h0.1l0.3,0c0.1,0,0.3,0,0.4,0c0.1,0,0.3,0,0.4,0.1c0.1,0,0.2,0.1,0.3,0.1s0.1,0.1,0.1,0.3v0.1
		c0,0.3-0.1,0.8-0.1,1.3c-0.1,0.5-0.1,1.1-0.2,1.7s-0.1,1.2-0.1,1.8c0,0.6,0,1.1,0,1.5v0.3c0,0.1,0,0.2-0.1,0.2s-0.1,0.1-0.2,0.1
		c-0.1,0-0.3-0.1-0.6-0.2c-0.2-0.1-0.5-0.2-0.6-0.3c-0.3-0.1-0.4-0.2-0.5-0.4c0-0.1-0.1-0.3-0.1-0.6c0-0.5,0-0.9,0.1-1.5
		s0.1-1.1,0.2-1.7c0,0.1-0.1,0.3-0.3,0.5c-0.2,0.2-0.3,0.5-0.5,0.8c-0.2,0.3-0.3,0.5-0.5,0.8c-0.2,0.2-0.3,0.4-0.3,0.5
		c0,0.1-0.1,0.1-0.2,0.2c-0.1,0-0.1,0.1-0.2,0.1c-0.1,0-0.3,0-0.4-0.1c-0.1,0-0.3-0.1-0.4-0.1L39.8,103.9z"/>
	<path class="st1" d="M53.1,99.1c0,0.5-0.1,1-0.1,1.6c-0.1,0.6-0.1,1.2-0.2,1.7s-0.1,1.1-0.2,1.6s-0.1,0.9-0.2,1.2
		c0,0.1,0,0.3-0.1,0.4c0,0.1-0.1,0.1-0.2,0.1c-0.3,0-0.7-0.1-1-0.2s-0.4-0.4-0.4-0.7c0,0,0-0.1,0-0.3s0-0.3,0-0.5
		c-0.1,0.1-0.3,0.2-0.5,0.4c-0.2,0.1-0.4,0.3-0.6,0.4c-0.2,0.1-0.4,0.3-0.6,0.4l-0.5,0.3c0,0-0.1,0-0.3,0.1c-0.1,0-0.2,0-0.3,0
		c-0.2,0-0.4-0.1-0.6-0.2s-0.4-0.2-0.5-0.2s-0.3-0.2-0.4-0.3c-0.1-0.1-0.1-0.2-0.1-0.3c0-0.5,0.1-0.9,0.1-1.3c0-0.4,0.1-0.8,0.1-1.2
		s0.1-0.9,0.1-1.3c0-0.5,0.1-1,0.1-1.6c0-0.4,0.1-0.6,0.2-0.7s0.3-0.1,0.5-0.1c0.4,0,0.7,0,1,0.1c0.3,0.1,0.4,0.3,0.4,0.6
		c0,0.7-0.1,1.5-0.2,2.3c-0.1,0.8-0.2,1.5-0.2,2.3c0.1,0,0.3-0.1,0.5-0.2c0.2-0.1,0.5-0.2,0.7-0.4c0.2-0.1,0.4-0.3,0.6-0.4
		s0.3-0.3,0.4-0.3c0.1-0.7,0.2-1.4,0.3-1.9c0.1-0.5,0.1-1.1,0.1-1.6c0-0.2,0.1-0.3,0.3-0.3c0.1,0,0.3,0,0.4,0c0.2,0,0.4,0,0.5,0.1
		c0.2,0,0.3,0.1,0.5,0.2S53.2,99,53.1,99.1L53.1,99.1z"/>
	<path class="st1" d="M54.5,101.7c0-0.1,0-0.2,0.1-0.2l0.5,0c0-0.3,0.1-0.6,0.1-0.9s0.1-0.6,0.1-0.8c0-0.3,0.1-0.5,0.1-0.7
		c0-0.2,0.1-0.4,0.1-0.5c0,0,0-0.1,0.1-0.1s0.1-0.1,0.2-0.1c0.2,0,0.4,0,0.6,0c0.2,0,0.4,0.1,0.5,0.1c0.1,0,0.3,0.1,0.4,0.2
		c0.1,0.1,0.1,0.2,0.1,0.3c-0.1,0.3-0.2,0.7-0.2,1.1s-0.1,0.9-0.2,1.3l2.1-0.1l0.1-1.1c0-0.4,0.1-0.7,0.2-1c0.1-0.3,0.1-0.5,0.2-0.7
		s0.2-0.3,0.3-0.3c0.1,0,0.2,0,0.4,0c0.2,0,0.4,0.1,0.5,0.1c0.2,0,0.3,0.1,0.5,0.2s0.2,0.2,0.2,0.2c0,0,0,0,0,0s0,0,0,0
		c-0.1,0.4-0.1,0.9-0.2,1.5s-0.1,1.2-0.2,1.8c-0.1,0.6-0.1,1.2-0.2,1.8s-0.1,1.1-0.1,1.6c0,0.1-0.1,0.2-0.3,0.2
		c-0.1,0-0.3,0-0.6-0.1s-0.5-0.2-0.7-0.3c-0.2-0.1-0.3-0.2-0.3-0.3c0-0.1-0.1-0.2-0.1-0.4c0-0.2,0-0.5,0-0.9c0-0.3,0.1-0.7,0.1-1
		c-0.3,0-0.7,0-1,0s-0.7,0-1,0c0,0.5-0.1,1-0.1,1.4c0,0.5,0,0.9-0.1,1.2c0,0.1-0.1,0.2-0.3,0.2c-0.1,0-0.3,0-0.5-0.1
		c-0.2,0-0.3-0.1-0.5-0.2c-0.2-0.1-0.3-0.2-0.4-0.3S55,105,55,104.9c0-0.3,0-0.6,0-1s0-0.8,0.1-1.2c0,0,0,0-0.1-0.1
		c0,0-0.1-0.1-0.1-0.1c-0.1-0.1-0.2-0.2-0.2-0.4s-0.1-0.3-0.1-0.4L54.5,101.7z"/>
	<path class="st1" d="M64,105c-0.3-0.8-0.6-1.7-0.8-2.6s-0.4-1.8-0.5-2.7c0-0.1,0-0.3,0-0.5c0-0.4,0.1-0.7,0.5-0.8
		c0.3-0.1,0.7-0.2,1.3-0.2c0.1,0,0.2,0,0.3,0c0.1,0,0.2,0.1,0.2,0.2c0.1,1.1,0.2,2.1,0.3,2.9c0.2,0.9,0.4,1.7,0.7,2.5
		c0.3-0.8,0.6-1.6,0.9-2.3c0.3-0.7,0.6-1.3,0.8-1.8s0.5-0.9,0.7-1.2c0.2-0.3,0.4-0.4,0.5-0.4c0.1,0,0.2,0,0.4,0.1
		c0.1,0.1,0.3,0.1,0.4,0.2c0.1,0.1,0.2,0.2,0.3,0.3C70,98.8,70,98.9,70,99c0,0.1,0,0.3-0.1,0.4c-0.1,0.2-0.1,0.3-0.2,0.4
		c-0.4,0.7-0.8,1.5-1.1,2.4s-0.8,1.8-1.1,2.7s-0.7,1.8-1,2.7c-0.3,0.9-0.6,1.7-0.8,2.3c0,0.1-0.1,0.1-0.1,0.2s-0.2,0.1-0.3,0.1
		c-0.1,0-0.2,0-0.4-0.1c-0.2-0.1-0.3-0.1-0.5-0.3s-0.3-0.2-0.5-0.4s-0.2-0.3-0.2-0.4c0,0,0-0.1,0-0.2c0-0.1,0.1-0.2,0.1-0.4
		c0.1-0.4,0.3-0.9,0.5-1.5c0.2-0.6,0.5-1.1,0.7-1.7c0,0-0.1,0-0.2,0c-0.1,0-0.1,0-0.2,0c-0.2,0-0.3,0-0.4-0.1
		c-0.1-0.1-0.2-0.2-0.2-0.5L64,105z"/>
	<path class="st1" d="M75.9,98.4c0.1,0,0.1,0,0.2,0.1s0.1,0.1,0.1,0.2s0.1,0.2,0.1,0.4c0,0.2,0,0.4,0,0.8c0,0.2-0.1,0.3-0.2,0.3
		c-0.1,0-0.2,0-0.4,0c-0.2,0-0.4,0-0.6-0.1c-0.2,0-0.5-0.1-0.7-0.1s-0.5,0-0.7-0.1c0.2,0.2,0.3,0.4,0.3,0.6c0,0.2,0,0.5,0,0.8
		c0,0.3-0.1,0.6-0.2,1c-0.1,0.3-0.1,0.7-0.2,1.1s-0.1,0.8-0.1,1.1s-0.1,0.8-0.1,1.1c0,0.1-0.1,0.2-0.2,0.2c-0.3,0-0.5,0-0.7-0.1
		c-0.2-0.1-0.4-0.1-0.5-0.2s-0.2-0.2-0.3-0.2c-0.1-0.1-0.1-0.1-0.1-0.2c0-0.5,0-1,0.1-1.5s0.1-1,0.2-1.5c0.1-0.5,0.2-0.9,0.3-1.3
		c0.1-0.4,0.2-0.7,0.3-1c-0.3,0-0.5,0-0.8,0.1c-0.2,0-0.5,0-0.6,0.1c0,0-0.1,0-0.1,0h-0.1c-0.1,0-0.1-0.1-0.2-0.2s-0.1-0.2-0.2-0.4
		c0-0.1-0.1-0.3-0.1-0.4c0-0.1,0-0.2,0-0.3c0-0.1,0-0.2,0.2-0.3c0.1,0,0.3-0.1,0.5-0.1c0.2,0,0.5-0.1,0.7-0.1c0.3,0,0.6,0,0.9-0.1
		c0.3,0,0.6,0,0.9,0c0.2,0,0.4,0,0.6,0c0.2,0,0.5,0,0.8,0s0.5,0,0.7,0C75.6,98.3,75.8,98.3,75.9,98.4L75.9,98.4z"/>
</g>
<path class="st2" d="M66.1,39.9c10.4,1.3,17.7,4.6,17.7,8.5c0,5-12.5,9.1-27.9,9.1S28,53.4,28,48.4c0-3.7,6.8-6.9,16.6-8.4"/>
<path class="st2" d="M83.8,48.4l-2.6,11.9c0,4.6-11.3,8.3-25.3,8.3s-25.3-3.7-25.3-8.3L28,48.4"/>
<path class="st2" d="M80.5,44.1c0,0,11.4-7.6,13.1-8.9c2.9-2.3-1-6.8-5-4.7C86,31.8,74,41.4,74,41.4"/>
<path class="st2" d="M75.9,4.2c-1-0.6-3-2-4.7,0.8c-1.8,3-7.1,10-7.6,11.8s0,4-1.8,7.1c-0.8,1.4-2.3,4.7-4.3,3.5
	c-4.4-2.7-7.4,0.5-8.4,2.2l-4.5,7.4c-1.4,2.3,1.2,4.3,1.2,4.3l11.1,6.7c0,0,2.9,1.4,4.3-0.9l4.5-7.4c1.1-1.7,2.4-5.8-1.9-8.5
	c-2-1.2,0.3-4.1,1.2-5.4c1.9-3.1,4-3.7,5.4-4.9s5.2-9.1,7-12.1C79,5.9,76.8,4.7,75.9,4.2L75.9,4.2z"/>
<line class="st2" x1="58.6" y1="32.5" x2="53.3" y2="41.2"/>
<line class="st2" x1="61.8" y1="36.8" x2="57.5" y2="43.8"/>
<line class="st2" x1="53.3" y1="31.6" x2="49" y2="38.6"/>
</svg>
