<svg id="Слой_1" data-name="Слой 1" xmlns="http://www.w3.org/2000/svg" viewBox="0 0 112 112"><defs><style>.cls-1{font-size:23.64px;}.cls-1,.cls-2{fill:#231f20;font-family:TTMasters-Bold, TT Masters;font-weight:700;}.cls-2{font-size:16.36px;}.cls-3{fill:none;stroke:#231f20;stroke-linecap:round;stroke-linejoin:round;stroke-width:2.28px;}</style></defs><title>icons</title><text class="cls-1" transform="translate(27.54 93.74)">25-30</text><text class="cls-2" transform="translate(35.64 105.78)">минут</text><path class="cls-3" d="M66.07,39.87c10.38,1.33,17.72,4.63,17.72,8.5,0,5-12.48,9.12-27.87,9.12S28,53.41,28,48.37c0-3.73,6.82-6.93,16.59-8.35"/><path class="cls-3" d="M83.79,48.37,81.22,60.22c0,4.58-11.33,8.28-25.3,8.28s-25.3-3.7-25.3-8.28L28,48.37"/><path class="cls-3" d="M80.49,44.06s11.38-7.6,13.09-8.94c2.91-2.27-1-6.75-5-4.68-2.54,1.33-14.57,11-14.57,11"/><path class="cls-3" d="M75.86,4.15c-1-.61-3-1.95-4.71.81-1.81,3-7.11,10-7.56,11.77s0,4-1.85,7.07c-.83,1.36-2.31,4.73-4.3,3.52-4.37-2.66-7.37.46-8.43,2.21l-4.5,7.4c-1.42,2.32,1.19,4.27,1.19,4.27l11.08,6.74s2.92,1.42,4.33-.9l4.51-7.41c1.06-1.74,2.45-5.84-1.92-8.5-2-1.21.33-4.07,1.16-5.43,1.89-3.11,4-3.67,5.42-4.9s5.18-9.14,7-12.12c1.68-2.76-.45-3.94-1.45-4.55Z"/><line class="cls-3" x1="58.56" y1="32.54" x2="53.28" y2="41.22"/><line class="cls-3" x1="61.78" y1="36.81" x2="57.53" y2="43.81"/><line class="cls-3" x1="53.28" y1="31.64" x2="49.02" y2="38.63"/></svg>