<svg id="Слой_1" data-name="Слой 1" xmlns="http://www.w3.org/2000/svg" viewBox="0 0 112 112"><defs><style>.cls-1{fill:none;stroke:#231f20;stroke-linecap:round;stroke-linejoin:round;stroke-width:2.28px;}.cls-2{font-size:23.64px;}.cls-2,.cls-3{fill:#231f20;font-family:TTMasters-Bold, TT Masters;font-weight:700;}.cls-3{font-size:16.36px;}</style></defs><title>icons</title><path class="cls-1" d="M74.47,31.05c3.55,1.2,5.69,2.75,5.69,4.45,0,3.81-10.83,6.91-24.18,6.91S31.8,39.31,31.8,35.5c0-1.65,2-3.17,5.41-4.36"/><ellipse class="cls-1" cx="55.98" cy="26.58" rx="24.18" ry="6.91"/><path class="cls-1" d="M31.8,35.5V63.31c0,3.82,10.83,6.91,24.18,6.91s24.18-3.09,24.18-6.91V35.5"/><path class="cls-1" d="M31.89,38.7c-4.31,0-7.81,1.37-7.81,3s3.5,3,7.81,3h2.45"/><path class="cls-1" d="M80.11,38.7c4.31,0,7.81,1.37,7.81,3s-3.5,3-7.81,3H77.66"/><path class="cls-1" d="M50.71,23.34V20.1a5.27,5.27,0,0,1,10.54,0v3.24"/><text class="cls-2" transform="translate(46.01 93.74)">15</text><text class="cls-3" transform="translate(35.64 105.78)">минут</text></svg>