<svg id="Слой_1" data-name="Слой 1" xmlns="http://www.w3.org/2000/svg" viewBox="0 0 44 44"><defs><style>.cls-1{fill:none;stroke:#000;stroke-linecap:round;stroke-linejoin:round;stroke-width:2.28px;}</style></defs><title>icons</title><path class="cls-1" d="M31,13.46c-3.44-3.44-8.57-8-12.35-9.08C10.29,1.89,4,11.08,4,11.08l9.34,9.34,5.28-5.27c2-2,5.61,1.4,7.44,3.24"/><path class="cls-1" d="M30.54,13c3.44,3.44,8,8.57,9.08,12.35,2.49,8.34-6.7,14.68-6.7,14.68l-9.34-9.34,5.27-5.28c2-2-1.4-5.61-3.24-7.44"/><line class="cls-1" x1="16.58" y1="16.68" x2="7.8" y2="7.89"/><line class="cls-1" x1="36.28" y1="36.38" x2="27.5" y2="27.59"/><path class="cls-1" d="M9.2,39.08A32.3,32.3,0,0,0,5,34.28"/><path class="cls-1" d="M15.25,39.08A37.6,37.6,0,0,0,5,27.71"/><path class="cls-1" d="M20.89,39.08A42.68,42.68,0,0,0,5,21.73"/></svg>