<?xml version="1.0" encoding="utf-8"?>
<!-- Generator: Adobe Illustrator 23.0.5, SVG Export Plug-In . SVG Version: 6.00 Build 0)  -->
<svg version="1.1" id="Слой_1" xmlns="http://www.w3.org/2000/svg" xmlns:xlink="http://www.w3.org/1999/xlink" x="0px" y="0px"
	 viewBox="0 0 112 112" style="enable-background:new 0 0 112 112;" xml:space="preserve">
<style type="text/css">
	.st0{enable-background:new    ;}
	.st1{fill:#231F20;}
	.st2{fill:none;stroke:#231F20;stroke-width:2.28;stroke-linecap:round;stroke-linejoin:round;}
</style>
<title>icons</title>
<g class="st0">
	<path class="st1" d="M52.5,77.5c0.2,0.2,0.3,0.3,0.4,0.4c0,0.1,0,0.3,0,0.6c-0.1,0.8-0.3,1.8-0.4,3s-0.3,2.4-0.5,3.7
		s-0.4,2.7-0.5,4.1s-0.3,2.7-0.5,4c0,0.3-0.1,0.4-0.4,0.4c-0.3,0-0.6-0.1-0.9-0.2s-0.6-0.3-0.8-0.5c-0.2-0.2-0.4-0.4-0.6-0.7
		c-0.1-0.3-0.2-0.5-0.2-0.8c0-0.1,0-0.2,0-0.4s0-0.2,0-0.4c0-0.6,0.1-1.3,0.2-2s0.2-1.4,0.3-2.2s0.2-1.5,0.3-2.2s0.2-1.4,0.3-2
		c-0.1,0.2-0.4,0.5-0.7,0.8c-0.4,0.3-0.7,0.5-1.1,0.6c-0.1,0-0.3,0-0.4,0c-0.1,0-0.2-0.1-0.2-0.2c-0.2-0.2-0.4-0.5-0.5-0.7
		s-0.2-0.4-0.2-0.5c0-0.1,0.1-0.3,0.3-0.4c0.4-0.3,0.9-0.7,1.2-1.1c0.4-0.4,0.7-0.9,1-1.3s0.5-0.9,0.7-1.3c0.2-0.4,0.4-0.7,0.5-1
		c0-0.1,0.1-0.2,0.2-0.3c0.1-0.1,0.2-0.1,0.3-0.1s0.3,0,0.4,0c0.2,0,0.4,0,0.6,0.1c0.2,0,0.4,0.1,0.6,0.2
		C52.2,77.2,52.3,77.3,52.5,77.5L52.5,77.5z"/>
	<path class="st1" d="M60.5,76.6c0.7,0,1.4,0.1,2,0.4c0.6,0.3,1.2,0.6,1.6,1.1s0.8,1,1.1,1.6c0.3,0.6,0.4,1.3,0.4,2
		c0,1.8-0.2,3.4-0.5,4.9c-0.3,1.5-0.8,2.7-1.3,3.8c-0.6,1.1-1.2,1.9-2,2.4c-0.8,0.6-1.6,0.9-2.4,0.9c-0.6,0-1.1-0.1-1.7-0.3
		c-0.5-0.2-1-0.5-1.5-1s-0.8-1.1-1-1.8c-0.3-0.8-0.4-1.7-0.4-2.8c0-1.5,0.1-2.9,0.4-4.3c0.3-1.3,0.7-2.5,1.2-3.5
		c0.5-1,1.1-1.8,1.8-2.4C58.9,76.9,59.6,76.6,60.5,76.6L60.5,76.6z M61.1,79.3c-0.3,0-0.5,0.1-0.8,0.4c-0.3,0.3-0.5,0.7-0.7,1.2
		c-0.2,0.5-0.4,1.1-0.6,1.7c-0.2,0.6-0.4,1.3-0.5,2c-0.1,0.7-0.2,1.3-0.3,2c-0.1,0.7-0.1,1.3-0.1,1.8c0,0.9,0.1,1.5,0.4,1.9
		s0.5,0.6,0.9,0.6c0.4,0,0.8-0.2,1.1-0.7c0.3-0.4,0.6-1.1,0.9-1.9s0.5-1.8,0.6-2.9c0.2-1.1,0.3-2.3,0.4-3.7c0-0.2,0-0.4,0-0.7
		s-0.1-0.6-0.2-0.9c-0.1-0.3-0.2-0.5-0.4-0.7C61.6,79.4,61.4,79.3,61.1,79.3L61.1,79.3z"/>
</g>
<g class="st0">
	<path class="st1" d="M39.8,103.9c-0.1,0-0.1-0.1-0.2-0.1c0-0.1-0.1-0.1-0.1-0.2c-0.2-0.4-0.3-0.8-0.4-1c-0.1-0.3-0.2-0.5-0.3-0.6
		c-0.1-0.2-0.1-0.3-0.2-0.4c0-0.1-0.1-0.2-0.1-0.3c0,0.4-0.1,0.7-0.1,1.1c0,0.4-0.1,0.8-0.1,1.2c0,0.4-0.1,0.8-0.1,1.1
		c0,0.4,0,0.7-0.1,1c0,0.1,0,0.1-0.1,0.2c-0.1,0-0.1,0.1-0.2,0.1c-0.1,0-0.1,0-0.2,0s-0.2,0-0.2-0.1c-0.4-0.1-0.7-0.3-0.9-0.5
		s-0.3-0.5-0.3-1c0-0.4,0-0.8,0.1-1.4c0-0.5,0.1-1.1,0.2-1.7c0.1-0.6,0.1-1.1,0.2-1.6c0.1-0.5,0.1-0.8,0.2-1.1c0,0,0.1-0.1,0.1-0.2
		s0.2-0.1,0.2-0.1c0.1,0,0.2,0,0.4,0c0.1,0,0.3,0,0.4,0s0.3,0,0.4,0.1c0.1,0,0.2,0.1,0.3,0.1l0.2,0.2c0.1,0.1,0.2,0.3,0.3,0.6
		s0.2,0.5,0.4,0.9s0.3,0.6,0.4,1c0.1,0.3,0.3,0.7,0.4,1c0.3-0.4,0.6-0.9,0.8-1.3c0.3-0.5,0.6-0.9,0.8-1.3c0.3-0.4,0.5-0.7,0.7-0.9
		s0.4-0.4,0.6-0.4h0.1l0.3,0c0.1,0,0.3,0,0.4,0c0.1,0,0.3,0,0.4,0.1c0.1,0,0.2,0.1,0.3,0.1s0.1,0.1,0.1,0.3v0.1
		c0,0.3-0.1,0.8-0.1,1.3c-0.1,0.5-0.1,1.1-0.2,1.7s-0.1,1.2-0.1,1.8c0,0.6,0,1.1,0,1.5v0.3c0,0.1,0,0.2-0.1,0.2s-0.1,0.1-0.2,0.1
		c-0.1,0-0.3-0.1-0.6-0.2c-0.2-0.1-0.5-0.2-0.6-0.3c-0.3-0.1-0.4-0.2-0.5-0.4c0-0.1-0.1-0.3-0.1-0.6c0-0.5,0-0.9,0.1-1.5
		s0.1-1.1,0.2-1.7c0,0.1-0.1,0.3-0.3,0.5c-0.2,0.2-0.3,0.5-0.5,0.8c-0.2,0.3-0.3,0.5-0.5,0.8c-0.2,0.2-0.3,0.4-0.3,0.5
		c0,0.1-0.1,0.1-0.2,0.2c-0.1,0-0.1,0.1-0.2,0.1c-0.1,0-0.3,0-0.4-0.1c-0.1,0-0.3-0.1-0.4-0.1L39.8,103.9z"/>
	<path class="st1" d="M53.1,99.1c0,0.5-0.1,1-0.1,1.6c-0.1,0.6-0.1,1.2-0.2,1.7s-0.1,1.1-0.2,1.6s-0.1,0.9-0.2,1.2
		c0,0.1,0,0.3-0.1,0.4c0,0.1-0.1,0.1-0.2,0.1c-0.3,0-0.7-0.1-1-0.2s-0.4-0.4-0.4-0.7c0,0,0-0.1,0-0.3s0-0.3,0-0.5
		c-0.1,0.1-0.3,0.2-0.5,0.4c-0.2,0.1-0.4,0.3-0.6,0.4c-0.2,0.1-0.4,0.3-0.6,0.4l-0.5,0.3c0,0-0.1,0-0.3,0.1c-0.1,0-0.2,0-0.3,0
		c-0.2,0-0.4-0.1-0.6-0.2s-0.4-0.2-0.5-0.2s-0.3-0.2-0.4-0.3c-0.1-0.1-0.1-0.2-0.1-0.3c0-0.5,0.1-0.9,0.1-1.3c0-0.4,0.1-0.8,0.1-1.2
		s0.1-0.9,0.1-1.3c0-0.5,0.1-1,0.1-1.6c0-0.4,0.1-0.6,0.2-0.7s0.3-0.1,0.5-0.1c0.4,0,0.7,0,1,0.1c0.3,0.1,0.4,0.3,0.4,0.6
		c0,0.7-0.1,1.5-0.2,2.3c-0.1,0.8-0.2,1.5-0.2,2.3c0.1,0,0.3-0.1,0.5-0.2c0.2-0.1,0.5-0.2,0.7-0.4c0.2-0.1,0.4-0.3,0.6-0.4
		s0.3-0.3,0.4-0.3c0.1-0.7,0.2-1.4,0.3-1.9c0.1-0.5,0.1-1.1,0.1-1.6c0-0.2,0.1-0.3,0.3-0.3c0.1,0,0.3,0,0.4,0c0.2,0,0.4,0,0.5,0.1
		c0.2,0,0.3,0.1,0.5,0.2S53.2,99,53.1,99.1L53.1,99.1z"/>
	<path class="st1" d="M54.5,101.7c0-0.1,0-0.2,0.1-0.2l0.5,0c0-0.3,0.1-0.6,0.1-0.9s0.1-0.6,0.1-0.8c0-0.3,0.1-0.5,0.1-0.7
		c0-0.2,0.1-0.4,0.1-0.5c0,0,0-0.1,0.1-0.1s0.1-0.1,0.2-0.1c0.2,0,0.4,0,0.6,0c0.2,0,0.4,0.1,0.5,0.1c0.1,0,0.3,0.1,0.4,0.2
		c0.1,0.1,0.1,0.2,0.1,0.3c-0.1,0.3-0.2,0.7-0.2,1.1s-0.1,0.9-0.2,1.3l2.1-0.1l0.1-1.1c0-0.4,0.1-0.7,0.2-1c0.1-0.3,0.1-0.5,0.2-0.7
		c0.1-0.2,0.2-0.3,0.3-0.3c0.1,0,0.2,0,0.4,0c0.2,0,0.4,0.1,0.5,0.1c0.2,0,0.3,0.1,0.5,0.2s0.2,0.2,0.2,0.2c0,0,0,0,0,0s0,0,0,0
		c-0.1,0.4-0.1,0.9-0.2,1.5s-0.1,1.2-0.2,1.8c-0.1,0.6-0.1,1.2-0.2,1.8c0,0.6-0.1,1.1-0.1,1.6c0,0.1-0.1,0.2-0.3,0.2
		c-0.1,0-0.3,0-0.6-0.1s-0.5-0.2-0.7-0.3c-0.2-0.1-0.3-0.2-0.3-0.3c0-0.1-0.1-0.2-0.1-0.4c0-0.2,0-0.5,0-0.9c0-0.3,0.1-0.7,0.1-1
		c-0.3,0-0.7,0-1,0s-0.7,0-1,0c0,0.5-0.1,1-0.1,1.4c0,0.5,0,0.9-0.1,1.2c0,0.1-0.1,0.2-0.3,0.2c-0.1,0-0.3,0-0.5-0.1
		c-0.2,0-0.3-0.1-0.5-0.2c-0.2-0.1-0.3-0.2-0.4-0.3S55,105,55,104.9c0-0.3,0-0.6,0-1s0-0.8,0.1-1.2c0,0,0,0-0.1-0.1
		c0,0-0.1-0.1-0.1-0.1c-0.1-0.1-0.2-0.2-0.2-0.4s-0.1-0.3-0.1-0.4L54.5,101.7z"/>
	<path class="st1" d="M64,105c-0.3-0.8-0.6-1.7-0.8-2.6c-0.2-0.9-0.4-1.8-0.5-2.7c0-0.1,0-0.3,0-0.5c0-0.4,0.1-0.7,0.5-0.8
		c0.3-0.1,0.7-0.2,1.3-0.2c0.1,0,0.2,0,0.3,0c0.1,0,0.2,0.1,0.2,0.2c0.1,1.1,0.2,2.1,0.3,2.9c0.2,0.9,0.4,1.7,0.7,2.5
		c0.3-0.8,0.6-1.6,0.9-2.3c0.3-0.7,0.6-1.3,0.8-1.8s0.5-0.9,0.7-1.2c0.2-0.3,0.4-0.4,0.5-0.4c0.1,0,0.2,0,0.4,0.1
		c0.1,0.1,0.3,0.1,0.4,0.2c0.1,0.1,0.2,0.2,0.3,0.3C70,98.8,70,98.9,70,99c0,0.1,0,0.3-0.1,0.4c-0.1,0.2-0.1,0.3-0.2,0.4
		c-0.4,0.7-0.8,1.5-1.1,2.4s-0.8,1.8-1.1,2.7s-0.7,1.8-1,2.7c-0.3,0.9-0.6,1.7-0.8,2.3c0,0.1-0.1,0.1-0.1,0.2s-0.2,0.1-0.3,0.1
		c-0.1,0-0.2,0-0.4-0.1c-0.2-0.1-0.3-0.1-0.5-0.3s-0.3-0.2-0.5-0.4s-0.2-0.3-0.2-0.4c0,0,0-0.1,0-0.2c0-0.1,0.1-0.2,0.1-0.4
		c0.1-0.4,0.3-0.9,0.5-1.5c0.2-0.6,0.5-1.1,0.7-1.7c0,0-0.1,0-0.2,0c-0.1,0-0.1,0-0.2,0c-0.2,0-0.3,0-0.4-0.1
		c-0.1-0.1-0.2-0.2-0.2-0.5L64,105z"/>
	<path class="st1" d="M75.9,98.4c0.1,0,0.1,0,0.2,0.1s0.1,0.1,0.1,0.2c0,0.1,0.1,0.2,0.1,0.4s0,0.4,0,0.8c0,0.2-0.1,0.3-0.2,0.3
		c-0.1,0-0.2,0-0.4,0c-0.2,0-0.4,0-0.6-0.1c-0.2,0-0.5-0.1-0.7-0.1s-0.5,0-0.7-0.1c0.2,0.2,0.3,0.4,0.3,0.6s0,0.5,0,0.8
		c0,0.3-0.1,0.6-0.2,1c-0.1,0.3-0.1,0.7-0.2,1.1c0,0.4-0.1,0.8-0.1,1.1s-0.1,0.8-0.1,1.1c0,0.1-0.1,0.2-0.2,0.2
		c-0.3,0-0.5,0-0.7-0.1c-0.2-0.1-0.4-0.1-0.5-0.2c-0.1-0.1-0.2-0.2-0.3-0.2c-0.1-0.1-0.1-0.1-0.1-0.2c0-0.5,0-1,0.1-1.5
		c0-0.5,0.1-1,0.2-1.5c0.1-0.5,0.2-0.9,0.3-1.3c0.1-0.4,0.2-0.7,0.3-1c-0.3,0-0.5,0-0.8,0.1c-0.2,0-0.5,0-0.6,0.1c0,0-0.1,0-0.1,0
		h-0.1c-0.1,0-0.1-0.1-0.2-0.2s-0.1-0.2-0.2-0.4s-0.1-0.3-0.1-0.4c0-0.1,0-0.2,0-0.3c0-0.1,0-0.2,0.2-0.3c0.1,0,0.3-0.1,0.5-0.1
		s0.5-0.1,0.7-0.1c0.3,0,0.6,0,0.9-0.1c0.3,0,0.6,0,0.9,0c0.2,0,0.4,0,0.6,0c0.2,0,0.5,0,0.8,0s0.5,0,0.7,0
		C75.6,98.3,75.8,98.3,75.9,98.4L75.9,98.4z"/>
</g>
<path class="st2" d="M60.1,13.1v5.4c0,2.5-4.1,2.1-4.1,2.1s-4.1,0.3-4.1-2.1v-5.4"/>
<path class="st2" d="M67.4,65.3H73c8.1,0,9.5-5.7,9.5-8.4V24.7c0-4.9-13.3-12.1-26.5-12.1s-26.5,7.3-26.5,12.1v32.1
	c0,2.8,1.4,8.4,9.5,8.4H67.4z"/>
<line class="st2" x1="29.5" y1="27.7" x2="82.5" y2="27.7"/>
<path class="st2" d="M72.8,28.1v18c-4.6,4.2-10.5,6.6-16.8,6.6l0,0c-6.2-0.1-12.2-2.4-16.8-6.6v-18"/>
<line class="st2" x1="29.5" y1="54.6" x2="35.3" y2="54.6"/>
<line class="st2" x1="76.7" y1="54.6" x2="82.5" y2="54.6"/>
<line class="st2" x1="38" y1="65.3" x2="38" y2="68.3"/>
<line class="st2" x1="74.1" y1="65.3" x2="74.1" y2="68.3"/>
<line class="st2" x1="48.3" y1="34.8" x2="63.8" y2="34.8"/>
<circle class="st2" cx="48.5" cy="42.3" r="0.9"/>
<circle class="st2" cx="56" cy="42.3" r="0.9"/>
<circle class="st2" cx="63.5" cy="42.3" r="0.9"/>
</svg>
