<?xml version="1.0" encoding="utf-8"?>
<!-- Generator: Adobe Illustrator 23.0.5, SVG Export Plug-In . SVG Version: 6.00 Build 0)  -->
<svg version="1.1" id="Слой_1" xmlns="http://www.w3.org/2000/svg" xmlns:xlink="http://www.w3.org/1999/xlink" x="0px" y="0px"
	 viewBox="0 0 50 50" style="enable-background:new 0 0 50 50;" xml:space="preserve">
<style type="text/css">
	.st0{enable-background:new    ;}
	.st1{fill:none;stroke:#000000;stroke-width:1.95;stroke-linecap:round;stroke-linejoin:round;}
</style>
<title>icons</title>
<g class="st0">
	<path d="M20.5,11.6c0.6-0.2,1.4-0.4,2.2-0.5c0.8-0.1,1.6,0,2.4,0.1c0.8,0.1,1.5,0.4,2.2,0.8c0.7,0.4,1.2,1,1.6,1.7
		c0.5,1.4,0.6,2.7,0.1,4s-1.1,2.6-2.1,3.9c0.7,0,1.5,0.1,2.2,0.3c0.7,0.2,1.3,0.4,1.9,0.7c0.6,0.3,1.1,0.7,1.5,1.1
		c0.4,0.4,0.7,0.8,0.9,1.3c0.5,1.3,0.6,2.5,0.5,3.6c-0.2,1.1-0.6,2.1-1.2,3s-1.3,1.7-2.2,2.3s-1.7,1.1-2.6,1.5
		c-0.8,0.3-1.7,0.5-2.7,0.5c-1,0-1.9-0.1-2.8-0.4c-0.9-0.3-1.7-0.6-2.4-1.2c-0.7-0.5-1.2-1.1-1.5-1.9c-0.6-1.6-0.6-3.1-0.2-4.5
		c0.5-1.4,1.3-2.7,2.3-4.1l0,0c-1.2-0.1-2.2-0.4-3-0.9c-0.8-0.5-1.5-1.3-1.8-2.3c-0.4-1.1-0.5-2.1-0.4-3.2c0.2-1,0.5-1.9,1-2.7
		c0.5-0.8,1.1-1.5,1.9-2.1c0.7-0.6,1.5-1,2.2-1.3L20.5,11.6z M23.2,21.3c0.4-0.3,0.7-0.7,0.9-1.2c0.2-0.5,0.4-0.9,0.5-1.4
		c0.1-0.5,0.2-0.9,0.2-1.4c0-0.4-0.1-0.9-0.2-1.2c-0.1-0.3-0.4-0.5-0.9-0.7c-0.5-0.2-1.1-0.2-1.7,0.1c-0.4,0.2-0.8,0.4-1.1,0.6
		c-0.3,0.3-0.6,0.6-0.8,0.9c-0.2,0.3-0.3,0.7-0.4,1.1c-0.1,0.4,0,0.9,0.1,1.3c0.1,0.4,0.3,0.6,0.7,0.9c0.3,0.2,0.6,0.4,1,0.5
		c0.3,0.1,0.7,0.2,1,0.3c0.3,0.1,0.5,0.1,0.7,0.1L23.2,21.3z M28.5,26.7c-0.2-0.5-0.7-1-1.6-1.3c-0.8-0.4-1.8-0.6-2.8-0.7
		c-1,0.9-1.6,1.8-1.8,2.9c-0.3,1-0.3,1.9,0,2.6c0.1,0.3,0.3,0.5,0.6,0.7s0.6,0.3,0.9,0.4c0.3,0.1,0.7,0.2,1.1,0.2c0.4,0,0.7,0,1-0.1
		c1.1-0.4,1.9-1,2.5-1.8C28.8,28.8,28.9,27.9,28.5,26.7L28.5,26.7z"/>
</g>
<g class="st0">
	<path d="M19.1,44c0-0.2-0.1-0.3-0.1-0.5c-0.1-0.2-0.1-0.4,0-0.6c0-0.1,0.1-0.1,0.1-0.1c0.1,0,0.1,0,0.2,0c0.1,0,0.1,0,0.2,0
		c0-0.1,0.1-0.3,0.2-0.5c0.1-0.2,0.1-0.4,0.2-0.6c0.1-0.2,0.1-0.4,0.2-0.5c0.1-0.2,0.1-0.3,0.2-0.4c0,0,0-0.1,0.1-0.1
		c0,0,0.1,0,0.2,0c0.1,0,0.3,0.1,0.4,0.1c0.1,0.1,0.3,0.1,0.4,0.2c0.1,0.1,0.2,0.1,0.3,0.2c0.1,0.1,0.1,0.1,0.1,0.2l0,0
		c-0.1,0.2-0.2,0.5-0.3,0.8c-0.1,0.3-0.2,0.6-0.3,0.9c0.1,0,0.2,0,0.3,0.1c0.1,0,0.2,0,0.3,0c0.1-0.1,0.3-0.3,0.4-0.5
		c0.2-0.2,0.4-0.4,0.5-0.6c0.2-0.2,0.4-0.4,0.5-0.5s0.3-0.2,0.3-0.2c0,0,0.1,0,0.2,0.1c0.1,0.1,0.2,0.2,0.3,0.3
		c0.1,0.1,0.2,0.2,0.3,0.3c0.1,0.1,0.1,0.2,0.1,0.2c0,0,0,0.1-0.1,0.1c-0.1,0.1-0.2,0.2-0.4,0.3c-0.1,0.1-0.3,0.3-0.4,0.4
		c-0.2,0.1-0.3,0.3-0.5,0.4c-0.2,0.1-0.3,0.3-0.4,0.4c0.1,0.4,0.2,0.7,0.4,1.1c0.1,0.4,0.3,0.7,0.4,1c0,0,0.1,0.1,0,0.2
		c0,0.1-0.1,0.1-0.1,0.1c-0.2,0.1-0.3,0.2-0.5,0.3c-0.2,0.1-0.3,0.1-0.4,0.1c-0.1,0-0.1-0.1-0.2-0.3s-0.2-0.4-0.3-0.6
		c-0.1-0.2-0.2-0.5-0.3-0.8c-0.1-0.3-0.1-0.5-0.2-0.7c-0.1,0-0.2,0-0.3,0l-0.3-0.1c-0.1,0.4-0.2,0.7-0.3,1c-0.1,0.3-0.1,0.6-0.2,0.8
		c0,0.1,0,0.1-0.1,0.2c0,0-0.1,0.1-0.2,0c-0.1,0-0.1,0-0.3-0.1c-0.1-0.1-0.2-0.1-0.4-0.2s-0.2-0.2-0.3-0.2c-0.1-0.1-0.1-0.2-0.1-0.3
		c0-0.2,0.1-0.5,0.2-0.7C18.9,44.5,19,44.2,19.1,44L19.1,44z"/>
</g>
<g class="st0">
	<path d="M26.3,41.5c0.3,0,0.6,0,0.8,0c0.2,0,0.4,0.1,0.5,0.1c0.3,0.1,0.5,0.3,0.7,0.6s0.3,0.7,0.4,1.2c0,0.4,0,0.8-0.1,1.2
		c-0.1,0.4-0.2,0.8-0.4,1.1c-0.2,0.3-0.4,0.6-0.7,0.8c-0.3,0.2-0.6,0.3-0.9,0.3c-0.2,0-0.4,0-0.7,0c-0.2,0-0.5-0.1-0.7-0.2
		c-0.2-0.1-0.4-0.3-0.6-0.6c-0.2-0.3-0.3-0.7-0.3-1.1c0-0.4,0-0.8,0.1-1.2c0.1-0.4,0.2-0.7,0.4-1.1c0.2-0.3,0.4-0.6,0.6-0.8
		C25.7,41.6,26,41.5,26.3,41.5L26.3,41.5z M26.6,42.5c-0.1,0-0.2,0.1-0.3,0.2c-0.1,0.1-0.2,0.3-0.3,0.5c-0.1,0.2-0.1,0.5-0.2,0.8
		c0,0.3,0,0.6,0,1c0,0.3,0.1,0.5,0.2,0.7c0.1,0.1,0.3,0.2,0.5,0.2c0.1,0,0.2-0.1,0.3-0.2c0.1-0.1,0.2-0.3,0.3-0.5
		c0.1-0.2,0.1-0.5,0.2-0.8c0-0.3,0-0.6,0-1c0-0.3-0.1-0.5-0.2-0.6C27,42.5,26.8,42.5,26.6,42.5L26.6,42.5z"/>
</g>
<g class="st0">
	<path d="M32.7,39.7c0.1,0,0.1,0,0.2,0c0,0,0.1,0,0.2,0.1c0.1,0.1,0.1,0.1,0.2,0.2s0.1,0.3,0.2,0.5c0.1,0.2,0,0.2,0,0.3
		c-0.1,0-0.1,0-0.3,0.1c-0.1,0-0.3,0.1-0.4,0.1c-0.2,0-0.3,0.1-0.5,0.1c-0.2,0-0.3,0.1-0.5,0.1c0.2,0.1,0.3,0.2,0.4,0.3
		c0.1,0.1,0.2,0.3,0.2,0.5c0,0.2,0.1,0.4,0.1,0.7c0,0.2,0.1,0.5,0.2,0.8s0.1,0.5,0.2,0.8c0.1,0.3,0.2,0.5,0.2,0.8
		c0,0.1,0,0.2-0.1,0.2c-0.2,0.1-0.4,0.1-0.5,0.1c-0.2,0-0.3,0-0.4,0c-0.1,0-0.2,0-0.3-0.1c-0.1,0-0.1-0.1-0.1-0.1
		c-0.1-0.3-0.2-0.7-0.3-1s-0.2-0.7-0.3-1c-0.1-0.3-0.1-0.6-0.2-0.9c0-0.3-0.1-0.5-0.1-0.7c-0.2,0.1-0.4,0.2-0.5,0.3
		c-0.2,0.1-0.3,0.2-0.4,0.2c0,0-0.1,0-0.1,0l0,0c-0.1,0-0.1,0-0.2-0.1c-0.1-0.1-0.2-0.1-0.2-0.2s-0.1-0.2-0.2-0.3s-0.1-0.1-0.1-0.2
		c0-0.1,0-0.2,0-0.2c0.1,0,0.2-0.1,0.3-0.2c0.1-0.1,0.3-0.2,0.5-0.3c0.2-0.1,0.4-0.2,0.6-0.3c0.2-0.1,0.4-0.2,0.6-0.2
		c0.1,0,0.3-0.1,0.4-0.2c0.2-0.1,0.3-0.1,0.5-0.2c0.2-0.1,0.4-0.1,0.5-0.2C32.5,39.6,32.6,39.6,32.7,39.7L32.7,39.7z"/>
</g>
<g class="st0">
	<path d="M35.2,39.3c0.1,0,0.2,0,0.3,0c0.1,0,0.2,0.1,0.3,0.2c0.2,0.2,0.4,0.5,0.5,0.7c0.1,0.3,0.3,0.6,0.4,0.9s0.2,0.6,0.3,0.9
		c0.1,0.3,0.1,0.6,0.2,0.8c0,0.1,0,0.1,0,0.2s-0.1,0.1-0.1,0.1c-0.1,0.1-0.2,0.1-0.3,0.2c-0.1,0.1-0.2,0.1-0.4,0.2s-0.3,0.1-0.4,0.1
		c-0.1,0-0.2,0-0.3-0.1c0,0,0,0,0-0.1l-0.1-0.5c0-0.2,0-0.4-0.1-0.7c0-0.2-0.1-0.5-0.2-0.7s-0.1-0.4-0.2-0.6
		c-0.1-0.2-0.2-0.4-0.3-0.5l-0.1-0.1c0,0-0.1,0-0.1-0.1l-0.1-0.1c-0.1-0.2-0.3-0.3-0.4-0.4c-0.2-0.1-0.3-0.2-0.3-0.3
		c-0.1-0.1-0.1-0.2-0.1-0.3c0-0.1,0-0.2,0-0.3c0.1-0.1,0.2-0.2,0.4-0.4c0.2-0.2,0.4-0.4,0.7-0.7l0.2-0.2l0.9-0.6
		c0.1-0.1,0.3-0.2,0.4-0.3s0.2-0.2,0.4-0.2c0.1,0,0.2-0.1,0.3-0.1c0.1,0,0.2,0,0.2,0.1c0.2,0.2,0.4,0.5,0.6,0.9
		c0.2,0.4,0.5,0.8,0.8,1.1c0.3,0.4,0.5,0.7,0.8,1.1c0.2,0.3,0.4,0.6,0.6,0.8c0,0,0.1,0.1,0.1,0.2c0,0.1,0,0.1-0.1,0.2
		c-0.1,0.1-0.3,0.2-0.4,0.2c-0.2,0.1-0.3,0.1-0.5,0.1c-0.2,0-0.3,0-0.4-0.1s-0.3-0.1-0.3-0.3c-0.1-0.2-0.3-0.4-0.4-0.6
		c-0.2-0.2-0.3-0.5-0.5-0.7s-0.3-0.5-0.5-0.7c-0.2-0.2-0.3-0.4-0.4-0.6c-0.1,0.1-0.2,0.1-0.3,0.2c-0.1,0.1-0.2,0.1-0.3,0.2
		c-0.1,0.1-0.3,0.2-0.4,0.3S35.3,39.2,35.2,39.3L35.2,39.3L35.2,39.3z"/>
</g>
<g class="st0">
	<path d="M43.3,35.4c0.1,0.3,0.1,0.6,0,0.9c-0.1,0.3-0.2,0.7-0.5,1c-0.2,0.3-0.4,0.5-0.7,0.7c-0.3,0.2-0.5,0.2-0.8,0.3
		c-0.3,0-0.6,0-0.9-0.1c-0.3-0.1-0.6-0.2-0.9-0.4c-0.4-0.3-0.8-0.6-1-1s-0.4-0.7-0.5-1.1c-0.1-0.4-0.1-0.7,0-1.1s0.2-0.7,0.4-1
		c0.1-0.1,0.2-0.2,0.3-0.4c0.1-0.1,0.3-0.2,0.5-0.3s0.3-0.1,0.5-0.2c0.2,0,0.4,0,0.6,0.2c0.3,0.2,0.5,0.4,0.7,0.7
		c0.1,0.3,0.2,0.5,0.3,0.8c0,0.3,0,0.5-0.1,0.7c-0.1,0.2-0.2,0.4-0.3,0.6c-0.1,0.2-0.3,0.3-0.4,0.5c-0.1,0.1-0.2,0.2-0.3,0.2
		c0,0,0.1,0,0.1,0.1l0.1,0.1c0.3,0.2,0.6,0.3,0.9,0.3c0.3,0,0.5-0.1,0.6-0.2c0.1-0.1,0.1-0.2,0.2-0.3c0-0.1,0.1-0.3,0.1-0.4
		c0,0,0-0.1,0-0.2c0-0.1,0-0.1,0-0.2c0-0.1,0-0.2,0-0.2c0-0.1,0-0.1,0.1-0.2c0,0,0.1-0.1,0.1-0.1c0.1,0,0.2,0,0.2,0
		c0.1,0,0.2,0,0.3,0c0.1,0,0.2,0,0.2,0.1C43.3,35.2,43.4,35.3,43.3,35.4L43.3,35.4z M39.3,34.5c-0.1,0.2-0.2,0.5,0,0.8
		c0.1,0.3,0.3,0.6,0.6,0.8c0.1,0,0.1-0.1,0.2-0.2c0.1-0.1,0.1-0.2,0.2-0.3c0.1-0.2,0.2-0.4,0.2-0.7s-0.2-0.5-0.5-0.7
		c-0.1-0.1-0.3-0.1-0.4-0.1C39.5,34.3,39.4,34.4,39.3,34.5L39.3,34.5z"/>
</g>
<g class="st0">
	<path d="M41.1,28.4c0-0.1,0.1-0.1,0.1-0.1c0,0,0.1,0,0.2-0.1c0.1,0,0.2,0,0.3,0c0.1,0,0.3,0.1,0.5,0.1c0.2,0.1,0.2,0.1,0.2,0.2
		c0,0.1-0.1,0.1-0.1,0.3c-0.1,0.1-0.1,0.3-0.2,0.4s-0.2,0.3-0.2,0.5c-0.1,0.2-0.1,0.3-0.2,0.5c0.2-0.1,0.3-0.1,0.5-0.1
		c0.2,0,0.3,0.1,0.5,0.2c0.2,0.1,0.4,0.2,0.6,0.3s0.5,0.2,0.7,0.4c0.2,0.1,0.5,0.2,0.8,0.4c0.3,0.1,0.5,0.2,0.8,0.3
		c0.1,0,0.1,0.1,0.1,0.2c-0.1,0.2-0.1,0.4-0.2,0.5c-0.1,0.1-0.2,0.2-0.3,0.3c-0.1,0.1-0.2,0.1-0.2,0.2c-0.1,0-0.1,0-0.2,0
		c-0.3-0.1-0.7-0.2-1-0.4c-0.3-0.1-0.7-0.3-1-0.5c-0.3-0.2-0.6-0.3-0.8-0.5c-0.2-0.2-0.5-0.3-0.6-0.4c-0.1,0.2-0.1,0.4-0.1,0.6
		c0,0.2-0.1,0.3-0.1,0.5c0,0,0,0.1,0,0.1l0,0c0,0.1-0.1,0.1-0.2,0.1c-0.1,0-0.2,0-0.3,0c-0.1,0-0.2,0-0.3,0c-0.1,0-0.2,0-0.2,0
		c-0.1,0-0.1-0.1-0.1-0.2c0-0.1,0-0.2,0-0.3c0-0.2,0.1-0.3,0.1-0.5c0-0.2,0.1-0.4,0.2-0.6c0.1-0.2,0.1-0.4,0.2-0.6
		c0-0.1,0.1-0.3,0.1-0.4c0.1-0.2,0.1-0.3,0.2-0.5c0.1-0.2,0.1-0.3,0.2-0.5C40.9,28.5,41,28.4,41.1,28.4L41.1,28.4z"/>
</g>
<path class="st1" d="M14.7,41.5C5.6,35.9,2.8,23.8,8.5,14.7S26.1,2.8,35.3,8.5C41,12,44.5,18.3,44.5,25"/>
</svg>
