<svg id="Слой_1" data-name="Слой 1" xmlns="http://www.w3.org/2000/svg" viewBox="0 0 112 112"><defs><style>.cls-1{font-size:23.64px;}.cls-1,.cls-2{fill:#231f20;font-family:TTMasters-Bold, TT Masters;font-weight:700;}.cls-2{font-size:16.36px;}.cls-3{fill:none;stroke:#231f20;stroke-linecap:round;stroke-linejoin:round;stroke-width:2.28px;}</style></defs><title>icons</title><text class="cls-1" transform="translate(45.66 93.74)">10</text><text class="cls-2" transform="translate(35.65 105.78)">минут</text><path class="cls-3" d="M60.09,13.15v5.39C60.09,21,56,20.65,56,20.65s-4.09.31-4.09-2.11V13.15"/><path class="cls-3" d="M67.41,65.25H73c8.12,0,9.5-5.65,9.5-8.4V24.73c0-4.87-13.26-12.14-26.51-12.14S29.5,19.86,29.5,24.73V56.85c0,2.75,1.37,8.4,9.49,8.4H67.41Z"/><line class="cls-3" x1="29.5" y1="27.74" x2="82.51" y2="27.74"/><path class="cls-3" d="M72.76,28.09v18A25,25,0,0,1,56,52.73h0a25,25,0,0,1-16.76-6.64v-18"/><line class="cls-3" x1="29.5" y1="54.63" x2="35.32" y2="54.63"/><line class="cls-3" x1="76.68" y1="54.63" x2="82.51" y2="54.63"/><line class="cls-3" x1="37.95" y1="65.25" x2="37.95" y2="68.3"/><line class="cls-3" x1="74.05" y1="65.25" x2="74.05" y2="68.3"/><line class="cls-3" x1="48.26" y1="34.84" x2="63.75" y2="34.84"/><circle class="cls-3" cx="48.52" cy="42.35" r="0.89"/><circle class="cls-3" cx="56" cy="42.35" r="0.89"/><circle class="cls-3" cx="63.48" cy="42.35" r="0.89"/></svg>