<?xml version="1.0" encoding="utf-8"?>
<!-- Generator: Adobe Illustrator 23.0.5, SVG Export Plug-In . SVG Version: 6.00 Build 0)  -->
<svg version="1.1" id="Слой_1" xmlns="http://www.w3.org/2000/svg" xmlns:xlink="http://www.w3.org/1999/xlink" x="0px" y="0px"
	 viewBox="0 0 50 50" style="enable-background:new 0 0 50 50;" xml:space="preserve">
<style type="text/css">
	.st0{enable-background:new    ;}
	.st1{fill:none;stroke:#000000;stroke-width:1.95;stroke-linecap:round;stroke-linejoin:round;}
</style>
<title>icons</title>
<g class="st0">
	<path d="M17.4,45c0-0.1,0-0.1,0-0.2c0-0.1,0-0.1,0.1-0.2c0.1-0.4,0.2-0.7,0.4-1.1c0.1-0.4,0.3-0.8,0.4-1.1c0.1-0.4,0.3-0.7,0.4-1
		c0.1-0.3,0.2-0.5,0.3-0.6c0-0.1,0.1-0.1,0.1-0.1c0,0,0.1,0,0.2,0c0.1,0,0.2,0.1,0.4,0.1c0.1,0.1,0.3,0.1,0.4,0.2
		c0.1,0.1,0.2,0.1,0.3,0.2c0.1,0.1,0.1,0.1,0.1,0.2l0,0.1l-0.4,0.8c0.1-0.1,0.3-0.2,0.5-0.3c0.2-0.1,0.4-0.2,0.6-0.3
		c0.2-0.1,0.4-0.2,0.5-0.2c0.2,0,0.3-0.1,0.4,0c0.1,0,0.2,0.1,0.3,0.1c0.1,0.1,0.3,0.2,0.4,0.3c0.1,0.1,0.2,0.2,0.3,0.3
		c0.1,0.1,0.1,0.2,0.1,0.3c0,0,0,0,0,0c0,0,0,0.1-0.1,0.2c-0.1,0.3-0.2,0.6-0.3,0.9c-0.1,0.3-0.2,0.6-0.3,0.9
		c-0.1,0.3-0.2,0.6-0.3,1c-0.1,0.3-0.2,0.7-0.3,1.1c0,0.1-0.1,0.1-0.2,0.1c-0.1,0-0.2-0.1-0.3-0.1c-0.1,0-0.2-0.1-0.3-0.1
		c-0.2-0.1-0.3-0.2-0.3-0.3c-0.1-0.1-0.1-0.2-0.1-0.3c0-0.1,0-0.2,0-0.3s0-0.2,0.1-0.3c0.1-0.3,0.1-0.5,0.2-0.8
		c0.1-0.3,0.2-0.5,0.3-0.8c0.1-0.2,0.1-0.4,0.2-0.5c0.1-0.2,0.1-0.3,0.2-0.5c0-0.1,0-0.2-0.1-0.2c-0.1,0-0.2,0-0.3,0.1
		c-0.2,0.1-0.3,0.1-0.5,0.2c-0.2,0.1-0.4,0.2-0.5,0.3c-0.2,0.1-0.3,0.1-0.3,0.2c-0.2,0.4-0.3,0.8-0.4,1.2c-0.1,0.4-0.3,0.8-0.4,1.3
		c0,0.1-0.1,0.1-0.2,0.1c-0.1,0-0.2-0.1-0.4-0.1c-0.1-0.1-0.2-0.1-0.3-0.2c-0.1-0.1-0.2-0.2-0.3-0.2C17.5,45.2,17.5,45.1,17.4,45
		L17.4,45z"/>
</g>
<g class="st0">
	<path d="M25.5,41.5c0.3,0,0.6,0,0.8,0c0.2,0,0.4,0.1,0.5,0.2c0.3,0.1,0.5,0.3,0.7,0.6c0.2,0.3,0.3,0.7,0.3,1.2c0,0.4,0,0.8-0.1,1.2
		s-0.3,0.7-0.5,1c-0.2,0.3-0.4,0.5-0.7,0.7c-0.3,0.2-0.6,0.3-0.9,0.3c-0.2,0-0.4,0-0.7,0c-0.2,0-0.5-0.1-0.7-0.2
		c-0.2-0.1-0.4-0.3-0.6-0.6c-0.2-0.3-0.3-0.7-0.3-1.2c0-0.4,0-0.8,0.1-1.2s0.2-0.7,0.4-1c0.2-0.3,0.4-0.6,0.7-0.8
		C24.8,41.6,25.2,41.5,25.5,41.5L25.5,41.5z M25.7,42.5c-0.1,0-0.2,0.1-0.3,0.2c-0.1,0.1-0.2,0.3-0.3,0.5c-0.1,0.2-0.2,0.5-0.2,0.8
		c0,0.3-0.1,0.6-0.1,1c0,0.3,0.1,0.6,0.2,0.7c0.1,0.1,0.3,0.2,0.5,0.2c0.1,0,0.2-0.1,0.3-0.2c0.1-0.1,0.2-0.3,0.3-0.5
		s0.2-0.5,0.2-0.8s0.1-0.6,0.1-1c0-0.3-0.1-0.5-0.2-0.7S25.9,42.5,25.7,42.5L25.7,42.5z"/>
</g>
<g class="st0">
	<path d="M32,48.6c0,0.1,0,0.2-0.1,0.2c-0.1,0-0.3,0.1-0.4,0.1c-0.1,0-0.3,0-0.4,0s-0.2,0-0.3-0.1c-0.1,0-0.2-0.1-0.2-0.1
		c-0.1-0.1-0.1-0.3-0.2-0.5c-0.1-0.3-0.2-0.7-0.3-1.2c-0.1-0.4-0.2-0.9-0.4-1.4c-0.1-0.5-0.3-0.9-0.4-1.4c-0.1-0.5-0.2-0.9-0.3-1.3
		c-0.1-0.4-0.2-0.7-0.2-1c-0.1-0.3-0.1-0.5-0.1-0.6c0-0.1,0-0.2,0.1-0.2c0.1,0,0.3-0.1,0.4-0.1c0.1,0,0.3-0.1,0.4-0.1s0.2,0,0.3,0
		c0.1,0,0.1,0,0.1,0.1c0,0.1,0,0.2,0.1,0.3c0,0.1,0.1,0.3,0.1,0.6c0.1-0.1,0.1-0.3,0.2-0.4s0.1-0.3,0.2-0.4c0.1-0.1,0.2-0.3,0.3-0.4
		c0.1-0.1,0.2-0.2,0.3-0.2c0.2-0.1,0.4-0.1,0.6-0.1s0.4,0,0.6,0.1c0.2,0.1,0.4,0.2,0.5,0.4c0.2,0.2,0.3,0.4,0.4,0.8
		c0.2,0.6,0.3,1.2,0.3,1.6c0,0.5-0.1,0.9-0.3,1.2s-0.4,0.6-0.6,0.8s-0.4,0.3-0.6,0.4c-0.2,0.1-0.4,0.1-0.6,0.1s-0.3-0.1-0.4-0.1
		c0.2,0.6,0.3,1.2,0.5,1.7S31.8,48.1,32,48.6L32,48.6z M31.1,41.7c-0.1,0.1-0.2,0.1-0.2,0.2c-0.1,0.1-0.1,0.2-0.2,0.3
		s-0.1,0.3-0.1,0.4c0,0.1-0.1,0.3-0.1,0.4c0,0.1,0,0.3,0.1,0.4s0.1,0.3,0.1,0.6l0.2,0.7c0.1,0,0.1,0,0.2,0c0.1,0,0.2,0,0.3-0.1
		c0.2-0.1,0.3-0.2,0.5-0.4c0.1-0.2,0.2-0.4,0.3-0.6c0.1-0.2,0.1-0.5,0.1-0.7c0-0.3-0.1-0.5-0.2-0.8c0-0.1-0.1-0.2-0.1-0.3
		c-0.1-0.1-0.1-0.2-0.2-0.3c-0.1-0.1-0.1-0.1-0.2-0.1C31.3,41.5,31.2,41.6,31.1,41.7L31.1,41.7z"/>
</g>
<g class="st0">
	<path d="M35.3,43.4c-0.4-0.7-0.8-1.3-1.2-2c-0.4-0.6-0.7-1.2-1-1.8c-0.1-0.1-0.1-0.2,0-0.3c0.3-0.2,0.6-0.4,0.8-0.5
		c0.2-0.1,0.4,0,0.5,0.1c0.1,0.1,0.1,0.2,0.2,0.3s0.1,0.2,0.2,0.3l0,0c0.1,0.2,0.2,0.3,0.3,0.5c0.1,0.2,0.2,0.3,0.3,0.5
		c0.1,0.2,0.2,0.3,0.2,0.4c0.1,0.1,0.1,0.2,0.2,0.3l0.2,0.3c0.1,0.1,0.1,0.2,0.2,0.3c0.1,0.1,0.1,0.1,0.1,0c0-0.1,0.1-0.1,0.1-0.1
		c0-0.1,0.1-0.2,0.1-0.4c0-0.1,0.1-0.3,0.1-0.5c0-0.2,0-0.3,0.1-0.5c0-0.2,0-0.3,0-0.4c-0.1-0.2-0.2-0.4-0.4-0.7s-0.3-0.5-0.4-0.7
		s-0.2-0.4-0.3-0.6c-0.1-0.2-0.1-0.3,0-0.3c0.3-0.2,0.6-0.4,0.8-0.5c0.2-0.1,0.4-0.1,0.4,0c0,0,0.1,0.1,0.1,0.1c0,0,0.1,0.1,0.1,0.2
		c0.1,0.2,0.2,0.4,0.4,0.7c0.1,0.3,0.3,0.5,0.4,0.8c0.2,0.3,0.3,0.5,0.5,0.8c0.2,0.3,0.3,0.5,0.4,0.6c0.1-0.1,0.1-0.2,0.2-0.2
		c0.1-0.1,0.2-0.2,0.2-0.2c0.1-0.1,0.1-0.1,0.2-0.1c0.1,0,0.2,0,0.3,0.1s0.2,0.1,0.3,0.1c0.1,0.1,0.2,0.1,0.2,0.2
		c0.1,0.1,0.1,0.2,0.1,0.2c0,0.1,0,0.2,0,0.4c0,0.1,0,0.3,0,0.5c0,0.2,0,0.4,0,0.6c0,0.2,0,0.4,0,0.6c0,0.2-0.1,0.3-0.1,0.3
		c0,0-0.1,0.1-0.2,0.1c-0.1,0-0.2,0-0.3,0c-0.1,0-0.2,0-0.3,0c-0.1,0-0.1-0.1-0.2-0.1c0,0,0,0-0.1-0.1c0,0,0-0.1-0.1-0.2
		c0-0.3,0-0.5,0-0.8c0-0.2,0-0.4,0-0.5c0,0-0.1,0.1-0.2,0.2c-0.1,0.1-0.1,0.2-0.2,0.2c-0.2,0.1-0.3,0.1-0.4,0.1s-0.2-0.2-0.3-0.3
		L37.6,41c0,0,0-0.1-0.1-0.1s-0.1-0.1-0.1,0c0,0-0.1,0.1-0.1,0.2c0,0.1,0,0.2,0,0.2c0,0.2,0,0.4,0,0.6c0,0.2,0,0.4,0,0.6
		s-0.1,0.3-0.1,0.5s-0.1,0.2-0.1,0.3c-0.1,0.1-0.2,0.1-0.4,0.2c-0.1,0.1-0.3,0.1-0.5,0.1c-0.2,0-0.3,0-0.5,0
		C35.6,43.5,35.4,43.4,35.3,43.4L35.3,43.4z"/>
</g>
<g class="st0">
	<path d="M40.1,32.9c0.3,0.2,0.5,0.5,0.9,0.7c0.3,0.3,0.6,0.6,0.9,0.8c0.3,0.3,0.6,0.5,0.9,0.8c0.3,0.2,0.5,0.4,0.6,0.6
		c0.1,0.1,0.1,0.1,0.2,0.2c0,0.1,0,0.1,0,0.2c-0.1,0.2-0.3,0.4-0.5,0.5c-0.2,0.1-0.4,0.1-0.6,0c0,0-0.1-0.1-0.2-0.1
		c-0.1-0.1-0.2-0.1-0.3-0.2c0,0.1,0,0.3,0,0.5c0,0.2,0,0.4,0,0.5c0,0.2,0,0.4,0,0.5l0,0.4c0,0,0,0.1-0.1,0.2s-0.1,0.2-0.1,0.2
		c-0.1,0.1-0.2,0.2-0.3,0.2c-0.1,0.1-0.2,0.1-0.4,0.2c-0.1,0.1-0.2,0.1-0.3,0.1c-0.1,0-0.2,0-0.2,0c-0.3-0.2-0.5-0.4-0.7-0.6
		s-0.4-0.4-0.7-0.6c-0.2-0.2-0.5-0.4-0.7-0.6c-0.3-0.2-0.5-0.5-0.9-0.7c-0.2-0.2-0.3-0.3-0.3-0.4c0-0.1,0.1-0.2,0.1-0.4
		c0.1-0.2,0.3-0.4,0.5-0.5c0.2-0.1,0.3-0.1,0.5,0c0.4,0.3,0.8,0.7,1.2,1.1c0.4,0.4,0.8,0.7,1.2,1.1c0-0.1,0.1-0.2,0.1-0.4
		c0-0.2,0-0.4,0-0.6c0-0.2,0-0.4,0-0.6c0-0.2,0-0.3,0-0.4c-0.4-0.4-0.7-0.7-1-1c-0.3-0.3-0.6-0.5-0.9-0.8c-0.1-0.1-0.1-0.2,0-0.3
		c0-0.1,0.1-0.2,0.2-0.3c0.1-0.1,0.2-0.2,0.3-0.3c0.1-0.1,0.2-0.2,0.3-0.2S40,32.8,40.1,32.9L40.1,32.9z"/>
</g>
<g class="st0">
	<path d="M41.7,28.1c0.3,0.1,0.7,0.3,1.1,0.4c0.4,0.2,0.8,0.3,1.2,0.5c0.4,0.2,0.7,0.3,1.1,0.5c0.3,0.2,0.6,0.3,0.8,0.4
		c0.1,0,0.2,0.1,0.2,0.1s0.1,0.1,0.1,0.2c-0.1,0.2-0.2,0.4-0.4,0.6C45.5,31,45.3,31,45.1,31c0,0-0.1,0-0.2-0.1
		c-0.1,0-0.2-0.1-0.4-0.1c0.1,0.1,0.1,0.3,0.2,0.4c0.1,0.2,0.1,0.3,0.2,0.5c0.1,0.2,0.1,0.3,0.2,0.5l0.1,0.4c0,0,0,0.1,0,0.2
		s0,0.2-0.1,0.2c-0.1,0.1-0.2,0.2-0.3,0.3c-0.1,0.1-0.2,0.2-0.3,0.3c-0.1,0.1-0.2,0.1-0.3,0.2c-0.1,0-0.2,0.1-0.2,0
		c-0.3-0.1-0.6-0.3-0.9-0.4c-0.3-0.1-0.5-0.2-0.8-0.4s-0.6-0.3-0.9-0.4s-0.7-0.3-1.1-0.4c-0.3-0.1-0.4-0.2-0.4-0.3
		c0-0.1,0-0.3,0-0.4c0.1-0.2,0.2-0.5,0.3-0.6c0.1-0.2,0.3-0.2,0.5-0.1c0.5,0.2,1,0.4,1.5,0.6c0.5,0.2,1,0.5,1.5,0.7
		c0-0.1,0-0.2,0-0.4c0-0.2-0.1-0.4-0.1-0.6s-0.1-0.4-0.2-0.5s-0.1-0.3-0.2-0.3c-0.5-0.2-0.9-0.4-1.3-0.6c-0.4-0.2-0.7-0.3-1.1-0.5
		c-0.1,0-0.2-0.1-0.1-0.2c0-0.1,0.1-0.2,0.1-0.3s0.1-0.2,0.2-0.4c0.1-0.1,0.2-0.2,0.2-0.3S41.6,28,41.7,28.1L41.7,28.1z"/>
</g>
<g class="st0">
	<path d="M17.3,28.9c-0.1-0.1-0.2-0.3-0.1-0.5c0.1-0.9,0.3-2,0.5-3.5c0.3-1.5,0.6-3,1-4.6c0.4-1.6,0.8-3.1,1.3-4.7
		c0.5-1.5,1-2.9,1.5-4c0.1-0.2,0.3-0.3,0.5-0.4c0.2-0.1,0.4-0.1,0.6-0.1c1-0.1,1.8-0.2,2.6-0.1c0.7,0.1,1.2,0.3,1.2,0.5
		c0,0.1,0.1,0.2,0.1,0.3c0,0.1,0,0.2,0,0.3c0.1,0.6,0.3,1.3,0.4,2.2c0.2,0.9,0.4,1.7,0.6,2.7c0.2,1,0.4,1.9,0.6,2.9
		c0.2,1,0.4,1.9,0.6,2.8l1.9-0.7c0.3-0.1,0.5-0.1,0.8,0c0,0,0.1,0.1,0.3,0.2c0.2,0.1,0.3,0.3,0.5,0.5c0.1,0.2,0.3,0.4,0.4,0.6
		c0.1,0.2,0.3,0.4,0.3,0.5c0.1,0.2,0,0.4-0.1,0.6c-0.2,0.2-0.4,0.3-0.7,0.5c-0.3,0.2-0.7,0.3-1.2,0.5c-0.5,0.2-0.9,0.3-1.4,0.6
		c0.1,0.4,0.2,0.9,0.4,1.5c0.2,0.6,0.3,1.2,0.5,1.9s0.3,1.3,0.5,1.9c0.2,0.6,0.3,1.1,0.4,1.6c0,0.2,0,0.4-0.2,0.6
		c-0.1,0.2-0.3,0.3-0.5,0.3L29.3,34c-0.4,0-0.8-0.1-1.1-0.2c-0.3-0.1-0.7-0.3-1-0.6c-0.3-0.3-0.5-0.6-0.7-1.1
		c-0.2-0.5-0.3-1.1-0.5-1.8s-0.3-1.5-0.5-2.2c-0.5,0.2-1,0.4-1.5,0.7c-0.6,0.2-1.1,0.5-1.6,0.7c-0.5,0.2-0.9,0.4-1.3,0.6
		s-0.7,0.3-0.8,0.3c-0.2,0.1-0.5,0.1-0.8,0c-0.3-0.1-0.6-0.3-0.9-0.4s-0.5-0.4-0.8-0.6c-0.2-0.2-0.4-0.4-0.5-0.5L17.3,28.9z
		 M21.1,26.6c0.5-0.3,1.1-0.5,1.6-0.8c0.6-0.3,1.2-0.6,1.9-0.9c-0.3-1.4-0.6-2.6-0.9-3.8c-0.3-1.2-0.6-2.5-0.8-3.8
		c-0.3,0.8-0.5,1.6-0.7,2.5c-0.2,0.9-0.4,1.8-0.6,2.6c-0.2,0.9-0.3,1.6-0.4,2.4S21.1,26.1,21.1,26.6L21.1,26.6z"/>
</g>
<path class="st1" d="M14.7,41.5C5.6,35.8,2.8,23.8,8.5,14.7S26.2,2.8,35.3,8.5C41,12,44.5,18.3,44.5,25"/>
</svg>
