<svg id="Слой_1" data-name="Слой 1" xmlns="http://www.w3.org/2000/svg" viewBox="0 0 35 30"><defs><style>.cls-1{fill:none;stroke:#000;stroke-linecap:round;stroke-linejoin:round;stroke-width:2.28px;}</style></defs><title>icons</title><line class="cls-1" x1="16.89" y1="8.76" x2="16.89" y2="24.33"/><line class="cls-1" x1="16.89" y1="1.95" x2="16.89" y2="4.33"/><path class="cls-1" d="M8.34,7.24,13.2,17.67a4.7,4.7,0,1,1-9.39,0L8.34,7.24Z"/><line class="cls-1" x1="13.02" y1="17.7" x2="3.97" y2="17.7"/><path class="cls-1" d="M26.34,7.24l4.85,10.43a4.7,4.7,0,1,1-9.39,0L26.34,7.24Z"/><line class="cls-1" x1="30.98" y1="17.7" x2="22" y2="17.7"/><polyline class="cls-1" points="16.89 28.05 10.55 28.05 12.38 24.33 16.89 24.33"/><polyline class="cls-1" points="16.97 28.05 23.31 28.05 21.48 24.33 16.97 24.33"/><path class="cls-1" d="M14.68,6.58A57,57,0,0,0,4,7.93"/><path class="cls-1" d="M29.81,7.93A56.94,56.94,0,0,0,19.1,6.58"/><path class="cls-1" d="M19.1,6.55a2.21,2.21,0,1,1-2.21-2.22A2.21,2.21,0,0,1,19.1,6.55Z"/></svg>