<?xml version="1.0" encoding="utf-8"?>
<!-- Generator: Adobe Illustrator 23.0.5, SVG Export Plug-In . SVG Version: 6.00 Build 0)  -->
<svg version="1.1" id="Слой_1" xmlns="http://www.w3.org/2000/svg" xmlns:xlink="http://www.w3.org/1999/xlink" x="0px" y="0px"
	 viewBox="0 0 112 112" style="enable-background:new 0 0 112 112;" xml:space="preserve">
<style type="text/css">
	.st0{enable-background:new    ;}
	.st1{fill:#231F20;}
	.st2{fill:none;stroke:#231F20;stroke-width:2.28;stroke-linecap:round;stroke-linejoin:round;}
</style>
<title>icons</title>
<g class="st0">
	<path class="st1" d="M52.8,77.5c0.2,0.2,0.3,0.3,0.4,0.4c0,0.1,0,0.3,0,0.6c-0.1,0.8-0.3,1.8-0.4,3c-0.2,1.2-0.3,2.4-0.5,3.7
		c-0.2,1.3-0.4,2.7-0.5,4.1c-0.2,1.4-0.3,2.7-0.5,4c0,0.3-0.1,0.4-0.4,0.4c-0.3,0-0.6-0.1-0.9-0.2c-0.3-0.1-0.6-0.3-0.8-0.5
		c-0.2-0.2-0.4-0.4-0.6-0.7c-0.1-0.3-0.2-0.5-0.2-0.8c0-0.1,0-0.2,0-0.4s0-0.2,0-0.4c0-0.6,0.1-1.3,0.2-2s0.2-1.4,0.3-2.2
		s0.2-1.5,0.3-2.2s0.2-1.4,0.3-2c-0.1,0.2-0.4,0.5-0.7,0.8c-0.4,0.3-0.7,0.5-1.1,0.6c-0.1,0-0.3,0-0.4,0c-0.1,0-0.2-0.1-0.2-0.2
		c-0.2-0.2-0.4-0.5-0.5-0.7s-0.2-0.4-0.2-0.5c0-0.1,0.1-0.3,0.3-0.4c0.4-0.3,0.9-0.7,1.2-1.1c0.4-0.4,0.7-0.9,1-1.3
		c0.3-0.4,0.5-0.9,0.7-1.3c0.2-0.4,0.4-0.7,0.5-1c0-0.1,0.1-0.2,0.2-0.3c0.1-0.1,0.2-0.1,0.3-0.1s0.3,0,0.4,0c0.2,0,0.4,0,0.6,0.1
		c0.2,0,0.4,0.1,0.6,0.2C52.5,77.2,52.7,77.3,52.8,77.5L52.8,77.5z"/>
	<path class="st1" d="M56.4,86.6c-0.2,0-0.4,0-0.5-0.2c-0.2-0.1-0.2-0.3-0.2-0.5c0-0.4,0-0.8,0.1-1.4c0.1-0.6,0.1-1.2,0.2-1.7
		c0.1-0.6,0.2-1.2,0.2-1.7c0.1-0.5,0.1-1,0.1-1.3c0-0.1,0-0.2-0.1-0.3c-0.1-0.1-0.2-0.2-0.3-0.3s-0.2-0.2-0.3-0.4
		c-0.1-0.1-0.1-0.3-0.1-0.5c0-0.2,0.1-0.4,0.3-0.5c0.2-0.1,0.3-0.2,0.5-0.2c1-0.3,2.1-0.5,3.3-0.8c1.1-0.2,2.4-0.4,3.9-0.4
		c0.4,0,0.7,0,1,0.1c0.1,0,0.2,0.2,0.3,0.3c0.1,0.2,0.2,0.4,0.3,0.6s0.2,0.5,0.3,0.7c0.1,0.2,0.1,0.4,0.1,0.6c0,0.1-0.1,0.2-0.2,0.3
		c-0.1,0.1-0.3,0.1-0.4,0.1c-1,0-1.9,0-2.6,0.1c-0.8,0.1-1.6,0.3-2.4,0.5c-0.1,0.2-0.1,0.5-0.2,0.8c-0.1,0.3-0.1,0.7-0.2,1.1
		c0,0.4-0.1,0.8-0.1,1.1c0,0.4-0.1,0.7-0.1,1.1c0.4-0.2,1-0.3,1.6-0.3c0.5,0,1.1,0.1,1.6,0.3c0.5,0.2,0.9,0.4,1.3,0.8
		s0.7,0.8,0.9,1.2s0.3,1,0.3,1.6c0,0.9-0.2,1.7-0.5,2.5c-0.3,0.8-0.7,1.4-1.3,1.9c-0.5,0.5-1.1,0.9-1.8,1.2
		c-0.7,0.3-1.4,0.4-2.1,0.4c-0.6,0-1.1-0.1-1.6-0.2c-0.5-0.1-0.9-0.3-1.2-0.6s-0.7-0.5-0.9-0.8c-0.3-0.3-0.5-0.6-0.7-1
		c-0.1-0.1-0.1-0.2-0.1-0.4c0-0.2,0-0.3,0-0.5s0-0.3,0.1-0.5s0.2-0.2,0.4-0.2c0.1,0,0.3,0.1,0.5,0.2c0.2,0.1,0.4,0.3,0.6,0.5
		c0.2,0.2,0.4,0.3,0.7,0.5s0.6,0.2,0.9,0.2c0.4,0,0.8,0,1.1-0.1c0.4-0.1,0.7-0.2,1-0.4c0.3-0.2,0.6-0.5,0.8-0.8
		c0.2-0.3,0.3-0.8,0.4-1.3c0-0.6-0.1-1.1-0.4-1.4c-0.3-0.4-0.8-0.6-1.5-0.6c-0.5,0-1,0.1-1.5,0.2c-0.4,0.1-0.8,0.2-1,0.2L56.4,86.6z
		"/>
</g>
<g class="st0">
	<path class="st1" d="M39.8,103.9c-0.1,0-0.1-0.1-0.2-0.1c0-0.1-0.1-0.1-0.1-0.2c-0.2-0.4-0.3-0.8-0.4-1c-0.1-0.3-0.2-0.5-0.3-0.6
		c-0.1-0.2-0.1-0.3-0.2-0.4c0-0.1-0.1-0.2-0.1-0.3c0,0.4-0.1,0.7-0.1,1.1c0,0.4-0.1,0.8-0.1,1.2c0,0.4-0.1,0.8-0.1,1.1
		c0,0.4,0,0.7-0.1,1c0,0.1,0,0.1-0.1,0.2c-0.1,0-0.1,0.1-0.2,0.1c-0.1,0-0.1,0-0.2,0s-0.2,0-0.2-0.1c-0.4-0.1-0.7-0.3-0.9-0.5
		s-0.3-0.5-0.3-1c0-0.4,0-0.8,0.1-1.4c0-0.5,0.1-1.1,0.2-1.7c0.1-0.6,0.1-1.1,0.2-1.6c0.1-0.5,0.1-0.8,0.2-1.1c0,0,0.1-0.1,0.1-0.2
		s0.2-0.1,0.2-0.1c0.1,0,0.2,0,0.4,0c0.1,0,0.3,0,0.4,0s0.3,0,0.4,0.1c0.1,0,0.2,0.1,0.3,0.1l0.2,0.2c0.1,0.1,0.2,0.3,0.3,0.6
		s0.2,0.5,0.4,0.9s0.3,0.6,0.4,1c0.1,0.3,0.3,0.7,0.4,1c0.3-0.4,0.6-0.9,0.8-1.3c0.3-0.5,0.6-0.9,0.8-1.3c0.3-0.4,0.5-0.7,0.7-0.9
		s0.4-0.4,0.6-0.4h0.1l0.3,0c0.1,0,0.3,0,0.4,0c0.1,0,0.3,0,0.4,0.1c0.1,0,0.2,0.1,0.3,0.1s0.1,0.1,0.1,0.3v0.1
		c0,0.3-0.1,0.8-0.1,1.3c-0.1,0.5-0.1,1.1-0.2,1.7s-0.1,1.2-0.1,1.8c0,0.6,0,1.1,0,1.5v0.3c0,0.1,0,0.2-0.1,0.2s-0.1,0.1-0.2,0.1
		c-0.1,0-0.3-0.1-0.6-0.2c-0.2-0.1-0.5-0.2-0.6-0.3c-0.3-0.1-0.4-0.2-0.5-0.4c0-0.1-0.1-0.3-0.1-0.6c0-0.5,0-0.9,0.1-1.5
		s0.1-1.1,0.2-1.7c0,0.1-0.1,0.3-0.3,0.5c-0.2,0.2-0.3,0.5-0.5,0.8c-0.2,0.3-0.3,0.5-0.5,0.8c-0.2,0.2-0.3,0.4-0.3,0.5
		c0,0.1-0.1,0.1-0.2,0.2c-0.1,0-0.1,0.1-0.2,0.1c-0.1,0-0.3,0-0.4-0.1c-0.1,0-0.3-0.1-0.4-0.1L39.8,103.9z"/>
	<path class="st1" d="M53.1,99.1c0,0.5-0.1,1-0.1,1.6c-0.1,0.6-0.1,1.2-0.2,1.7s-0.1,1.1-0.2,1.6s-0.1,0.9-0.2,1.2
		c0,0.1,0,0.3-0.1,0.4c0,0.1-0.1,0.1-0.2,0.1c-0.3,0-0.7-0.1-1-0.2s-0.4-0.4-0.4-0.7c0,0,0-0.1,0-0.3s0-0.3,0-0.5
		c-0.1,0.1-0.3,0.2-0.5,0.4c-0.2,0.1-0.4,0.3-0.6,0.4c-0.2,0.1-0.4,0.3-0.6,0.4l-0.5,0.3c0,0-0.1,0-0.3,0.1c-0.1,0-0.2,0-0.3,0
		c-0.2,0-0.4-0.1-0.6-0.2s-0.4-0.2-0.5-0.2s-0.3-0.2-0.4-0.3c-0.1-0.1-0.1-0.2-0.1-0.3c0-0.5,0.1-0.9,0.1-1.3c0-0.4,0.1-0.8,0.1-1.2
		s0.1-0.9,0.1-1.3c0-0.5,0.1-1,0.1-1.6c0-0.4,0.1-0.6,0.2-0.7s0.3-0.1,0.5-0.1c0.4,0,0.7,0,1,0.1c0.3,0.1,0.4,0.3,0.4,0.6
		c0,0.7-0.1,1.5-0.2,2.3c-0.1,0.8-0.2,1.5-0.2,2.3c0.1,0,0.3-0.1,0.5-0.2c0.2-0.1,0.5-0.2,0.7-0.4c0.2-0.1,0.4-0.3,0.6-0.4
		s0.3-0.3,0.4-0.3c0.1-0.7,0.2-1.4,0.3-1.9c0.1-0.5,0.1-1.1,0.1-1.6c0-0.2,0.1-0.3,0.3-0.3c0.1,0,0.3,0,0.4,0c0.2,0,0.4,0,0.5,0.1
		c0.2,0,0.3,0.1,0.5,0.2S53.2,99,53.1,99.1L53.1,99.1z"/>
	<path class="st1" d="M54.5,101.7c0-0.1,0-0.2,0.1-0.2l0.5,0c0-0.3,0.1-0.6,0.1-0.9s0.1-0.6,0.1-0.8c0-0.3,0.1-0.5,0.1-0.7
		c0-0.2,0.1-0.4,0.1-0.5c0,0,0-0.1,0.1-0.1s0.1-0.1,0.2-0.1c0.2,0,0.4,0,0.6,0c0.2,0,0.4,0.1,0.5,0.1c0.1,0,0.3,0.1,0.4,0.2
		c0.1,0.1,0.1,0.2,0.1,0.3c-0.1,0.3-0.2,0.7-0.2,1.1s-0.1,0.9-0.2,1.3l2.1-0.1l0.1-1.1c0-0.4,0.1-0.7,0.2-1c0.1-0.3,0.1-0.5,0.2-0.7
		c0.1-0.2,0.2-0.3,0.3-0.3c0.1,0,0.2,0,0.4,0c0.2,0,0.4,0.1,0.5,0.1c0.2,0,0.3,0.1,0.5,0.2s0.2,0.2,0.2,0.2c0,0,0,0,0,0s0,0,0,0
		c-0.1,0.4-0.1,0.9-0.2,1.5s-0.1,1.2-0.2,1.8c-0.1,0.6-0.1,1.2-0.2,1.8c0,0.6-0.1,1.1-0.1,1.6c0,0.1-0.1,0.2-0.3,0.2
		c-0.1,0-0.3,0-0.6-0.1s-0.5-0.2-0.7-0.3c-0.2-0.1-0.3-0.2-0.3-0.3c0-0.1-0.1-0.2-0.1-0.4c0-0.2,0-0.5,0-0.9c0-0.3,0.1-0.7,0.1-1
		c-0.3,0-0.7,0-1,0s-0.7,0-1,0c0,0.5-0.1,1-0.1,1.4c0,0.5,0,0.9-0.1,1.2c0,0.1-0.1,0.2-0.3,0.2c-0.1,0-0.3,0-0.5-0.1
		c-0.2,0-0.3-0.1-0.5-0.2c-0.2-0.1-0.3-0.2-0.4-0.3S55,105,55,104.9c0-0.3,0-0.6,0-1s0-0.8,0.1-1.2c0,0,0,0-0.1-0.1
		c0,0-0.1-0.1-0.1-0.1c-0.1-0.1-0.2-0.2-0.2-0.4s-0.1-0.3-0.1-0.4L54.5,101.7z"/>
	<path class="st1" d="M64,105c-0.3-0.8-0.6-1.7-0.8-2.6c-0.2-0.9-0.4-1.8-0.5-2.7c0-0.1,0-0.3,0-0.5c0-0.4,0.1-0.7,0.5-0.8
		c0.3-0.1,0.7-0.2,1.3-0.2c0.1,0,0.2,0,0.3,0c0.1,0,0.2,0.1,0.2,0.2c0.1,1.1,0.2,2.1,0.3,2.9c0.2,0.9,0.4,1.7,0.7,2.5
		c0.3-0.8,0.6-1.6,0.9-2.3c0.3-0.7,0.6-1.3,0.8-1.8s0.5-0.9,0.7-1.2c0.2-0.3,0.4-0.4,0.5-0.4c0.1,0,0.2,0,0.4,0.1
		c0.1,0.1,0.3,0.1,0.4,0.2c0.1,0.1,0.2,0.2,0.3,0.3C70,98.8,70,98.9,70,99c0,0.1,0,0.3-0.1,0.4c-0.1,0.2-0.1,0.3-0.2,0.4
		c-0.4,0.7-0.8,1.5-1.1,2.4s-0.8,1.8-1.1,2.7s-0.7,1.8-1,2.7c-0.3,0.9-0.6,1.7-0.8,2.3c0,0.1-0.1,0.1-0.1,0.2s-0.2,0.1-0.3,0.1
		c-0.1,0-0.2,0-0.4-0.1c-0.2-0.1-0.3-0.1-0.5-0.3s-0.3-0.2-0.5-0.4s-0.2-0.3-0.2-0.4c0,0,0-0.1,0-0.2c0-0.1,0.1-0.2,0.1-0.4
		c0.1-0.4,0.3-0.9,0.5-1.5c0.2-0.6,0.5-1.1,0.7-1.7c0,0-0.1,0-0.2,0c-0.1,0-0.1,0-0.2,0c-0.2,0-0.3,0-0.4-0.1
		c-0.1-0.1-0.2-0.2-0.2-0.5L64,105z"/>
	<path class="st1" d="M75.9,98.4c0.1,0,0.1,0,0.2,0.1s0.1,0.1,0.1,0.2c0,0.1,0.1,0.2,0.1,0.4s0,0.4,0,0.8c0,0.2-0.1,0.3-0.2,0.3
		c-0.1,0-0.2,0-0.4,0c-0.2,0-0.4,0-0.6-0.1c-0.2,0-0.5-0.1-0.7-0.1s-0.5,0-0.7-0.1c0.2,0.2,0.3,0.4,0.3,0.6s0,0.5,0,0.8
		c0,0.3-0.1,0.6-0.2,1c-0.1,0.3-0.1,0.7-0.2,1.1c0,0.4-0.1,0.8-0.1,1.1s-0.1,0.8-0.1,1.1c0,0.1-0.1,0.2-0.2,0.2
		c-0.3,0-0.5,0-0.7-0.1c-0.2-0.1-0.4-0.1-0.5-0.2c-0.1-0.1-0.2-0.2-0.3-0.2c-0.1-0.1-0.1-0.1-0.1-0.2c0-0.5,0-1,0.1-1.5
		c0-0.5,0.1-1,0.2-1.5c0.1-0.5,0.2-0.9,0.3-1.3c0.1-0.4,0.2-0.7,0.3-1c-0.3,0-0.5,0-0.8,0.1c-0.2,0-0.5,0-0.6,0.1c0,0-0.1,0-0.1,0
		h-0.1c-0.1,0-0.1-0.1-0.2-0.2s-0.1-0.2-0.2-0.4s-0.1-0.3-0.1-0.4c0-0.1,0-0.2,0-0.3c0-0.1,0-0.2,0.2-0.3c0.1,0,0.3-0.1,0.5-0.1
		s0.5-0.1,0.7-0.1c0.3,0,0.6,0,0.9-0.1c0.3,0,0.6,0,0.9,0c0.2,0,0.4,0,0.6,0c0.2,0,0.5,0,0.8,0s0.5,0,0.7,0
		C75.6,98.3,75.8,98.3,75.9,98.4L75.9,98.4z"/>
</g>
<line class="st2" x1="29" y1="26.2" x2="84.4" y2="26.2"/>
<circle class="st2" cx="48.2" cy="19.8" r="0.9"/>
<circle class="st2" cx="56" cy="19.8" r="0.9"/>
<circle class="st2" cx="63.8" cy="19.8" r="0.9"/>
<rect x="27.6" y="13.4" class="st2" width="56.8" height="53.7"/>
<line class="st2" x1="71.6" y1="19.8" x2="78.7" y2="19.8"/>
<line class="st2" x1="31.9" y1="19.8" x2="39" y2="19.8"/>
<rect x="32.8" y="31" class="st2" width="46.4" height="30.9"/>
<line class="st2" x1="40.8" y1="53.1" x2="71.2" y2="53.1"/>
<polyline class="st2" points="64.2,52.8 68.9,47.7 43.1,47.7 47.8,52.8 "/>
<polyline class="st2" points="69.6,38.3 63,43 56,38.3 49,43 42.4,38.3 "/>
</svg>
