<svg width="105" height="23" viewBox="0 0 105 23" fill="none" xmlns="http://www.w3.org/2000/svg">
<path d="M2.592 21.108C3.384 21.108 3.852 20.784 4.185 20.352L3.735 19.938C3.447 20.325 3.078 20.505 2.628 20.505C1.701 20.505 1.125 19.785 1.125 18.822C1.125 17.859 1.701 17.148 2.628 17.148C3.078 17.148 3.447 17.319 3.735 17.715L4.185 17.301C3.852 16.869 3.384 16.545 2.592 16.545C1.296 16.545 0.423 17.535 0.423 18.822C0.423 20.118 1.296 21.108 2.592 21.108ZM4.61805 22.107H5.29305V21H8.57805V22.107H9.25306V20.406H8.74905V16.653H5.72505L5.44605 18.795C5.27505 20.082 5.02305 20.37 4.61805 20.442V22.107ZM6.31905 17.247H8.07405V20.406H5.49105C5.80605 20.154 6.01305 19.695 6.12105 18.876L6.31905 17.247ZM12.138 21.108C12.849 21.108 13.434 20.874 13.866 20.442L13.542 20.001C13.2 20.352 12.696 20.55 12.201 20.55C11.265 20.55 10.689 19.866 10.635 19.047H14.154V18.876C14.154 17.571 13.38 16.545 12.066 16.545C10.824 16.545 9.92398 17.562 9.92398 18.822C9.92398 20.181 10.851 21.108 12.138 21.108ZM13.488 18.552H10.635C10.671 17.886 11.13 17.103 12.057 17.103C13.047 17.103 13.479 17.904 13.488 18.552ZM14.7343 21.108C15.5713 21.108 16.0393 20.496 16.2373 18.876L16.4353 17.247H18.1903V21H18.8653V16.653H15.8413L15.5623 18.795C15.3913 20.082 15.1393 20.55 14.7343 20.55V21.108ZM23.6061 21V18.012C23.6061 16.959 22.8411 16.545 21.9231 16.545C21.2121 16.545 20.6541 16.779 20.1861 17.265L20.5011 17.733C20.8881 17.319 21.3111 17.13 21.8331 17.13C22.4631 17.13 22.9311 17.463 22.9311 18.048V18.831C22.5801 18.426 22.0851 18.237 21.4911 18.237C20.7531 18.237 19.9701 18.696 19.9701 19.668C19.9701 20.613 20.7531 21.108 21.4911 21.108C22.0761 21.108 22.5711 20.901 22.9311 20.505V21H23.6061ZM21.7341 20.622C21.1041 20.622 20.6631 20.226 20.6631 19.677C20.6631 19.119 21.1041 18.723 21.7341 18.723C22.2111 18.723 22.6701 18.903 22.9311 19.263V20.082C22.6701 20.442 22.2111 20.622 21.7341 20.622ZM25.6342 21V19.056H27.9022V21H28.5772V16.653H27.9022V18.462H25.6342V16.653H24.9592V21H25.6342ZM31.824 21.108C33.147 21.108 33.975 20.082 33.975 18.822C33.975 17.562 33.147 16.545 31.824 16.545C30.501 16.545 29.673 17.562 29.673 18.822C29.673 20.082 30.501 21.108 31.824 21.108ZM31.824 20.505C30.897 20.505 30.375 19.713 30.375 18.822C30.375 17.94 30.897 17.148 31.824 17.148C32.751 17.148 33.264 17.94 33.264 18.822C33.264 19.713 32.751 20.505 31.824 20.505ZM39.8347 21C40.6357 21 41.1037 20.523 41.1037 19.821C41.1037 19.326 40.7527 18.867 40.3117 18.759C40.6807 18.642 41.0137 18.291 41.0137 17.769C41.0137 17.112 40.5547 16.653 39.7897 16.653H37.3957V21H39.8347ZM39.6997 20.406H38.0707V19.065H39.6997C40.1587 19.065 40.4017 19.389 40.4017 19.74C40.4017 20.154 40.1317 20.406 39.6997 20.406ZM39.6727 18.471H38.0707V17.247H39.6727C40.0867 17.247 40.3207 17.49 40.3207 17.868C40.3207 18.21 40.0957 18.471 39.6727 18.471ZM47.7054 20.433L46.2654 18.813L47.7054 17.22H47.0304L45.5904 18.813L47.0304 20.433H47.7054ZM46.4094 20.433L44.9694 18.813L46.4094 17.22H45.7344L44.2944 18.813L45.7344 20.433H46.4094ZM52.4795 21L50.5445 18.624L52.4705 16.653H51.6155L49.3295 18.966V14.997H48.6545V21H49.3295V19.758L50.0495 19.047L51.6155 21H52.4795ZM56.6705 21V18.012C56.6705 16.959 55.9055 16.545 54.9875 16.545C54.2765 16.545 53.7185 16.779 53.2505 17.265L53.5655 17.733C53.9525 17.319 54.3755 17.13 54.8975 17.13C55.5275 17.13 55.9955 17.463 55.9955 18.048V18.831C55.6445 18.426 55.1495 18.237 54.5555 18.237C53.8175 18.237 53.0345 18.696 53.0345 19.668C53.0345 20.613 53.8175 21.108 54.5555 21.108C55.1405 21.108 55.6355 20.901 55.9955 20.505V21H56.6705ZM54.7985 20.622C54.1685 20.622 53.7275 20.226 53.7275 19.677C53.7275 19.119 54.1685 18.723 54.7985 18.723C55.2755 18.723 55.7345 18.903 55.9955 19.263V20.082C55.7345 20.442 55.2755 20.622 54.7985 20.622ZM58.6986 21V14.997H58.0236V21H58.6986ZM63.4381 21V18.012C63.4381 16.959 62.6731 16.545 61.7551 16.545C61.0441 16.545 60.4861 16.779 60.0181 17.265L60.3331 17.733C60.7201 17.319 61.1431 17.13 61.6651 17.13C62.2951 17.13 62.7631 17.463 62.7631 18.048V18.831C62.4121 18.426 61.9171 18.237 61.3231 18.237C60.5851 18.237 59.8021 18.696 59.8021 19.668C59.8021 20.613 60.5851 21.108 61.3231 21.108C61.9081 21.108 62.4031 20.901 62.7631 20.505V21H63.4381ZM61.5661 20.622C60.9361 20.622 60.4951 20.226 60.4951 19.677C60.4951 19.119 60.9361 18.723 61.5661 18.723C62.0431 18.723 62.5021 18.903 62.7631 19.263V20.082C62.5021 20.442 62.0431 20.622 61.5661 20.622ZM66.7082 21.108C67.5002 21.108 67.9682 20.784 68.3012 20.352L67.8512 19.938C67.5632 20.325 67.1942 20.505 66.7442 20.505C65.8172 20.505 65.2412 19.785 65.2412 18.822C65.2412 17.859 65.8172 17.148 66.7442 17.148C67.1942 17.148 67.5632 17.319 67.8512 17.715L68.3012 17.301C67.9682 16.869 67.5002 16.545 66.7082 16.545C65.4122 16.545 64.5392 17.535 64.5392 18.822C64.5392 20.118 65.4122 21.108 66.7082 21.108ZM72.8653 21V17.931C72.8653 16.986 72.3883 16.545 71.4793 16.545C70.8223 16.545 70.2283 16.923 69.9223 17.283V14.997H69.2473V21H69.9223V17.823C70.1833 17.472 70.6873 17.148 71.2093 17.148C71.7943 17.148 72.1903 17.373 72.1903 18.138V21H72.8653ZM74.5461 16.032C74.7981 16.032 75.0051 15.834 75.0051 15.582C75.0051 15.33 74.7981 15.123 74.5461 15.123C74.3031 15.123 74.0961 15.33 74.0961 15.582C74.0961 15.834 74.3031 16.032 74.5461 16.032ZM74.8881 21V16.653H74.2131V21H74.8881ZM79.2299 19.821V17.85C79.4639 17.472 79.9949 17.148 80.5259 17.148C81.4079 17.148 81.9299 17.868 81.9299 18.831C81.9299 19.794 81.4079 20.505 80.5259 20.505C79.9949 20.505 79.4639 20.199 79.2299 19.821ZM79.2299 21V20.352C79.5539 20.793 80.0849 21.108 80.6969 21.108C81.8309 21.108 82.6319 20.244 82.6319 18.831C82.6319 17.445 81.8309 16.545 80.6969 16.545C80.1029 16.545 79.5809 16.833 79.2299 17.31V14.997H78.5549V21H79.2299ZM84.4066 21V17.922C84.6046 17.571 85.1716 17.229 85.5856 17.229C85.6936 17.229 85.7746 17.238 85.8556 17.256V16.563C85.2616 16.563 84.7576 16.896 84.4066 17.355V16.653H83.7316V21H84.4066ZM90.0953 21V18.012C90.0953 16.959 89.3303 16.545 88.4123 16.545C87.7013 16.545 87.1433 16.779 86.6753 17.265L86.9903 17.733C87.3773 17.319 87.8003 17.13 88.3223 17.13C88.9523 17.13 89.4203 17.463 89.4203 18.048V18.831C89.0693 18.426 88.5743 18.237 87.9803 18.237C87.2423 18.237 86.4593 18.696 86.4593 19.668C86.4593 20.613 87.2423 21.108 87.9803 21.108C88.5653 21.108 89.0603 20.901 89.4203 20.505V21H90.0953ZM88.2233 20.622C87.5933 20.622 87.1523 20.226 87.1523 19.677C87.1523 19.119 87.5933 18.723 88.2233 18.723C88.7003 18.723 89.1593 18.903 89.4203 19.263V20.082C89.1593 20.442 88.7003 20.622 88.2233 20.622ZM95.0574 21V17.949C95.0574 17.004 94.5804 16.545 93.6714 16.545C93.0234 16.545 92.4294 16.923 92.1234 17.283V16.653H91.4484V21H92.1234V17.823C92.3754 17.472 92.8794 17.148 93.4104 17.148C93.9954 17.148 94.3824 17.391 94.3824 18.156V21H95.0574ZM100.23 21V14.997H99.5555V17.31C99.2045 16.833 98.6735 16.545 98.0885 16.545C96.9455 16.545 96.1535 17.445 96.1535 18.831C96.1535 20.244 96.9545 21.108 98.0885 21.108C98.7005 21.108 99.2315 20.793 99.5555 20.352V21H100.23ZM98.2505 20.505C97.3775 20.505 96.8555 19.794 96.8555 18.831C96.8555 17.868 97.3775 17.148 98.2505 17.148C98.7905 17.148 99.3125 17.472 99.5555 17.85V19.821C99.3125 20.199 98.7905 20.505 98.2505 20.505ZM103.292 18.813L101.852 17.22H101.177L102.617 18.813L101.177 20.433H101.852L103.292 18.813ZM104.588 18.813L103.148 17.22H102.473L103.913 18.813L102.473 20.433H103.148L104.588 18.813Z" fill="white"/>
<path d="M0 0H2.4154V5.10067H3.10551L4.55475 2.75168H7.17717L5.10684 5.97315L7.52223 9.79866H4.76178L3.24353 7.04698H2.4154V9.79866H0V0Z" fill="white"/>
<path d="M12.1458 5.36908H12.3528V5.30197C12.3528 4.69794 11.8697 4.4966 11.3177 4.4966C10.6275 4.4966 9.86842 4.83217 9.31632 5.16774L8.48819 3.48989C9.10929 3.02009 10.3515 2.55029 11.5937 2.55029C13.595 2.55029 14.8372 3.62412 14.8372 5.4362V9.79861H12.6289V9.39593C12.6289 9.19459 12.6289 8.92613 12.6289 8.92613C12.1458 9.59727 11.3177 9.93284 10.4895 9.93284C9.10929 9.93284 8.14313 8.99325 8.14313 7.78519C8.07412 5.906 10.3515 5.36908 12.1458 5.36908ZM11.1796 8.18788C11.8697 8.18788 12.4218 7.51674 12.4218 6.91271V6.71137H12.2148C11.4557 6.71137 10.4895 6.91271 10.4895 7.51674C10.4895 7.91942 10.6966 8.18788 11.1796 8.18788Z" fill="white"/>
<path d="M16.6315 0H19.0469V6.91275C19.0469 7.58389 19.1849 7.78524 19.737 7.78524C19.806 7.78524 19.9441 7.78524 20.0131 7.78524V9.86577C19.875 9.86577 19.599 9.93289 19.2539 9.93289C17.9427 9.93289 16.5625 9.59732 16.5625 7.24832V0H16.6315Z" fill="white"/>
<path d="M25.0511 5.36908H25.2581V5.30197C25.2581 4.69794 24.775 4.4966 24.2229 4.4966C23.5328 4.4966 22.7737 4.83217 22.2216 5.16774L21.3935 3.48989C22.0146 3.02009 23.2568 2.55029 24.499 2.55029C26.5003 2.55029 27.7425 3.62412 27.7425 5.4362V9.79861H25.5341V9.39593C25.5341 9.19459 25.5341 8.92613 25.5341 8.92613C25.0511 9.59727 24.2229 9.93284 23.3948 9.93284C22.0146 9.93284 21.0484 8.99325 21.0484 7.78519C20.9794 5.906 23.2568 5.36908 25.0511 5.36908ZM24.0849 8.18788C24.775 8.18788 25.3271 7.51674 25.3271 6.91271V6.71137H25.1201C24.3609 6.71137 23.3948 6.91271 23.3948 7.51674C23.3948 7.91942 23.6018 8.18788 24.0849 8.18788Z" fill="white"/>
<path d="M33.1947 2.55029C34.2299 2.55029 35.3341 2.88586 36.0932 3.62412L35.058 5.23486C34.6439 4.83217 33.9538 4.56372 33.3327 4.56372C32.1595 4.56372 31.6075 5.4362 31.6075 6.24157C31.6075 7.04694 32.2286 7.98653 33.4017 7.98653C34.0919 7.98653 34.851 7.58385 35.4031 7.11405L36.3002 8.7919C35.6101 9.53016 34.3679 9.93284 33.1947 9.93284C30.5723 9.93284 29.123 8.18788 29.123 6.24157C29.123 4.36237 30.5723 2.55029 33.1947 2.55029Z" fill="white"/>
<path d="M37.6113 0H40.0267V3.08725C40.0267 3.42282 40.0267 3.69128 40.0267 3.69128C40.4408 3.02013 41.2689 2.55034 42.2351 2.55034C43.6843 2.55034 44.8575 3.22148 44.8575 5.16779V9.73154H42.4421V5.63758C42.4421 4.96644 42.1661 4.69799 41.614 4.69799C40.5788 4.69799 40.0267 5.57047 40.0267 6.6443V9.79866H37.6113V0Z" fill="white"/>
<path d="M46.7207 2.75168H49.1361V9.79866H46.7207V2.75168ZM46.7897 0H49.2051V1.87919H46.7897V0Z" fill="white"/>
<path d="M54.8643 0H57.2796V2.75168C57.2796 3.08725 57.2796 3.3557 57.2796 3.3557C57.6937 2.88591 58.5219 2.61745 59.212 2.61745C61.2133 2.61745 62.4555 4.09396 62.4555 6.30872C62.4555 8.52349 61.0063 10 59.0739 10C58.3148 10 57.5557 9.73154 57.0726 9.19463C57.0726 9.19463 57.0726 9.39597 57.0726 9.59732V9.86577H54.8643V0ZM58.6599 7.98658C59.419 7.98658 60.1091 7.38255 60.1091 6.30872C60.1091 5.2349 59.557 4.56376 58.6599 4.56376C57.9698 4.56376 57.2796 5.10067 57.2796 6.30872C57.2796 7.18121 57.6937 7.98658 58.6599 7.98658Z" fill="white"/>
<path d="M64.1113 2.75168H66.4577V3.95974C66.4577 4.16108 66.4577 4.42954 66.4577 4.42954C66.7338 3.48994 67.6999 2.68457 68.8041 2.68457C68.8731 2.68457 69.0112 2.68457 69.0802 2.68457V5.03356C69.0112 5.03356 68.7351 4.96645 68.5971 4.96645C67.2169 4.96645 66.5957 5.77182 66.5957 7.1141V9.86578H64.1803V2.75168H64.1113Z" fill="white"/>
<path d="M73.9108 5.36908H74.1178V5.30197C74.1178 4.69794 73.6348 4.4966 73.0827 4.4966C72.3926 4.4966 71.6334 4.83217 71.0814 5.16774L70.2532 3.48989C70.8743 3.02009 72.1165 2.55029 73.3587 2.55029C75.36 2.55029 76.6022 3.62412 76.6022 5.4362V9.79861H74.3939V9.39593C74.3939 9.19459 74.3939 8.92613 74.3939 8.92613C73.9108 9.59727 73.0827 9.93284 72.2545 9.93284C70.8743 9.93284 69.9082 8.99325 69.9082 7.78519C69.7701 5.906 72.1165 5.36908 73.9108 5.36908ZM72.8756 8.18788C73.5658 8.18788 74.1178 7.51674 74.1178 6.91271V6.71137H73.9108C73.1517 6.71137 72.1855 6.91271 72.1855 7.51674C72.1855 7.91942 72.4616 8.18788 72.8756 8.18788Z" fill="white"/>
<path d="M78.3965 2.75142H80.7429V3.35544C80.7429 3.55678 80.7429 3.82524 80.7429 3.82524C81.0879 3.28833 81.778 2.61719 83.0892 2.61719C84.5385 2.61719 85.7117 3.28833 85.7117 5.23464V9.7984H83.2963V5.63732C83.2963 4.96618 83.0202 4.69772 82.4681 4.69772C81.364 4.69772 80.8809 5.57021 80.8809 6.57692V9.7984H78.4655V2.75142H78.3965Z" fill="white"/>
<path d="M90.4052 2.55034C91.0263 2.55034 91.8544 2.61745 92.3375 3.08725C92.3375 3.08725 92.3375 2.95302 92.3375 2.75168V0H94.7529V9.79866H92.4755V9.32886C92.4755 9.12752 92.4755 8.92618 92.4755 8.92618C91.9925 9.59732 91.2333 9.93289 90.4052 9.93289C88.4039 9.93289 87.1617 8.45638 87.1617 6.24161C87.0926 4.02685 88.4729 2.55034 90.4052 2.55034ZM90.9573 7.98658C91.7164 7.98658 92.4065 7.44967 92.4065 6.24161C92.4065 5.36913 91.9235 4.56376 90.9573 4.56376C90.1982 4.56376 89.508 5.16779 89.508 6.24161C89.5771 7.31544 90.1292 7.98658 90.9573 7.98658Z" fill="white"/>
<path d="M97.7894 0.939378H96.6162V0.0668945H99.9288V0.939378H98.8246V3.62394H97.7894V0.939378ZM100.343 0.0668945H101.309L101.93 1.47629C101.999 1.61052 102.068 1.81186 102.068 1.81186C102.068 1.81186 102.137 1.61052 102.206 1.47629L102.827 0.0668945H103.793L104.069 3.62394H103.034L102.965 2.28166C102.965 2.14743 102.965 2.0132 102.965 2.0132L102.551 3.01991H101.723L101.309 2.0132C101.309 2.0132 101.309 2.14743 101.309 2.28166L101.24 3.62394H100.067L100.343 0.0668945Z" fill="white"/>
</svg>
