<svg width="29" height="19" viewBox="0 0 29 19" fill="none" xmlns="http://www.w3.org/2000/svg">
<path fill-rule="evenodd" clip-rule="evenodd" d="M2.08699 0.25H26.9124C27.7172 0.25 28.3755 0.908292 28.3755 1.71304V1.87029C28.3755 2.67504 27.7172 3.33333 26.9124 3.33333H2.08699C1.28224 3.33333 0.625488 2.67504 0.625488 1.87029V1.71304C0.625488 0.908292 1.28224 0.25 2.08699 0.25ZM26.9124 7.95833H2.08699C1.28224 7.95833 0.625488 8.61663 0.625488 9.42138V9.57863C0.625488 10.3834 1.28224 11.0417 2.08699 11.0417H26.9124C27.7172 11.0417 28.3755 10.3834 28.3755 9.57863V9.42138C28.3755 8.61663 27.7172 7.95833 26.9124 7.95833ZM26.9124 15.6667H2.08699C1.28224 15.6667 0.625488 16.325 0.625488 17.1297V17.287C0.625488 18.0917 1.28224 18.75 2.08699 18.75H26.9124C27.7172 18.75 28.3755 18.0917 28.3755 17.287V17.1297C28.3755 16.325 27.7172 15.6667 26.9124 15.6667Z" fill="white"/>
</svg>
